<svg xmlns="http://www.w3.org/2000/svg" width="17.343" height="17.162" viewBox="0 0 17.343 17.162"><defs><style>.a{fill:#4bc8f9;}.b,.c{fill:#1e76e3;}.b{stroke:#1e76e3;stroke-width:0.5px;}</style></defs><g transform="translate(-235.602 -83.702)"><rect class="a" width="8" height="2" rx="1" transform="translate(242 88)"/><rect class="a" width="8" height="2" rx="1" transform="translate(242 91)"/><rect class="a" width="8" height="2" rx="1" transform="translate(242 94)"/><path class="b" d="M24.02,19.633a2.177,2.177,0,0,1,.422.633,1.8,1.8,0,0,1,.151.753v9.942a.721.721,0,0,1-.241.572.781.781,0,0,1-.572.241H12.211a.779.779,0,0,1-.572-.241.72.72,0,0,1-.241-.572v-13.8a.72.72,0,0,1,.241-.572.781.781,0,0,1,.572-.241h7.712a1.793,1.793,0,0,1,.753.181,2.267,2.267,0,0,1,.663.392l2.681,2.711Zm-.512,11.026v-8.8H19.923a.779.779,0,0,1-.572-.241.756.756,0,0,1-.241-.6V17.464H12.482V30.659H23.508ZM20.194,17.524v3.223h3.254a.553.553,0,0,0-.211-.331l-2.681-2.711a.987.987,0,0,0-.362-.181Z" transform="translate(228.102 67.602)"/><path class="c" d="M281.189,110.22h0l-.322-.186-.52-.3a5.047,5.047,0,0,0,.22-.6c.017-.068.038-.131.051-.2a.907.907,0,0,0-.529-1.053.819.819,0,0,0-1.07.085,3.823,3.823,0,0,0-.63.7c-.677.922-1.252,1.912-1.853,2.881l-.728,1.21h0c-.787,1.333-1.527,2.691-2.2,4.087a19.4,19.4,0,0,0-1.159,2.83,3.425,3.425,0,0,0-.08.415c-.017.161-.076.36.1.461s.317-.038.453-.135a5.828,5.828,0,0,0,.96-.922,43.5,43.5,0,0,0,3.808-5.225h0l.918-1.472c.393-.673.8-1.333,1.193-2.005.072-.127.148-.258.22-.385l.482.279-2.352,4.049a.547.547,0,0,0,.36.808.083.083,0,0,0,.089-.038l2.746-4.73A.416.416,0,0,0,281.189,110.22Z" transform="translate(-36.743 -19.725)"/></g></svg>