<svg xmlns="http://www.w3.org/2000/svg" viewBox="0 0 20 20" width="20" height="20">
	<style>
		tspan { white-space:pre }
		.shp0 { fill: none } 
		.shp1 { fill: none;stroke: #4bc8f9;stroke-width: 2.727 } 
		.shp2 { fill: #1e76e3 } 
		.shp3 { fill: none;stroke: #ffffff;stroke-width: 0.909 } 
	</style>
	<g id="Layer">
		<g id="Layer">
			<path id="Layer" class="shp0" d="M3.41 6.15C5.29 2.75 9.56 1.52 12.96 3.41C16.36 5.29 17.59 9.56 15.7 12.96C13.82 16.36 9.55 17.59 6.15 15.7C2.75 13.82 1.52 9.55 3.41 6.15Z" />
			<path id="Layer" class="shp1" d="M4.6 6.81C6.12 4.07 9.56 3.08 12.3 4.6C15.04 6.12 16.03 9.56 14.51 12.3C12.99 15.04 9.55 16.03 6.81 14.51C4.07 12.99 3.08 9.55 4.6 6.81Z" />
		</g>
		<g id="Layer">
			<path id="Layer" class="shp2" d="M2.12 3.25C3 1.65 5.01 1.07 6.61 1.96C8.21 2.85 8.79 4.86 7.9 6.46C7.01 8.06 5 8.63 3.4 7.75C1.8 6.86 1.23 4.85 2.12 3.25Z" />
			<path id="Layer" class="shp3" d="M2.51 3.47C3.28 2.09 5.01 1.59 6.39 2.36C7.77 3.12 8.27 4.86 7.5 6.24C6.74 7.62 5 8.11 3.62 7.35C2.25 6.58 1.75 4.85 2.51 3.47Z" />
		</g>
		<g id="Layer">
			<path id="Layer" class="shp2" d="M12.34 6.14C13.22 4.54 15.23 3.96 16.83 4.85C18.43 5.74 19.01 7.75 18.12 9.35C17.24 10.95 15.23 11.52 13.63 10.63C12.03 9.75 11.45 7.74 12.34 6.14Z" />
			<path id="Layer" class="shp3" d="M12.73 6.36C13.5 4.98 15.23 4.48 16.61 5.25C17.99 6.01 18.49 7.75 17.72 9.13C16.96 10.51 15.23 11 13.85 10.24C12.47 9.47 11.97 7.74 12.73 6.36Z" />
		</g>
		<g id="Layer">
			<path id="Layer" class="shp2" d="M3.98 13.66C4.87 12.06 6.88 11.48 8.48 12.37C10.08 13.26 10.66 15.27 9.77 16.87C8.88 18.47 6.87 19.04 5.27 18.16C3.67 17.27 3.1 15.26 3.98 13.66Z" />
			<path id="Layer" class="shp3" d="M4.38 13.88C5.15 12.5 6.88 12 8.26 12.77C9.64 13.53 10.14 15.27 9.37 16.65C8.61 18.03 6.87 18.52 5.49 17.76C4.11 16.99 3.62 15.26 4.38 13.88Z" />
		</g>
	</g>
</svg>