<svg xmlns="http://www.w3.org/2000/svg" viewBox="0 0 20 21" width="20" height="21">
	<style>
		tspan { white-space:pre }
		.shp0 { fill: #1e76e3 } 
		.shp1 { fill: #4bc8f9 } 
	</style>
	<g id="Layer">
		<path id="Layer" fill-rule="evenodd" class="shp0" d="M1.62 17.43C1.41 17.43 1.2 17.39 1 17.31C0.8 17.22 0.62 17.1 0.47 16.95C0.32 16.8 0.2 16.61 0.12 16.42C0.04 16.22 0 16 0 15.79L0.01 2.64C0.01 2.43 0.05 2.21 0.13 2.01C0.21 1.82 0.33 1.63 0.48 1.48C0.64 1.33 0.82 1.21 1.01 1.13C1.21 1.04 1.42 1 1.64 1L8.21 1L13.14 5.93L13.14 11.54C12.74 11.6 12.35 11.69 11.96 11.81C11.57 11.92 11.19 12.06 10.82 12.22C10.44 12.38 10.08 12.56 9.73 12.77C9.38 12.97 9.04 13.2 8.72 13.44C8.72 13.44 8.71 13.44 8.71 13.45C8.71 13.45 8.7 13.45 8.7 13.45C8.7 13.46 8.7 13.46 8.69 13.46C8.69 13.46 8.69 13.47 8.68 13.47C8.42 13.69 8.17 13.92 7.93 14.17C7.74 14.4 7.56 14.64 7.41 14.9C7.25 15.16 7.11 15.42 6.99 15.7C6.88 15.98 6.78 16.26 6.7 16.55C6.62 16.84 6.57 17.14 6.53 17.43L1.62 17.43ZM7.39 6.75L11.91 6.75L7.39 2.23L7.39 6.75Z" />
		<path id="Layer" class="shp1" d="M8.7 15.39C10.21 13.21 13.34 12.7 15.03 12.59L15.03 11.04L19.75 14.29L15.03 17.54L15.03 15.91C8.84 15.93 7.94 19.79 7.86 20.06C7.74 19.67 7.67 19.26 7.65 18.85C7.63 18.44 7.66 18.03 7.73 17.63C7.8 17.23 7.92 16.83 8.09 16.46C8.25 16.08 8.45 15.72 8.7 15.39L8.7 15.39Z" />
	</g>
</svg>