<svg xmlns="http://www.w3.org/2000/svg" width="25.486" height="28.197" viewBox="0 0 25.486 28.197"><defs><style>.a{fill:#fff;}</style></defs><path class="a" d="M2121.339,629.215a3.135,3.135,0,0,0-3.978,4.748l-3.16,5.189a4.051,4.051,0,0,1,.866.388h0a4.044,4.044,0,0,1,.75.58l3.218-5.159a3.135,3.135,0,0,0,2.3-5.747Z" transform="translate(-2097.374 -628.767)"/><g transform="translate(0 8.214)"><ellipse class="a" cx="1.885" cy="1.79" rx="1.885" ry="1.79" transform="matrix(0.515, -0.857, 0.857, 0.515, 13.182, 6.773)"/><path class="a" d="M2060.755,682.024a3.135,3.135,0,0,0-3.3-1.619l-1.579-2.97a6.028,6.028,0,0,0,1.587-7.658l-1.284,2.136a4.039,4.039,0,1,1-4.914-3.166l1.256-2.091a6.036,6.036,0,0,0-6.243,4.886h-3.574a3.135,3.135,0,1,0,0,1.971h3.525a6,6,0,0,0,7.913,4.863l1.57,2.954a3.135,3.135,0,1,0,5.036.694Z" transform="translate(-2036.599 -666.648)"/></g></svg>