<svg xmlns="http://www.w3.org/2000/svg" width="73.154" height="19.572" viewBox="0 0 73.154 19.572"><defs><style>.a{fill:#fff;}</style></defs><g transform="translate(-2036.599 -628.767)"><g transform="translate(2036.599 628.767)"><path class="a" d="M2119.155,629.078a2.176,2.176,0,0,0-2.761,3.3l-2.193,3.6a2.809,2.809,0,0,1,.6.269h0a2.807,2.807,0,0,1,.521.4l2.234-3.581a2.176,2.176,0,0,0,1.6-3.989Z" transform="translate(-2102.521 -628.767)"/><g transform="translate(0 5.702)"><ellipse class="a" cx="1.308" cy="1.243" rx="1.308" ry="1.243" transform="matrix(0.515, -0.857, 0.857, 0.515, 9.15, 4.701)"/><path class="a" d="M2053.366,677.32a2.176,2.176,0,0,0-2.287-1.124l-1.1-2.061a4.185,4.185,0,0,0,1.1-5.315l-.891,1.483a2.8,2.8,0,1,1-3.411-2.2l.872-1.451a4.19,4.19,0,0,0-4.333,3.391h-2.48a2.176,2.176,0,1,0,0,1.368h2.447a4.163,4.163,0,0,0,5.493,3.375l1.09,2.05a2.176,2.176,0,1,0,3.5.481Z" transform="translate(-2036.599 -666.648)"/></g></g><g transform="translate(2064.285 630.029)"><path class="a" d="M2231.486,637.281l.006,6.732-6.5.005-.005-6.732-4.437,0,.014,17.023,4.436,0-.005-6.861,6.5-.005.006,6.861,4.436,0-.014-17.023Z" transform="translate(-2220.55 -637.258)"/><path class="a" d="M2423.878,654.179l8.666-.007c4.1,0,6.189-1.656,6.186-4.6,0-2.063-1.292-3.636-3.9-3.995v-.026a3.7,3.7,0,0,0,3.453-3.82c0-2.966-1.938-4.564-6.142-4.586l-8.279.007Zm4.273-10.063,0-3.714,3.2,0q2.4,0,2.4,1.855t-2.4,1.859Zm.006,6.938,0-3.766,3.637,0c1.6,0,2.4.669,2.4,1.855,0,1.238-.8,1.909-2.4,1.911Z" transform="translate(-2393.263 -637.149)"/><path class="a" d="M2357.594,637.215l-6.345.005.008,10.163c0,2.45,1.034,3.636,3.15,3.634,2.141,0,3.2-1.189,3.2-3.639Z" transform="translate(-2331.578 -637.205)"/><path class="a" d="M2394.466,637.182l.008,10.085c0,3.889-1.69,6.2-5.012,6.942l6.665-.005.248-17.024Z" transform="translate(-2364.039 -637.175)"/><path class="a" d="M2320.174,647.359l-.008-10.085h-.255l.007,17.023,5.29,0C2321.892,653.56,2320.177,651.249,2320.174,647.359Z" transform="translate(-2304.956 -637.255)"/></g></g></svg>