<svg xmlns="http://www.w3.org/2000/svg" viewBox="0 0 20 20" width="20" height="20">
	<style>
		tspan { white-space:pre }
		.shp0 { fill: #1e76e3;stroke: #1e76e3;stroke-width: 0.67 } 
		.txt1 { font-size: 8px;fill: #4bc8f9;font-family: "Ariana Pro";font-weight: 800 } 
	</style>
	<g id="Layer">
		<path id="Layer" fill-rule="evenodd" class="shp0" d="M18.39 4.42C18.45 4.47 18.51 4.53 18.57 4.6C18.63 4.66 18.68 4.72 18.73 4.79C18.78 4.85 18.83 4.92 18.87 4.99C18.91 5.06 18.95 5.13 18.99 5.21C19.03 5.28 19.06 5.36 19.09 5.43C19.12 5.51 19.14 5.59 19.16 5.67C19.18 5.75 19.19 5.83 19.2 5.91C19.21 5.99 19.21 6.07 19.21 6.15L19.21 18.58C19.21 18.64 19.21 18.71 19.19 18.78C19.18 18.84 19.16 18.91 19.13 18.97C19.1 19.03 19.06 19.09 19.02 19.14C18.97 19.2 18.92 19.25 18.86 19.29C18.81 19.34 18.75 19.38 18.69 19.42C18.63 19.46 18.56 19.49 18.49 19.52C18.42 19.54 18.35 19.56 18.27 19.57C18.2 19.59 18.12 19.59 18.05 19.59L1.52 19.59C1.44 19.59 1.37 19.59 1.29 19.57C1.22 19.56 1.14 19.54 1.07 19.52C1 19.49 0.94 19.46 0.87 19.42C0.81 19.38 0.75 19.34 0.7 19.29C0.64 19.25 0.59 19.2 0.55 19.14C0.5 19.09 0.47 19.03 0.44 18.97C0.41 18.91 0.39 18.84 0.37 18.78C0.36 18.71 0.35 18.64 0.36 18.58L0.36 1.33C0.35 1.26 0.36 1.19 0.37 1.13C0.39 1.06 0.41 1 0.44 0.93C0.47 0.87 0.5 0.81 0.55 0.76C0.59 0.71 0.64 0.66 0.7 0.61C0.75 0.56 0.81 0.52 0.87 0.48C0.94 0.44 1 0.41 1.07 0.39C1.14 0.36 1.22 0.34 1.29 0.33C1.37 0.32 1.44 0.31 1.52 0.31L12.54 0.31C12.63 0.31 12.72 0.32 12.81 0.33C12.91 0.34 13 0.35 13.09 0.37C13.18 0.39 13.27 0.41 13.35 0.44C13.44 0.47 13.53 0.5 13.61 0.54C13.7 0.56 13.78 0.6 13.87 0.63C13.95 0.67 14.03 0.7 14.11 0.75C14.19 0.79 14.27 0.83 14.34 0.88C14.42 0.92 14.49 0.97 14.56 1.03L18.39 4.41L18.39 4.42ZM17.66 18.2L17.66 7.2L12.54 7.2C12.46 7.2 12.38 7.19 12.31 7.18C12.23 7.17 12.16 7.15 12.09 7.12C12.02 7.1 11.95 7.06 11.89 7.03C11.83 6.99 11.77 6.95 11.72 6.9C11.66 6.85 11.61 6.8 11.56 6.74C11.52 6.68 11.48 6.62 11.45 6.56C11.42 6.49 11.4 6.42 11.39 6.36C11.37 6.29 11.37 6.22 11.37 6.15L11.37 1.7L1.91 1.7L1.91 18.2L17.66 18.2ZM12.92 5.81L17.57 5.81C17.56 5.77 17.55 5.73 17.53 5.69C17.51 5.65 17.49 5.61 17.46 5.58C17.44 5.54 17.41 5.51 17.38 5.48C17.34 5.45 17.31 5.42 17.27 5.39L13.44 2.01C13.4 1.98 13.36 1.96 13.32 1.93C13.28 1.91 13.24 1.89 13.19 1.87C13.15 1.85 13.11 1.83 13.06 1.82C13.02 1.8 12.97 1.79 12.92 1.78L12.92 5.81Z" />
		<text id="$" style="transform: matrix(1.429,0,0,1.25,6.071,15.313)" >
			<tspan x="0" y="0" class="txt1">$</tspan>
		</text>
	</g>
</svg>