<svg xmlns="http://www.w3.org/2000/svg" viewBox="0 0 21 20" width="21" height="20">
	<style>
		tspan { white-space:pre }
		.shp0 { fill: #1e76e3 } 
		.shp1 { fill: #4bc8f9 } 
	</style>
	<g id="Layer">
		<path id="Layer" fill-rule="evenodd" class="shp0" d="M19.89 17.44C19.95 17.44 20.02 17.46 20.08 17.49C20.13 17.52 20.19 17.57 20.23 17.62C20.28 17.68 20.31 17.75 20.34 17.82C20.36 17.9 20.37 17.98 20.37 18.06L20.37 19.31C20.37 19.39 20.36 19.47 20.34 19.54C20.31 19.62 20.28 19.69 20.23 19.75C20.18 19.8 20.13 19.85 20.07 19.88C20.01 19.91 19.95 19.93 19.88 19.93L15.46 19.93L15.46 4.98L12.51 4.98L12.51 2.49L15.96 2.49C16.15 2.5 16.35 2.55 16.53 2.65C16.71 2.75 16.87 2.89 17.01 3.07C17.14 3.25 17.25 3.46 17.32 3.69C17.4 3.92 17.43 4.17 17.43 4.42L17.43 17.44L19.89 17.44ZM10.31 0.04C10.46 0 10.61 -0.01 10.76 0.04C10.91 0.08 11.05 0.16 11.16 0.28C11.28 0.41 11.38 0.56 11.44 0.73C11.5 0.91 11.53 1.1 11.53 1.29L11.53 19.93L1.21 19.93C1.14 19.93 1.08 19.91 1.02 19.88C0.96 19.85 0.9 19.8 0.86 19.75C0.81 19.69 0.78 19.62 0.75 19.54C0.73 19.47 0.71 19.39 0.71 19.31L0.71 18.06C0.71 17.98 0.73 17.9 0.75 17.82C0.78 17.75 0.81 17.68 0.86 17.62C0.9 17.56 0.96 17.52 1.02 17.48C1.08 17.45 1.14 17.44 1.21 17.44L3.66 17.44L3.66 3.23C3.66 3.09 3.68 2.95 3.71 2.81C3.75 2.68 3.8 2.55 3.87 2.44C3.93 2.33 4.02 2.23 4.11 2.15C4.2 2.07 4.3 2.01 4.41 1.98L10.31 0.04ZM9.56 9.96C9.56 9.28 9.23 8.72 8.83 8.72C8.42 8.72 8.09 9.28 8.09 9.96C8.09 10.65 8.42 11.21 8.83 11.21C9.23 11.21 9.56 10.65 9.56 9.96Z" />
		<path id="Layer" class="shp1" d="M19.89 19.93L15.46 19.93L15.46 4.98L12.51 4.98L12.51 2.49L15.96 2.49C16.15 2.5 16.35 2.55 16.53 2.65C16.71 2.75 16.87 2.89 17.01 3.07C17.14 3.25 17.25 3.46 17.32 3.69C17.4 3.92 17.43 4.17 17.43 4.42L17.43 17.44L19.89 17.44C19.95 17.44 20.02 17.45 20.08 17.49C20.14 17.52 20.19 17.56 20.24 17.62C20.28 17.68 20.32 17.75 20.34 17.82C20.37 17.9 20.38 17.98 20.38 18.06L20.38 19.31C20.38 19.39 20.37 19.47 20.34 19.54C20.32 19.62 20.28 19.69 20.24 19.75C20.19 19.8 20.14 19.85 20.08 19.88C20.02 19.91 19.95 19.93 19.89 19.93L19.89 19.93Z" />
	</g>
</svg>