<svg xmlns="http://www.w3.org/2000/svg" width="13" height="17.333" viewBox="0 0 13 17.333"><defs><style>.a{fill:#c11c26;}</style></defs><path class="a" d="M6.158,8.67A3.266,3.266,0,0,1,6.09,7.082C6.375,7.082,6.348,8.332,6.158,8.67Zm-.058,1.6a15.621,15.621,0,0,1-.961,2.123,12.466,12.466,0,0,1,2.129-.741A4.385,4.385,0,0,1,6.1,10.268ZM2.915,14.493c0,.027.447-.183,1.182-1.361A4.679,4.679,0,0,0,2.915,14.493ZM8.4,5.417H13v11.1a.811.811,0,0,1-.812.813H.813A.811.811,0,0,1,0,16.521V.813A.811.811,0,0,1,.813,0H7.583V4.6A.815.815,0,0,0,8.4,5.417Zm-.271,5.816A3.4,3.4,0,0,1,6.679,9.411a4.866,4.866,0,0,0,.21-2.173.848.848,0,0,0-1.618-.23,5.629,5.629,0,0,0,.274,2.607,31.79,31.79,0,0,1-1.381,2.9s0,0-.007,0c-.917.471-2.492,1.507-1.845,2.3a1.052,1.052,0,0,0,.728.339c.606,0,1.209-.609,2.068-2.092a19.3,19.3,0,0,1,2.674-.785,5.131,5.131,0,0,0,2.167.66.876.876,0,0,0,.667-1.469c-.471-.46-1.838-.328-2.492-.244Zm4.638-7.678L9.445.237A.812.812,0,0,0,8.87,0h-.2V4.333H13V4.127A.81.81,0,0,0,12.763,3.555ZM10.254,12.2c.139-.091-.085-.4-1.449-.3C10.061,12.428,10.254,12.2,10.254,12.2Z"/></svg>