<svg xmlns="http://www.w3.org/2000/svg" viewBox="0 0 20 20" width="20" height="20">
	<style>
		tspan { white-space:pre }
		.shp0 { fill: #1e76e3 } 
		.shp1 { fill: #4bc8f9 } 
	</style>
	<g id="Layer">
		<path id="Layer" fill-rule="evenodd" class="shp0" d="M15.67 5.79C15.83 5.88 16.01 5.94 16.19 5.96C16.37 5.98 16.55 5.96 16.72 5.9C16.9 5.85 17.06 5.76 17.2 5.64L18.93 7.9C19.05 8.04 19.13 8.22 19.18 8.4C19.24 8.58 19.25 8.77 19.23 8.96C19.22 9.15 19.16 9.34 19.07 9.5C18.99 9.67 18.87 9.82 18.73 9.94L8.01 19.07C7.87 19.19 7.71 19.28 7.54 19.34C7.36 19.39 7.18 19.41 7 19.39C6.82 19.37 6.65 19.31 6.49 19.22C6.33 19.13 6.19 19.01 6.07 18.86L4.34 16.6C4.48 16.48 4.6 16.33 4.68 16.17C4.77 16 4.82 15.82 4.84 15.63C4.86 15.44 4.85 15.24 4.79 15.06C4.74 14.88 4.66 14.71 4.54 14.56C4.43 14.41 4.29 14.29 4.13 14.2C3.97 14.11 3.8 14.05 3.62 14.03C3.44 14.01 3.25 14.03 3.08 14.08C2.91 14.14 2.74 14.23 2.6 14.35L0.87 12.09C0.75 11.94 0.67 11.77 0.62 11.59C0.57 11.41 0.55 11.21 0.57 11.02C0.59 10.83 0.64 10.65 0.73 10.48C0.81 10.32 0.93 10.17 1.07 10.05L11.79 0.91C11.93 0.79 12.09 0.7 12.26 0.65C12.44 0.6 12.62 0.58 12.8 0.6C12.98 0.62 13.15 0.67 13.31 0.77C13.47 0.86 13.61 0.98 13.73 1.13L15.46 3.38C15.32 3.5 15.21 3.65 15.12 3.82C15.03 3.99 14.98 4.17 14.96 4.36C14.94 4.55 14.96 4.74 15.01 4.92C15.06 5.11 15.15 5.28 15.26 5.43C15.37 5.57 15.51 5.7 15.67 5.79ZM12.31 3.9C12.25 3.82 12.18 3.76 12.1 3.71C12.02 3.67 11.93 3.64 11.84 3.63C11.75 3.62 11.66 3.63 11.58 3.66C11.49 3.68 11.41 3.73 11.34 3.79L3.84 10.18C3.77 10.24 3.71 10.32 3.66 10.4C3.62 10.48 3.59 10.58 3.58 10.67C3.58 10.76 3.58 10.86 3.61 10.95C3.63 11.04 3.68 11.13 3.73 11.2L7.49 16.09C7.55 16.16 7.62 16.22 7.7 16.27C7.78 16.31 7.87 16.34 7.96 16.35C8.05 16.36 8.14 16.35 8.22 16.33C8.31 16.3 8.39 16.25 8.46 16.2L15.96 9.8C16.03 9.74 16.09 9.67 16.14 9.58C16.18 9.5 16.21 9.41 16.22 9.31C16.22 9.22 16.22 9.12 16.19 9.03C16.16 8.94 16.12 8.85 16.07 8.78L12.31 3.9Z" />
		<path id="Layer" class="shp1" d="M5.26 10.32L11.51 4.98L14.89 9.37L8.64 14.71L5.26 10.32Z" />
	</g>
</svg>