<svg xmlns="http://www.w3.org/2000/svg" width="9.971" height="14.075" viewBox="0 0 9.971 14.075"><defs><style>.a{fill:#7086a2;stroke:#7086a2;stroke-width:0.5px;}</style></defs><g transform="translate(-1272.207 -223.108)"><path class="a" d="M3.044,4.816l-.262.262a.282.282,0,0,1-.4,0l-2.3-2.3a.283.283,0,0,1,0-.4l2.3-2.3a.282.282,0,0,1,.4,0l.262.262a.284.284,0,0,1,0,.405L1.615,2.108H7a.283.283,0,0,1,.284.284V2.77A.283.283,0,0,1,7,3.054H1.615L3.039,4.411A.282.282,0,0,1,3.044,4.816Z" transform="translate(1277.618 223.358) rotate(90)"/><path class="a" d="M3.044,4.816l-.262.262a.282.282,0,0,1-.4,0l-2.3-2.3a.283.283,0,0,1,0-.4l2.3-2.3a.282.282,0,0,1,.4,0l.262.262a.284.284,0,0,1,0,.405L1.615,2.108H7a.283.283,0,0,1,.284.284V2.77A.283.283,0,0,1,7,3.054H1.615L3.039,4.411A.282.282,0,0,1,3.044,4.816Z" transform="translate(1276.766 236.933) rotate(-90)"/></g></svg>