<svg xmlns="http://www.w3.org/2000/svg" xmlns:xlink="http://www.w3.org/1999/xlink" width="91.37" height="91.37" viewBox="0 0 91.37 91.37"><defs><style>.a{fill:url(#a);}.b{fill:#fff;}</style><linearGradient id="a" x1="0.122" y1="0.736" x2="0.881" y2="0.168" gradientUnits="objectBoundingBox"><stop offset="0" stop-color="#1e75e1"/><stop offset="1" stop-color="#01a4cc"/></linearGradient></defs><path class="a" d="M45.685,0A45.685,45.685,0,1,0,91.37,45.685,45.736,45.736,0,0,0,45.685,0Z"/><g transform="translate(23.963 13.244)"><path class="b" d="M37.641,51.58H5a5.005,5.005,0,0,1-5-5V5A5.005,5.005,0,0,1,5,0H37.641a5.005,5.005,0,0,1,5,5V46.58A5.005,5.005,0,0,1,37.641,51.58ZM5.506,42.78a.376.376,0,0,0-.267.111l-.536.535a.379.379,0,0,0,0,.535l2.459,2.459a.378.378,0,0,0,.535,0l4.351-4.351a.378.378,0,0,0,0-.535L11.512,41a.378.378,0,0,0-.535,0L7.43,44.546,5.774,42.89A.376.376,0,0,0,5.506,42.78Zm9.384.628a1.01,1.01,0,1,0,0,2.02H36.1a1.01,1.01,0,0,0,0-2.02Zm-9.384-9.35a.376.376,0,0,0-.267.111L4.7,34.7a.379.379,0,0,0,0,.535L7.162,37.7a.378.378,0,0,0,.535,0l4.351-4.351a.378.378,0,0,0,0-.535l-.535-.535a.378.378,0,0,0-.535,0L7.43,35.825,5.774,34.169A.376.376,0,0,0,5.506,34.058Zm9.385.358a1.01,1.01,0,1,0,0,2.02H36.1a1.01,1.01,0,0,0,0-2.02Zm-9.385-9.08a.376.376,0,0,0-.267.111l-.536.535a.38.38,0,0,0,0,.535l2.459,2.459a.378.378,0,0,0,.535,0l4.351-4.351a.378.378,0,0,0,0-.535l-.535-.535a.376.376,0,0,0-.535,0L7.43,27.1,5.774,25.447A.376.376,0,0,0,5.506,25.336Zm9.386.089a1.01,1.01,0,1,0,0,2.02H36.1a1.01,1.01,0,0,0,0-2.02Zm3.794-13.784a.427.427,0,0,0-.1.01,4.466,4.466,0,0,0-3.116,1.961,3.659,3.659,0,0,0-.364.664.334.334,0,0,0,.015.3,6.243,6.243,0,0,0,.428.633,6.077,6.077,0,0,0,.727.822c.223.222.5.447.7.611l.017.014,0,0,.006.005a7.211,7.211,0,0,0,8.6,0,6.921,6.921,0,0,0,.727-.633,7.475,7.475,0,0,0,.727-.822,5.853,5.853,0,0,0,.427-.633.268.268,0,0,0,.047-.3,3.339,3.339,0,0,0-.364-.664,4.521,4.521,0,0,0-3.115-1.961.611.611,0,0,0-.079,0,.622.622,0,0,0-.38.115,3.86,3.86,0,0,1-4.555,0A.611.611,0,0,0,18.687,11.641Zm2.635-7.5A3.622,3.622,0,1,0,24.944,7.76,3.626,3.626,0,0,0,21.322,4.138Z" transform="translate(0.402 6.651)"/></g></svg>