<svg xmlns="http://www.w3.org/2000/svg" width="102" height="102" viewBox="0 0 102 102"><defs><style>.a,.e{fill:#1e76e2;}.a{stroke:#1e76e2;}.b{fill:#fff;}.c{fill:#10bce6;}.d{fill:#ffb531;}.f{fill:#ffd54d;}.g{fill:#ffc919;}.h{stroke:none;}.i{fill:none;}</style></defs><g transform="translate(-336 -321.203)"><g class="a" transform="translate(336 321.203)"><rect class="h" width="102" height="102" rx="15"/><rect class="i" x="0.5" y="0.5" width="101" height="101" rx="14.5"/></g><g transform="translate(352.203 351.086)"><path class="b" d="M4.35,0H65.244a4.35,4.35,0,0,1,4.35,4.35V43.5a4.35,4.35,0,0,1-4.35,4.35H4.35A4.35,4.35,0,0,1,0,43.5V4.35A4.35,4.35,0,0,1,4.35,0Zm0,0"/><g transform="translate(34.797 8.699)"><path class="c" d="M258.175,64h26.1a2.175,2.175,0,0,1,0,4.35h-26.1a2.175,2.175,0,1,1,0-4.35Zm0,0" transform="translate(-256 -64)"/><path class="c" d="M258.175,128h4.35a2.175,2.175,0,0,1,0,4.35h-4.35a2.175,2.175,0,1,1,0-4.35Zm0,0" transform="translate(-256 -119.301)"/><path class="c" d="M354.175,128h13.049a2.175,2.175,0,0,1,0,4.35H354.175a2.175,2.175,0,1,1,0-4.35Zm0,0" transform="translate(-338.951 -119.301)"/><path class="c" d="M258.175,192h4.35a2.175,2.175,0,1,1,0,4.35h-4.35a2.175,2.175,0,1,1,0-4.35Zm0,0" transform="translate(-256 -174.602)"/><path class="c" d="M354.175,192h13.049a2.175,2.175,0,1,1,0,4.35H354.175a2.175,2.175,0,1,1,0-4.35Zm0,0" transform="translate(-338.951 -174.602)"/></g><path class="d" d="M384,256h4.35v4.35H384Zm0,0" transform="translate(-331.805 -221.203)"/><path class="d" d="M320,256h4.35v4.35H320Zm0,0" transform="translate(-276.504 -221.203)"/><path class="d" d="M256,256h4.35v4.35H256Zm0,0" transform="translate(-221.203 -221.203)"/><path class="e" d="M11.613-12.978a6.636,6.636,0,0,0,6.636-6.636,6.636,6.636,0,0,0-6.636-6.636,6.636,6.636,0,0,0-6.636,6.636A6.636,6.636,0,0,0,11.613-12.978Zm4.645,1.659h-.866a9.035,9.035,0,0,1-3.78.83,9.053,9.053,0,0,1-3.78-.83H6.968A6.97,6.97,0,0,0,0-4.35v2.157A2.489,2.489,0,0,0,2.489.295h18.25a2.489,2.489,0,0,0,2.489-2.489V-4.35A6.97,6.97,0,0,0,16.259-11.318Z" transform="translate(5.709 36.677)"/></g><g transform="translate(231.651 333.302)"><path class="f" d="M137.337,2.782A16.112,16.112,0,1,0,126,32.066l2.268,3.5,2.385-3.515a16.111,16.111,0,0,0,6.682-29.27Z" transform="translate(0 0)"/><path class="g" d="M246.829,2.783A16.058,16.058,0,0,0,235.483.166a16.114,16.114,0,0,1,.047,31.886l-.023.034,2.255,3.481,2.385-3.515a16.111,16.111,0,0,0,6.682-29.27Z" transform="translate(-109.493 -0.001)"/><g transform="translate(119.644 8.334)"><path class="b" d="M362.535,140.26a3.268,3.268,0,0,1-2.317-.958l-3.923-3.923a1.457,1.457,0,1,1,2.061-2.061l3.923,3.923a.363.363,0,0,0,.512,0l10.11-10.11a1.457,1.457,0,1,1,2.061,2.061l-10.11,10.11A3.268,3.268,0,0,1,362.535,140.26Z" transform="translate(-355.867 -126.703)"/></g></g></g></svg>