<svg xmlns="http://www.w3.org/2000/svg" width="102" height="102" viewBox="0 0 102 102"><defs><style>.a{fill:#1e76e2;stroke:#1e76e2;}.b{fill:#5399ff;}.c{fill:#ff5959;}.d{fill:#10bce6;}.e{fill:#ffb531;}.f{fill:#cbe0ff;}.g{fill:#fff;}.h{stroke:none;}.i{fill:none;}</style></defs><g transform="translate(-336 -321.203)"><g class="a" transform="translate(336 321.203)"><rect class="h" width="102" height="102" rx="15"/><rect class="i" x="0.5" y="0.5" width="101" height="101" rx="14.5"/></g><g transform="translate(366 342.752)"><path class="b" d="M5,0H51a5,5,0,0,1,5,5V62a5,5,0,0,1-5,5H5a5,5,0,0,1-5-5V5A5,5,0,0,1,5,0Z" transform="translate(0 0.451)"/><path class="c" d="M5,0H51a5,5,0,0,1,5,5V7a0,0,0,0,1,0,0H0A0,0,0,0,1,0,7V5A5,5,0,0,1,5,0Z" transform="translate(0 0.451)"/><g transform="translate(14.705 18.997)"><path class="d" d="M35.152,9.3h24.2a1.152,1.152,0,1,0,0-2.3h-24.2a1.152,1.152,0,0,0,0,2.3Z" transform="translate(-34 -7)"/><path class="d" d="M49.152,14.3H57.22a1.152,1.152,0,1,0,0-2.3H49.152a1.152,1.152,0,1,0,0,2.3Z" transform="translate(-48 -6.238)"/></g><path class="e" d="M190.523,53.556a2.788,2.788,0,0,0-3.72-3.72,2.787,2.787,0,0,0-5.257,0,2.788,2.788,0,0,0-3.711,3.72,2.787,2.787,0,0,0,0,5.256,2.788,2.788,0,0,0,3.72,3.711,2.787,2.787,0,0,0,5.257,0,2.788,2.788,0,0,0,3.711-3.72,2.788,2.788,0,0,0,0-5.247Zm0,0" transform="translate(-172.415 -0.493)"/><g transform="translate(14.705 33.951)"><path class="d" d="M59.355,9.3h-24.2a1.152,1.152,0,1,1,0-2.3h24.2a1.152,1.152,0,0,1,0,2.3Z" transform="translate(-34 -7)"/><path class="d" d="M57.22,14.3H49.152a1.152,1.152,0,1,1,0-2.3H57.22a1.152,1.152,0,1,1,0,2.3Z" transform="translate(-31.865 -6.238)"/></g></g><g transform="translate(360 338.752)"><path class="f" d="M5,0H51a5,5,0,0,1,5,5V62a5,5,0,0,1-5,5H5a5,5,0,0,1-5-5V5A5,5,0,0,1,5,0Z" transform="translate(0 0.451)"/><path class="c" d="M5,0H51a5,5,0,0,1,5,5V7a0,0,0,0,1,0,0H0A0,0,0,0,1,0,7V5A5,5,0,0,1,5,0Z" transform="translate(0 0.451)"/><g transform="translate(14.705 18.997)"><path class="d" d="M35.152,9.3h24.2a1.152,1.152,0,1,0,0-2.3h-24.2a1.152,1.152,0,0,0,0,2.3Z" transform="translate(-34 -7)"/><path class="d" d="M49.152,14.3H57.22a1.152,1.152,0,1,0,0-2.3H49.152a1.152,1.152,0,1,0,0,2.3Z" transform="translate(-48 -6.238)"/></g><path class="e" d="M190.523,53.556a2.788,2.788,0,0,0-3.72-3.72,2.787,2.787,0,0,0-5.257,0,2.788,2.788,0,0,0-3.711,3.72,2.787,2.787,0,0,0,0,5.256,2.788,2.788,0,0,0,3.72,3.711,2.787,2.787,0,0,0,5.257,0,2.788,2.788,0,0,0,3.711-3.72,2.788,2.788,0,0,0,0-5.247Zm0,0" transform="translate(-172.415 -0.493)"/><g transform="translate(14.705 33.951)"><path class="d" d="M59.355,9.3h-24.2a1.152,1.152,0,1,1,0-2.3h24.2a1.152,1.152,0,0,1,0,2.3Z" transform="translate(-34 -7)"/><path class="d" d="M57.22,14.3H49.152a1.152,1.152,0,1,1,0-2.3H57.22a1.152,1.152,0,1,1,0,2.3Z" transform="translate(-31.865 -6.238)"/></g></g><g transform="translate(352 333.752)"><rect class="g" width="56" height="67" rx="5" transform="translate(0 0.451)"/><path class="c" d="M5,0H51a5,5,0,0,1,5,5V7a0,0,0,0,1,0,0H0A0,0,0,0,1,0,7V5A5,5,0,0,1,5,0Z" transform="translate(0 0.451)"/><g transform="translate(14.705 18.997)"><path class="d" d="M35.152,9.3h24.2a1.152,1.152,0,1,0,0-2.3h-24.2a1.152,1.152,0,0,0,0,2.3Z" transform="translate(-34 -7)"/><path class="d" d="M49.152,14.3H57.22a1.152,1.152,0,1,0,0-2.3H49.152a1.152,1.152,0,1,0,0,2.3Z" transform="translate(-48 -6.238)"/></g><path class="e" d="M190.523,53.556a2.788,2.788,0,0,0-3.72-3.72,2.787,2.787,0,0,0-5.257,0,2.788,2.788,0,0,0-3.711,3.72,2.787,2.787,0,0,0,0,5.256,2.788,2.788,0,0,0,3.72,3.711,2.787,2.787,0,0,0,5.257,0,2.788,2.788,0,0,0,3.711-3.72,2.788,2.788,0,0,0,0-5.247Zm0,0" transform="translate(-172.415 -0.493)"/><g transform="translate(14.705 33.951)"><path class="d" d="M59.355,9.3h-24.2a1.152,1.152,0,1,1,0-2.3h24.2a1.152,1.152,0,0,1,0,2.3Z" transform="translate(-34 -7)"/><path class="d" d="M57.22,14.3H49.152a1.152,1.152,0,1,1,0-2.3H57.22a1.152,1.152,0,1,1,0,2.3Z" transform="translate(-31.865 -6.238)"/></g></g></g></svg>