<svg xmlns="http://www.w3.org/2000/svg" width="102" height="102" viewBox="0 0 102 102"><defs><style>.a{fill:#1e76e2;stroke:#1e76e2;}.b{fill:#fff;}.c{fill:#ff5959;}.d{fill:#10bce6;}.e{fill:#fa502e;}.f{fill:#ffb531;}.g{fill:#ffd54d;}.h{fill:#fdda50;}.i{stroke:none;}.j{fill:none;}</style></defs><g transform="translate(-336 -321.203)"><g class="a" transform="translate(336 321.203)"><rect class="i" width="102" height="102" rx="15"/><rect class="j" x="0.5" y="0.5" width="101" height="101" rx="14.5"/></g><g transform="translate(-8 -0.148)"><g transform="translate(366 341.604)"><rect class="b" width="56" height="67" rx="5" transform="translate(0 0.451)"/><path class="c" d="M5,0H51a5,5,0,0,1,5,5V7a0,0,0,0,1,0,0H0A0,0,0,0,1,0,7V5A5,5,0,0,1,5,0Z" transform="translate(0 0.451)"/><g transform="translate(14.705 39.997)"><path class="d" d="M35.152,9.3h24.2a1.152,1.152,0,1,0,0-2.3h-24.2a1.152,1.152,0,0,0,0,2.3Z" transform="translate(-34 -7)"/><path class="d" d="M49.152,14.3H57.22a1.152,1.152,0,1,0,0-2.3H49.152a1.152,1.152,0,1,0,0,2.3Z" transform="translate(-48 -6.238)"/></g><g transform="translate(14.705 51.997)"><path class="d" d="M35.152,9.3h24.2a1.152,1.152,0,1,0,0-2.3h-24.2a1.152,1.152,0,0,0,0,2.3Z" transform="translate(-34 -7)"/><path class="d" d="M49.152,14.3H57.22a1.152,1.152,0,1,0,0-2.3H49.152a1.152,1.152,0,1,0,0,2.3Z" transform="translate(-48 -6.238)"/></g></g><g transform="translate(295.527 328.536)"><g transform="translate(82.361 26.142)"><path class="c" d="M89.282,265.686l-6.921,21.048,5.937-1.647,3.726,4.873,6.788-20.743Z" transform="translate(-82.361 -265.646)"/><path class="e" d="M271.811,265.275l-9.554,3.481,6.832,20.832,3.725-4.871,5.938,1.647Z" transform="translate(-244.529 -265.275)"/></g><path class="c" d="M271.811,265.275l-9.554,3.481,6.832,20.832,3.725-4.871,5.938,1.647Z" transform="translate(-162.168 -239.133)"/><path class="f" d="M124.362,16.156l-1.872-2.841.647-3.344-2.822-1.906-.684-3.334L116.3,4.048l-1.906-2.822-3.344.647L108.206,0l-2.841,1.872-3.344-.647-1.906,2.822-3.334.684L96.1,8.066,93.274,9.971l.647,3.344-1.872,2.841L93.921,19l-.647,3.344L96.1,24.247l.684,3.334,3.334.684,1.906,2.822,3.344-.647,2.841,1.872,2.841-1.872,3.344.647,1.906-2.822,3.334-.684.684-3.334,2.822-1.906L122.49,19Z" transform="translate(-8.733)"/><path class="g" d="M173.816,72.782a8.984,8.984,0,1,0,8.984,8.984A8.994,8.994,0,0,0,173.816,72.782Z" transform="translate(-74.344 -65.61)"/><path class="h" d="M263.756,80.542Z" transform="translate(-155.3 -64.385)"/></g></g></g></svg>