<svg xmlns="http://www.w3.org/2000/svg" viewBox="0 0 586 448" width="586" height="448">
	<style>
		tspan { white-space:pre }
		.shp0 { opacity: 0.149;fill: #000000 } 
		.shp1 { fill: #d9eaff } 
		.shp2 { fill: #ffffff;stroke: #d8fcf5;stroke-linecap:round;stroke-linejoin:round;stroke-width: 2.529 } 
		.shp3 { fill: #1e76e2 } 
		.shp4 { fill: #ffffff } 
		.shp5 { fill: #c8dbfb } 
		.shp6 { opacity: 0.51;fill: #ffffff } 
		.shp7 { fill: #99c5fc } 
		.shp8 { fill: none;stroke: #f7931e;stroke-linecap:round;stroke-linejoin:round;stroke-width: 3.035 } 
		.shp9 { fill: #00ad9f } 
		.shp10 { fill: none;stroke: #ffffff;stroke-linecap:round;stroke-linejoin:round;stroke-width: 1.054 } 
		.shp11 { fill: #f7931e } 
		.shp12 { fill: none;stroke: #ffffff;stroke-linecap:round;stroke-linejoin:round;stroke-width: 2.108 } 
		.shp13 { fill: #ffdb9c } 
		.shp14 { fill: #ffae00 } 
		.shp15 { fill: #222b54 } 
		.shp16 { fill: #f4a086 } 
		.shp17 { fill: #0a3c5f } 
		.shp18 { fill: #66bcd5 } 
		.shp19 { fill: #f7b690 } 
		.shp20 { fill: #18898d } 
		.shp21 { fill: #8e682c } 
		.shp22 { fill: #60cbd6 } 
		.shp23 { fill: #3c79a6 } 
	</style>
	<g id="Layer">
		<g id="Layer">
			<g id="Layer">
				<path id="Layer" fill-rule="evenodd" class="shp0" d="M324.19 338.26C431.11 338.26 517.79 334.4 517.79 329.63C517.79 324.87 431.11 321.01 324.19 321.01C217.27 321.01 130.6 324.87 130.6 329.63C130.6 334.4 217.27 338.26 324.19 338.26Z" />
				<g id="Layer">
					<path id="Layer" fill-rule="evenodd" class="shp1" d="M158.93 36.88L491.62 37.02C495.18 37.39 498.63 38.42 501.81 40.04C505 41.66 507.86 43.86 510.25 46.51C512.65 49.16 514.53 52.23 515.82 55.57C517.11 58.91 517.78 62.45 517.79 66.02L517.79 300.56C517.78 304.32 517.04 308.04 515.62 311.52C514.2 315 512.13 318.17 509.51 320.86C506.89 323.56 503.77 325.72 500.34 327.24C496.9 328.75 493.2 329.59 489.45 329.7L156.76 329.56C153.21 329.19 149.75 328.16 146.57 326.54C143.39 324.92 140.53 322.72 138.13 320.07C135.74 317.42 133.85 314.35 132.56 311.01C131.27 307.68 130.61 304.13 130.6 300.56L130.6 66.02C130.61 62.27 131.34 58.55 132.76 55.07C134.18 51.59 136.26 48.41 138.87 45.72C141.49 43.03 144.61 40.86 148.04 39.35C151.48 37.83 155.17 36.99 158.93 36.88L158.93 36.88Z" />
					<g id="Layer">
						<path id="Layer" class="shp2" d="M145.11 154.42L196.28 154.42L196.28 186.09L145.11 186.09L145.11 154.42Z" />
						<path id="Layer" class="shp2" d="M196.28 154.42L247.46 154.42L247.46 186.09L196.28 186.09L196.28 154.42Z" />
						<path id="Layer" class="shp2" d="M247.46 154.42L298.64 154.42L298.64 186.09L247.46 186.09L247.46 154.42Z" />
						<path id="Layer" class="shp2" d="M298.64 154.42L349.82 154.42L349.82 186.09L298.64 186.09L298.64 154.42Z" />
						<path id="Layer" class="shp2" d="M349.82 154.42L401 154.42L401 186.09L349.82 186.09L349.82 154.42Z" />
						<path id="Layer" class="shp2" d="M401 154.42L452.18 154.42L452.18 186.09L401 186.09L401 154.42Z" />
						<path id="Layer" class="shp2" d="M452.18 154.42L503.36 154.42L503.36 186.09L452.18 186.09L452.18 154.42Z" />
						<path id="Layer" class="shp2" d="M145.11 186.09L196.28 186.09L196.28 217.77L145.11 217.77L145.11 186.09Z" />
						<path id="Layer" class="shp2" d="M196.28 186.09L247.46 186.09L247.46 217.77L196.28 217.77L196.28 186.09Z" />
						<path id="Layer" class="shp2" d="M247.46 186.09L298.64 186.09L298.64 217.77L247.46 217.77L247.46 186.09Z" />
						<path id="Layer" class="shp2" d="M298.64 186.09L349.82 186.09L349.82 217.77L298.64 217.77L298.64 186.09Z" />
						<path id="Layer" class="shp2" d="M349.82 186.09L401 186.09L401 217.77L349.82 217.77L349.82 186.09Z" />
						<path id="Layer" class="shp2" d="M401 186.09L452.18 186.09L452.18 217.77L401 217.77L401 186.09Z" />
						<path id="Layer" class="shp2" d="M452.18 186.09L503.36 186.09L503.36 217.77L452.18 217.77L452.18 186.09Z" />
						<path id="Layer" class="shp2" d="M145.11 217.77L196.28 217.77L196.28 249.44L145.11 249.44L145.11 217.77Z" />
						<path id="Layer" class="shp2" d="M196.28 217.77L247.46 217.77L247.46 249.44L196.28 249.44L196.28 217.77Z" />
						<path id="Layer" class="shp2" d="M247.46 217.77L298.64 217.77L298.64 249.44L247.46 249.44L247.46 217.77Z" />
						<path id="Layer" class="shp2" d="M298.64 217.77L349.82 217.77L349.82 249.44L298.64 249.44L298.64 217.77Z" />
						<path id="Layer" class="shp2" d="M349.82 217.77L401 217.77L401 249.44L349.82 249.44L349.82 217.77Z" />
						<path id="Layer" class="shp2" d="M401 217.77L452.18 217.77L452.18 249.44L401 249.44L401 217.77Z" />
						<path id="Layer" class="shp2" d="M452.18 217.77L503.36 217.77L503.36 249.44L452.18 249.44L452.18 217.77Z" />
						<path id="Layer" class="shp2" d="M145.11 249.44L196.28 249.44L196.28 281.12L145.11 281.12L145.11 249.44Z" />
						<path id="Layer" class="shp2" d="M196.28 249.44L247.46 249.44L247.46 281.12L196.28 281.12L196.28 249.44Z" />
						<path id="Layer" class="shp2" d="M247.46 249.44L298.64 249.44L298.64 281.12L247.46 281.12L247.46 249.44Z" />
						<path id="Layer" class="shp2" d="M298.64 249.44L349.82 249.44L349.82 281.12L298.64 281.12L298.64 249.44Z" />
						<path id="Layer" class="shp2" d="M349.82 249.44L401 249.44L401 281.12L349.82 281.12L349.82 249.44Z" />
						<path id="Layer" class="shp2" d="M401 249.44L452.18 249.44L452.18 281.12L401 281.12L401 249.44Z" />
						<path id="Layer" class="shp2" d="M452.18 249.44L503.36 249.44L503.36 281.12L452.18 281.12L452.18 249.44Z" />
						<path id="Layer" class="shp2" d="M145.11 281.12L196.28 281.12L196.28 312.79L145.11 312.79L145.11 281.12Z" />
						<path id="Layer" class="shp2" d="M196.28 281.12L247.46 281.12L247.46 312.79L196.28 312.79L196.28 281.12Z" />
						<path id="Layer" class="shp2" d="M247.46 281.12L298.64 281.12L298.64 312.79L247.46 312.79L247.46 281.12Z" />
						<path id="Layer" class="shp2" d="M298.64 281.12L349.82 281.12L349.82 312.79L298.64 312.79L298.64 281.12Z" />
						<path id="Layer" class="shp2" d="M349.82 281.12L401 281.12L401 312.79L349.82 312.79L349.82 281.12Z" />
						<path id="Layer" class="shp2" d="M401 281.12L452.18 281.12L452.18 312.79L401 312.79L401 281.12Z" />
						<path id="Layer" class="shp2" d="M452.18 281.12L503.36 281.12L503.36 312.79L452.18 312.79L452.18 281.12Z" />
					</g>
					<path id="Layer" fill-rule="evenodd" class="shp3" d="M158.93 36.88L491.62 37.02C495.18 37.39 498.63 38.42 501.81 40.04C505 41.66 507.86 43.86 510.25 46.51C512.65 49.16 514.53 52.23 515.82 55.57C517.11 58.91 517.78 62.45 517.79 66.02L517.79 112.55L130.6 112.39L130.6 66.02C130.61 62.27 131.34 58.55 132.76 55.07C134.18 51.59 136.25 48.41 138.87 45.72C141.49 43.03 144.6 40.86 148.04 39.35C151.48 37.83 155.17 36.99 158.93 36.88L158.93 36.88Z" />
					<g id="Layer">
						<path id="Layer" class="shp4" d="M238.56 76.04L410.28 76.04C415.23 76.04 419.23 80.05 419.23 85L419.23 85C419.23 89.96 415.23 93.96 410.28 93.96L238.56 93.96C233.61 93.96 229.6 89.96 229.6 85L229.6 85C229.6 80.05 233.61 76.04 238.56 76.04Z" />
					</g>
				</g>
				<g id="Layer">
					<path id="Layer" fill-rule="evenodd" class="shp5" d="M147.19 121.55L147.17 152.62L147.17 153.14L501.3 153.29L501.33 121.69L147.19 121.55Z" />
					<path id="Layer" fill-rule="evenodd" class="shp6" d="M175.94 134.91L177.16 132.18C176.8 131.94 176.41 131.73 176.02 131.54C175.62 131.36 175.21 131.2 174.79 131.07C174.38 130.95 173.95 130.85 173.52 130.79C173.08 130.72 172.65 130.69 172.21 130.69C169.22 130.69 167.26 132.25 167.26 134.72C167.26 139.38 173.78 138.03 173.78 140.27C173.78 140.97 173.18 141.34 172.22 141.34C171.81 141.31 171.4 141.23 170.99 141.13C170.59 141.02 170.2 140.88 169.81 140.71C169.43 140.55 169.07 140.34 168.72 140.12C168.37 139.89 168.04 139.63 167.73 139.35L166.48 142.04C166.87 142.37 167.3 142.67 167.75 142.93C168.19 143.19 168.66 143.41 169.15 143.59C169.63 143.77 170.13 143.91 170.64 144C171.15 144.09 171.67 144.14 172.19 144.15C174.94 144.15 177.17 142.78 177.17 140.08C177.17 135.34 170.65 136.58 170.65 134.39C170.65 133.79 171.17 133.48 171.95 133.48C172.3 133.52 172.65 133.58 173 133.66C173.35 133.74 173.69 133.84 174.03 133.96C174.36 134.08 174.69 134.22 175.01 134.38C175.33 134.54 175.64 134.71 175.94 134.91Z" />
					<path id="Layer" fill-rule="evenodd" class="shp6" d="M215.62 130.82L215.62 144.02L218.5 144.02L218.5 135.66L221.38 142.7L223.5 142.7L226.38 135.66L226.39 144.02L229.26 144.02L229.27 130.82L225.73 130.82L222.44 138.52L219.16 130.82L215.62 130.82Z" />
					<path id="Layer" fill-rule="evenodd" class="shp6" d="M267.76 130.82L267.76 133.67L271.44 133.67L271.43 144.02L274.67 144.02L274.68 133.67L278.39 133.67L278.39 130.82L267.76 130.82Z" />
					<path id="Layer" fill-rule="evenodd" class="shp6" d="M314.97 130.82L319.02 144.02L322.35 144.02L324.65 135.11L326.87 144.02L330.21 144.02L334.31 130.83L330.98 130.83L328.64 140.37L326.3 130.82L323.14 130.82L320.8 140.37L318.45 130.82L314.97 130.82Z" />
					<path id="Layer" fill-rule="evenodd" class="shp6" d="M369.73 130.82L369.73 133.67L373.41 133.67L373.4 144.02L376.64 144.02L376.64 133.67L380.36 133.67L380.36 130.82L369.73 130.82Z" />
					<path id="Layer" fill-rule="evenodd" class="shp6" d="M421.73 130.82L421.72 144.02L424.96 144.02L424.96 139.25L430.51 139.25L430.51 136.51L424.96 136.51L424.96 133.57L430.97 133.57L430.99 130.82L421.73 130.82Z" />
					<path id="Layer" fill-rule="evenodd" class="shp6" d="M480.24 134.91L481.46 132.18C481.1 131.94 480.72 131.73 480.32 131.54C479.92 131.36 479.51 131.2 479.1 131.07C478.68 130.95 478.25 130.85 477.82 130.79C477.39 130.72 476.95 130.69 476.51 130.69C473.53 130.69 471.56 132.25 471.56 134.72C471.56 139.38 478.08 138.03 478.08 140.27C478.08 140.97 477.48 141.34 476.53 141.34C476.11 141.3 475.7 141.23 475.29 141.13C474.89 141.02 474.5 140.88 474.12 140.71C473.73 140.54 473.37 140.34 473.02 140.11C472.67 139.89 472.34 139.63 472.04 139.34L470.78 142.04C471.17 142.37 471.6 142.67 472.05 142.93C472.49 143.19 472.96 143.41 473.45 143.59C473.93 143.77 474.44 143.91 474.94 144C475.45 144.09 475.97 144.14 476.49 144.15C479.25 144.15 481.47 142.77 481.48 140.08C481.48 135.34 474.95 136.58 474.96 134.39C474.96 133.78 475.47 133.48 476.25 133.48C476.6 133.52 476.95 133.58 477.3 133.66C477.65 133.74 477.99 133.84 478.33 133.96C478.66 134.08 478.99 134.22 479.31 134.38C479.63 134.54 479.94 134.71 480.24 134.91L480.24 134.91Z" />
				</g>
				<g id="Layer">
					<g id="Layer">
						<path id="Layer" fill-rule="evenodd" class="shp3" d="M273.23 171.28L268.5 176.47L268.5 178.11L277.57 178.11L277.57 176.11L271.25 176.11L274.64 172.46C276 170.95 276.98 169.47 276.98 168.15C276.98 166.12 275.33 164.82 272.91 164.82C272.49 164.83 272.07 164.89 271.65 164.97C271.24 165.06 270.83 165.19 270.44 165.35C270.05 165.51 269.67 165.7 269.31 165.93C268.95 166.16 268.61 166.41 268.3 166.7L269.14 168.41C269.37 168.18 269.62 167.96 269.88 167.77C270.15 167.58 270.43 167.41 270.73 167.27C271.03 167.13 271.34 167.02 271.65 166.94C271.97 166.85 272.3 166.8 272.62 166.78C273.99 166.78 274.8 167.4 274.8 168.47C274.75 168.74 274.68 169 274.58 169.26C274.49 169.52 274.38 169.77 274.24 170.01C274.11 170.24 273.96 170.47 273.79 170.68C273.62 170.9 273.43 171.1 273.23 171.28Z" />
						<path id="Layer" fill-rule="evenodd" class="shp3" d="M324.96 170.49L324.24 170.43L328.22 166.35L328.22 164.96L320.09 164.96L320.1 166.94L325.62 166.94L321.99 170.64L321.99 171.92L323.8 171.92C325.69 171.92 326.8 172.66 326.8 174.09C326.8 175.46 325.7 176.37 323.83 176.37C323.51 176.36 323.19 176.33 322.88 176.27C322.56 176.21 322.26 176.12 321.96 176C321.66 175.89 321.38 175.74 321.11 175.57C320.84 175.4 320.58 175.21 320.35 174.99L319.48 176.8C319.8 177.03 320.15 177.24 320.5 177.41C320.86 177.59 321.23 177.74 321.61 177.87C321.99 177.99 322.38 178.08 322.78 178.14C323.17 178.2 323.57 178.23 323.97 178.23C326.96 178.23 328.83 176.52 328.83 174.05C328.84 171.96 327.28 170.69 324.96 170.49Z" />
						<path id="Layer" fill-rule="evenodd" class="shp3" d="M374.49 164.96L370.15 173.26L370.15 174.92L376.18 174.92L376.18 178.15L378.12 178.15L378.12 174.92L379.96 174.92L379.96 172.92L378.14 172.92L378.13 169.81L376.18 169.81L376.2 172.92L372.4 172.92L376.51 164.96L374.49 164.96Z" />
						<path id="Layer" fill-rule="evenodd" class="shp3" d="M423.93 169.84L423.93 166.97L429.86 166.97L429.86 164.98L422.01 164.98L422.01 171.96C422.89 171.85 424.62 171.78 425.42 171.78C427.12 171.78 428.16 172.61 428.16 173.96C428.16 175.43 427.11 176.33 425.38 176.33C425.06 176.32 424.74 176.28 424.43 176.22C424.11 176.15 423.81 176.06 423.51 175.94C423.21 175.82 422.93 175.68 422.65 175.51C422.38 175.34 422.12 175.15 421.88 174.94L421.03 176.75C421.37 176.98 421.72 177.19 422.08 177.37C422.45 177.55 422.82 177.71 423.21 177.83C423.6 177.96 423.99 178.06 424.4 178.13C424.8 178.2 425.2 178.24 425.61 178.25C428.51 178.25 430.38 176.51 430.39 173.81C430.39 171.52 428.59 169.82 425.77 169.82C425.29 169.82 424.48 169.82 423.93 169.84Z" />
						<path id="Layer" fill-rule="evenodd" class="shp3" d="M479.82 167.58C479.62 167.44 479.41 167.33 479.19 167.22C478.97 167.12 478.75 167.03 478.51 166.96C478.28 166.89 478.05 166.84 477.81 166.8C477.57 166.77 477.33 166.75 477.08 166.75C474.68 166.75 473.55 168.67 473.63 171.53C473.79 171.23 474 170.95 474.24 170.71C474.47 170.46 474.75 170.25 475.04 170.09C475.34 169.92 475.66 169.8 476 169.73C476.33 169.65 476.67 169.62 477.01 169.65C479.49 169.65 481 171.29 481 173.86C481.05 174.45 480.97 175.04 480.77 175.6C480.57 176.15 480.25 176.66 479.83 177.08C479.42 177.5 478.92 177.82 478.37 178.03C477.81 178.24 477.22 178.33 476.63 178.29C473.51 178.29 471.6 175.92 471.6 171.87C471.6 167.65 473.68 164.91 476.94 164.91C477.27 164.91 477.59 164.94 477.91 164.98C478.23 165.03 478.54 165.09 478.85 165.18C479.16 165.26 479.47 165.36 479.77 165.49C480.07 165.61 480.36 165.75 480.64 165.91L479.82 167.58L479.82 167.58ZM476.62 171.4C476.28 171.38 475.93 171.42 475.61 171.54C475.28 171.66 474.99 171.84 474.74 172.07C474.49 172.31 474.29 172.6 474.16 172.92C474.03 173.23 473.96 173.58 473.97 173.92C473.96 174.26 474.02 174.59 474.15 174.9C474.27 175.21 474.46 175.49 474.7 175.72C474.95 175.96 475.23 176.13 475.55 176.25C475.86 176.36 476.2 176.41 476.53 176.39C476.87 176.41 477.21 176.37 477.53 176.25C477.85 176.13 478.14 175.94 478.38 175.7C478.62 175.46 478.8 175.17 478.92 174.85C479.04 174.53 479.09 174.19 479.06 173.85C479.09 173.52 479.04 173.19 478.93 172.88C478.82 172.58 478.64 172.3 478.41 172.06C478.17 171.83 477.89 171.65 477.59 171.54C477.28 171.42 476.95 171.38 476.62 171.4L476.62 171.4Z" />
						<path id="Layer" fill-rule="evenodd" class="shp3" d="M167.27 195.01L167.27 198.85L169.13 198.85L169.15 197L174.38 197L169.26 208.2L171.48 208.2L176.7 196.7L176.7 195.01L167.27 195.01Z" />
						<path id="Layer" fill-rule="evenodd" class="shp3" d="M222.39 194.94C224.94 194.94 226.51 196.24 226.51 198.37C226.51 198.67 226.47 198.96 226.39 199.24C226.31 199.53 226.18 199.8 226.02 200.04C225.86 200.29 225.67 200.51 225.45 200.71C225.22 200.9 224.97 201.06 224.7 201.18C225.05 201.29 225.39 201.45 225.69 201.67C225.99 201.89 226.25 202.15 226.46 202.45C226.68 202.75 226.85 203.08 226.96 203.44C227.07 203.79 227.13 204.16 227.12 204.53C227.12 206.87 225.3 208.32 222.4 208.32C219.5 208.32 217.68 206.89 217.68 204.56C217.68 204.18 217.74 203.8 217.86 203.44C217.98 203.09 218.15 202.75 218.38 202.44C218.6 202.14 218.88 201.88 219.19 201.66C219.49 201.44 219.84 201.28 220.2 201.17C219.92 201.05 219.65 200.88 219.42 200.69C219.18 200.49 218.98 200.26 218.81 200C218.64 199.75 218.51 199.47 218.42 199.17C218.33 198.88 218.29 198.57 218.29 198.27C218.3 196.22 219.89 194.94 222.4 194.94L222.39 194.94ZM222.41 196.54C220.93 196.54 220.06 197.25 220.06 198.48C220.06 199.7 220.93 200.42 222.41 200.42C223.9 200.42 224.75 199.7 224.75 198.48C224.75 197.25 223.9 196.54 222.41 196.54L222.41 196.54ZM222.39 202.15C220.66 202.15 219.65 202.94 219.65 204.31C219.65 205.76 220.66 206.57 222.41 206.57C224.14 206.57 225.17 205.76 225.17 204.33C225.17 202.96 224.14 202.15 222.39 202.15L222.39 202.15Z" />
						<path id="Layer" fill-rule="evenodd" class="shp3" d="M269.46 205.67C269.66 205.81 269.87 205.92 270.09 206.03C270.3 206.13 270.53 206.22 270.76 206.29C270.99 206.36 271.22 206.41 271.46 206.45C271.7 206.48 271.94 206.5 272.18 206.5C274.57 206.5 275.68 204.58 275.61 201.72C275.45 202.02 275.25 202.3 275.02 202.54C274.78 202.79 274.51 203 274.21 203.16C273.91 203.33 273.6 203.45 273.26 203.53C272.93 203.6 272.59 203.63 272.25 203.6C269.79 203.6 268.29 201.95 268.29 199.39C268.24 198.8 268.32 198.21 268.52 197.66C268.72 197.1 269.04 196.6 269.45 196.18C269.86 195.76 270.36 195.43 270.9 195.22C271.45 195.01 272.04 194.92 272.63 194.96C275.74 194.96 277.64 197.33 277.64 201.38C277.64 205.6 275.57 208.34 272.32 208.34C272 208.34 271.68 208.31 271.36 208.27C271.04 208.22 270.73 208.16 270.42 208.07C270.11 207.99 269.8 207.89 269.51 207.77C269.21 207.64 268.92 207.5 268.64 207.34L269.46 205.67L269.46 205.67ZM272.73 196.86C272.4 196.84 272.06 196.89 271.74 197.01C271.43 197.13 271.14 197.32 270.9 197.56C270.67 197.8 270.48 198.09 270.37 198.41C270.25 198.72 270.21 199.06 270.24 199.4C270.21 199.73 270.25 200.05 270.36 200.36C270.47 200.67 270.65 200.95 270.87 201.18C271.1 201.41 271.38 201.59 271.68 201.71C271.99 201.82 272.32 201.87 272.64 201.85C272.98 201.87 273.33 201.83 273.65 201.71C273.98 201.59 274.27 201.41 274.52 201.17C274.77 200.93 274.96 200.65 275.09 200.33C275.22 200.01 275.29 199.67 275.28 199.33C275.29 198.99 275.23 198.66 275.1 198.35C274.98 198.04 274.79 197.76 274.55 197.53C274.31 197.3 274.03 197.12 273.71 197C273.4 196.89 273.07 196.84 272.73 196.86L272.73 196.86Z" />
						<path id="Layer" fill-rule="evenodd" class="shp3" d="M315.52 195.07L320.27 195.07L320.27 208.27L318.18 208.27L318.19 197.07L315.52 197.07L315.52 195.07L315.52 195.07ZM330.02 195.02C333 195.03 334.66 197.39 334.66 201.67C334.66 205.96 332.99 208.33 330.01 208.33C327 208.33 325.34 205.96 325.34 201.66C325.35 197.39 327.01 195.02 330.02 195.02L330.02 195.02ZM330.02 196.75C328.28 196.75 327.42 198.31 327.41 201.67C327.41 205.02 328.27 206.6 330.01 206.6C331.72 206.6 332.59 205.02 332.59 201.67C332.6 198.32 331.73 196.75 330.02 196.75L330.02 196.75Z" />
						<path id="Layer" fill-rule="evenodd" class="shp3" d="M365.96 195.09L365.96 197.09L368.63 197.09L368.62 208.29L370.7 208.29L370.71 195.09L365.96 195.09ZM376.87 195.09L376.87 197.09L379.53 197.09L379.53 208.29L381.61 208.29L381.62 195.09L376.87 195.09Z" />
						<path id="Layer" fill-rule="evenodd" class="shp3" d="M416.82 195.12L416.82 197.11L419.49 197.11L419.48 208.31L421.57 208.31L421.57 195.12L416.82 195.12ZM431.49 201.48L426.76 206.68L426.76 208.31L435.83 208.31L435.83 206.32L429.5 206.32L432.9 202.67C434.26 201.16 435.24 199.68 435.24 198.36C435.24 196.33 433.6 195.03 431.17 195.03C430.75 195.04 430.33 195.09 429.91 195.18C429.5 195.27 429.09 195.4 428.7 195.56C428.31 195.72 427.93 195.91 427.57 196.14C427.21 196.36 426.87 196.62 426.56 196.91L427.4 198.62C427.63 198.38 427.88 198.17 428.14 197.98C428.41 197.79 428.69 197.62 428.99 197.48C429.29 197.34 429.6 197.23 429.92 197.15C430.23 197.06 430.56 197.01 430.88 196.98C432.25 196.98 433.06 197.61 433.06 198.68C433.01 198.95 432.94 199.21 432.85 199.47C432.75 199.72 432.64 199.97 432.51 200.21C432.37 200.45 432.22 200.68 432.05 200.89C431.88 201.1 431.69 201.3 431.49 201.48L431.49 201.48Z" />
						<path id="Layer" fill-rule="evenodd" class="shp3" d="M467.14 195.14L467.14 197.13L469.81 197.13L469.8 208.33L471.89 208.33L471.9 195.13L467.14 195.14ZM481.3 200.63L485.28 196.55L485.28 195.16L477.14 195.16L477.16 197.14L482.68 197.14L479.05 200.84L479.05 202.12L480.86 202.12C482.75 202.12 483.86 202.86 483.86 204.29C483.86 205.66 482.76 206.57 480.89 206.57C480.57 206.56 480.25 206.53 479.94 206.47C479.62 206.41 479.32 206.32 479.02 206.2C478.72 206.08 478.44 205.94 478.17 205.77C477.89 205.6 477.64 205.41 477.4 205.19L476.54 207C476.86 207.23 477.2 207.44 477.56 207.61C477.92 207.79 478.29 207.94 478.67 208.06C479.05 208.19 479.44 208.28 479.83 208.34C480.23 208.4 480.63 208.43 481.03 208.43C484.02 208.43 485.89 206.72 485.89 204.25C485.89 202.16 484.34 200.9 482.02 200.69L481.3 200.63Z" />
						<path id="Layer" fill-rule="evenodd" class="shp3" d="M162.82 227.06L162.82 229.05L165.49 229.05L165.48 240.25L167.57 240.25L167.57 227.06L162.82 227.06L162.82 227.06ZM176.78 227.06L172.45 235.36L172.45 237.02L178.48 237.02L178.48 240.26L180.42 240.26L180.42 237.02L182.26 237.02L182.26 235.03L180.44 235.03L180.42 231.92L178.48 231.92L178.5 235.03L174.69 235.03L178.8 227.07L176.78 227.06Z" />
						<path id="Layer" fill-rule="evenodd" class="shp3" d="M213.35 227.08L213.35 229.08L216.02 229.08L216.01 240.28L218.1 240.28L218.11 227.08L213.35 227.08ZM225.9 231.94L225.9 229.08L231.82 229.08L231.82 227.08L223.97 227.08L223.97 234.07C224.86 233.96 226.59 233.88 227.39 233.88C229.08 233.88 230.13 234.71 230.13 236.07C230.13 237.53 229.08 238.44 227.35 238.44C227.03 238.43 226.71 238.39 226.4 238.32C226.08 238.25 225.78 238.16 225.48 238.04C225.18 237.92 224.89 237.78 224.62 237.61C224.35 237.44 224.09 237.25 223.85 237.04L223 238.85C223.33 239.08 223.68 239.29 224.05 239.47C224.41 239.65 224.79 239.81 225.18 239.94C225.57 240.06 225.96 240.16 226.36 240.23C226.76 240.3 227.17 240.34 227.58 240.36C230.48 240.36 232.35 238.61 232.35 235.92C232.35 233.62 230.55 231.92 227.74 231.92C227.26 231.92 226.45 231.92 225.91 231.94L225.9 231.94Z" />
						<path id="Layer" fill-rule="evenodd" class="shp3" d="M268.73 227.1L268.72 240.3L266.64 240.3L266.65 229.1L263.98 229.1L263.98 227.1L268.73 227.1ZM282.1 229.68C281.89 229.55 281.68 229.43 281.46 229.33C281.25 229.23 281.02 229.14 280.79 229.07C280.56 229 280.32 228.95 280.08 228.91C279.84 228.87 279.6 228.86 279.36 228.86C276.95 228.85 275.82 230.77 275.91 233.64C276.07 233.33 276.27 233.06 276.51 232.81C276.75 232.57 277.02 232.36 277.32 232.2C277.62 232.03 277.94 231.91 278.27 231.83C278.6 231.76 278.94 231.73 279.29 231.75C281.76 231.75 283.28 233.39 283.28 235.97C283.32 236.56 283.24 237.15 283.04 237.71C282.84 238.26 282.52 238.76 282.11 239.18C281.69 239.6 281.19 239.93 280.64 240.14C280.09 240.35 279.5 240.44 278.91 240.4C275.78 240.4 273.87 238.02 273.87 233.98C273.88 229.76 275.95 227.01 279.22 227.01C279.54 227.02 279.86 227.04 280.18 227.09C280.5 227.13 280.82 227.2 281.13 227.28C281.44 227.37 281.74 227.47 282.04 227.59C282.34 227.71 282.63 227.85 282.91 228.01L282.1 229.69L282.1 229.68ZM278.89 233.51C278.55 233.49 278.2 233.53 277.88 233.65C277.56 233.77 277.26 233.95 277.01 234.19C276.76 234.42 276.56 234.71 276.43 235.03C276.3 235.34 276.24 235.69 276.24 236.03C276.23 236.36 276.29 236.7 276.42 237.01C276.55 237.32 276.74 237.6 276.98 237.83C277.22 238.06 277.51 238.24 277.82 238.36C278.14 238.47 278.47 238.52 278.8 238.5C279.14 238.52 279.48 238.47 279.8 238.35C280.12 238.23 280.41 238.05 280.65 237.81C280.89 237.56 281.08 237.27 281.19 236.96C281.31 236.64 281.36 236.3 281.33 235.96C281.36 235.63 281.32 235.3 281.2 234.99C281.09 234.68 280.91 234.4 280.68 234.17C280.45 233.93 280.17 233.75 279.86 233.64C279.55 233.53 279.22 233.48 278.9 233.51L278.89 233.51Z" />
						<path id="Layer" fill-rule="evenodd" class="shp3" d="M315.5 227.12L315.5 229.12L318.17 229.12L318.16 240.32L320.25 240.32L320.25 227.12L315.5 227.12L315.5 227.12ZM325.38 227.12L325.38 230.96L327.24 230.96L327.26 229.12L332.49 229.12L327.38 240.32L329.59 240.32L334.81 228.82L334.81 227.13L325.38 227.12Z" />
						<path id="Layer" fill-rule="evenodd" class="shp3" d="M370.69 227.14L370.68 240.34L368.6 240.34L368.61 229.14L365.94 229.14L365.94 227.14L370.69 227.14ZM380.42 227.05C380.41 227.05 380.41 227.05 380.41 227.05C380.41 227.05 380.41 227.05 380.41 227.05L380.42 227.05ZM380.41 227.05C382.96 227.06 384.53 228.36 384.53 230.48C384.53 230.78 384.49 231.07 384.41 231.35C384.33 231.64 384.2 231.91 384.04 232.16C383.88 232.4 383.69 232.63 383.46 232.82C383.24 233.01 382.99 233.17 382.72 233.29C383.07 233.4 383.4 233.57 383.7 233.78C384 234 384.27 234.26 384.48 234.56C384.7 234.86 384.87 235.2 384.98 235.55C385.09 235.9 385.15 236.27 385.14 236.64C385.14 238.99 383.32 240.44 380.42 240.44C377.52 240.44 375.7 239.01 375.7 236.67C375.7 236.29 375.76 235.92 375.88 235.56C376 235.2 376.17 234.86 376.4 234.56C376.62 234.26 376.89 233.99 377.2 233.78C377.51 233.56 377.85 233.39 378.21 233.28C377.93 233.16 377.67 233 377.44 232.8C377.2 232.61 377 232.38 376.83 232.12C376.66 231.86 376.53 231.58 376.44 231.29C376.35 231 376.31 230.69 376.31 230.38C376.31 228.33 377.9 227.06 380.41 227.05ZM380.43 228.65C378.95 228.65 378.08 229.37 378.08 230.59C378.08 231.82 378.94 232.53 380.43 232.53C381.91 232.53 382.76 231.82 382.76 230.6C382.76 229.37 381.92 228.65 380.43 228.65L380.43 228.65ZM380.41 234.26C378.68 234.26 377.67 235.05 377.67 236.43C377.67 237.88 378.67 238.69 380.42 238.69C382.16 238.69 383.18 237.88 383.18 236.45C383.19 235.08 382.16 234.26 380.41 234.26L380.41 234.26Z" />
						<path id="Layer" fill-rule="evenodd" class="shp3" d="M416.8 227.16L416.8 227.17L416.8 227.17L416.8 227.16ZM416.8 227.17L421.55 227.17L421.55 240.36L419.46 240.36L419.47 229.16L416.8 229.16L416.8 227.17ZM427.72 237.79C427.92 237.92 428.13 238.04 428.35 238.14C428.56 238.25 428.79 238.33 429.02 238.4C429.25 238.47 429.48 238.53 429.72 238.56C429.96 238.6 430.2 238.62 430.44 238.62C432.83 238.62 433.94 236.7 433.87 233.84C433.72 234.14 433.51 234.42 433.28 234.66C433.04 234.9 432.77 235.11 432.47 235.28C432.18 235.44 431.86 235.57 431.52 235.64C431.19 235.72 430.85 235.74 430.51 235.72C428.06 235.72 426.56 234.06 426.56 231.5C426.51 230.92 426.58 230.33 426.78 229.77C426.98 229.22 427.3 228.72 427.71 228.3C428.12 227.88 428.62 227.55 429.17 227.34C429.72 227.13 430.3 227.04 430.89 227.08C434 227.08 435.91 229.45 435.91 233.5C435.9 237.72 433.83 240.46 430.58 240.46C430.26 240.46 429.94 240.43 429.62 240.39C429.3 240.34 428.99 240.28 428.68 240.19C428.37 240.11 428.07 240 427.77 239.88C427.47 239.76 427.18 239.62 426.9 239.46L427.72 237.79L427.72 237.79ZM430.99 228.98C430.99 228.98 430.99 228.98 430.99 228.98C430.99 228.98 430.99 228.98 431 228.98L430.99 228.98ZM430.99 228.98C430.66 228.95 430.32 229.01 430 229.13C429.69 229.25 429.4 229.43 429.17 229.67C428.93 229.92 428.75 230.21 428.63 230.52C428.52 230.84 428.47 231.18 428.5 231.52C428.47 231.84 428.52 232.17 428.62 232.48C428.73 232.79 428.91 233.06 429.14 233.3C429.37 233.53 429.64 233.71 429.95 233.83C430.25 233.94 430.58 233.99 430.91 233.97C431.25 233.99 431.59 233.94 431.91 233.83C432.24 233.71 432.53 233.53 432.78 233.29C433.03 233.05 433.22 232.76 433.36 232.45C433.49 232.13 433.55 231.79 433.54 231.44C433.55 231.11 433.49 230.78 433.37 230.47C433.24 230.16 433.05 229.88 432.81 229.65C432.57 229.41 432.29 229.23 431.97 229.12C431.66 229 431.33 228.96 430.99 228.98Z" />
						<path id="Layer" fill-rule="evenodd" class="shp3" d="M218.85 164.89L218.85 166.89L221.52 166.89L221.51 178.09L223.6 178.09L223.6 164.89L218.85 164.89Z" />
					</g>
					<g id="Layer">
						<path id="Layer" fill-rule="evenodd" class="shp3" d="M470.87 233.55C471.08 233.37 471.27 233.17 471.44 232.96C471.61 232.75 471.76 232.52 471.9 232.28C472.03 232.04 472.15 231.79 472.24 231.54C472.33 231.28 472.4 231.02 472.45 230.75C472.45 229.67 471.64 229.05 470.28 229.05C469.95 229.08 469.63 229.13 469.31 229.21C468.99 229.3 468.68 229.41 468.39 229.55C468.09 229.69 467.81 229.85 467.54 230.04C467.27 230.24 467.02 230.45 466.8 230.69L465.95 228.97C466.27 228.69 466.61 228.43 466.97 228.21C467.33 227.98 467.7 227.79 468.1 227.63C468.49 227.47 468.9 227.34 469.31 227.25C469.73 227.16 470.15 227.11 470.57 227.09C473 227.09 474.64 228.4 474.64 230.43C474.64 231.75 473.66 233.23 472.3 234.74L468.9 238.39L475.23 238.39L475.23 240.39L466.16 240.39L466.16 238.74L470.88 233.55L470.87 233.55ZM481.61 227.13C484.6 227.13 486.26 229.51 486.26 233.78C486.26 238.07 484.59 240.44 481.61 240.44C478.6 240.44 476.94 238.07 476.94 233.78C476.95 229.5 478.61 227.14 481.62 227.14L481.61 227.13ZM481.61 228.87C479.88 228.87 479.02 230.42 479.02 233.78C479.01 237.13 479.88 238.71 481.61 238.71C483.32 238.71 484.19 237.13 484.19 233.78C484.2 230.43 483.33 228.87 481.62 228.87L481.61 228.87Z" />
						<path id="Layer" fill-rule="evenodd" class="shp3" d="M166.55 265.03C166.75 264.85 166.94 264.65 167.11 264.44C167.28 264.23 167.44 264 167.57 263.76C167.71 263.52 167.82 263.27 167.91 263.02C168.01 262.76 168.08 262.5 168.13 262.23C168.13 261.15 167.32 260.53 165.95 260.53C165.63 260.56 165.3 260.61 164.99 260.69C164.67 260.78 164.36 260.89 164.06 261.03C163.76 261.17 163.48 261.34 163.21 261.53C162.95 261.72 162.7 261.93 162.47 262.17L161.63 260.46C161.94 260.17 162.28 259.91 162.64 259.69C163 259.46 163.38 259.27 163.77 259.11C164.16 258.95 164.57 258.82 164.98 258.73C165.4 258.64 165.82 258.59 166.24 258.58C168.67 258.58 170.31 259.88 170.31 261.91C170.31 263.23 169.33 264.71 167.97 266.22L164.57 269.87L170.9 269.87L170.9 271.87L161.83 271.87L161.83 270.23L166.56 265.03L166.55 265.03ZM178.46 258.68L178.45 271.87L176.37 271.87L176.37 260.67L173.7 260.67L173.7 258.68L178.46 258.68Z" />
						<path id="Layer" fill-rule="evenodd" class="shp3" d="M217.1 265.06L217.09 265.06C217.09 265.06 217.09 265.06 217.09 265.06L217.1 265.06ZM217.09 265.06C217.3 264.87 217.49 264.68 217.66 264.46C217.83 264.25 217.98 264.02 218.11 263.79C218.25 263.55 218.36 263.3 218.45 263.04C218.55 262.78 218.62 262.52 218.67 262.25C218.67 261.18 217.86 260.56 216.5 260.56C216.17 260.58 215.84 260.63 215.53 260.72C215.21 260.8 214.9 260.91 214.6 261.05C214.31 261.19 214.02 261.36 213.75 261.55C213.49 261.74 213.24 261.96 213.01 262.19L212.17 260.48C212.48 260.19 212.82 259.94 213.18 259.71C213.54 259.49 213.92 259.29 214.31 259.13C214.7 258.97 215.11 258.85 215.52 258.76C215.94 258.67 216.36 258.61 216.78 258.6C219.21 258.6 220.85 259.9 220.85 261.93C220.85 263.25 219.87 264.74 218.51 266.24L215.11 269.89L221.44 269.89L221.44 271.89L212.37 271.89L212.37 270.25L217.09 265.06ZM228 265.06C228.21 264.88 228.39 264.68 228.56 264.46C228.73 264.25 228.89 264.02 229.02 263.79C229.15 263.55 229.27 263.3 229.36 263.04C229.45 262.78 229.52 262.52 229.57 262.25C229.57 261.18 228.76 260.56 227.4 260.56C227.07 260.58 226.75 260.63 226.43 260.72C226.11 260.8 225.8 260.91 225.5 261.05C225.21 261.19 224.92 261.36 224.66 261.55C224.39 261.74 224.14 261.96 223.91 262.19L223.07 260.48C223.38 260.19 223.72 259.94 224.08 259.71C224.44 259.48 224.82 259.29 225.21 259.13C225.61 258.97 226.01 258.84 226.43 258.75C226.84 258.67 227.26 258.61 227.69 258.6C230.11 258.6 231.75 259.9 231.75 261.93C231.75 263.25 230.78 264.74 229.41 266.24L226.02 269.89L232.35 269.89L232.35 271.89L223.28 271.89L223.28 270.25L228 265.06L228 265.06Z" />
						<path id="Layer" fill-rule="evenodd" class="shp3" d="M267.71 265.08L262.99 270.27L262.99 271.91L272.06 271.91L272.06 269.92L265.73 269.92L269.13 266.26C270.49 264.76 271.46 263.27 271.46 261.95C271.46 259.92 269.82 258.62 267.4 258.62C266.98 258.64 266.55 258.69 266.14 258.78C265.72 258.87 265.32 258.99 264.93 259.15C264.53 259.31 264.15 259.51 263.8 259.73C263.44 259.96 263.1 260.22 262.78 260.5L263.63 262.21C263.85 261.98 264.1 261.76 264.37 261.57C264.64 261.38 264.92 261.22 265.22 261.08C265.51 260.94 265.82 260.82 266.14 260.74C266.46 260.66 266.78 260.6 267.11 260.58C268.47 260.58 269.28 261.2 269.28 262.28C269.23 262.54 269.16 262.81 269.07 263.07C268.98 263.32 268.86 263.57 268.73 263.81C268.59 264.05 268.44 264.28 268.27 264.49C268.1 264.7 267.91 264.9 267.7 265.08L267.71 265.08ZM278.84 264.27L278.11 264.21L282.09 260.14L282.09 258.74L273.96 258.74L273.98 260.72L279.49 260.72L275.87 264.42L275.87 265.71L277.67 265.71C279.57 265.71 280.67 266.44 280.67 267.87C280.67 269.24 279.58 270.15 277.7 270.15C277.38 270.15 277.07 270.11 276.75 270.05C276.44 269.99 276.13 269.9 275.83 269.79C275.54 269.67 275.25 269.52 274.98 269.35C274.71 269.18 274.46 268.99 274.22 268.77L273.35 270.58C273.68 270.81 274.02 271.02 274.38 271.2C274.74 271.38 275.11 271.53 275.49 271.65C275.87 271.77 276.26 271.86 276.65 271.92C277.04 271.98 277.44 272.01 277.84 272.01C280.83 272.01 282.71 270.3 282.71 267.84C282.71 265.74 281.15 264.47 278.84 264.27L278.84 264.27Z" />
						<path id="Layer" fill-rule="evenodd" class="shp3" d="M319.23 265.1C319.43 264.92 319.62 264.72 319.79 264.51C319.97 264.29 320.12 264.07 320.25 263.83C320.39 263.59 320.5 263.34 320.59 263.09C320.69 262.83 320.76 262.56 320.81 262.3C320.81 261.22 320 260.6 318.64 260.6C318.31 260.62 317.98 260.68 317.67 260.76C317.35 260.85 317.04 260.96 316.74 261.1C316.45 261.24 316.16 261.4 315.9 261.59C315.63 261.78 315.38 262 315.15 262.24L314.31 260.52C314.62 260.24 314.96 259.98 315.32 259.75C315.68 259.53 316.06 259.33 316.45 259.17C316.84 259.01 317.25 258.89 317.66 258.8C318.08 258.71 318.5 258.66 318.93 258.64C321.35 258.64 322.99 259.94 322.99 261.98C322.99 263.29 322.02 264.78 320.65 266.29L317.26 269.94L323.59 269.94L323.59 271.93L314.52 271.93L314.52 270.29L319.24 265.1L319.23 265.1ZM331.46 258.74L327.35 266.7L331.15 266.7L331.14 263.6L333.08 263.6L333.1 266.7L334.92 266.7L334.92 268.7L333.08 268.7L333.08 271.94L331.14 271.94L331.14 268.7L325.11 268.7L325.11 267.04L329.44 258.74L331.46 258.74Z" />
						<path id="Layer" fill-rule="evenodd" class="shp3" d="M369.68 265.12L364.95 270.31L364.95 271.95L374.02 271.95L374.02 269.96L367.7 269.96L371.09 266.3C372.46 264.8 373.43 263.31 373.43 261.99C373.43 259.96 371.79 258.66 369.37 258.66C368.94 258.68 368.52 258.73 368.11 258.82C367.69 258.91 367.28 259.03 366.89 259.19C366.5 259.35 366.12 259.55 365.76 259.78C365.4 260 365.06 260.26 364.75 260.55L365.59 262.26C365.82 262.02 366.07 261.81 366.33 261.62C366.6 261.42 366.88 261.26 367.18 261.12C367.48 260.98 367.79 260.87 368.1 260.78C368.42 260.7 368.75 260.65 369.07 260.62C370.44 260.62 371.25 261.24 371.25 262.32C371.2 262.59 371.13 262.85 371.03 263.11C370.94 263.36 370.83 263.61 370.69 263.85C370.56 264.09 370.4 264.32 370.23 264.53C370.06 264.74 369.87 264.94 369.67 265.12L369.68 265.12ZM378.46 263.62L378.46 260.76L384.39 260.76L384.39 258.76L376.55 258.76L376.55 265.74C377.43 265.63 379.16 265.56 379.96 265.56C381.66 265.56 382.7 266.39 382.7 267.74C382.7 269.21 381.65 270.11 379.92 270.11C379.6 270.1 379.28 270.06 378.97 270C378.66 269.93 378.35 269.84 378.05 269.72C377.75 269.6 377.47 269.45 377.19 269.29C376.92 269.12 376.66 268.93 376.42 268.72L375.57 270.52C375.91 270.76 376.26 270.96 376.62 271.15C376.99 271.33 377.36 271.48 377.75 271.61C378.14 271.74 378.53 271.84 378.94 271.91C379.34 271.98 379.74 272.02 380.15 272.03C383.05 272.03 384.93 270.28 384.93 267.59C384.93 265.29 383.13 263.6 380.31 263.6C379.83 263.6 379.01 263.6 378.47 263.62L378.46 263.62Z" />
						<path id="Layer" fill-rule="evenodd" class="shp3" d="M420.54 265.14C420.74 264.96 420.93 264.76 421.1 264.55C421.27 264.34 421.42 264.11 421.56 263.87C421.69 263.63 421.8 263.38 421.9 263.13C421.99 262.87 422.06 262.61 422.11 262.34C422.11 261.26 421.3 260.64 419.94 260.64C419.61 260.67 419.29 260.72 418.97 260.8C418.65 260.89 418.34 261 418.04 261.14C417.75 261.28 417.46 261.44 417.2 261.64C416.93 261.83 416.68 262.04 416.45 262.28L415.61 260.57C415.92 260.28 416.26 260.02 416.62 259.8C416.98 259.57 417.36 259.38 417.75 259.22C418.14 259.06 418.55 258.93 418.96 258.84C419.38 258.75 419.8 258.7 420.23 258.68C422.65 258.68 424.29 259.99 424.29 262.02C424.29 263.34 423.31 264.82 421.95 266.33L418.56 269.98L424.89 269.98L424.89 271.97L415.82 271.97L415.82 270.34L420.54 265.14L420.54 265.14ZM434.9 261.36C434.7 261.23 434.48 261.11 434.26 261.01C434.05 260.9 433.82 260.82 433.59 260.75C433.36 260.68 433.12 260.62 432.88 260.59C432.64 260.55 432.4 260.53 432.16 260.53C429.75 260.53 428.62 262.45 428.71 265.31C428.87 265.01 429.07 264.73 429.31 264.49C429.55 264.25 429.82 264.04 430.12 263.87C430.42 263.71 430.74 263.58 431.07 263.51C431.4 263.43 431.75 263.41 432.09 263.43C434.56 263.43 436.08 265.07 436.08 267.65C436.13 268.24 436.05 268.83 435.84 269.38C435.64 269.94 435.32 270.44 434.91 270.86C434.49 271.28 433.99 271.61 433.44 271.82C432.89 272.03 432.3 272.11 431.71 272.08C428.58 272.07 426.67 269.7 426.67 265.65C426.68 261.44 428.75 258.69 432.02 258.69C432.34 258.69 432.66 258.72 432.98 258.76C433.3 258.81 433.62 258.87 433.93 258.96C434.24 259.04 434.54 259.15 434.84 259.27C435.14 259.39 435.43 259.53 435.71 259.69L434.9 261.36L434.9 261.36ZM430.68 265.32C430.36 265.44 430.06 265.62 429.81 265.86C429.56 266.1 429.37 266.38 429.23 266.7C429.1 267.02 429.04 267.36 429.04 267.71C429.03 268.04 429.1 268.37 429.22 268.68C429.35 268.99 429.54 269.27 429.78 269.51C430.02 269.74 430.31 269.92 430.62 270.03C430.94 270.15 431.27 270.19 431.61 270.17C431.95 270.2 432.29 270.15 432.61 270.03C432.92 269.91 433.21 269.72 433.45 269.48C433.69 269.24 433.88 268.95 434 268.63C434.11 268.31 434.16 267.97 434.13 267.63C434.16 267.3 434.12 266.98 434 266.67C433.89 266.36 433.71 266.08 433.48 265.84C433.25 265.61 432.97 265.43 432.66 265.32C432.35 265.2 432.02 265.16 431.7 265.18C431.35 265.16 431.01 265.21 430.68 265.32Z" />
						<path id="Layer" fill-rule="evenodd" class="shp3" d="M470.86 265.17C471.06 264.98 471.25 264.79 471.42 264.57C471.59 264.36 471.74 264.13 471.88 263.89C472.01 263.66 472.12 263.41 472.22 263.15C472.31 262.89 472.38 262.63 472.43 262.36C472.43 261.29 471.62 260.67 470.26 260.67C469.93 260.69 469.61 260.74 469.29 260.83C468.97 260.91 468.66 261.02 468.37 261.16C468.07 261.3 467.78 261.47 467.52 261.66C467.25 261.85 467 262.06 466.77 262.3L465.93 260.59C466.25 260.3 466.58 260.05 466.94 259.82C467.3 259.59 467.68 259.4 468.07 259.24C468.47 259.08 468.87 258.95 469.29 258.86C469.7 258.78 470.12 258.72 470.55 258.71C472.97 258.71 474.61 260.01 474.61 262.04C474.61 263.36 473.64 264.85 472.27 266.35L468.88 270L475.21 270L475.21 272L466.14 272L466.14 270.36L470.86 265.16L470.86 265.17ZM486.41 258.8L486.41 260.49L481.19 272L478.98 272L484.1 260.8L478.86 260.8L478.84 262.64L476.98 262.64L476.98 258.8L486.41 258.8Z" />
						<path id="Layer" fill-rule="evenodd" class="shp3" d="M166.53 296.65C166.73 296.47 166.92 296.27 167.09 296.06C167.27 295.85 167.42 295.62 167.55 295.38C167.69 295.14 167.8 294.9 167.89 294.64C167.99 294.38 168.06 294.12 168.11 293.85C168.11 292.77 167.3 292.15 165.94 292.15C165.61 292.18 165.28 292.23 164.97 292.31C164.65 292.4 164.34 292.51 164.04 292.65C163.75 292.79 163.46 292.96 163.2 293.15C162.93 293.34 162.68 293.55 162.45 293.79L161.61 292.08C161.92 291.79 162.26 291.53 162.62 291.31C162.98 291.08 163.36 290.89 163.75 290.73C164.14 290.57 164.55 290.44 164.97 290.35C165.38 290.26 165.8 290.21 166.23 290.2C168.65 290.2 170.29 291.5 170.29 293.53C170.29 294.85 169.32 296.33 167.95 297.84L164.56 301.49L170.89 301.49L170.89 303.48L161.82 303.48L161.82 301.84L166.54 296.65L166.53 296.65ZM177.26 290.19C177.26 290.19 177.25 290.19 177.25 290.19C177.25 290.19 177.25 290.19 177.25 290.19L177.26 290.19ZM177.25 290.19C179.8 290.2 181.37 291.49 181.37 293.62C181.37 293.92 181.33 294.21 181.25 294.49C181.17 294.78 181.04 295.05 180.88 295.3C180.72 295.54 180.53 295.77 180.31 295.96C180.08 296.15 179.83 296.31 179.56 296.43C179.91 296.54 180.24 296.71 180.54 296.92C180.84 297.14 181.11 297.4 181.32 297.7C181.54 298 181.71 298.33 181.82 298.69C181.93 299.04 181.99 299.41 181.98 299.78C181.98 302.13 180.16 303.58 177.26 303.58C174.36 303.58 172.54 302.15 172.54 299.81C172.54 299.43 172.6 299.06 172.72 298.7C172.84 298.34 173.01 298 173.24 297.7C173.46 297.4 173.74 297.13 174.04 296.92C174.35 296.7 174.7 296.53 175.06 296.42C174.77 296.3 174.51 296.14 174.28 295.94C174.04 295.75 173.84 295.52 173.67 295.26C173.5 295 173.37 294.72 173.28 294.43C173.19 294.14 173.15 293.83 173.15 293.52C173.15 291.47 174.75 290.2 177.25 290.19ZM174.92 293.73C174.92 294.96 175.79 295.67 177.27 295.67C178.76 295.67 179.61 294.96 179.61 293.74C179.61 292.51 178.76 291.79 177.27 291.79C175.79 291.79 174.92 292.51 174.92 293.73ZM177.25 297.41C175.52 297.4 174.51 298.2 174.51 299.57C174.51 301.02 175.52 301.83 177.27 301.83C179 301.83 180.03 301.02 180.03 299.59C180.03 298.22 179 297.41 177.25 297.41L177.25 297.41Z" />
						<path id="Layer" fill-rule="evenodd" class="shp3" d="M217.07 296.67C217.27 296.49 217.46 296.29 217.63 296.07C217.8 295.86 217.96 295.63 218.09 295.4C218.22 295.16 218.34 294.91 218.43 294.65C218.52 294.4 218.59 294.13 218.64 293.86C218.64 292.79 217.83 292.17 216.47 292.17C216.14 292.19 215.82 292.25 215.5 292.33C215.18 292.41 214.87 292.52 214.58 292.66C214.28 292.8 214 292.97 213.73 293.16C213.46 293.35 213.21 293.57 212.99 293.8L212.14 292.09C212.46 291.81 212.8 291.55 213.16 291.32C213.51 291.1 213.89 290.9 214.29 290.74C214.68 290.58 215.08 290.46 215.5 290.37C215.91 290.28 216.34 290.23 216.76 290.21C219.18 290.21 220.82 291.51 220.82 293.54C220.82 294.86 219.85 296.35 218.49 297.85L215.09 301.5L221.42 301.5L221.42 303.5L212.35 303.5L212.35 301.86L217.08 296.67L217.07 296.67ZM224.23 300.92C224.43 301.06 224.64 301.18 224.86 301.28C225.08 301.38 225.3 301.47 225.53 301.54C225.76 301.61 226 301.66 226.23 301.7C226.47 301.73 226.71 301.75 226.95 301.75C229.34 301.75 230.46 299.84 230.39 296.97C230.23 297.27 230.03 297.55 229.79 297.8C229.55 298.04 229.28 298.25 228.99 298.41C228.69 298.58 228.37 298.7 228.04 298.78C227.71 298.85 227.37 298.88 227.03 298.85C224.57 298.85 223.07 297.2 223.07 294.64C223.02 294.05 223.1 293.46 223.3 292.91C223.5 292.36 223.81 291.86 224.22 291.44C224.63 291.02 225.13 290.69 225.68 290.48C226.23 290.27 226.82 290.18 227.4 290.22C230.51 290.22 232.42 292.59 232.42 296.64C232.42 300.85 230.35 303.6 227.09 303.6C226.77 303.6 226.45 303.57 226.13 303.53C225.82 303.48 225.5 303.42 225.19 303.33C224.88 303.25 224.58 303.14 224.28 303.02C223.99 302.9 223.7 302.76 223.42 302.6L224.23 300.93L224.23 300.92ZM227.51 292.11C227.17 292.09 226.83 292.14 226.52 292.26C226.2 292.38 225.91 292.57 225.68 292.81C225.44 293.05 225.26 293.34 225.14 293.66C225.03 293.98 224.99 294.32 225.02 294.66C224.99 294.98 225.03 295.31 225.14 295.62C225.25 295.93 225.42 296.21 225.65 296.44C225.88 296.67 226.16 296.85 226.46 296.97C226.77 297.08 227.09 297.13 227.42 297.11C227.76 297.13 228.11 297.08 228.43 296.97C228.75 296.85 229.05 296.67 229.3 296.43C229.54 296.19 229.74 295.91 229.87 295.59C230 295.27 230.06 294.93 230.05 294.58C230.06 294.25 230.01 293.92 229.88 293.61C229.76 293.3 229.57 293.02 229.33 292.79C229.09 292.55 228.8 292.37 228.49 292.26C228.18 292.14 227.84 292.09 227.51 292.12L227.51 292.11Z" />
						<path id="Layer" fill-rule="evenodd" class="shp3" d="M267.91 295.88C270.22 296.09 271.78 297.35 271.78 299.44C271.77 301.91 269.9 303.62 266.91 303.62C266.51 303.62 266.11 303.59 265.72 303.53C265.32 303.47 264.93 303.38 264.55 303.26C264.17 303.13 263.8 302.98 263.45 302.81C263.09 302.63 262.75 302.42 262.42 302.19L263.29 300.38C263.52 300.6 263.78 300.79 264.05 300.96C264.32 301.13 264.6 301.28 264.9 301.39C265.2 301.51 265.51 301.6 265.82 301.66C266.13 301.72 266.45 301.76 266.77 301.76C268.64 301.76 269.74 300.85 269.74 299.48C269.74 298.05 268.63 297.31 266.74 297.31L264.93 297.31L264.93 296.03L268.56 292.33L263.05 292.33L263.03 290.35L271.16 290.35L271.16 291.74L267.18 295.82L267.91 295.87L267.91 295.88ZM278.43 290.27C281.42 290.28 283.08 292.65 283.08 296.92C283.07 301.21 281.41 303.58 278.42 303.58C275.42 303.58 273.76 301.21 273.76 296.92C273.76 292.64 275.42 290.28 278.43 290.28L278.43 290.27ZM278.43 292.01C276.7 292.01 275.83 293.57 275.83 296.92C275.83 300.27 276.69 301.85 278.42 301.85C280.14 301.85 281.01 300.27 281.01 296.92C281.01 293.57 280.15 292.01 278.43 292.01L278.43 292.01Z" />
					</g>
				</g>
				<g id="Layer">
					<path id="Layer" class="shp7" d="M190.6 20.05L194.6 20.05C197.42 20.05 199.7 22.33 199.7 25.15L199.7 49.53C199.7 52.35 197.42 54.63 194.6 54.63L190.6 54.63C187.78 54.63 185.51 52.35 185.51 49.53L185.51 25.15C185.51 22.33 187.78 20.05 190.6 20.05Z" />
					<path id="Layer" class="shp7" d="M278.33 20.05L282.33 20.05C285.15 20.05 287.42 22.33 287.42 25.15L287.42 49.53C287.42 52.35 285.15 54.63 282.33 54.63L278.33 54.63C275.51 54.63 273.23 52.35 273.23 49.53L273.23 25.15C273.23 22.33 275.51 20.05 278.33 20.05Z" />
					<path id="Layer" class="shp7" d="M366.05 20.05L370.05 20.05C372.87 20.05 375.15 22.33 375.15 25.15L375.15 49.53C375.15 52.35 372.87 54.63 370.05 54.63L366.05 54.63C363.23 54.63 360.96 52.35 360.96 49.53L360.96 25.15C360.96 22.33 363.23 20.05 366.05 20.05Z" />
					<path id="Layer" class="shp7" d="M453.78 20.05L457.78 20.05C460.6 20.05 462.87 22.33 462.87 25.15L462.87 49.53C462.87 52.35 460.6 54.63 457.78 54.63L453.78 54.63C450.96 54.63 448.68 52.35 448.68 49.53L448.68 25.15C448.68 22.33 450.96 20.05 453.78 20.05Z" />
				</g>
				<path id="Layer" fill-rule="evenodd" class="shp8" d="M346.93 212.63C321.79 214.56 308.92 225.09 309.09 235.54C309.34 251.1 328.52 252.88 336.72 247.59C344.99 242.25 342.26 227.83 330.71 209.81" />
			</g>
			<g id="Layer">
				<path id="Layer" class="shp9" d="M447.28 344.01C446.59 344.01 445.9 343.87 445.27 343.61C444.63 343.34 444.05 342.95 443.56 342.46C443.07 341.97 442.68 341.39 442.41 340.75C442.15 340.11 442.01 339.43 442.01 338.74L442.01 240.29L432.15 234.6L442.01 228.96L442.01 220.73C442.01 220.04 442.15 219.35 442.41 218.72C442.68 218.08 443.07 217.49 443.56 217.01C444.05 216.52 444.63 216.13 445.27 215.86C445.9 215.6 446.59 215.46 447.28 215.46L526.11 215.46C526.81 215.46 527.49 215.6 528.13 215.86C528.77 216.13 529.35 216.52 529.84 217.01C530.33 217.49 530.72 218.08 530.98 218.72C531.25 219.35 531.38 220.04 531.38 220.73L531.38 338.74C531.38 339.43 531.25 340.11 530.98 340.75C530.72 341.39 530.33 341.97 529.84 342.46C529.35 342.95 528.77 343.34 528.13 343.6C527.49 343.87 526.81 344.01 526.11 344.01L447.28 344.01Z" />
				<g id="Layer">
					<path id="Layer" class="shp10" d="M460.54 237.14L468.64 237.14L468.64 245.25L460.54 245.25L460.54 237.14Z" />
					<g id="Layer">
						<path id="Layer" class="shp10" d="M480.93 237.94L512.5 237.94" />
						<path id="Layer" class="shp10" d="M480.93 243.68L494.65 243.68" />
					</g>
					<g id="Layer">
						<path id="Layer" class="shp10" d="M460.54 263.05L468.64 263.05L468.64 271.15L460.54 271.15L460.54 263.05Z" />
						<g id="Layer">
							<path id="Layer" class="shp10" d="M480.93 263.84L512.5 263.84" />
							<path id="Layer" class="shp10" d="M480.93 269.58L494.65 269.58" />
						</g>
					</g>
					<g id="Layer">
						<path id="Layer" class="shp10" d="M460.54 288.95L468.64 288.95L468.64 297.06L460.54 297.06L460.54 288.95Z" />
						<g id="Layer">
							<path id="Layer" class="shp10" d="M480.93 289.75L512.5 289.75" />
							<path id="Layer" class="shp10" d="M480.93 295.48L494.65 295.48" />
						</g>
					</g>
					<g id="Layer">
						<path id="Layer" class="shp10" d="M460.54 314.85L468.64 314.85L468.64 322.96L460.54 322.96L460.54 314.85Z" />
						<g id="Layer">
							<path id="Layer" class="shp10" d="M480.93 315.65L512.5 315.65" />
							<path id="Layer" class="shp10" d="M480.93 321.39L494.65 321.39" />
						</g>
					</g>
				</g>
				<path id="Layer" class="shp10" d="M459.31 237.94L463.58 242.21L472.65 233.13" />
			</g>
			<g id="Layer">
				<g id="Layer">
					<path id="Layer" class="shp3" d="M470.89 148.82L470.89 189.71L482.91 177.69L565.59 177.69C566.47 177.69 567.34 177.51 568.16 177.18C568.97 176.84 569.71 176.35 570.33 175.72C570.95 175.1 571.45 174.36 571.78 173.55C572.12 172.74 572.29 171.86 572.3 170.98L572.3 148.82C572.29 147.93 572.12 147.06 571.78 146.25C571.45 145.44 570.95 144.7 570.33 144.07C569.71 143.45 568.97 142.96 568.16 142.62C567.34 142.28 566.47 142.11 565.59 142.11L477.6 142.11C476.72 142.11 475.85 142.28 475.03 142.62C474.22 142.96 473.48 143.45 472.86 144.07C472.24 144.7 471.74 145.44 471.41 146.25C471.07 147.06 470.9 147.93 470.89 148.82L470.89 148.82Z" />
					<g id="Layer">
						<path id="Layer" fill-rule="evenodd" class="shp4" d="M498.65 154.04C499.05 155.01 499.25 156.05 499.25 157.1C499.25 158.15 499.05 159.19 498.65 160.16C498.24 161.13 497.65 162.01 496.91 162.76L491.26 168.41L485.61 162.76C484.08 161.26 483.22 159.22 483.21 157.08C483.2 154.95 484.04 152.9 485.55 151.39C487.06 149.88 489.11 149.03 491.24 149.04C493.38 149.05 495.42 149.92 496.91 151.44C497.65 152.19 498.24 153.07 498.65 154.04ZM491.26 159.95C491.63 159.95 492 159.87 492.34 159.73C492.69 159.59 493 159.38 493.27 159.11C493.53 158.85 493.74 158.54 493.88 158.19C494.03 157.84 494.1 157.47 494.1 157.1C494.1 155.95 493.41 154.91 492.35 154.47C491.28 154.03 490.06 154.27 489.25 155.09C488.43 155.9 488.19 157.13 488.63 158.19C489.07 159.25 490.11 159.95 491.26 159.95L491.26 159.95Z" />
						<g id="Layer">
							<path id="Layer" class="shp4" d="M549.62 157.1L509.88 157.1C509.62 157.1 509.36 157.05 509.12 156.95C508.88 156.85 508.66 156.71 508.48 156.52C508.29 156.34 508.15 156.12 508.05 155.88C507.95 155.63 507.9 155.38 507.9 155.12L507.9 155.12C507.9 154.85 507.95 154.6 508.05 154.36C508.15 154.11 508.3 153.9 508.48 153.71C508.66 153.53 508.88 153.38 509.12 153.28C509.36 153.18 509.62 153.13 509.88 153.13L549.62 153.13C549.88 153.13 550.14 153.18 550.38 153.28C550.62 153.38 550.84 153.53 551.02 153.71C551.21 153.9 551.35 154.11 551.45 154.36C551.55 154.6 551.61 154.85 551.61 155.12L551.61 155.12C551.61 155.38 551.55 155.63 551.45 155.88C551.36 156.12 551.21 156.34 551.02 156.52C550.84 156.71 550.62 156.85 550.38 156.95C550.14 157.05 549.88 157.1 549.62 157.1L549.62 157.1Z" />
							<path id="Layer" class="shp4" d="M529.45 165.56L509.88 165.56C509.62 165.56 509.36 165.51 509.12 165.41C508.88 165.31 508.66 165.16 508.48 164.98C508.3 164.79 508.15 164.57 508.05 164.33C507.95 164.09 507.9 163.83 507.9 163.57L507.9 163.57C507.9 163.31 507.95 163.05 508.05 162.81C508.15 162.57 508.29 162.35 508.48 162.17C508.66 161.98 508.88 161.84 509.12 161.74C509.36 161.64 509.62 161.59 509.88 161.59L529.45 161.59C529.71 161.59 529.97 161.64 530.21 161.74C530.45 161.84 530.67 161.98 530.85 162.17C531.03 162.35 531.18 162.57 531.28 162.81C531.38 163.05 531.43 163.31 531.43 163.57L531.43 163.57C531.43 163.83 531.38 164.09 531.28 164.33C531.18 164.57 531.03 164.79 530.85 164.98C530.67 165.16 530.45 165.31 530.21 165.41C529.97 165.51 529.71 165.56 529.45 165.56L529.45 165.56Z" />
						</g>
					</g>
				</g>
				<g id="Layer">
					<path id="Layer" class="shp11" d="M581.49 152.57C576.02 158.04 567.18 158.04 561.71 152.57C556.24 147.09 556.24 138.25 561.71 132.77C567.18 127.3 576.02 127.3 581.49 132.77C586.96 138.25 586.96 147.09 581.49 152.57Z" />
					<path id="Layer" class="shp12" d="M565.84 142.82L569.58 146.56L577.35 138.78" />
				</g>
			</g>
			<g id="Layer">
				<path id="Layer" fill-rule="evenodd" class="shp13" d="M106.06 0L37.48 0C36 0.01 34.54 0.3 33.17 0.87C31.81 1.44 30.57 2.27 29.52 3.32C28.47 4.36 27.64 5.6 27.08 6.97C26.51 8.34 26.21 9.8 26.21 11.28L26.21 47.94C26.21 49.42 26.51 50.89 27.08 52.25C27.64 53.62 28.47 54.86 29.52 55.91C30.57 56.96 31.81 57.79 33.17 58.35C34.54 58.92 36 59.22 37.48 59.22L57.37 59.22L74.69 75.37L74.69 59.22L106.07 59.22C107.55 59.22 109.01 58.92 110.38 58.35C111.74 57.79 112.98 56.96 114.03 55.91C115.07 54.86 115.9 53.62 116.47 52.25C117.04 50.89 117.34 49.42 117.34 47.94L117.34 11.29C117.34 9.81 117.04 8.34 116.47 6.97C115.91 5.61 115.07 4.36 114.03 3.32C112.98 2.27 111.74 1.44 110.37 0.87C109.01 0.3 107.54 0.01 106.06 0L106.06 0Z" />
				<path id="Layer" class="shp14" d="M79.09 9.53C90.19 13.58 95.89 25.83 91.84 36.94C87.79 48.05 75.55 53.75 64.45 49.7C53.35 45.65 47.65 33.39 51.7 22.29C55.74 11.18 67.99 5.48 79.09 9.53Z" />
				<g id="Layer">
					<path id="Layer" class="shp4" d="M76.02 13.53C84.91 15.88 90.19 24.97 87.84 33.87C85.49 42.76 76.4 48.04 67.51 45.69C58.62 43.34 53.34 34.24 55.69 25.35C58.05 16.46 67.13 11.17 76.02 13.53Z" />
					<path id="Layer" fill-rule="evenodd" class="shp3" d="M71.77 16.52C71.34 16.52 70.96 16.26 70.8 15.87C70.63 15.48 70.72 15.02 71.03 14.72C71.33 14.42 71.78 14.33 72.17 14.49C72.57 14.66 72.82 15.04 72.82 15.47C72.82 15.61 72.8 15.74 72.74 15.87C72.69 16 72.61 16.11 72.52 16.21C72.42 16.31 72.3 16.39 72.17 16.44C72.05 16.49 71.91 16.52 71.77 16.52Z" />
					<path id="Layer" fill-rule="evenodd" class="shp3" d="M56.02 30.02C56.02 30.45 56.28 30.84 56.67 31C57.06 31.16 57.52 31.07 57.82 30.77C58.12 30.47 58.21 30.01 58.05 29.62C57.88 29.23 57.5 28.97 57.07 28.97C56.94 28.97 56.8 29 56.67 29.05C56.54 29.1 56.43 29.18 56.33 29.28C56.23 29.38 56.15 29.49 56.1 29.62C56.05 29.75 56.02 29.89 56.02 30.02Z" />
					<path id="Layer" fill-rule="evenodd" class="shp3" d="M71.63 45.78C72.05 45.78 72.44 45.53 72.6 45.13C72.76 44.74 72.67 44.29 72.37 43.98C72.07 43.68 71.62 43.59 71.23 43.76C70.83 43.92 70.57 44.3 70.57 44.73C70.57 44.87 70.6 45 70.65 45.13C70.71 45.26 70.79 45.38 70.88 45.47C70.98 45.57 71.1 45.65 71.23 45.7C71.35 45.76 71.49 45.78 71.63 45.78Z" />
					<path id="Layer" fill-rule="evenodd" class="shp3" d="M87.38 30.17C87.38 29.74 87.12 29.36 86.73 29.19C86.33 29.03 85.88 29.12 85.58 29.42C85.28 29.72 85.19 30.18 85.35 30.57C85.51 30.96 85.9 31.22 86.32 31.22C86.46 31.22 86.6 31.19 86.73 31.14C86.85 31.09 86.97 31.01 87.07 30.91C87.16 30.81 87.24 30.7 87.3 30.57C87.35 30.44 87.38 30.31 87.38 30.17Z" />
					<g id="Layer">
						<path id="Layer" class="shp3" d="M71.53 17.5L72.01 17.5C72.4 17.5 72.72 17.83 72.72 18.22L72.72 28.9C72.72 29.29 72.4 29.61 72.01 29.61L71.53 29.61C71.14 29.61 70.82 29.29 70.82 28.9L70.82 18.22C70.82 17.83 71.14 17.5 71.53 17.5Z" />
						<path id="Layer" fill-rule="evenodd" class="shp3" d="M79.39 22.81L79.39 22.81C79.31 22.72 79.21 22.64 79.09 22.59C78.98 22.53 78.86 22.5 78.73 22.49C78.61 22.49 78.48 22.5 78.36 22.54C78.25 22.59 78.14 22.65 78.04 22.73L71.85 28.27C71.75 28.35 71.68 28.45 71.62 28.56C71.57 28.68 71.54 28.8 71.53 28.93C71.52 29.05 71.54 29.18 71.58 29.29C71.62 29.41 71.69 29.52 71.77 29.61L71.77 29.61C71.85 29.71 71.95 29.78 72.07 29.84C72.18 29.89 72.3 29.92 72.43 29.93C72.55 29.94 72.68 29.92 72.79 29.88C72.91 29.84 73.02 29.77 73.12 29.69L79.31 24.16C79.41 24.07 79.48 23.97 79.54 23.86C79.59 23.75 79.62 23.62 79.63 23.5C79.64 23.37 79.62 23.25 79.58 23.13C79.54 23.01 79.47 22.9 79.39 22.81L79.39 22.81Z" />
						<path id="Layer" fill-rule="evenodd" class="shp3" d="M71.77 32.08C70.77 32.08 69.87 31.48 69.49 30.56C69.11 29.64 69.32 28.58 70.03 27.87C70.73 27.16 71.79 26.95 72.71 27.34C73.63 27.72 74.23 28.62 74.23 29.61C74.23 29.94 74.17 30.26 74.04 30.56C73.92 30.86 73.74 31.13 73.51 31.36C73.28 31.59 73.01 31.77 72.71 31.89C72.41 32.02 72.09 32.08 71.77 32.08L71.77 32.08Z" />
					</g>
				</g>
			</g>
		</g>
		<g id="Layer">
			<path id="Layer" fill-rule="evenodd" class="shp15" d="M63.43 357.31C64.65 361.03 66.44 365.23 69.78 366.27C72.09 366.99 79.54 362.41 81.17 360.57C82.8 358.73 91.51 270.21 89.25 264.82C86.23 257.59 52.57 267.58 51.85 280.12C50.92 296.15 53 313.21 56.09 329.11C56.56 331.49 57.06 333.87 57.6 336.24C58.14 338.61 58.71 340.97 59.32 343.33C59.94 345.68 60.58 348.02 61.27 350.35C61.95 352.68 62.68 355 63.43 357.31L63.43 357.31Z" />
			<path id="Layer" class="shp16" d="M4.91 429.85C5.7 430.26 6.51 430.63 7.34 430.95C8.17 431.28 9.02 431.55 9.88 431.78C10.74 432 11.61 432.18 12.5 432.31C13.38 432.44 14.27 432.52 15.16 432.54L18.61 420.55C18.65 420.42 18.69 420.3 18.72 420.17C18.76 420.04 18.78 419.91 18.79 419.78C18.81 419.65 18.81 419.52 18.81 419.39C18.81 419.26 18.8 419.13 18.78 419C18.72 418.81 18.63 418.64 18.53 418.48C18.43 418.31 18.32 418.16 18.18 418.02C18.05 417.88 17.91 417.75 17.75 417.64C17.59 417.53 17.42 417.43 17.25 417.36C14.7 415.92 10.62 414.32 9.34 417.69C7.8 421.72 6.39 425.8 4.91 429.85Z" />
			<path id="Layer" class="shp16" d="M69.88 439.49C70.77 439.62 71.65 439.7 72.55 439.73C73.44 439.76 74.33 439.74 75.22 439.67C76.11 439.59 76.99 439.47 77.87 439.3C78.75 439.13 79.61 438.91 80.46 438.64C80.3 434.49 80.14 430.33 79.97 426.18C79.98 426.04 79.98 425.91 79.97 425.78C79.96 425.65 79.94 425.52 79.91 425.4C79.88 425.27 79.85 425.14 79.8 425.02C79.76 424.89 79.71 424.77 79.65 424.66C79.53 424.51 79.4 424.37 79.25 424.25C79.1 424.12 78.94 424.02 78.78 423.93C78.61 423.84 78.43 423.77 78.24 423.72C78.06 423.66 77.87 423.63 77.68 423.62C74.81 423.11 70.44 422.95 70.27 426.56C70.08 430.86 70.02 435.18 69.88 439.49Z" />
			<path id="Layer" fill-rule="evenodd" class="shp15" d="M82.19 347.12C78.67 339.77 68.32 334.72 61.8 347.48C51.86 366.94 69.07 403.35 68.99 426.85L81.06 426.85C81.72 424.57 84.15 351.2 82.19 347.12Z" />
			<path id="Layer" fill-rule="evenodd" class="shp17" d="M36.19 286.38C39.13 288.7 43.01 289.05 46.66 289.05C76.64 289.05 89.84 281.91 89.84 265.51C89.84 250.73 58.75 253.64 44.74 258.2C41.71 259.19 37.31 260.14 35.25 262.96C32.26 267.05 29.06 280.76 36.19 286.38Z" />
			<path id="Layer" class="shp16" d="M77.2 189.33C78.18 203.12 80.88 217.25 88.63 228.69C90.31 231.16 92.73 233.72 95.69 233.41C96.12 233.34 96.54 233.22 96.95 233.06C97.35 232.9 97.74 232.7 98.1 232.45C98.46 232.21 98.79 231.92 99.08 231.6C99.38 231.29 99.64 230.94 99.86 230.56C100.08 230.18 100.28 229.79 100.46 229.4C100.64 229 100.8 228.6 100.94 228.19C101.08 227.77 101.21 227.36 101.31 226.93C101.41 226.51 101.49 226.08 101.56 225.65C104.07 212.18 99.96 198.45 95.87 185.36C94.18 179.98 91.94 170.44 86.46 167.54C80.75 164.51 77.88 173.86 77.35 177.67C77.24 178.64 77.15 179.61 77.09 180.58C77.03 181.55 76.99 182.52 76.98 183.5C76.96 184.47 76.98 185.44 77.01 186.42C77.05 187.39 77.12 188.36 77.2 189.33L77.2 189.33Z" />
			<path id="Layer" fill-rule="evenodd" class="shp18" d="M76.55 169.74C76.81 167.46 77.42 164.77 79.54 163.78C81.77 162.72 84.16 164.26 85.9 165.82C96.43 175.27 100.42 188.6 102.33 202.92L77.08 204.47C76.66 201.6 76.33 198.72 76.1 195.82C75.87 192.93 75.73 190.03 75.68 187.13C75.64 184.22 75.69 181.32 75.83 178.42C75.97 175.52 76.21 172.63 76.55 169.74Z" />
			<path id="Layer" fill-rule="evenodd" class="shp17" d="M38.74 357.31C39.76 361.03 41.31 365.23 44.59 366.27C46.86 366.99 51.74 357.6 53.47 355.77C55.2 353.93 71.93 284.47 69.98 279.08C69.34 277.4 68.48 275.81 67.43 274.35C66.38 272.89 65.14 271.57 63.74 270.44C62.35 269.3 60.81 268.35 59.16 267.62C57.52 266.89 55.79 266.37 54.01 266.09C44.18 264.52 32.87 267.58 31.45 280.12C29.63 296.16 30.76 313.22 32.97 329.11C33.3 331.49 33.67 333.86 34.07 336.23C34.48 338.6 34.92 340.95 35.41 343.31C35.89 345.66 36.41 348 36.96 350.34C37.52 352.67 38.11 355 38.74 357.31L38.74 357.31Z" />
			<path id="Layer" class="shp19" d="M111.67 226.59C111.81 227 111.89 227.43 111.9 227.86C111.91 228.3 111.86 228.73 111.75 229.15C111.63 229.57 111.45 229.96 111.22 230.33C110.98 230.69 110.7 231.02 110.36 231.3C109.09 232.48 100.21 236.66 91.5 232.81C87.12 230.87 86.45 226.64 87.99 222.63C90.13 217.05 110.82 224.71 111.67 226.59Z" />
			<path id="Layer" fill-rule="evenodd" class="shp17" d="M55.67 349.78C55.41 341.91 46.7 332.7 36.28 343.35C19.5 360.51 14.59 393.23 8.04 417.55L19.42 421.54C21.01 419.69 55.81 354.15 55.67 349.78Z" />
			<path id="Layer" fill-rule="evenodd" class="shp18" d="M30.12 219.88C26.03 206.75 21 190.52 23.27 176.79C28.82 170 40.19 154.25 62.71 154.25C78.52 154.25 90.35 170.21 93.09 174.28C96.14 178.8 95.03 185.24 94.27 190.47C92.65 201.61 87.83 245.4 92.02 275.8L28.21 275.8C28.33 261.3 34.24 233.11 30.12 219.88Z" />
			<path id="Layer" class="shp16" d="M15.44 203.91C16.23 200.9 17.25 197.94 18.47 195.07C19.69 192.2 21.11 189.43 22.73 186.76C24.35 184.1 26.16 181.55 28.15 179.15C30.13 176.75 32.29 174.49 34.6 172.39C36.26 170.89 38.52 169.38 40.58 170.26C40.86 170.4 41.12 170.56 41.35 170.76C41.59 170.95 41.81 171.17 42 171.4C42.19 171.64 42.35 171.9 42.49 172.18C42.62 172.45 42.72 172.74 42.79 173.04C42.86 173.34 42.92 173.64 42.96 173.94C43.01 174.25 43.04 174.55 43.06 174.86C43.09 175.16 43.09 175.47 43.09 175.77C43.09 176.08 43.07 176.38 43.05 176.69C42.48 190.96 39.89 205.06 37.3 219.11C36.51 223.42 35.7 227.79 33.83 231.77C31.97 235.74 28.91 239.34 24.81 240.89C22.66 241.7 19.15 242.18 17.17 240.64C15.58 239.39 15.32 236.23 14.91 234.42C14.56 232.83 14.26 231.21 14.03 229.59C13.79 227.97 13.62 226.34 13.5 224.71C13.39 223.08 13.34 221.44 13.35 219.8C13.36 218.16 13.44 216.53 13.57 214.89C13.65 213.97 13.74 213.04 13.86 212.12C13.97 211.2 14.11 210.28 14.26 209.36C14.42 208.45 14.6 207.53 14.79 206.62C14.99 205.72 15.2 204.81 15.44 203.91L15.44 203.91Z" />
			<path id="Layer" fill-rule="evenodd" class="shp20" d="M11.85 208.44C11.85 208.47 11.84 208.49 11.84 208.51C11.84 208.53 11.83 208.55 11.83 208.58C11.83 208.6 11.82 208.62 11.82 208.64C11.82 208.67 11.82 208.69 11.82 208.71C11.83 208.62 11.85 208.53 11.85 208.44Z" />
			<path id="Layer" fill-rule="evenodd" class="shp18" d="M43.45 169.74C43.33 167.46 42.89 164.77 40.83 163.78C38.67 162.72 34.64 164.71 32.8 166.26C21.68 175.71 15.5 188.6 12.68 202.92L40.72 204.47C41.32 201.63 41.83 198.76 42.24 195.88C42.66 192.99 42.98 190.1 43.21 187.2C43.44 184.29 43.57 181.38 43.61 178.47C43.65 175.56 43.59 172.65 43.45 169.74L43.45 169.74Z" />
			<g id="Layer">
				<path id="Layer" class="shp16" d="M69.05 138.44C67.5 131.63 62.35 130.03 59.35 131.67C57.43 144.42 55.48 150.09 50.48 157.05C56.69 161.04 67.3 160.3 69.59 157.05C69.68 156.03 69.84 141.97 69.05 138.44Z" />
				<path id="Layer" class="shp19" d="M68.71 122.45C74.88 118.18 83.75 121.88 85.04 129.77C86.21 137 78.95 149.4 75.5 151.41C69.48 154.93 61.39 146.48 61.1 142.43C60.68 136.5 63.52 126.03 68.71 122.45Z" />
				<path id="Layer" fill-rule="evenodd" class="shp21" d="M64.32 123.96C64.2 123.89 64.06 123.83 63.93 123.79C63.79 123.75 63.64 123.73 63.5 123.73C63.36 123.72 63.21 123.73 63.07 123.76C62.93 123.8 62.79 123.84 62.66 123.91C62.53 123.97 62.41 124.04 62.29 124.12C62.16 124.19 62.04 124.27 61.93 124.36C61.81 124.44 61.7 124.54 61.59 124.63C61.48 124.73 61.38 124.82 61.28 124.93C60.9 125.25 60.54 125.58 60.19 125.92C59.83 126.26 59.48 126.61 59.15 126.96C58.81 127.32 58.48 127.69 58.16 128.06C57.85 128.44 57.54 128.82 57.24 129.21C56.94 129.6 56.67 130.01 56.44 130.44C56.21 130.87 56 131.32 55.84 131.79C55.67 132.25 55.54 132.72 55.45 133.2C55.35 133.69 55.3 134.18 55.28 134.67C55.28 135.94 55.61 137.26 55.17 138.46C54.78 139.53 53.79 140.52 54.09 141.62C54.16 141.82 54.26 142.01 54.4 142.17C54.53 142.33 54.69 142.47 54.87 142.58C55.05 142.69 55.25 142.77 55.45 142.81C55.66 142.85 55.87 142.86 56.08 142.83C56.29 142.8 56.5 142.74 56.69 142.67C56.89 142.59 57.08 142.5 57.26 142.39C57.44 142.28 57.61 142.15 57.77 142.01C57.92 141.86 58.06 141.7 58.19 141.53C58.31 141.36 58.43 141.19 58.55 141.01C58.67 140.84 58.79 140.66 58.9 140.48C59.01 140.3 59.12 140.12 59.22 139.93C59.33 139.75 59.43 139.56 59.53 139.38C60.96 136.95 63.05 134.98 64.54 132.59C66.03 130.2 66.86 127.07 65.52 124.6L64.32 123.96Z" />
				<path id="Layer" fill-rule="evenodd" class="shp21" d="M92.93 127.15L88.94 125.53C89.11 125.71 89.26 125.9 89.41 126.09C89.55 126.29 89.69 126.49 89.81 126.7C89.94 126.91 90.05 127.12 90.15 127.34C90.25 127.57 90.34 127.79 90.42 128.02C90.49 128.26 90.53 128.5 90.53 128.74C90.52 128.98 90.48 129.22 90.41 129.45C90.33 129.68 90.22 129.9 90.07 130.1C89.93 130.29 89.76 130.47 89.56 130.61C89.39 130.69 89.21 130.75 89.02 130.8C88.84 130.84 88.65 130.85 88.46 130.85C88.27 130.84 88.09 130.81 87.9 130.76C87.72 130.71 87.55 130.64 87.38 130.54C87.22 130.45 87.06 130.34 86.91 130.23C86.75 130.13 86.6 130.01 86.46 129.89C86.31 129.77 86.17 129.64 86.04 129.51C85.9 129.37 85.77 129.23 85.65 129.09C85.73 129.21 85.8 129.34 85.86 129.47C85.93 129.6 85.98 129.73 86.03 129.87C86.07 130 86.11 130.14 86.14 130.28C86.17 130.42 86.2 130.56 86.21 130.71C86.22 130.85 86.2 131 86.16 131.13C86.12 131.27 86.05 131.4 85.97 131.51C85.88 131.63 85.77 131.73 85.65 131.81C85.53 131.89 85.4 131.94 85.26 131.97C85.15 131.97 85.03 131.96 84.92 131.93C84.81 131.91 84.7 131.87 84.59 131.83C84.49 131.78 84.39 131.72 84.29 131.66C84.2 131.6 84.11 131.52 84.03 131.44L78.61 127.16C78.64 127.3 78.67 127.44 78.69 127.59C78.72 127.73 78.73 127.87 78.74 128.02C78.75 128.16 78.76 128.31 78.75 128.45C78.75 128.59 78.74 128.74 78.73 128.88C78.71 129.02 78.68 129.17 78.63 129.3C78.57 129.43 78.51 129.56 78.42 129.68C78.34 129.8 78.24 129.9 78.13 130C78.02 130.09 77.9 130.17 77.77 130.23C76.83 130.6 75.86 129.76 75.29 128.92C74.71 128.09 74.12 127.08 73.11 126.93C71.99 126.76 71.07 127.77 70.37 128.68L70 129.17C68.74 130.83 67.47 132.5 66.2 134.17C66.11 134.3 66.02 134.43 65.92 134.56C65.82 134.68 65.71 134.8 65.6 134.92C65.49 135.04 65.38 135.15 65.26 135.26C65.14 135.36 65.02 135.47 64.89 135.56C64.76 135.66 64.62 135.74 64.47 135.81C64.33 135.87 64.17 135.92 64.01 135.94C63.86 135.97 63.7 135.98 63.54 135.97C63.38 135.96 63.22 135.93 63.07 135.88C62.04 135.49 51 119.19 65.13 114.21C67.18 113.49 70.06 114.29 72.13 114.94C72.63 115.14 73.14 115.34 73.65 115.53C74.15 115.71 74.67 115.9 75.18 116.07C75.69 116.24 76.21 116.4 76.73 116.56C77.25 116.72 77.77 116.87 78.29 117C79.98 117.31 81.72 117.19 83.43 117.36C88.22 117.84 92.81 122.23 92.93 127.15Z" />
				<path id="Layer" class="shp19" d="M57.77 130.61C57.62 131.01 57.5 131.42 57.42 131.84C57.34 132.27 57.3 132.7 57.31 133.13C57.31 133.56 57.35 133.98 57.44 134.41C57.53 134.83 57.65 135.24 57.82 135.64C59.72 140.17 64.16 136.1 64.38 132.82C64.63 128.9 59.51 126.26 57.77 130.61Z" />
			</g>
			<path id="Layer" fill-rule="evenodd" class="shp18" d="M102.93 445.6C103.09 443.87 101.45 442.43 99.76 442.04C99.33 441.98 98.9 441.93 98.47 441.9C98.04 441.87 97.61 441.85 97.18 441.84C96.74 441.83 96.31 441.83 95.88 441.84C95.45 441.86 95.01 441.88 94.58 441.92C93.35 441.89 92.12 441.7 90.94 441.35C89.76 440.99 88.62 440.49 87.57 439.84C86.52 439.19 85.56 438.41 84.72 437.5C83.87 436.6 83.15 435.59 82.57 434.5C82.51 434.35 82.44 434.19 82.36 434.04C82.28 433.89 82.19 433.75 82.09 433.61C81.98 433.48 81.87 433.35 81.75 433.23C81.63 433.11 81.5 433 81.37 432.9C81.16 432.81 80.94 432.75 80.72 432.73C80.49 432.71 80.26 432.71 80.04 432.75C79.82 432.8 79.61 432.87 79.41 432.97C79.2 433.07 79.02 433.2 78.86 433.36C78.16 433.94 77.66 434.72 77.02 435.36C76.73 435.65 76.42 435.9 76.08 436.12C75.74 436.35 75.38 436.53 75 436.68C74.63 436.83 74.23 436.95 73.84 437.02C73.44 437.1 73.03 437.13 72.63 437.12C71.27 437.1 69.75 436.07 68.45 436.75C67.3 437.36 66.99 438.95 66.7 440.09C66.2 442.04 65.74 444.01 65.27 445.98C65.24 446.08 65.21 446.19 65.18 446.31C65.16 446.42 65.14 446.53 65.12 446.64C65.1 446.75 65.08 446.86 65.06 446.97C65.05 447.09 65.03 447.2 65.02 447.31L74.44 447.31C74.55 447.06 74.66 446.81 74.76 446.55C74.86 446.29 74.95 446.03 75.03 445.76C75.11 445.5 75.19 445.24 75.25 444.97C75.32 444.7 75.37 444.43 75.42 444.16C75.43 444.43 75.45 444.7 75.49 444.97C75.53 445.25 75.59 445.51 75.66 445.78C75.72 446.04 75.81 446.31 75.9 446.56C76 446.82 76.11 447.07 76.24 447.31L102.12 447.31C102.23 447.2 102.33 447.07 102.43 446.94C102.52 446.81 102.6 446.67 102.67 446.52C102.74 446.38 102.79 446.23 102.84 446.07C102.88 445.92 102.91 445.76 102.93 445.6Z" />
			<path id="Layer" fill-rule="evenodd" class="shp18" d="M17.29 440.66C17.43 440.36 17.54 440.05 17.61 439.72C17.68 439.4 17.71 439.07 17.7 438.74C17.69 438.4 17.63 438.07 17.54 437.75C17.45 437.44 17.32 437.13 17.15 436.84C16.59 436.22 16.45 433.1 16.41 428.6C16.39 426.54 12.88 424.73 9.93 427.23C8.97 428.04 8.19 428.51 7.52 428.25C6.97 428.04 6.68 426.83 5.91 427.29C5.24 427.69 4.58 429.15 4.09 430.18C3.23 431.95 2.39 433.75 1.54 435.53C1.35 435.92 1.16 436.33 1 436.75L16.38 442.15C16.48 442.04 16.57 441.93 16.65 441.81C16.74 441.69 16.82 441.57 16.9 441.45C16.97 441.32 17.05 441.19 17.11 441.06C17.18 440.93 17.24 440.8 17.29 440.66Z" />
			<g id="Layer">
				<path id="Layer" class="shp22" d="M61.13 245.28L99.41 245.28C100 245.25 100.59 245.12 101.14 244.92C101.69 244.71 102.21 244.42 102.68 244.05C103.15 243.69 103.55 243.25 103.89 242.76C104.23 242.28 104.49 241.74 104.66 241.17L121.5 180.98C121.69 180.52 121.75 180.01 121.69 179.51C121.63 179.01 121.44 178.53 121.15 178.13C120.85 177.72 120.46 177.39 120.01 177.17C119.55 176.95 119.05 176.85 118.55 176.88L80.27 176.88C79.68 176.91 79.1 177.03 78.54 177.24C77.99 177.45 77.47 177.74 77 178.11C76.54 178.47 76.13 178.91 75.79 179.39C75.46 179.88 75.2 180.42 75.02 180.98L58.18 241.17C57.99 241.64 57.93 242.15 57.99 242.65C58.06 243.15 58.24 243.62 58.54 244.03C58.83 244.44 59.22 244.77 59.68 244.99C60.13 245.2 60.63 245.3 61.13 245.28L61.13 245.28Z" />
				<path id="Layer" class="shp23" d="M58.18 241.17L75.02 180.98C75.2 180.42 75.46 179.88 75.79 179.39C76.13 178.91 76.54 178.47 77 178.11C77.47 177.74 77.99 177.45 78.54 177.24C79.1 177.04 79.68 176.91 80.27 176.88L84.35 176.88C83.76 176.91 83.18 177.04 82.63 177.24C82.07 177.45 81.55 177.74 81.08 178.11C80.62 178.47 80.21 178.91 79.87 179.39C79.54 179.88 79.28 180.42 79.1 180.98L62.26 241.17C62.08 241.64 62.01 242.15 62.08 242.65C62.14 243.15 62.32 243.62 62.62 244.03C62.91 244.44 63.3 244.77 63.76 244.99C64.21 245.2 64.71 245.3 65.21 245.28L61.13 245.28C60.63 245.3 60.13 245.2 59.68 244.99C59.22 244.77 58.83 244.44 58.54 244.03C58.24 243.62 58.06 243.15 57.99 242.65C57.93 242.15 58 241.64 58.18 241.17L58.18 241.17Z" />
			</g>
			<path id="Layer" class="shp19" d="M63.65 227.42C65.52 228.63 65.83 231.42 64.87 233.43C63.9 235.45 31.35 243.34 23.5 243.22C21.12 243.18 18.37 242.95 16.97 241.02C15.72 239.29 16.07 236.89 16.75 234.87C17.87 231.47 19.85 227.63 22.63 225.28C24.54 223.66 62.45 226.64 63.65 227.42Z" />
			<path id="Layer" class="shp19" d="M75.39 221.66C76.18 220.56 76.97 219.06 76.17 217.98C76.02 217.81 75.85 217.67 75.66 217.56C75.47 217.44 75.26 217.36 75.05 217.31C74.83 217.25 74.61 217.23 74.39 217.25C74.17 217.26 73.95 217.31 73.74 217.39C73.53 217.47 73.33 217.56 73.13 217.66C72.93 217.77 72.74 217.88 72.55 218C72.37 218.12 72.18 218.24 72.01 218.38C71.83 218.52 71.66 218.66 71.5 218.82C71.28 219.02 71.05 219.22 70.81 219.39C70.56 219.57 70.31 219.73 70.04 219.87C69.78 220.01 69.5 220.14 69.22 220.24C68.94 220.35 68.65 220.44 68.36 220.5C68.06 220.56 67.76 220.56 67.47 220.52C67.17 220.47 66.89 220.37 66.63 220.22C66.37 220.07 66.13 219.88 65.94 219.65C65.75 219.42 65.6 219.16 65.49 218.88C65.18 217.6 66.18 215.98 65.24 215.06C65.11 214.96 64.96 214.87 64.8 214.81C64.64 214.74 64.47 214.71 64.29 214.7C64.12 214.69 63.95 214.7 63.78 214.75C63.62 214.79 63.46 214.86 63.31 214.95C63.17 215.04 63.03 215.15 62.89 215.25C62.76 215.36 62.63 215.48 62.51 215.6C62.39 215.73 62.27 215.86 62.17 215.99C62.06 216.13 61.96 216.27 61.86 216.41C59.68 219.36 57.44 222.42 56.57 225.99C55.69 229.55 56.5 233.8 59.48 235.95C60.17 236.4 60.92 236.74 61.71 236.96C62.49 237.17 63.31 237.26 64.13 237.23C64.95 237.19 65.75 237.03 66.52 236.74C67.29 236.45 68 236.04 68.64 235.54C69.14 235.1 69.59 234.62 69.99 234.09C70.39 233.57 70.73 233 71.02 232.41C71.3 231.81 71.53 231.19 71.68 230.55C71.84 229.91 71.93 229.25 71.96 228.59C72.27 225.65 73.61 224.14 75.39 221.66Z" />
			<path id="Layer" class="shp19" d="M113.72 218.6C113.58 218.19 113.35 211.61 113.01 211.34C112.39 210.84 110.09 218.57 110.56 219.21L106.72 218.8C105.5 218.67 103.92 218.77 103.55 219.93C103.26 220.86 104 221.76 104.52 222.59C105.44 224.06 104.08 232.65 104.8 233.38C107.46 236.08 113.28 231.4 114.25 228.77C115.59 225.12 114.92 222.11 113.72 218.6Z" />
		</g>
	</g>
</svg>