<svg xmlns="http://www.w3.org/2000/svg" width="521.33" height="447.347" viewBox="0 0 521.33 447.347"><defs><style>.a{fill:#c4c3fc;opacity:0.55;mix-blend-mode:multiply;isolation:isolate;}.b{fill:#f0f7fb;}.c{fill:#c8dbfb;}.d,.e,.n{fill:#fff;}.d{stroke:#d5d5d5;}.f,.g,.k,.r{fill:#1e76e2;}.f{font-size:14px;}.f,.g{font-family:OpenSans-Bold, Open Sans;}.f,.g,.n{font-weight:700;}.g{font-size:16px;}.h{fill:none;stroke:#c8dbfb;stroke-width:2px;}.h,.l,.m,.o{stroke-miterlimit:10;}.i{fill:#bad2db;}.j{fill:#00a6d6;}.l{fill:#46c3df;}.l,.m,.o{stroke:rgba(0,0,0,0);}.m{fill:#00ad9f;}.n{font-size:21px;font-family:Poppins-Bold, Poppins;}.o{fill:#10bce6;}.p{fill:#f7b690;}.q{fill:#bbe5f5;}.q,.r,.s,.t{fill-rule:evenodd;}.s{fill:#222b54;}.t{fill:#0a3c5f;}.u{fill:#f4a086;}.v{fill:#404040;}</style></defs><g transform="translate(-416 -1639)"><g transform="translate(310.84 1495.968)"><g transform="translate(98.127 79.032)"><path class="a" d="M357.717,180.862V74.872L351.694,71l-6.018,3.872L339.659,71l-6.02,3.872L327.618,71,321.6,74.872,315.58,71l-6.022,3.872L303.538,71l-6.022,3.872L291.5,71l-6.022,3.872L279.452,71l-6.023,3.872L267.407,71l-6.023,3.872L255.359,71l-6.023,3.872L243.312,71l-6.024,3.872L231.269,71l-6.022,3.872L219.223,71,213.2,74.872,207.174,71l-6.026,3.872L195.125,71,189.1,74.872,183.065,71l-6.032,3.872V254.427h27.635V430.616l6.023,3.872,6.018-3.872,6.017,3.872,6.02-3.872,6.021,3.872,6.018-3.872,6.02,3.872,6.022-3.872,6.019,3.872,6.022-3.872,6.021,3.872,6.022-3.872,6.022,3.872,6.023-3.872,6.022,3.872L301,430.616l6.024,3.872,6.023-3.872,6.023,3.872,6.024-3.872,6.019,3.872,6.022-3.872,6.024,3.872,6.024-3.872,6.025,3.872,6.026-3.872,6.023,3.872,6.028-3.872,6.032,3.872,6.032-3.872V180.862Z" transform="translate(0 1.445)"/><g transform="translate(185.841 64)"><path class="b" d="M0,0H73.564a0,0,0,0,1,0,0V22.263a0,0,0,0,1,0,0H9.226A9.226,9.226,0,0,1,0,13.037V0A0,0,0,0,1,0,0Z" transform="translate(0 183.427) rotate(-90)"/><rect class="b" width="180.684" height="155.517" transform="translate(0 12.261)"/><path class="b" d="M365.018,67.872,359,64l-6.018,3.872L346.96,64l-6.02,3.872L334.919,64,328.9,67.872,322.881,64l-6.022,3.872L310.839,64l-6.022,3.872L298.8,64l-6.022,3.872L286.753,64l-6.023,3.872L274.708,64l-6.023,3.872L262.66,64l-6.023,3.872L250.613,64l-6.024,3.872L238.57,64l-6.022,3.872L226.524,64,220.5,67.872,214.475,64l-6.026,3.872L202.426,64,196.4,67.872,190.366,64l-6.032,3.872v8.389H365.018Z" transform="translate(-184.333 -64)"/><g transform="translate(12.261 83.728)"><rect class="c" width="30.341" height="6.453" transform="translate(75.178 33.878)"/><rect class="c" width="22.263" height="6.453" transform="translate(133.9)"/><rect class="c" width="51.624" height="6.453"/><rect class="c" width="30.974" height="6.453" transform="translate(125.188 16.939)"/><rect class="c" width="78.081" height="6.453" transform="translate(0 16.939)"/><rect class="c" width="30.974" height="6.453" transform="translate(125.188 33.878)"/><rect class="c" width="68.414" height="6.453" transform="translate(0 33.878)"/><rect class="c" width="30.974" height="6.453" transform="translate(125.188 50.817)"/><rect class="c" width="51.624" height="6.453" transform="translate(0 50.817)"/><rect class="c" width="51.624" height="6.453" transform="translate(57.754)"/><rect class="c" width="51.624" height="6.453" transform="translate(57.754 50.817)"/><rect class="c" width="22.263" height="6.453" transform="translate(133.9 67.757)"/><rect class="c" width="78.081" height="6.453" transform="translate(0 67.757)"/></g><rect class="d" width="180.684" height="242.231" transform="translate(27.635 109.862)"/><path class="e" d="M207.239,363.506l6.022,3.872,6.018-3.872,6.017,3.872,6.02-3.872,6.022,3.872,6.018-3.872,6.02,3.872,6.022-3.872,6.019,3.872,6.022-3.872,6.021,3.872,6.022-3.872,6.021,3.872,6.023-3.872,6.022,3.872,6.023-3.872,6.024,3.872,6.023-3.872,6.024,3.872,6.024-3.872,6.019,3.872,6.022-3.872,6.024,3.872,6.024-3.872,6.025,3.872,6.026-3.872,6.023,3.872,6.028-3.872,6.032,3.872,6.032-3.872v-8.389H207.239Z" transform="translate(-179.604 -3.89)"/><rect class="c" width="68.414" height="6.453" transform="translate(83.77 322.273)"/><rect class="c" width="30.974" height="6.453" transform="translate(165.084 126.156)"/><rect class="c" width="68.414" height="6.453" transform="translate(39.896 126.156)"/><rect class="c" width="30.341" height="6.453" transform="translate(115.073 126.156)"/><rect class="c" width="30.341" height="6.453" transform="translate(115.073 176.974)"/><rect class="c" width="22.263" height="6.453" transform="translate(173.796 143.095)"/><rect class="c" width="51.624" height="6.453" transform="translate(39.896 143.095)"/><rect class="c" width="30.974" height="6.453" transform="translate(165.084 160.035)"/><rect class="c" width="78.081" height="6.453" transform="translate(39.896 160.035)"/><rect class="c" width="30.974" height="6.453" transform="translate(165.084 176.974)"/><rect class="c" width="68.414" height="6.453" transform="translate(39.896 176.974)"/><rect class="c" width="30.974" height="6.453" transform="translate(165.084 193.913)"/><rect class="c" width="51.624" height="6.453" transform="translate(39.896 193.913)"/><rect class="c" width="51.624" height="6.453" transform="translate(97.65 143.095)"/><rect class="c" width="51.624" height="6.453" transform="translate(97.65 193.913)"/><rect class="c" width="22.263" height="6.453" transform="translate(173.796 210.852)"/><rect class="c" width="30.974" height="6.453" transform="translate(165.084 291.581)"/><rect class="c" width="78.081" height="6.453" transform="translate(39.896 210.852)"/><rect class="c" width="30.341" height="6.453" transform="translate(115.073 226.15)"/><rect class="c" width="30.974" height="6.453" transform="translate(165.084 226.15)"/><rect class="c" width="68.414" height="6.453" transform="translate(39.896 226.15)"/><rect class="c" width="30.974" height="6.453" transform="translate(165.084 243.09)"/><rect class="c" width="51.624" height="6.453" transform="translate(39.896 243.09)"/><rect class="c" width="51.624" height="6.453" transform="translate(97.65 243.09)"/><rect class="c" width="22.263" height="6.453" transform="translate(173.796 260.029)"/><rect class="c" width="78.081" height="6.453" transform="translate(39.896 260.029)"/><text class="f" transform="translate(39.896 287.71)"><tspan x="0" y="0">TOTAL</tspan></text><g transform="translate(12.745 27.598)"><text class="g" transform="translate(77.623 17)"><tspan x="-32.867" y="0">INVOICE</tspan></text><line class="h" x2="156.163" transform="translate(0 39.876)"/></g><line class="h" x2="156.163" transform="translate(39.896 309.408)"/><path class="i" d="M211.968,155.06v73.564H184.333Z" transform="translate(-184.333 -45.198)"/></g></g><g transform="translate(105.16 148.126)"><path class="j" d="M4.6,0H165.651a4.6,4.6,0,0,1,4.6,4.6V72.338a4.6,4.6,0,0,1-4.6,4.6H4.6a4.6,4.6,0,0,1-4.6-4.6V4.6A4.6,4.6,0,0,1,4.6,0Z" transform="translate(0 0)"/><path class="e" d="M3.315,0H157.631a3.314,3.314,0,0,1,3.314,3.314V49.8a3.314,3.314,0,0,1-3.314,3.314H3.315A3.315,3.315,0,0,1,0,49.8V3.315A3.315,3.315,0,0,1,3.315,0Z" transform="translate(4.655 20.215)"/><g transform="translate(7.019 5.662)"><rect class="e" width="6.67" height="6.003" rx="0.375"/><path class="e" d="M.375,0H6.3A.374.374,0,0,1,6.67.374V5.629A.375.375,0,0,1,6.3,6H.375A.375.375,0,0,1,0,5.628V.375A.375.375,0,0,1,.375,0Z" transform="translate(12.127)"/><path class="e" d="M.375,0H6.3A.374.374,0,0,1,6.67.374V5.629A.375.375,0,0,1,6.3,6H.375A.375.375,0,0,1,0,5.628V.375A.375.375,0,0,1,.375,0Z" transform="translate(24.255)"/></g><g transform="translate(7.342 26.763)"><path class="c" d="M3178.489,706.944h-85.132a2.547,2.547,0,1,1,0-5.093h85.132a2.547,2.547,0,1,1,0,5.093Z" transform="translate(-3026.779 -701.851)"/><path class="c" d="M3087.153,762.991h-85.132a2.547,2.547,0,0,1,0-5.093h85.132a2.547,2.547,0,1,1,0,5.093Z" transform="translate(-2999.475 -718.606)"/><path class="c" d="M.318,0h9.915a.317.317,0,0,1,.317.317V4.775a.318.318,0,0,1-.318.318H.318A.318.318,0,0,1,0,4.775V.318A.318.318,0,0,1,.318,0Z" transform="translate(93.682 39.292)"/><path class="c" d="M.318,0h9.915a.317.317,0,0,1,.317.317V4.775a.318.318,0,0,1-.318.318H.317A.317.317,0,0,1,0,4.776V.318A.318.318,0,0,1,.318,0Z" transform="translate(106.961 39.292)"/><path class="c" d="M3156.191,723.47H3015.214a1.728,1.728,0,1,1,0-3.455h140.978a1.728,1.728,0,1,1,0,3.455Z" transform="translate(-3003.663 -707.281)"/><path class="c" d="M3156.191,734.109H3015.214a1.728,1.728,0,0,1,0-3.456h140.978a1.728,1.728,0,1,1,0,3.456Z" transform="translate(-3003.663 -710.461)"/></g></g><g transform="translate(141.362 217.679)"><path class="k" d="M4.605,0H165.652a4.6,4.6,0,0,1,4.6,4.6V72.338a4.605,4.605,0,0,1-4.605,4.605H4.605A4.605,4.605,0,0,1,0,72.337V4.605A4.605,4.605,0,0,1,4.605,0Z" transform="translate(0 0)"/><path class="e" d="M3.314,0H157.63a3.315,3.315,0,0,1,3.315,3.315V49.8a3.315,3.315,0,0,1-3.315,3.315H3.315A3.315,3.315,0,0,1,0,49.8V3.314A3.314,3.314,0,0,1,3.314,0Z" transform="translate(4.656 20.215)"/><g transform="translate(7.02 5.663)"><path class="e" d="M.375,0H6.3A.374.374,0,0,1,6.67.374V5.629A.375.375,0,0,1,6.3,6H.375A.375.375,0,0,1,0,5.628V.375A.375.375,0,0,1,.375,0Z"/><rect class="e" width="6.67" height="6.003" rx="0.375" transform="translate(12.127)"/><rect class="e" width="6.671" height="6.003" rx="0.375" transform="translate(24.253)"/></g><g transform="translate(7.343 26.764)"><path class="c" d="M3233.366,784.005h-85.133a2.547,2.547,0,0,1,0-5.093h85.133a2.547,2.547,0,0,1,0,5.093Z" transform="translate(-3081.657 -778.912)"/><path class="c" d="M3142.031,840.052H3056.9a2.547,2.547,0,0,1,0-5.094h85.132a2.547,2.547,0,1,1,0,5.094Z" transform="translate(-3054.352 -795.667)"/><path class="c" d="M.318,0h9.915a.317.317,0,0,1,.317.317V4.775a.318.318,0,0,1-.318.318H.318A.318.318,0,0,1,0,4.775V.318A.318.318,0,0,1,.318,0Z" transform="translate(93.681 39.292)"/><rect class="c" width="10.55" height="5.093" rx="0.318" transform="translate(106.96 39.292)"/><path class="c" d="M3211.068,800.531H3070.091a1.728,1.728,0,0,1,0-3.456h140.978a1.728,1.728,0,0,1,0,3.456Z" transform="translate(-3058.541 -784.342)"/><path class="c" d="M3211.068,811.17H3070.091a1.728,1.728,0,0,1,0-3.456h140.978a1.728,1.728,0,0,1,0,3.456Z" transform="translate(-3058.541 -787.522)"/></g></g><g transform="translate(476.874 243.032)"><path class="l" d="M18.011,61.448H3.95A3.95,3.95,0,0,1,0,57.5V3.951A3.951,3.951,0,0,1,3.951,0H145.165a3.951,3.951,0,0,1,3.951,3.951V57.5a3.95,3.95,0,0,1-3.95,3.95H42.643L18.011,86.08Z" transform="translate(0 0)"/><rect class="e" width="133.691" height="49.264" rx="3.167" transform="translate(7.713 6.092)"/><path class="c" d="M3454.061,611.267h-60.388a2.649,2.649,0,0,1,0-5.3h60.388a2.649,2.649,0,0,1,0,5.3Z" transform="translate(-3373.543 -592.992)"/><rect class="c" width="114.949" height="2.976" rx="0.191" transform="translate(17.481 25.426)"/><rect class="c" width="114.949" height="2.976" rx="0.191" transform="translate(17.481 31.191)"/><g transform="translate(102.736 47.409)"><path class="c" d="M.375,0H6.1a.374.374,0,0,1,.374.374V5.453a.375.375,0,0,1-.375.375H.375A.375.375,0,0,1,0,5.452V.375A.375.375,0,0,1,.375,0Z"/><path class="c" d="M.375,0H6.1a.375.375,0,0,1,.375.375V5.453a.375.375,0,0,1-.375.375H.374A.374.374,0,0,1,0,5.453V.375A.375.375,0,0,1,.375,0Z" transform="translate(11.772)"/><rect class="c" width="6.475" height="5.827" rx="0.375" transform="translate(23.543)"/></g></g><g transform="translate(533.956 346.222)"><path class="m" d="M3006.99-2241.631a15.726,15.726,0,0,1-3.786-10.2c0-9.033,7.76-16.355,17.332-16.355s17.331,7.322,17.331,16.355-7.76,16.357-17.331,16.357a17.988,17.988,0,0,1-9.607-2.741l-6.7,3.375Z" transform="translate(-3003.204 2268.19)"/><text class="n" transform="translate(9.204 23.81)"><tspan x="0" y="0">%</tspan></text></g><g transform="translate(286.955 329.222)"><path class="o" d="M0,16.99a15.726,15.726,0,0,1,3.786-10.2L1.02,0l6.7,3.374A17.986,17.986,0,0,1,17.331.634C26.9.634,34.663,7.957,34.663,16.99S26.9,33.345,17.331,33.345,0,26.024,0,16.99Z" transform="translate(34.663 33.345) rotate(180)"/><text class="n" transform="matrix(-1, 0, 0, 1, 25.459, 23.81)"><tspan x="0" y="0">%</tspan></text></g></g><g transform="translate(422 1757.357)"><g transform="translate(66 14.233)"><path class="p" d="M1153.185,459.785c.213,7.768,8.015,28.376,9.979,50.322.281,1.378,7.2,1.329,7.571.133.936-25.012,5.752-54.374,2.971-69.484-.927-5.042-9.809-13.835-13.906-8.012C1156.068,438.045,1153.01,453.336,1153.185,459.785Z" transform="translate(-1142.39 -212.643)"/><path class="q" d="M1143.177,501.776a20.286,20.286,0,0,1,.223-6.338,10.141,10.141,0,0,1,2.806-5.422c.412,1.014,1.458,2.389,2.55,2.433.863.035,5.141-1.779,5.953-1.481.583.214,1.527,8.52,4.106,10.282s5.6,2.734,8.432,4.044a8,8,0,0,1,2.7,1.789,3.148,3.148,0,0,1,.778,3.016,2,2,0,0,1-.131.258h-18.755a20.774,20.774,0,0,1-1.182-2.017l-3.936-7.367a32.084,32.084,0,0,0-.857,9.384h-2.1Z" transform="translate(-1125.632 -195.599)"/><path class="p" d="M1127.171,458.166c-1.019,7.708,3.489,28.8,1.968,50.694.062,1.39,6.961,1.953,7.52.8,4.894-24.677,14.341-53.315,13.966-68.518-.126-5.073-7.579-14.563-12.583-9.161C1133.487,436.9,1128.017,451.767,1127.171,458.166Z" transform="translate(-1084.777 -212.772)"/><path class="q" d="M1124.618,501.776a20.368,20.368,0,0,1,.223-6.338,10.142,10.142,0,0,1,2.808-5.422c.412,1.014,1.457,2.389,2.55,2.433.863.035,5.14-1.779,5.951-1.481.585.214,1.529,8.52,4.106,10.282s5.6,2.734,8.432,4.044a7.984,7.984,0,0,1,2.706,1.789,3.15,3.15,0,0,1,.777,3.016,1.855,1.855,0,0,1-.131.258h-18.755a21.309,21.309,0,0,1-1.182-2.017q-1.967-3.684-3.936-7.367a32.134,32.134,0,0,0-.857,9.384h-2.094Q1124.916,506.068,1124.618,501.776Z" transform="translate(-1083.172 -195.599)"/><path class="r" d="M1177.207,366.739c-14.306-22.769-40.879-13.082-47.77.761-4.1,8.239-4.995,18.855-.771,26.6,2.357,11,4.286,7.386,10.44,67.182,2.231,5.159,38.476,4.473,49.742,2.155,3.278-.3,3.511-.809,3.6-3.609C1196.01,431.068,1186.321,381.247,1177.207,366.739Z" transform="translate(-1125.897 -235.015)"/><path class="s" d="M1173.026,360.677c1.992-4.751,2.424-12.177,4.67-16.814,3.471-7.163,6.706-10.443,6.706-16.434,0-9.605-10.848-12.529-16.608-23.488-3.149-5.991-8.776-5.931-13.755-5.931-5.037,0-10.935,13.953-10.762,19.692.344,11.473,7.143,20.381,5.7,31.938-1.54,12.346-8.762,18.083-18.174,28.315l46.2,9.019C1175.844,382.208,1167.889,372.924,1173.026,360.677Z" transform="translate(-1123.418 -250.883)"/><path class="t" d="M1137.269,317.563a51.734,51.734,0,0,0,2.9,12.4,133.5,133.5,0,0,0,15.02,30.613,14.306,14.306,0,0,0,3.757,4.241,5.228,5.228,0,0,0,5.39.48c2.423-1.419,2.584-4.807,2.365-7.605-1.018-13.02-3.924-25.809-6.822-38.544-1.064-4.678-2.29-9.648-5.784-12.935-3.22-3.029-9.168-4.465-13.24-2.26C1136.888,306.1,1136.954,313.7,1137.269,317.563Z" transform="translate(-1113.943 -249.48)"/><path class="t" d="M1153.088,333.942c1.7.632,1.588,3.087.9,4.759-1.893,4.584-30.244,20.607-34.116,18.2-2.341-1.458-6.25-5.872-6.174-8.686C1113.786,344.813,1152.382,333.679,1153.088,333.942Z" transform="translate(-1071.432 -240.538)"/><path class="p" d="M1101.794,337.1c2.216-4.959,3.8-10.82,6.054-12.848,1.826-1.646.706,2.889.761,5.348,3.354-5.86,5.962-5.243,10.616-6.692,4.822-1.5-8.943,19.561-16.654,20.633Z" transform="translate(-1021.879 -243.736)"/><g transform="translate(2.875)"><path class="u" d="M1145.665,283.023c.809-1.522,9.671,3.046,10.2,4.139s1.084,13.476,2.979,21.2c.41,1.668-16.121-3.44-14.948-5.458C1145.8,299.633,1147.742,287.148,1145.665,283.023Z" transform="translate(-1117.521 -255.287)"/><path class="p" d="M1162.92,276.5c-3.062-12.7-20.434-10.021-24.559-8.755s-4.232,7.1-4.63,11.4a10.856,10.856,0,0,0,2.294,7.4c1.517,2.023,8.124,5.073,8.5,5.153,2.452,4.227,6.438,9.061,10.493,9a6,6,0,0,0,4.555-2.675,17.766,17.766,0,0,0,2.232-4.978A30.1,30.1,0,0,0,1162.92,276.5Z" transform="translate(-1109.229 -259.924)"/><path class="v" d="M1136.57,285.376a12.675,12.675,0,0,1-2.992-6.352,11.863,11.863,0,0,1,2.141-7.959c2.8-4.159,10.025-9.525,15.863-9.644,6.237-.126,16.949,6.084,15.932,13.8-.3,2.309-1.571,2.326-3.78,3.063-2.911.972-6.816,1.643-9.229,3.538-2.888,2.265-1.6,7.729-7.514,9.5-1.91.573-3.873,3.948-5.142,6.57C1140.342,296.184,1138.033,287.143,1136.57,285.376Z" transform="translate(-1112.948 -261.419)"/><path class="p" d="M1147.75,280.882a2.17,2.17,0,0,0-.565,1.114,4.989,4.989,0,0,0,3.842,6.025,2.121,2.121,0,0,0,1.532-.151c1.546-.943.761-4.224.018-5.5C1151.806,281.053,1149.068,279.657,1147.75,280.882Z" transform="translate(-1116.272 -255.951)"/><path class="v" d="M1172.689,284.363a10.577,10.577,0,0,0-3.324,9.054c.412,3.14,2.245,6.026,2.247,9.193,0,2.541-1.18,4.925-2.478,7.109a57.713,57.713,0,0,1-12.423,14.641c-.538.453-1.141,1.043-1.011,1.735.16.849,1.245,1.087,2.108,1.127a36.046,36.046,0,0,0,9.735-.629,17.364,17.364,0,0,0,8.545-4.494,15.908,15.908,0,0,0,4.3-9.77,22.727,22.727,0,0,0-1.842-10.627,50.434,50.434,0,0,1-2.408-5.867,7.856,7.856,0,0,1,.509-6.147c.972-1.584,2.683-2.573,3.8-4.057.527-.7,1.428-2.143,1.279-3.074-.182-1.128-1.506-.911-2.494-.864A10.571,10.571,0,0,0,1172.689,284.363Z" transform="translate(-1155.682 -255.594)"/><path class="t" d="M1154.337,284.387a6.91,6.91,0,0,0,1.685,2.065,6.43,6.43,0,0,0,1.876,1.319,2.5,2.5,0,0,0,2.22-.077,2.565,2.565,0,0,0,1-2.537c-.226-1.669-1.585-4.545-3.5-4.674C1155.38,280.333,1153.262,282.087,1154.337,284.387Z" transform="translate(-1132.974 -255.932)"/></g></g></g></g></svg>