<svg xmlns="http://www.w3.org/2000/svg" width="739.654" height="582.006" viewBox="0 0 739.654 582.006"><defs><style>.a{fill:#2b9de6;opacity:0.999;}.b{fill:#f7931e;}.c,.d{fill:#ff5959;}.d{stroke:#f7931e;}.d,.f,.h,.j,.m,.n,.p,.r,.u{stroke-linecap:round;stroke-linejoin:round;}.e{fill:#00a6d6;}.f,.n,.p,.r,.u{fill:none;}.f,.j,.m,.p{stroke:#00ad9f;}.f,.k,.o,.t,.v{mix-blend-mode:multiply;isolation:isolate;}.g,.h{fill:#0363a9;}.h,.n{stroke:#0b43a4;}.i,.j,.t{fill:#46c3df;}.k,.l,.m{fill:#60cbd6;}.k,.o,.t,.v{opacity:0.2;}.o{fill:#5275a0;}.q,.v{fill:#10bce6;}.r{stroke:#ff5959;}.s{fill:#00ad9f;}.u{stroke:#0363a9;}.w{fill:#008dc7;}.x{fill:#fff;}</style></defs><g transform="translate(15.586 21.987)"><path class="a" d="M662.145,308.192c-11.55-32.2-29.739-42-47.04-62.659-21.129-25.227-35.38-43.566-29.895-76.013,8.965-53.022,12.8-185.259-127.568-167.974-50.312,6.2-90.07,44.75-118.994,83.236-24.61,32.749-86.97,5.047-122.606,12.681-45.631,4.124-70.294,54.142-110.8,74.9C21.815,215.126-3.1,276.6.3,355.247c1.027,23.762,4.391,61.19,44.528,104.986,54.177,59.112,132.9,67.028,227.656,39.881,21.689-6.214,42.191-15.96,63.528-23.3a299.759,299.759,0,0,1,68.559-14.887c54.421-5.262,110.834,4.255,163.04-11.994a172.011,172.011,0,0,0,72.919-45.224C665.469,378.594,674.336,342.181,662.145,308.192Z" transform="matrix(0.995, 0.105, -0.105, 0.995, 52.409, -21.987)"/><g transform="translate(28.61 14.081)"><g transform="translate(167.021 19.729)"><path class="b" d="M611.127,179.833v-5.4h3.13a11.546,11.546,0,0,1,1.355-3.3l-2.2-2.2,3.815-3.814,2.173,2.173a11.547,11.547,0,0,1,3.331-1.419v-3.034h5.4V165.8a11.549,11.549,0,0,1,3.438,1.385l2.067-2.067,3.815,3.814-2.029,2.029a11.556,11.556,0,0,1,1.462,3.475h2.847v5.4h-2.842a11.553,11.553,0,0,1-1.459,3.484l2.02,2.02-3.815,3.814-2.052-2.052a11.548,11.548,0,0,1-3.453,1.394v2.938h-5.4v-3.01a11.566,11.566,0,0,1-3.346-1.429l-2.158,2.158-3.815-3.814,2.2-2.2a11.544,11.544,0,0,1-1.352-3.309Zm14.3,2.607a5.3,5.3,0,1,0-5.3-5.3A5.3,5.3,0,0,0,625.424,182.44Z" transform="translate(-611.127 -140.46)"/><path class="b" d="M93.355,214.372v-8.8H98.46a18.826,18.826,0,0,1,2.21-5.382l-3.6-3.6,6.223-6.222,3.545,3.544a18.867,18.867,0,0,1,5.433-2.315v-4.948h8.8v4.831a18.816,18.816,0,0,1,5.608,2.259l3.371-3.371,6.222,6.222-3.31,3.31a18.84,18.84,0,0,1,2.384,5.668H140v8.8H135.36a18.848,18.848,0,0,1-2.38,5.683l3.3,3.3-6.222,6.222-3.347-3.347a18.838,18.838,0,0,1-5.632,2.274v4.792h-8.8v-4.909a18.866,18.866,0,0,1-5.458-2.331l-3.521,3.521-6.223-6.222,3.582-3.582a18.869,18.869,0,0,1-2.205-5.4Zm23.32,4.253a8.654,8.654,0,1,0-8.654-8.653A8.654,8.654,0,0,0,116.675,218.625Z" transform="translate(335.342 -144.557)"/><path class="b" d="M292.183,50.97V46.725h2.463a9.084,9.084,0,0,1,1.066-2.6l-1.735-1.735,3-3,1.711,1.71a9.081,9.081,0,0,1,2.621-1.117V37.6h4.245v2.33a9.082,9.082,0,0,1,2.7,1.09l1.626-1.626,3,3-1.6,1.6a9.1,9.1,0,0,1,1.15,2.734h2.24V50.97h-2.235a9.118,9.118,0,0,1-1.148,2.741l1.59,1.59-3,3-1.615-1.615a9.068,9.068,0,0,1-2.717,1.1V60.1H301.31V57.727a9.077,9.077,0,0,1-2.632-1.124l-1.7,1.7-3-3,1.728-1.728a9.076,9.076,0,0,1-1.064-2.6Zm11.25,2.052a4.174,4.174,0,1,0-4.175-4.175A4.174,4.174,0,0,0,303.433,53.021Z" transform="translate(62.317 -37.598)"/></g><g transform="translate(-49 19.753)"><g transform="matrix(0.819, -0.574, 0.574, 0.819, 396.454, 43.196)"><path class="c" d="M73.282,95.615a172.649,172.649,0,0,1-6.063,23.672c-5.483,16.74-13.057,32.86-20.713,48.772-3.994,8.318-20.2,27.562-28.887,31.225,1.014-21.706,1.1-47.055-1.428-68.968-2.421-21.106,5.173-37.1-3.1-56.677-1.055-2.5-2.152-5.008-3.249-7.511C5.721,56.817,1.645,47.464.362,37.428-1.293,24.7,2.659,10.2,13.667,3.575c7.925-4.759,18.251-4.511,26.714-.766s15.25,10.595,20.4,18.271C75.207,42.518,77.814,70.2,73.282,95.615Z" transform="translate(0 0)"/><path class="d" d="M.147,0c16.2,22.88,17.607,49.538,19.012,77.539A149.512,149.512,0,0,1,0,158.287" transform="translate(34.647 25.313)"/></g><g transform="translate(136.829 363.126) rotate(150)"><path class="e" d="M20.177,17.477C28.559,24.884,37.04,32.406,43.234,41.72c5.395,8.113,8.877,17.327,13.583,25.857,3.046,5.52,6.641,10.838,8.405,16.891s1.341,13.221-2.96,17.831c-4.486,4.808-12.2,5.546-18.293,3.069s-10.747-7.6-14.3-13.131a62.582,62.582,0,0,1-9.193-24.33c-1.191-7.823-.887-15.816-2.1-23.636A79.134,79.134,0,0,0,11.7,23.313C8.9,17.259,1.81,6.465,0,.258,5.013-2.252,16.6,14.319,20.177,17.477Z" transform="translate(0 0)"/><path class="f" d="M46.174,91.906c-7.97-3.489-11.139-12.995-12.8-21.535-1.892-9.719-1.472-20.244-5.929-29.086C19.048,24.627,8.121,5.665,0,0" transform="translate(3.311 2.391)"/></g><g transform="translate(185.66 445.671) rotate(169)"><path class="g" d="M65.628,48.829C72.584,51.575,81.874,52.7,86.334,46.7c3.734-5.027,1.8-12.152-.779-17.858-2.177-4.816-4.944-9.714-9.535-12.332-3.137-1.789-6.814-2.326-10.4-2.754a249.182,249.182,0,0,0-30.146-1.743C23.8,12.048,9.658,7.28,0,0,12.393,23.041,42.217,39.584,65.628,48.829Z" transform="translate(0 0)"/><path class="h" d="M73.635,27.954c-8.854-.377-17.789-1-26.288-3.513C38.656,21.87,5.225,6.53,0,0" transform="translate(4.197 5.897)"/></g><g transform="translate(69.429 333.078)"><path class="i" d="M144.556,360.579a59.1,59.1,0,0,0-41.34-26.39c-12.349-1.659-25.056.651-37.241-1.92A47.458,47.458,0,0,1,30.264,272.2c2.863-9.534,9.4-18.563,18.873-21.621a29.928,29.928,0,0,1,16.074-.162,44.672,44.672,0,0,1,13.552,5.857c9.534,6.035,17.23,15.325,23.021,25.185,5.255,8.964,18.222,22.923,27.04,32,5.174,5.3,8.932,8.932,8.932,8.932C143.808,329.91,140.977,351.613,144.556,360.579Z" transform="translate(-28.315 -249.401)"/><path class="j" d="M40.109,268.161c29.67,13.4,62.037,30.951,83.08,55.791" transform="translate(-22.04 -239.42)"/></g><g transform="translate(7.55 166.648) rotate(-19)"><path class="k" d="M122.325,338.668s-50.447-40.887-61.081-84.78c10.876,6.884,19.656,17.482,26.262,28.73,5.995,10.226,20.787,26.15,30.846,36.507C119.541,324.618,120.859,331.058,122.325,338.668Z" transform="translate(-48.443 -131.03)"/><path class="k" d="M118.253,228.488c-4.631,14.139-11.028,27.753-17.494,41.193-3.373,7.026-17.057,23.279-24.4,26.372.856-18.333.926-39.742-1.206-58.25-2.045-17.826,4.369-31.336-2.622-47.869-.891-2.115-1.818-4.229-2.744-6.344.647.21,1.276.437,1.887.7,11.5,4.928,16.813,17.092,17.791,28.907.821,9.752-.944,19.522-2.255,29.221-.612,4.474-1.1,9.053-.14,13.44a.411.411,0,0,1,.035.14c1.206,5.226,8.843,4.928,9.822-.367l3.058-16.236c.909-4.859,1.9-9.944,5.89-13.335a8.414,8.414,0,0,1,5.662-2.115C114.828,224.066,116.89,225.989,118.253,228.488Z" transform="translate(-42.053 -183.59)"/><path class="l" d="M127.809,377.957c-7.968-41.609-12.159-48.021-8.653-58.451,4.465-13.293,1.956-26.659,6.169-40.034s7.08-27.758,3.681-41.362c-1.075-4.3-3.252-8.992-8.42-9.17a8.4,8.4,0,0,0-5.668,2.109c-3.983,3.394-4.99,8.478-5.9,13.335l-3.043,16.239c-.989,5.281-8.621,5.591-9.827.355l-.03-.131c-.977-4.4-.475-8.972.128-13.434,1.309-9.708,3.072-19.474,2.265-29.237-.979-11.813-6.3-23.978-17.8-28.894a20.325,20.325,0,0,0-12.978-1.036c-12.01,3.081-15.117,14.819-13.357,24.84,1.241,7.054,4.549,13.538,7.541,20.044,7.307,15.888,1.947,30.46,2.959,47.92C67.664,329.233,127.809,377.957,127.809,377.957Z" transform="translate(-53.919 -180.571)"/><path class="m" d="M47.961,128.576C42.035,98.971,36.046,69.15,24.543,41.235,21.17,33.045,19.522,22.272,0,0" transform="translate(52.136 151.806) rotate(-171)"/></g><g transform="translate(16 132.213) rotate(-39)"><path class="g" d="M.662,112.775c5.361-6.125,10.31-12.357,15.518-18.359,3.375-3.895,6.858-7.7,10.646-11.3,1.879-1.8,3.818-3.544,5.865-5.239A164.693,164.693,0,0,1,72.724,53.421c8.706-3.727,17.9-6.8,25.293-12.738,7.393-5.926,12.708-15.671,10.249-24.82-1.787-6.6-7.393-11.73-13.823-14.082C88.028-.556,80.911-.373,74.236,1.063,55.6,5.08,40.038,18.475,29.453,34.314c-.183.275-.382.565-.565.855-7.759,11.837-13.181,25-17.9,38.414C9.475,77.89,8.039,82.228,6.619,86.55,4.48,93.011-2.087,106.376.662,112.775Z" transform="translate(0 0)"/><path class="n" d="M80.93,0C60.6,3.876,46.211,17.337,31.134,31.511A110.389,110.389,0,0,0,0,84.267" transform="translate(4.971 16.616)"/></g><g transform="translate(513.035 70.815)"><path class="o" d="M192.691,207.967a24.053,24.053,0,0,0,.29,6.354c-5.086-1.161-8.614-9.057-10.936-17.656a132.729,132.729,0,0,1-3.757-21.567,93.309,93.309,0,0,1,1.7-26.378c7.759,11.837,13.181,25,17.9,38.414q-2.429,7.217-4.155,14.6A42.444,42.444,0,0,0,192.691,207.967Z" transform="translate(-178.005 -111.883)"/><path class="l" d="M226.475,147.3c-1.72,7.623-6.326,14.209-10.382,20.891-2.141,3.521-4.136,7.137-6,10.8a164.263,164.263,0,0,0-13.528,37,30.029,30.029,0,0,0-.747,12.587c-10.023-2.288-14.014-30.771-14.695-39.238a92.321,92.321,0,0,1,7.672-44.833c2.742-6.131,6.277-12.149,11.727-16.074,5.434-3.925,13.138-5.3,18.9-1.882a15.4,15.4,0,0,1,6.78,9.377A23.278,23.278,0,0,1,226.475,147.3Z" transform="translate(-176.511 -124.602)"/><path class="p" d="M189.177,216.611c-6.232-15.651-2.445-48.78,7.551-69.6,3.012-6.273,7.3-12.155,13.31-15.66" transform="translate(-173.712 -121.043)"/></g><g transform="matrix(0.999, 0.035, -0.035, 0.999, 384.655, 66.325)"><path class="o" d="M21.635,11.37c-1.72,7.623-6.326,14.209-10.382,20.891-2.141,3.521-4.136,7.138-6,10.8A36.416,36.416,0,0,1,.126,28.044c-.843-8.873,2.546-18.377,9.765-23.6A26.162,26.162,0,0,1,21.358,0,23.277,23.277,0,0,1,21.635,11.37Z" transform="translate(0 0.457)"/><path class="q" d="M74.577,78.119a32.315,32.315,0,0,1-2.6,8.434c-4.445,9.619-13.771,17.875-27.753,24.591,0,0-.779-15.216-.941-19.286-.681-17.437-19.61-27.088-31.582-39.805C5.608,45.565.986,37.374.126,28.5-.717,19.628,2.672,10.124,9.891,4.9,15.941.538,23.857-.42,31.3.148c12,.956,24.12,5.986,31.582,15.361a13.826,13.826,0,0,1,.875,1.1c4.575,6.245,6.927,13.852,8.645,21.428C75.388,51.161,76.735,64.819,74.577,78.119Z" transform="translate(4.866 0)"/><path class="f" d="M0,0C13.1,6.775,26.224,14.968,33.854,27.589c10.643,17.608,8.323,40.52.115,59.385" transform="translate(19.9 14.255)"/></g><g transform="translate(548.24 73.443)"><path class="l" d="M393.6,300.944c8.35-13.746,4.086-31.427,6.992-47.248a52.2,52.2,0,0,1,18.681-31.125c6.076-4.828,14.611-8.275,21.477-4.657,1.488.784,3.255,1.886,4.688,1a3.747,3.747,0,0,0,1.4-2.569c1.74-8.544-2.367-17.876.99-25.924,1.807-4.333,5.546-7.57,9.5-10.093a51.838,51.838,0,0,1,25.61-8.036,14.379,14.379,0,0,1,7.05,1.072c3.881,1.946,5.656,6.78,5.135,11.09s-2.9,8.168-5.535,11.617c-8.772,11.466-21.62,21.362-23.314,35.7a9.307,9.307,0,0,0,.617,5.349c.8,1.566,2.3,2.684,3.142,4.231,2.7,4.964-2.517,10.592-7.614,13.033a43.935,43.935,0,0,1-14.841,4.107c-3.536.33-7.535.415-9.94,3.027-4.44,4.823.661,12.535-.27,19.025-.58,4.051-3.519,7.321-6.468,10.157a116.137,116.137,0,0,1-17.869,14.092c-5.189,3.324-10.678,6.259-15.275,10.359s-8.315,9.644-8.616,15.8" transform="translate(-389.144 -172.268)"/><path class="p" d="M399.268,283.569c1.364-6.664,4.464-12.824,7.531-18.894,4.8-9.485,9.685-19.109,16.928-26.888,5.5-5.906,12.205-10.579,17.8-16.4a61,61,0,0,0,10.053-13.957c1.446-2.763,2.7-5.667,4.649-8.1,2.319-2.888,5.488-4.946,8.246-7.417a35.348,35.348,0,0,0,8.74-12.054" transform="translate(-383.805 -168.263)"/></g><g transform="translate(601.202 109.985)"><path class="g" d="M515.355,277.376c-1.879,7.24-4.674,14.4-9.47,20.146a42.978,42.978,0,0,1-11.944,9.638,67.161,67.161,0,0,1-7.225,3.528,86.731,86.731,0,0,1-30.2,6.69c-15.09.565-30.609-2.764-45.088,1.543a44.426,44.426,0,0,0-17.794,10.31,43.288,43.288,0,0,0-7.988,10.1l1.97-12.525c3.65-13.472,7.377-27.187,14.831-38.994,4.811-7.652,11.058-14.312,17.7-20.436a147.664,147.664,0,0,1,35.389-24.744c10.508-5.1,22.178-8.691,33.786-7.27,11.593,1.405,22.987,8.737,26.607,19.841C518.257,262.332,517.249,270.121,515.355,277.376Z" transform="translate(-385.65 -235.045)"/><path class="n" d="M393.4,310.812a91.594,91.594,0,0,1,46.483-35.286c11.706-3.907,24.084-5.393,35.941-8.814s23.684-9.23,30.635-19.427" transform="translate(-381.562 -228.59)"/></g><g transform="translate(504.294 95.835)"><path class="b" d="M400.49,411.437c.825-21.067,11.716-40.52,24.943-56.939,11.032-13.695,24.343-26.228,40.785-32.468,5.15-1.956,10.8-3.269,16.153-1.952s10.2,5.891,10.3,11.4c.084,4.648-3.037,8.705-6.321,11.995-10.809,10.826-24.779,17.77-37.872,25.684-22.505,13.6-43.893,31.755-52.824,56.488" transform="translate(-395.651 -319.547)"/><path class="r" d="M402.543,387.32c13.752-30.678,49.353-58.106,72.836-61.533" transform="translate(-389.377 -313.867)"/></g><g transform="matrix(0.588, -0.809, 0.809, 0.588, 542.646, 297.763)"><path class="s" d="M0,37.053c-.15-2.823,9.057-10.2,11.132-12.085A106.639,106.639,0,0,1,50.723,2.345C56.565.511,62.77-.82,68.612.589s11.2,6.2,11.778,12.5c.556,6.113-3.545,12.092-8.778,15.049s-11.353,3.4-17.188,3.065c-9.018-.525-17.869-2.766-26.92-2.7S5.748,29.491,0,37.053Z"/><path class="f" d="M0,14.607C18.5,4.584,46.471-1.939,66.777.52" transform="translate(9.378 13.876)"/></g><g transform="translate(269.522 32.893)"><path class="t" d="M251.708,194.993a27.42,27.42,0,0,1-2.2,7.156,124.625,124.625,0,0,1-11.518-45.636,25.223,25.223,0,0,1,3.8-14.643,11.714,11.714,0,0,1,.743.936c3.881,5.3,5.877,11.753,7.335,18.18C252.4,172.12,253.539,183.708,251.708,194.993Z" transform="translate(-237.944 -95.488)"/><path class="i" d="M304.58,204.93c11.72-4.162,23.892-7.483,34.547-13.9a30.159,30.159,0,0,0,8.614-7.182,14.47,14.47,0,0,0,3.183-10.52c-.518-3.789-2.943-7.418-2.127-11.154.538-2.462,2.386-4.385,3.8-6.474a20.653,20.653,0,0,0,2.65-17.2c-1.836-6.175-6.464-11.115-9.1-16.993a28.363,28.363,0,0,1-2.193-15.424c-9.832.131-18.805,5.5-28.473,7.293-7.395,1.372-15.087.626-22.415,2.311A35.375,35.375,0,0,0,266.7,144.074a19.479,19.479,0,0,0-17.179,5.756,25.283,25.283,0,0,0-6.744,18.479c3.021,48.5,30.791,73.808,30.791,73.808S300.112,206.518,304.58,204.93Z" transform="translate(-236.528 -106.079)"/><g transform="translate(26.882 11.601)"><path class="j" d="M270.278,201.942c-1.218-11.965,2.962-23.792,7.765-34.819,4.682-10.747,10.068-21.282,17.3-30.507s16.418-17.138,27.264-21.585" transform="translate(-255.322 -115.031)"/><path class="j" d="M278.4,120.694a96.467,96.467,0,0,0,2.409,33.891" transform="translate(-253.016 -113.355)"/><path class="j" d="M281.676,146.6c12.183-7.814,30.924-12.56,45.374-11.732" transform="translate(-251.885 -109.189)"/><path class="j" d="M258.688,145.438c14.666,6.185,15.27,27.751,15.661,33.878" transform="translate(-258.688 -106.033)"/><path class="j" d="M273.858,162.987c11.223-8.049,27.44-10.468,39.374-7.467" transform="translate(-254.199 -103.417)"/><path class="j" d="M298.384,116.421a17.713,17.713,0,0,0-3.876,12.539" transform="translate(-248.109 -114.62)"/><path class="j" d="M296.958,124.316c5.173-2.649,12.09-3.257,19.488-1.4" transform="translate(-247.363 -113.015)"/></g></g><g transform="translate(42.467 167.93) rotate(30)"><g transform="translate(0 0)"><path class="b" d="M25.623,25.511c-1.971-.1-15.395-10.048-20.565-13.4A14.14,14.14,0,0,1,1.11,8.777a4.983,4.983,0,0,1-.751-4.9C1.277,1.934,2.8-.009,6.642,0c6.69.013,9.01,2.211,12.263,5.574C29.66,16.7,25.623,25.511,25.623,25.511Z" transform="translate(145.301 57.77)"/><path class="b" d="M24.655,8.643c-5.844,2.628-12.091,5.244-18.446,4.432C3.744,12.761,1.054,11.639.232,9.293A5.525,5.525,0,0,1,2.088,3.582,13.2,13.2,0,0,1,7.838.99c7.78-1.9,18.7-.849,26.407,1.34C34.245,2.329,28.144,7.076,24.655,8.643Z" transform="translate(86.082 114.742)"/><path class="b" d="M17.779,12.395c2.607-1.645,5.487-3.849,5.485-6.932S20.036.015,16.944,0,10.982,1.671,8.659,3.71C-1.176,12.343.049,22.19.049,22.19S14.875,14.229,17.779,12.395Z" transform="translate(54.462 24.656)"/><path class="b" d="M18.674,10.714c2.289-.983,4.65-2.169,5.992-4.265a4.079,4.079,0,0,0,.622-3.457c-.675-1.915-1.873-3.633-6.7-2.757C3.325,3,0,13.459,0,13.459S14.621,12.457,18.674,10.714Z" transform="translate(45.811 0)"/><path class="b" d="M19.758,22.089A24.127,24.127,0,0,1,3.451,13.728,14.93,14.93,0,0,1,.174,7.66,6.638,6.638,0,0,1,1.963,1.276C4.106-.571,7.507-.275,9.869,1.283s3.879,4.1,5.107,6.651C16.612,11.33,19.758,22.089,19.758,22.089Z" transform="translate(0 11.752)"/></g><g transform="translate(9.398 8.238)"><path class="u" d="M151.221,123.086C136.69,105.717,115.407,95.461,94.026,88S50.393,75.3,30.011,65.425C17.229,59.234,4.377,50.01.873,36.248a29.542,29.542,0,0,1,4.7-24.358A29.548,29.548,0,0,1,27.35,0" transform="translate(23.967 0)"/><path class="u" d="M0,0C4.051,12.441,19.832,20.01,27.034,30.787" transform="translate(0 11.388)"/><path class="u" d="M13.756,0c-3.109,3.281-6.83,5.994-9.541,9.608C-1.515,17.249-1.994,29.66,6.483,37.362" transform="translate(42.906 25.698)"/><path class="u" d="M46.779,0C33.7,10.08,16.5,16.8,0,17.439" transform="translate(89.727 95.347)"/><path class="u" d="M15.52,50.321C21.546,32.56,14.982,11.283,0,0" transform="translate(150.935 63.386)"/></g></g><g transform="translate(525.619 312.516) rotate(-128)"><g transform="translate(0 133.356)"><path class="c" d="M19.2,19.853c.77,2.382.732,5.307-1.029,7.088a5.223,5.223,0,0,1-5.556,1.243C-1.476,21.987.048,0,.048,0S13.415,1.931,19.2,19.853Z" transform="translate(170.748 77.878)"/><path class="c" d="M34.973,12.641C44.09-3.836,11.685-2.579,0,7.126,0,7.126,27.124,26.825,34.973,12.641Z" transform="translate(155.32 43.903)"/><path class="c" d="M22.425,18.835c2.2,3.016,2.981,7.507.587,10.37-1.784,2.131-4.892,2.789-7.621,2.264A17.844,17.844,0,0,1,6.83,26.249C-3.835,12.984,1.176,0,1.176,0S18.822,13.9,22.425,18.835Z" transform="translate(126.896 77.647)"/><path class="c" d="M20.633,18.426c.786,2.566.6,5.7-1.393,7.495a6.367,6.367,0,0,1-4.74,1.418A14.436,14.436,0,0,1,9.651,25.89a15.477,15.477,0,0,1-7.463-7.416C-1.819,10.217.9,0,.9,0S18.67,12.03,20.633,18.426Z" transform="translate(0 37.257)"/><path class="c" d="M11.651,25.445A20.814,20.814,0,0,0,33.136,28.9a11.017,11.017,0,0,0,4.6-3.451c2.558-3.539,1.662-8.716-.995-12.184S30.057,7.691,26.079,5.887C18.867,2.612,7.675,1.959,0,0,0,0,.032,15.24,11.651,25.445Z" transform="translate(49.462 0)"/></g><g transform="translate(0.466 0)"><path class="u" d="M170.283,227.553c-4.768-15.6-18.261-27.38-33.283-33.75s-31.569-8.05-47.851-9.1-32.76-1.578-48.5-5.853C25.3,174.679,10.014,166,3.43,151.529c-8.016-17.616-.918-38.682,10.336-54.428S40.173,68.665,51.06,52.663c5-7.346,9.175-15.95,8.164-24.78C57.877,16.114,47.961,7.445,38.744,0" transform="translate(9.102 0)"/><path class="u" d="M21.513,46.56C10.725,34.622,2.1,15.954,0,0" transform="translate(120.338 186.717)"/><path class="u" d="M37.173,3.3C31,1.664,24.75.016,18.368,0S4.589,3.519,0,7.956" transform="translate(140.963 183.868)"/><path class="u" d="M9.608,45.237A31.852,31.852,0,0,1,.014,23.761C-.286,15.731,4.169,6,9.516,0" transform="translate(0 142.832)"/><path class="u" d="M57.086,36.51A321.315,321.315,0,0,0,22.654,8.26C16.8,4.14,5.163-1.141,0,.218" transform="translate(13.003 115.115)"/></g></g><g transform="translate(640.135 190.075)"><path class="v" d="M491.719,286.481a67.155,67.155,0,0,1-7.224,3.528,86.734,86.734,0,0,1-30.2,6.69c-15.09.565-30.609-2.764-45.088,1.543a44.425,44.425,0,0,0-17.794,10.31c-.5.244-1.008.519-1.512.81-1.207-10.218,24.27-23.537,32.014-27a92.3,92.3,0,0,1,44.829-7.82c6.69.535,13.548,1.848,19.062,5.651A20.4,20.4,0,0,1,491.719,286.481Z" transform="translate(-389.857 -274.256)"/><path class="w" d="M466.747,278.536c6.687.533,13.545,1.845,19.066,5.65s9.409,10.6,8.12,17.183c-1.5,7.667-9.427,12.656-17.181,13.6s-15.5-1.191-23.155-2.766A165.1,165.1,0,0,0,402,309.843a29.908,29.908,0,0,0-12.1,3.522c-1.205-10.224,24.282-23.537,32.026-27.007A92.317,92.317,0,0,1,466.747,278.536Z" transform="translate(-389.859 -272.146)"/><path class="p" d="M394.228,302.786c12.653-11.121,45.131-18.669,68.1-16.238,6.921.733,13.9,2.8,19.218,7.286" transform="translate(-387.555 -268.013)"/></g></g></g><path class="x" d="M1961.973,923.1c158.589-9.23,234.225-173.655,149.836-271.027-65.45-75.519-152.715,34.4-234.108-20.978-125.219-85.2-328.086-100.691-354.937,6.713s62.093,275.223,128.381,285.292S1961.973,923.1,1961.973,923.1Z" transform="translate(-1454.604 -449.161)"/></g></svg>