<svg xmlns="http://www.w3.org/2000/svg" viewBox="0 0 618 450" width="618" height="450">
	<style>
		tspan { white-space:pre }
		.shp0 { fill: #78c2ff } 
		.shp1 { fill: #f3f3f3 } 
		.shp2 { opacity: 0.149;fill: #000000 } 
		.shp3 { fill: #ffffff;stroke: #cbe2fd;stroke-width: 1.023 } 
		.shp4 { fill: #b1affd } 
		.shp5 { fill: #fca70c } 
		.shp6 { fill: #efefef } 
		.shp7 { fill: #1e76e2 } 
		.shp8 { fill: #46c3df } 
		.shp9 { fill: #eef0f7 } 
		.shp10 { fill: #c8dbfb } 
		.txt11 { font-size: 24px;fill: #8c89f0;font-weight: 700;font-family: "Poppins-Bold", "Poppins" } 
		.shp12 { fill: #99bbeb } 
		.shp13 { fill: #ffffff } 
		.shp14 { fill: #ffdbb1 } 
		.shp15 { opacity: 0.2;fill: #99bbeb } 
		.shp16 { fill: #ffdb9c } 
		.shp17 { fill: #ffae00 } 
		.shp18 { opacity: 0;fill: #00ad9f;stroke: #000000;stroke-width: 1.023 } 
		.shp19 { fill: #fefefe } 
		.shp20 { fill: #f4a086 } 
		.shp21 { fill: #e3b930 } 
		.shp22 { fill: #f7b690 } 
		.shp23 { fill: #0a3c5f } 
		.shp24 { fill: #255880 } 
		.shp25 { fill: #2d6c9c } 
		.shp26 { fill: #fdd247 } 
		.shp27 { fill: #3c79a6 } 
		.shp28 { fill: #a2d1eb } 
	</style>
	<g id="Layer">
		<g id="Layer">
			<g id="Layer">
				<g id="Layer">
					<g id="Layer">
						<path id="Layer" class="shp0" d="M600.38 45.73L600.54 45.73C602.79 45.73 605.03 46.18 607.11 47.04C609.19 47.9 611.08 49.16 612.67 50.76C614.27 52.35 615.53 54.24 616.39 56.32C617.26 58.4 617.7 60.63 617.7 62.89L617.7 63.05C617.7 65.3 617.26 67.53 616.39 69.61C615.53 71.69 614.27 73.58 612.67 75.17C611.08 76.77 609.19 78.03 607.11 78.89C605.03 79.75 602.79 80.2 600.54 80.2L600.38 80.2C598.13 80.2 595.9 79.75 593.81 78.89C591.73 78.03 589.84 76.77 588.25 75.17C586.65 73.58 585.39 71.69 584.53 69.61C583.67 67.53 583.22 65.3 583.22 63.04L583.22 62.89C583.22 60.63 583.67 58.4 584.53 56.32C585.39 54.24 586.65 52.35 588.25 50.76C589.84 49.16 591.73 47.9 593.81 47.04C595.9 46.18 598.13 45.73 600.38 45.73L600.38 45.73Z" />
					</g>
					<g id="Layer">
						<g id="Layer">
							<path id="Layer" class="shp1" d="M599.37 70.55L590.65 62.96C590.31 62.66 590.1 62.23 590.07 61.78C590.04 61.33 590.19 60.88 590.49 60.53C590.79 60.19 591.21 59.98 591.66 59.95C592.12 59.92 592.57 60.07 592.91 60.37L599.07 65.74L607.86 55.94C608.17 55.6 608.59 55.4 609.05 55.37C609.5 55.35 609.95 55.5 610.29 55.81C610.63 56.11 610.83 56.54 610.86 56.99C610.88 57.45 610.72 57.89 610.42 58.23L599.37 70.55Z" />
						</g>
					</g>
				</g>
				<g id="Layer">
					<path id="Layer" fill-rule="evenodd" class="shp2" d="M389.49 302.87C499.14 302.87 588.02 298.92 588.02 294.03C588.02 289.15 499.14 285.2 389.49 285.2C279.85 285.2 190.96 289.15 190.96 294.03C190.96 298.92 279.85 302.87 389.49 302.87Z" />
					<g id="Layer">
						<g id="Layer">
							<g id="Layer">
								<path id="Layer" class="shp3" d="M209.06 45.67L568.57 45.67C571.41 45.67 573.7 47.96 573.7 50.79L573.7 288.99C573.7 291.83 571.41 294.12 568.57 294.12L209.06 294.12C206.23 294.12 203.93 291.83 203.93 288.99L203.93 50.79C203.93 47.96 206.23 45.67 209.06 45.67Z" />
							</g>
							<g id="Layer">
								<g id="Layer">
									<path id="Layer" class="shp4" d="M365.41 194.55L376.47 194.55L376.47 205.6L365.41 205.6L365.41 194.55Z" />
									<g id="Layer">
										<path id="Layer" class="shp5" d="M365.41 213.92L376.47 213.92L376.47 224.98L365.41 224.98L365.41 213.92Z" />
									</g>
									<g id="Layer">
										<path id="Layer" class="shp6" d="M379.52 218.69L414.58 218.69L414.58 224.98L379.52 224.98L379.52 218.69Z" />
									</g>
									<g id="Layer">
										<path id="Layer" class="shp6" d="M379.52 199.32L414.58 199.32L414.58 205.6L379.52 205.6L379.52 199.32Z" />
									</g>
								</g>
								<g id="Layer">
									<path id="Layer" class="shp4" d="M430.46 194.55L441.52 194.55L441.52 205.6L430.46 205.6L430.46 194.55Z" />
									<g id="Layer">
										<path id="Layer" class="shp5" d="M430.46 213.92L441.52 213.92L441.52 224.98L430.46 224.98L430.46 213.92Z" />
									</g>
									<g id="Layer">
										<path id="Layer" class="shp6" d="M444.57 218.69L479.63 218.69L479.63 224.98L444.57 224.98L444.57 218.69Z" />
									</g>
									<g id="Layer">
										<path id="Layer" class="shp6" d="M444.57 199.32L479.63 199.32L479.63 205.6L444.57 205.6L444.57 199.32Z" />
									</g>
								</g>
								<g id="Layer">
									<path id="Layer" class="shp4" d="M489.04 194.55L500.1 194.55L500.1 205.6L489.04 205.6L489.04 194.55Z" />
									<g id="Layer">
										<path id="Layer" class="shp5" d="M489.04 213.92L500.1 213.92L500.1 224.98L489.04 224.98L489.04 213.92Z" />
									</g>
									<g id="Layer">
										<path id="Layer" class="shp6" d="M503.14 218.69L526.22 218.69L526.22 224.98L503.14 224.98L503.14 218.69Z" />
									</g>
									<g id="Layer">
										<path id="Layer" class="shp6" d="M503.14 199.32L526.22 199.32L526.22 205.6L503.14 205.6L503.14 199.32Z" />
									</g>
								</g>
							</g>
							<path id="Layer" class="shp7" d="M557.5 45.67L220.14 45.67C211.19 45.67 203.94 43.75 203.94 52.7L203.94 76.04L573.7 76.04L573.7 55.37C573.7 46.42 566.45 45.67 557.5 45.67Z" />
							<path id="Layer" class="shp8" d="M526.14 61.41C526.14 63.3 525 65 523.26 65.72C521.51 66.45 519.5 66.05 518.17 64.71C516.83 63.38 516.43 61.37 517.15 59.62C517.87 57.88 519.58 56.74 521.47 56.74C522.08 56.74 522.69 56.86 523.25 57.1C523.82 57.33 524.33 57.67 524.77 58.11C525.2 58.54 525.55 59.06 525.78 59.62C526.02 60.19 526.14 60.79 526.14 61.41Z" />
							<path id="Layer" class="shp8" d="M545.18 61.41C545.18 63.3 544.04 65 542.3 65.73C540.55 66.45 538.54 66.05 537.2 64.72C535.87 63.38 535.47 61.37 536.19 59.62C536.91 57.88 538.62 56.74 540.51 56.74C541.12 56.74 541.73 56.86 542.29 57.1C542.86 57.33 543.38 57.67 543.81 58.11C544.24 58.54 544.59 59.06 544.82 59.62C545.06 60.19 545.18 60.79 545.18 61.41Z" />
							<path id="Layer" class="shp8" d="M564.22 61.41C564.22 63.3 563.08 65 561.34 65.72C559.59 66.45 557.58 66.05 556.24 64.71C554.91 63.38 554.51 61.37 555.23 59.62C555.96 57.88 557.66 56.74 559.55 56.74C560.16 56.74 560.77 56.86 561.34 57.1C561.9 57.33 562.42 57.67 562.85 58.11C563.28 58.54 563.63 59.06 563.86 59.62C564.1 60.19 564.22 60.8 564.22 61.41Z" />
							<g id="Layer">
								<path id="Layer" class="shp9" d="M313.42 137.55C313.42 154.54 303.18 169.87 287.47 176.37C271.76 182.87 253.68 179.28 241.65 167.26C229.63 155.24 226.04 137.17 232.54 121.46C239.05 105.76 254.38 95.52 271.38 95.52C276.91 95.5 282.38 96.57 287.49 98.68C292.6 100.78 297.25 103.88 301.16 107.78C305.06 111.69 308.16 116.33 310.26 121.44C312.37 126.55 313.44 132.02 313.42 137.55L313.42 137.55Z" />
								<path id="Layer" class="shp7" d="M301.45 160.08C301.39 160.04 301.33 160 301.28 159.96C301.22 159.93 301.16 159.89 301.1 159.86C301.04 159.82 300.98 159.79 300.92 159.76C300.86 159.73 300.8 159.7 300.74 159.67C300.74 159.67 300.74 159.66 300.73 159.66C300.73 159.66 300.73 159.66 300.72 159.66C300.72 159.65 300.72 159.65 300.71 159.65C300.71 159.65 300.71 159.64 300.7 159.64L300.7 159.64C298.86 158.62 293.45 155.94 282.78 152.88L282.77 152.88C280.84 152.29 279.38 151.9 278.87 151.78L277.97 150.34C277.94 149.92 277.92 149.5 277.9 149.07C277.88 148.65 277.87 148.23 277.86 147.81C277.86 147.39 277.86 146.97 277.86 146.54C277.87 146.12 277.88 145.7 277.9 145.28C279.4 143.54 280.75 140.81 281.52 136.57C281.76 136.75 281.95 136.35 281.95 136.35C281.81 136.11 283.98 130.83 283.59 129.64C283.36 128.97 282.92 129.05 282.56 129.25C282.61 128.94 282.67 128.62 282.72 128.28C282.72 128.28 283.58 120.18 279.48 115.67C279.33 115.6 279.18 115.53 279.02 115.47C278.87 115.41 278.71 115.35 278.54 115.31C278.38 115.27 278.22 115.23 278.05 115.21C277.88 115.18 277.72 115.17 277.55 115.16C270.97 113.15 267.02 114.05 264.54 115.11C260.88 118.11 260.6 123.22 260.77 126.03C260.84 126.7 260.92 127.37 260.99 128.02C260.99 128.03 260.99 128.04 260.99 128.04C261.02 128.3 261.05 128.55 261.09 128.8C260.74 128.59 260.29 128.48 260.05 129.15C259.61 130.33 261.21 135.6 261.41 135.92C261.41 135.92 261.75 136.46 262.02 136.22C262.02 136.22 262.02 136.21 262.02 136.21C262.78 140.84 264.14 143.7 265.57 145.46C265.47 147.34 265.2 149.55 265.01 150.96L263.38 152.66L263.38 152.66C263.29 152.69 263.21 152.71 263.12 152.74L263.12 152.73C244.72 157.64 239.52 161.06 239.52 161.06C239.35 161.2 239.2 161.36 239.06 161.53C238.92 161.69 238.78 161.87 238.66 162.05C238.55 162.24 238.44 162.43 238.35 162.63C238.25 162.82 238.17 163.03 238.11 163.24C241.95 168.2 246.85 172.25 252.46 175.07C258.07 177.9 264.24 179.43 270.51 179.56C276.79 179.69 283.02 178.41 288.74 175.82C294.45 173.22 299.52 169.38 303.56 164.58C302.77 162.65 302.21 160.83 301.45 160.08Z" />
							</g>
							<g id="Layer">
								<path id="Layer" class="shp10" d="M364.49 120.14L521.85 119.83C522.33 119.83 522.82 119.92 523.27 120.11C523.72 120.3 524.13 120.57 524.48 120.91C524.83 121.26 525.1 121.67 525.29 122.12C525.48 122.57 525.58 123.06 525.58 123.54L525.59 127.6C525.59 128.08 525.49 128.57 525.3 129.02C525.12 129.47 524.84 129.88 524.5 130.23C524.15 130.58 523.74 130.85 523.29 131.04C522.84 131.23 522.36 131.32 521.87 131.33L364.52 131.64C364.03 131.64 363.54 131.55 363.09 131.36C362.64 131.17 362.23 130.9 361.88 130.56C361.53 130.21 361.26 129.8 361.07 129.35C360.88 128.9 360.79 128.41 360.78 127.92L360.78 123.87C360.78 123.38 360.87 122.9 361.06 122.45C361.24 122 361.52 121.59 361.86 121.24C362.21 120.89 362.62 120.62 363.07 120.43C363.52 120.24 364 120.14 364.49 120.14L364.49 120.14Z" />
								<path id="Layer" class="shp10" d="M364.54 143.92L521.89 143.59C523.95 143.59 525.62 145.25 525.63 147.31L525.63 151.36C525.64 153.42 523.98 155.09 521.92 155.09L364.57 155.41C362.51 155.42 360.84 153.76 360.83 151.7L360.83 147.65C360.82 145.59 362.48 143.92 364.54 143.92Z" />
								<path id="Layer" class="shp10" d="M364.59 167.69L521.94 167.36C524 167.36 525.67 169.02 525.68 171.08L525.68 175.13C525.69 177.19 524.03 178.86 521.97 178.86L364.62 179.19C362.56 179.19 360.89 177.53 360.88 175.47L360.88 171.42C360.87 169.36 362.53 167.69 364.59 167.69Z" />
							</g>
						</g>
						<text id="CV" style="transform: matrix(1.023,0,0,1.023,361.744,106.644)" >
							<tspan x="0" y="0" class="txt11">CV</tspan>
						</text>
					</g>
					<g id="Layer">
						<g id="Layer">
							<path id="Layer" class="shp10" d="M395.21 248.64L521.96 248.38C524.02 248.38 525.69 250.04 525.7 252.1L525.71 256.3C525.71 258.36 524.05 260.03 521.99 260.03L395.23 260.29C393.17 260.3 391.5 258.63 391.5 256.58L391.49 252.38C391.49 250.32 393.15 248.65 395.21 248.64Z" />
							<path id="Layer" class="shp10" d="M385.47 255.62C384.86 261.73 379.42 266.17 373.31 265.56C367.2 264.95 362.75 259.51 363.37 253.4C363.98 247.29 369.41 242.85 375.53 243.46C381.64 244.07 386.08 249.51 385.47 255.62Z" />
						</g>
						<g id="Layer">
							<path id="Layer" class="shp10" d="M227.07 198.08L325.56 197.87C327.62 197.87 329.29 199.53 329.29 201.59L329.3 205.79C329.3 207.85 327.64 209.51 325.58 209.52L227.1 209.72C225.04 209.73 223.37 208.06 223.36 206.01L223.36 201.81C223.35 199.75 225.01 198.08 227.07 198.08Z" />
						</g>
						<path id="Layer" class="shp10" d="M236.91 226.32L322.86 226.32C330.22 226.32 336.17 232.26 336.17 239.61L336.17 253.93C336.17 261.28 330.22 267.23 322.86 267.23L236.91 267.23C229.56 267.23 223.61 261.28 223.61 253.93L223.61 239.61C223.61 232.26 229.56 226.32 236.91 226.32Z" />
					</g>
				</g>
				<g id="Layer">
					<g id="Layer">
						<path id="Layer" class="shp12" d="M1 30.45L77.35 30.45L77.35 155.55L1 155.55L1 30.45Z" />
						<path id="Layer" class="shp13" d="M5 33L74.84 33L74.84 150.78L5 150.78L5 33Z" />
						<g id="Layer">
							<path id="Layer" class="shp12" d="M48.99 95.56L31.08 95.56C30.52 95.56 29.99 95.34 29.6 94.95C29.21 94.56 28.99 94.03 28.99 93.48C28.99 92.93 29.21 92.4 29.6 92.01C29.99 91.62 30.52 91.4 31.08 91.4L48.99 91.4C49.54 91.4 50.07 91.62 50.47 92.01C50.86 92.4 51.08 92.93 51.08 93.48C51.08 94.03 50.86 94.56 50.47 94.95C50.07 95.34 49.54 95.56 48.99 95.56L48.99 95.56Z" />
							<path id="Layer" class="shp12" d="M52.27 101.96L27.79 101.96C27.24 101.96 26.71 101.74 26.32 101.35C25.93 100.96 25.71 100.43 25.71 99.88C25.71 99.33 25.93 98.8 26.32 98.41C26.71 98.02 27.24 97.8 27.79 97.8L52.27 97.8C52.83 97.8 53.36 98.02 53.75 98.41C54.14 98.8 54.36 99.33 54.36 99.88C54.36 100.43 54.14 100.96 53.75 101.35C53.36 101.74 52.83 101.96 52.27 101.96L52.27 101.96Z" />
							<path id="Layer" class="shp12" d="M69.81 124.98L10.26 124.98C9.93 124.99 9.61 124.87 9.38 124.64C9.14 124.41 9.01 124.1 9.01 123.77C9.01 123.44 9.14 123.13 9.38 122.9C9.61 122.68 9.93 122.55 10.26 122.56L69.81 122.56C70.13 122.55 70.45 122.68 70.69 122.9C70.92 123.13 71.05 123.44 71.05 123.77C71.05 124.1 70.92 124.41 70.69 124.64C70.45 124.87 70.13 124.99 69.81 124.98Z" />
							<path id="Layer" class="shp12" d="M69.81 130.6L10.26 130.6C9.93 130.61 9.61 130.48 9.38 130.26C9.14 130.03 9.01 129.71 9.01 129.39C9.01 129.06 9.14 128.75 9.38 128.52C9.61 128.29 9.93 128.17 10.26 128.18L69.81 128.18C70.13 128.17 70.45 128.29 70.69 128.52C70.92 128.75 71.05 129.06 71.05 129.39C71.05 129.71 70.92 130.03 70.69 130.26C70.45 130.48 70.13 130.61 69.81 130.6Z" />
							<path id="Layer" class="shp12" d="M69.81 136.21L10.26 136.21C9.93 136.22 9.61 136.1 9.38 135.87C9.14 135.64 9.01 135.33 9.01 135.01C9.01 134.68 9.14 134.37 9.38 134.14C9.61 133.91 9.93 133.79 10.26 133.8L69.81 133.8C70.13 133.79 70.45 133.91 70.69 134.14C70.92 134.37 71.05 134.68 71.05 135.01C71.05 135.33 70.92 135.64 70.69 135.87C70.45 136.1 70.13 136.22 69.81 136.21Z" />
							<g id="Layer">
								<path id="Layer" class="shp14" d="M24.78 107.4L26.02 109.91L28.79 110.32L26.79 112.27L27.26 115.04L24.78 113.73L22.29 115.04L22.77 112.27L20.76 110.32L23.54 109.91L24.78 107.4Z" />
								<path id="Layer" class="shp14" d="M34.95 107.4L36.19 109.91L38.97 110.32L36.96 112.27L37.43 115.04L34.95 113.73L32.46 115.04L32.94 112.27L30.93 110.32L33.71 109.91L34.95 107.4Z" />
								<path id="Layer" class="shp14" d="M45.12 107.4L46.36 109.91L49.14 110.32L47.13 112.27L47.6 115.04L45.12 113.73L42.64 115.04L43.11 112.27L41.1 110.32L43.88 109.91L45.12 107.4Z" />
								<path id="Layer" class="shp14" d="M55.29 107.4L56.53 109.91L59.31 110.32L57.3 112.27L57.77 115.04L55.29 113.73L52.81 115.04L53.28 112.27L51.27 110.32L54.05 109.91L55.29 107.4Z" />
							</g>
							<g id="Layer">
								<path id="Layer" class="shp9" d="M57.86 61.76C57.86 68.99 53.51 75.5 46.83 78.27C40.15 81.04 32.46 79.51 27.35 74.4C22.24 69.29 20.71 61.6 23.48 54.92C26.24 48.25 32.76 43.9 39.99 43.9C42.34 43.89 44.67 44.34 46.84 45.24C49.01 46.13 50.99 47.45 52.65 49.11C54.31 50.77 55.63 52.74 56.52 54.92C57.42 57.09 57.87 59.41 57.86 61.76L57.86 61.76Z" />
								<path id="Layer" class="shp4" d="M52.77 71.34C52.75 71.33 52.72 71.31 52.7 71.29C52.68 71.28 52.65 71.26 52.63 71.25C52.6 71.23 52.58 71.22 52.55 71.21C52.52 71.19 52.5 71.18 52.47 71.17L52.46 71.15L52.46 71.15C51.85 70.85 51.23 70.56 50.61 70.28C49.99 70.01 49.36 69.75 48.72 69.51C48.09 69.27 47.45 69.05 46.8 68.84C46.15 68.64 45.5 68.45 44.84 68.28L44.84 68.28C44.02 68.03 43.39 67.87 43.18 67.81L42.79 67.2C42.78 67.02 42.77 66.84 42.76 66.66C42.76 66.48 42.75 66.3 42.75 66.12C42.75 65.94 42.74 65.76 42.75 65.59C42.75 65.41 42.76 65.23 42.76 65.05C42.97 64.78 43.16 64.5 43.33 64.21C43.5 63.91 43.65 63.61 43.78 63.3C43.91 62.99 44.02 62.67 44.1 62.34C44.19 62.01 44.25 61.68 44.3 61.34C44.4 61.42 44.48 61.25 44.48 61.25C44.42 61.15 45.34 58.91 45.18 58.4C45.08 58.11 44.89 58.15 44.74 58.23C44.77 58.1 44.79 57.96 44.81 57.82C44.81 57.82 45.18 54.38 43.43 52.46C43.37 52.43 43.31 52.4 43.24 52.38C43.17 52.35 43.11 52.33 43.04 52.31C42.97 52.29 42.9 52.28 42.83 52.27C42.76 52.26 42.69 52.25 42.62 52.25C42.18 52.08 41.72 51.95 41.26 51.86C40.8 51.77 40.33 51.72 39.86 51.72C39.38 51.72 38.91 51.76 38.45 51.84C37.99 51.93 37.53 52.06 37.09 52.22C35.53 53.5 35.41 55.67 35.49 56.87C35.52 57.15 35.55 57.44 35.58 57.71C35.58 57.71 35.58 57.71 35.58 57.72C35.58 57.72 35.58 57.72 35.58 57.72C35.58 57.72 35.58 57.72 35.58 57.72C35.58 57.72 35.58 57.72 35.58 57.72C35.59 57.83 35.61 57.94 35.62 58.05C35.47 57.96 35.28 57.91 35.18 58.2C35.18 58.44 35.2 58.69 35.23 58.93C35.26 59.18 35.29 59.42 35.34 59.66C35.39 59.9 35.45 60.14 35.52 60.38C35.59 60.61 35.67 60.85 35.76 61.07C35.85 61.3 35.9 61.3 36.02 61.2C36.02 61.2 36.02 61.2 36.02 61.2C36.06 61.55 36.12 61.9 36.2 62.24C36.28 62.59 36.39 62.93 36.52 63.26C36.64 63.59 36.79 63.91 36.96 64.23C37.13 64.54 37.32 64.84 37.53 65.13C37.48 65.93 37.37 66.87 37.29 67.47L36.59 68.19L36.59 68.19L36.48 68.23L36.48 68.23C28.66 70.31 26.45 71.77 26.45 71.77C26.38 71.83 26.31 71.89 26.25 71.96C26.19 72.03 26.14 72.11 26.09 72.19C26.03 72.27 25.99 72.35 25.95 72.43C25.91 72.52 25.88 72.6 25.85 72.69C27.48 74.8 29.57 76.52 31.95 77.73C34.34 78.93 36.96 79.58 39.63 79.63C42.3 79.69 44.95 79.14 47.38 78.04C49.81 76.94 51.96 75.31 53.68 73.26C53.63 73.09 53.57 72.92 53.51 72.76C53.44 72.59 53.37 72.43 53.3 72.27C53.22 72.11 53.14 71.95 53.05 71.8C52.96 71.64 52.87 71.49 52.77 71.34Z" />
							</g>
						</g>
					</g>
					<g id="Layer">
						<path id="Layer" class="shp12" d="M171.22 30.45L247.58 30.45L247.58 155.55L171.22 155.55L171.22 30.45Z" />
						<path id="Layer" class="shp13" d="M175.22 33L245.07 33L245.07 150.78L175.22 150.78L175.22 33Z" />
						<g id="Layer">
							<path id="Layer" class="shp12" d="M219.22 95.56L201.3 95.56C200.74 95.56 200.21 95.34 199.82 94.95C199.43 94.56 199.21 94.03 199.21 93.48C199.21 92.93 199.43 92.4 199.82 92.01C200.21 91.62 200.74 91.4 201.3 91.4L219.22 91.4C219.77 91.4 220.3 91.62 220.69 92.01C221.08 92.4 221.3 92.93 221.3 93.48C221.3 94.03 221.08 94.56 220.69 94.95C220.3 95.34 219.77 95.56 219.22 95.56L219.22 95.56Z" />
							<path id="Layer" class="shp12" d="M222.5 101.96L198.01 101.96C197.46 101.96 196.93 101.74 196.54 101.35C196.15 100.96 195.93 100.43 195.93 99.88C195.93 99.33 196.15 98.8 196.54 98.41C196.93 98.02 197.46 97.8 198.01 97.8L222.5 97.8C223.05 97.8 223.58 98.02 223.97 98.41C224.36 98.8 224.58 99.33 224.58 99.88C224.58 100.43 224.36 100.96 223.97 101.35C223.58 101.74 223.05 101.96 222.5 101.96L222.5 101.96Z" />
							<path id="Layer" class="shp12" d="M240.03 124.98L180.48 124.98C180.17 124.97 179.87 124.84 179.65 124.61C179.43 124.39 179.31 124.08 179.31 123.77C179.31 123.46 179.43 123.15 179.65 122.93C179.87 122.7 180.17 122.57 180.48 122.56L240.03 122.56C240.35 122.57 240.65 122.7 240.87 122.93C241.08 123.15 241.21 123.46 241.21 123.77C241.21 124.08 241.08 124.39 240.87 124.61C240.65 124.84 240.35 124.97 240.03 124.98Z" />
							<path id="Layer" class="shp12" d="M240.03 130.6L180.48 130.6C180.17 130.59 179.87 130.46 179.65 130.23C179.43 130 179.31 129.7 179.31 129.39C179.31 129.07 179.43 128.77 179.65 128.55C179.87 128.32 180.17 128.19 180.48 128.18L240.03 128.18C240.35 128.19 240.65 128.32 240.87 128.55C241.08 128.77 241.21 129.07 241.21 129.39C241.21 129.7 241.08 130 240.87 130.23C240.65 130.46 240.35 130.59 240.03 130.6Z" />
							<path id="Layer" class="shp12" d="M240.03 136.21L180.48 136.21C180.17 136.2 179.87 136.07 179.65 135.85C179.43 135.62 179.31 135.32 179.31 135C179.31 134.69 179.43 134.39 179.65 134.16C179.87 133.94 180.17 133.81 180.48 133.8L240.03 133.8C240.35 133.81 240.65 133.94 240.87 134.16C241.08 134.39 241.21 134.69 241.21 135C241.21 135.32 241.08 135.62 240.87 135.85C240.65 136.07 240.35 136.2 240.03 136.21Z" />
							<g id="Layer">
								<path id="Layer" class="shp14" d="M195 107.4L196.24 109.91L199.02 110.32L197.01 112.27L197.48 115.04L195 113.73L192.52 115.04L192.99 112.27L190.98 110.32L193.76 109.91L195 107.4Z" />
								<path id="Layer" class="shp14" d="M205.17 107.4L206.41 109.91L209.19 110.32L207.18 112.27L207.66 115.04L205.17 113.73L202.69 115.04L203.16 112.27L201.15 110.32L203.93 109.91L205.17 107.4Z" />
								<path id="Layer" class="shp14" d="M215.34 107.4L216.58 109.91L219.36 110.32L217.35 112.27L217.83 115.04L215.34 113.73L212.86 115.04L213.33 112.27L211.33 110.32L214.1 109.91L215.34 107.4Z" />
								<path id="Layer" class="shp14" d="M225.51 107.4L226.76 109.91L229.53 110.32L227.52 112.27L228 115.04L225.51 113.73L223.03 115.04L223.51 112.27L221.5 110.32L224.27 109.91L225.51 107.4Z" />
							</g>
							<g id="Layer">
								<path id="Layer" class="shp9" d="M227.56 63.08C227.56 70.3 223.2 76.82 216.52 79.58C209.84 82.35 202.16 80.82 197.04 75.71C191.93 70.6 190.4 62.92 193.17 56.24C195.94 49.56 202.45 45.21 209.68 45.21C212.03 45.2 214.36 45.66 216.53 46.55C218.71 47.45 220.68 48.76 222.34 50.42C224 52.08 225.32 54.06 226.21 56.23C227.11 58.4 227.57 60.73 227.56 63.08L227.56 63.08Z" />
								<path id="Layer" class="shp4" d="M222.47 72.66C222.44 72.64 222.42 72.62 222.39 72.61C222.37 72.59 222.35 72.58 222.32 72.56C222.3 72.55 222.27 72.53 222.24 72.52C222.22 72.51 222.19 72.49 222.17 72.48L222.15 72.47L222.15 72.47C221.54 72.16 220.93 71.87 220.31 71.6C219.68 71.32 219.05 71.07 218.42 70.83C217.78 70.59 217.14 70.36 216.49 70.16C215.84 69.95 215.19 69.76 214.53 69.59L214.53 69.59C213.71 69.34 213.09 69.18 212.87 69.12L212.49 68.51C212.48 68.33 212.46 68.15 212.46 67.97C212.45 67.8 212.44 67.62 212.44 67.44C212.44 67.26 212.44 67.08 212.44 66.9C212.44 66.72 212.45 66.54 212.46 66.36C212.66 66.1 212.85 65.81 213.02 65.52C213.19 65.23 213.34 64.93 213.47 64.61C213.6 64.3 213.71 63.98 213.8 63.65C213.88 63.33 213.95 62.99 213.99 62.66C214.09 62.74 214.18 62.57 214.18 62.57C214.12 62.46 215.04 60.22 214.87 59.71C214.78 59.43 214.59 59.46 214.44 59.55C214.46 59.41 214.48 59.28 214.51 59.14C214.51 59.14 214.87 55.69 213.13 53.78C213.07 53.74 213 53.72 212.93 53.69C212.87 53.66 212.8 53.64 212.73 53.62C212.66 53.61 212.59 53.59 212.52 53.58C212.45 53.57 212.38 53.56 212.31 53.56C211.87 53.39 211.42 53.26 210.95 53.17C210.49 53.08 210.02 53.04 209.55 53.04C209.08 53.03 208.61 53.07 208.14 53.16C207.68 53.24 207.23 53.37 206.79 53.54C205.23 54.81 205.11 56.99 205.18 58.18C205.21 58.47 205.24 58.75 205.28 59.03C205.28 59.03 205.28 59.03 205.27 59.03C205.27 59.03 205.27 59.03 205.27 59.03C205.27 59.03 205.27 59.03 205.27 59.03C205.28 59.03 205.28 59.04 205.28 59.04C205.29 59.15 205.3 59.25 205.31 59.36C205.17 59.27 204.98 59.23 204.87 59.51C204.88 59.76 204.9 60 204.92 60.25C204.95 60.49 204.99 60.73 205.04 60.97C205.09 61.22 205.14 61.45 205.21 61.69C205.28 61.93 205.36 62.16 205.45 62.39C205.54 62.62 205.6 62.62 205.71 62.51C205.71 62.51 205.71 62.51 205.71 62.51C205.75 62.86 205.81 63.21 205.9 63.56C205.98 63.9 206.08 64.24 206.21 64.57C206.34 64.91 206.49 65.23 206.66 65.54C206.83 65.85 207.01 66.15 207.22 66.44C207.18 67.24 207.06 68.18 206.98 68.78L206.29 69.5L206.29 69.5L206.18 69.54L206.18 69.54C198.35 71.63 196.14 73.08 196.14 73.08C196.07 73.14 196.01 73.21 195.95 73.28C195.89 73.35 195.83 73.42 195.78 73.5C195.73 73.58 195.68 73.66 195.64 73.75C195.6 73.83 195.57 73.92 195.54 74.01C197.18 76.12 199.26 77.84 201.65 79.04C204.03 80.24 206.65 80.89 209.32 80.95C211.99 81 214.64 80.46 217.07 79.36C219.5 78.25 221.66 76.62 223.37 74.58C223.32 74.41 223.26 74.24 223.2 74.07C223.14 73.91 223.07 73.74 222.99 73.58C222.91 73.42 222.83 73.26 222.75 73.11C222.66 72.96 222.57 72.8 222.47 72.66Z" />
							</g>
						</g>
					</g>
					<path id="Layer" class="shp15" d="M179.81 154.3L59.31 154.3L67.83 30.92L184.15 30.92L179.81 154.3Z" />
					<g id="Layer">
						<path id="Layer" class="shp12" d="M71.97 7.57L176.25 7.57L176.25 178.44L71.97 178.44L71.97 7.57Z" />
						<path id="Layer" class="shp13" d="M77.43 11.05L172.83 11.05L172.83 171.92L77.43 171.92L77.43 11.05Z" />
						<g id="Layer">
							<path id="Layer" class="shp12" d="M147.54 96.5L103.02 96.5C102.26 96.5 101.54 96.2 101 95.67C100.47 95.13 100.17 94.41 100.17 93.66C100.17 92.9 100.47 92.18 101 91.65C101.54 91.11 102.26 90.81 103.02 90.81L147.54 90.81C148.29 90.81 149.01 91.11 149.55 91.65C150.08 92.18 150.38 92.9 150.38 93.66C150.38 94.41 150.08 95.13 149.55 95.67C149.01 96.2 148.29 96.5 147.54 96.5L147.54 96.5Z" />
							<path id="Layer" class="shp12" d="M142 105.24L108.56 105.24C107.8 105.24 107.08 104.94 106.55 104.41C106.01 103.88 105.71 103.15 105.71 102.4C105.71 101.64 106.01 100.92 106.55 100.39C107.08 99.85 107.8 99.55 108.56 99.55L142 99.55C142.75 99.55 143.47 99.85 144.01 100.39C144.54 100.92 144.84 101.64 144.84 102.4C144.84 103.15 144.54 103.88 144.01 104.41C143.47 104.94 142.75 105.24 142 105.24L142 105.24Z" />
							<path id="Layer" class="shp12" d="M165.95 136.68L84.61 136.68C84.17 136.68 83.75 136.5 83.44 136.19C83.13 135.89 82.96 135.47 82.96 135.03C82.96 134.59 83.13 134.17 83.44 133.86C83.75 133.55 84.17 133.38 84.61 133.38L165.95 133.38C166.38 133.38 166.8 133.55 167.11 133.86C167.42 134.17 167.6 134.59 167.6 135.03C167.6 135.47 167.42 135.89 167.11 136.19C166.8 136.5 166.38 136.68 165.95 136.68L165.95 136.68Z" />
							<path id="Layer" class="shp12" d="M165.95 144.35L84.61 144.35C84.17 144.35 83.75 144.18 83.44 143.87C83.13 143.56 82.96 143.14 82.96 142.7C82.96 142.26 83.13 141.84 83.44 141.53C83.75 141.22 84.17 141.05 84.61 141.05L165.95 141.05C166.38 141.05 166.8 141.22 167.11 141.53C167.42 141.84 167.6 142.26 167.6 142.7C167.6 143.14 167.42 143.56 167.11 143.87C166.8 144.18 166.38 144.35 165.95 144.35Z" />
							<path id="Layer" class="shp12" d="M165.95 152.02L84.61 152.02C84.17 152.02 83.75 151.85 83.44 151.54C83.13 151.23 82.96 150.81 82.96 150.37C82.96 149.93 83.13 149.51 83.44 149.2C83.75 148.89 84.17 148.72 84.61 148.72L165.95 148.72C166.38 148.72 166.8 148.89 167.11 149.2C167.42 149.51 167.6 149.93 167.6 150.37C167.6 150.81 167.42 151.23 167.11 151.54C166.8 151.85 166.38 152.02 165.95 152.02Z" />
							<g id="Layer">
								<g id="Layer">
									<path id="Layer" class="shp9" d="M154.76 47.3C154.76 59.13 147.63 69.8 136.7 74.32C125.76 78.85 113.17 76.35 104.8 67.98C96.43 59.62 93.93 47.03 98.46 36.1C102.99 25.17 113.66 18.05 125.5 18.05C129.34 18.03 133.16 18.78 136.71 20.24C140.27 21.71 143.5 23.86 146.22 26.58C148.94 29.3 151.1 32.53 152.56 36.09C154.03 39.64 154.78 43.45 154.76 47.3L154.76 47.3Z" />
									<path id="Layer" class="shp4" d="M146.43 62.98C146.39 62.96 146.35 62.93 146.31 62.9C146.27 62.88 146.23 62.85 146.19 62.83C146.14 62.81 146.1 62.78 146.06 62.76C146.02 62.74 145.98 62.72 145.93 62.69C145.93 62.69 145.93 62.69 145.93 62.69C145.93 62.69 145.92 62.69 145.92 62.69C145.92 62.68 145.92 62.68 145.91 62.68C145.91 62.68 145.91 62.68 145.91 62.68L145.91 62.68C144.91 62.17 143.91 61.7 142.89 61.25C141.87 60.8 140.84 60.38 139.8 59.99C138.76 59.59 137.7 59.23 136.64 58.89C135.58 58.56 134.51 58.25 133.43 57.97L133.43 57.97C132.08 57.56 131.06 57.29 130.71 57.2L130.08 56.2C130.06 55.91 130.04 55.62 130.03 55.32C130.02 55.03 130.01 54.74 130.01 54.44C130 54.15 130 53.86 130.01 53.56C130.01 53.27 130.02 52.97 130.03 52.68C130.37 52.24 130.68 51.78 130.96 51.3C131.24 50.83 131.48 50.33 131.7 49.82C131.91 49.31 132.09 48.78 132.23 48.24C132.37 47.71 132.48 47.16 132.55 46.61C132.72 46.74 132.85 46.46 132.85 46.46C132.76 46.3 134.26 42.62 133.99 41.79C133.84 41.32 133.53 41.38 133.28 41.52C133.32 41.3 133.36 41.08 133.39 40.85C133.39 40.85 133.99 35.21 131.14 32.07C131.03 32.02 130.93 31.97 130.82 31.93C130.71 31.88 130.6 31.85 130.48 31.82C130.37 31.79 130.26 31.76 130.14 31.75C130.02 31.73 129.91 31.72 129.79 31.72C125.21 30.31 122.46 30.94 120.74 31.68C118.19 33.77 117.99 37.32 118.11 39.28C118.16 39.74 118.21 40.21 118.26 40.67C118.26 40.67 118.26 40.68 118.26 40.68C118.29 40.86 118.31 41.04 118.33 41.21C118.09 41.06 117.78 40.99 117.6 41.45C117.3 42.27 118.41 45.94 118.55 46.17C118.55 46.17 118.79 46.55 118.98 46.37C118.98 46.37 118.98 46.37 118.98 46.37C119.04 46.94 119.14 47.52 119.28 48.08C119.42 48.65 119.59 49.2 119.8 49.75C120.01 50.29 120.25 50.82 120.53 51.33C120.8 51.84 121.11 52.34 121.45 52.81C121.38 54.12 121.19 55.66 121.06 56.64L119.93 57.82L119.93 57.82C119.87 57.84 119.81 57.86 119.75 57.88L119.75 57.87C106.94 61.29 103.31 63.67 103.31 63.67C103.2 63.77 103.09 63.88 102.99 64C102.89 64.11 102.8 64.23 102.72 64.36C102.64 64.49 102.56 64.62 102.5 64.76C102.43 64.9 102.38 65.04 102.33 65.19C105 68.64 108.42 71.46 112.32 73.43C116.23 75.39 120.52 76.46 124.89 76.55C129.26 76.64 133.6 75.75 137.58 73.94C141.56 72.14 145.09 69.47 147.9 66.12C147.81 65.84 147.72 65.57 147.62 65.3C147.51 65.03 147.4 64.76 147.28 64.5C147.15 64.24 147.02 63.98 146.88 63.73C146.74 63.47 146.59 63.23 146.43 62.98Z" />
								</g>
							</g>
							<g id="Layer">
								<path id="Layer" class="shp14" d="M97.38 112.66L99.08 116.1L102.87 116.65L100.13 119.33L100.77 123.1L97.38 121.32L93.99 123.1L94.64 119.33L91.89 116.65L95.69 116.1L97.38 112.66Z" />
								<path id="Layer" class="shp14" d="M111.27 112.66L112.97 116.1L116.76 116.65L114.02 119.33L114.67 123.1L111.27 121.32L107.88 123.1L108.53 119.33L105.79 116.65L109.58 116.1L111.27 112.66Z" />
								<path id="Layer" class="shp14" d="M125.17 112.66L126.86 116.1L130.66 116.65L127.91 119.33L128.56 123.1L125.17 121.32L121.78 123.1L122.42 119.33L119.68 116.65L123.47 116.1L125.17 112.66Z" />
								<path id="Layer" class="shp14" d="M139.06 112.66L140.76 116.1L144.55 116.65L141.8 119.33L142.45 123.1L139.06 121.32L135.67 123.1L136.32 119.33L133.57 116.65L137.37 116.1L139.06 112.66Z" />
								<path id="Layer" class="shp14" d="M153.17 112.66L154.87 116.1L158.66 116.65L155.92 119.33L156.56 123.1L153.17 121.32L149.78 123.1L150.43 119.33L147.68 116.65L151.48 116.1L153.17 112.66Z" />
							</g>
						</g>
					</g>
				</g>
				<g id="Layer">
					<g id="Layer">
						<path id="Layer" fill-rule="evenodd" class="shp16" d="M547.3 148.4L607.44 148.4C608.74 148.4 610.02 148.66 611.22 149.16C612.42 149.66 613.51 150.39 614.43 151.3C615.34 152.22 616.07 153.31 616.57 154.51C617.07 155.7 617.33 156.99 617.33 158.29L617.33 190.4C617.33 191.7 617.07 192.98 616.57 194.18C616.07 195.38 615.34 196.47 614.43 197.38C613.51 198.3 612.42 199.03 611.22 199.53C610.02 200.02 608.74 200.28 607.44 200.29L590 200.29L574.82 214.44L574.82 200.29L547.29 200.29C545.99 200.29 544.71 200.03 543.51 199.53C542.31 199.03 541.22 198.3 540.31 197.39C539.39 196.47 538.66 195.38 538.16 194.18C537.67 192.99 537.41 191.7 537.4 190.41L537.4 158.29C537.41 156.99 537.66 155.71 538.16 154.51C538.66 153.31 539.39 152.22 540.31 151.3C541.23 150.39 542.32 149.66 543.51 149.16C544.71 148.66 546 148.4 547.3 148.4L547.3 148.4Z" />
						<g id="Layer">
							<path id="Layer" class="shp13" d="M545.42 170.44C545.42 175.07 548.21 179.25 552.49 181.02C556.78 182.79 561.71 181.81 564.98 178.54C568.26 175.26 569.24 170.33 567.47 166.05C565.69 161.77 561.51 158.98 556.88 158.98C555.37 158.98 553.88 159.27 552.49 159.84C551.09 160.42 549.83 161.26 548.76 162.32C547.7 163.39 546.85 164.65 546.28 166.05C545.71 167.44 545.41 168.93 545.42 170.44L545.42 170.44Z" />
							<path id="Layer" class="shp17" d="M548.68 176.58C548.7 176.57 548.71 176.56 548.73 176.55C548.75 176.54 548.76 176.53 548.78 176.52C548.79 176.51 548.81 176.5 548.83 176.49C548.84 176.48 548.86 176.48 548.88 176.47L548.89 176.46L548.89 176.46C549.27 176.26 549.67 176.08 550.07 175.9C550.47 175.73 550.87 175.56 551.28 175.41C551.69 175.26 552.1 175.11 552.52 174.98C552.93 174.85 553.35 174.73 553.77 174.62L553.77 174.62C554.3 174.46 554.7 174.35 554.84 174.32L555.08 173.93C555.09 173.81 555.1 173.7 555.1 173.58C555.11 173.47 555.11 173.35 555.11 173.24C555.11 173.12 555.11 173.01 555.11 172.89C555.11 172.78 555.11 172.66 555.1 172.55C554.97 172.38 554.85 172.2 554.74 172.01C554.63 171.82 554.53 171.63 554.45 171.42C554.37 171.22 554.3 171.02 554.24 170.81C554.18 170.6 554.14 170.39 554.12 170.17C554.05 170.22 554 170.11 554 170.11C554.03 170.05 553.44 168.61 553.55 168.28C553.61 168.1 553.73 168.12 553.83 168.18C553.81 168.1 553.8 168.01 553.78 167.92C553.75 167.61 553.75 167.31 553.77 167.01C553.79 166.71 553.84 166.41 553.92 166.12C553.99 165.82 554.09 165.54 554.22 165.26C554.35 164.99 554.5 164.73 554.67 164.48C554.71 164.46 554.75 164.44 554.79 164.42C554.84 164.41 554.88 164.39 554.92 164.38C554.97 164.37 555.01 164.36 555.06 164.35C555.1 164.35 555.15 164.34 555.2 164.34C555.48 164.23 555.77 164.15 556.07 164.09C556.36 164.03 556.67 164 556.97 164C557.27 164 557.57 164.03 557.87 164.08C558.17 164.14 558.46 164.22 558.74 164.33C558.94 164.52 559.11 164.73 559.25 164.96C559.4 165.19 559.52 165.44 559.6 165.69C559.69 165.95 559.75 166.22 559.78 166.49C559.81 166.76 559.81 167.03 559.77 167.3C559.75 167.49 559.73 167.67 559.71 167.85C559.71 167.85 559.71 167.85 559.71 167.85C559.71 167.85 559.71 167.85 559.71 167.85C559.71 167.85 559.71 167.85 559.71 167.85C559.71 167.85 559.71 167.85 559.71 167.85C559.7 167.92 559.69 167.99 559.69 168.06C559.78 168 559.9 167.97 559.97 168.15C559.97 168.31 559.95 168.47 559.94 168.62C559.92 168.78 559.89 168.94 559.86 169.09C559.83 169.24 559.79 169.4 559.75 169.55C559.71 169.7 559.66 169.85 559.6 170C559.54 170.14 559.5 170.14 559.43 170.08L559.43 170.08C559.41 170.3 559.37 170.53 559.31 170.75C559.26 170.97 559.19 171.19 559.11 171.4C559.03 171.61 558.93 171.82 558.82 172.02C558.72 172.22 558.6 172.42 558.46 172.6C558.49 173.11 558.56 173.72 558.62 174.1L559.06 174.56L559.06 174.56L559.13 174.59L559.13 174.59C564.14 175.93 565.57 176.86 565.57 176.86C565.61 176.9 565.65 176.94 565.69 176.98C565.73 177.03 565.77 177.08 565.8 177.13C565.83 177.18 565.86 177.23 565.89 177.28C565.91 177.34 565.93 177.39 565.95 177.45C564.91 178.81 563.57 179.91 562.04 180.68C560.51 181.45 558.83 181.87 557.12 181.9C555.4 181.94 553.71 181.59 552.15 180.88C550.59 180.18 549.21 179.13 548.1 177.82C548.14 177.71 548.17 177.6 548.21 177.49C548.26 177.39 548.3 177.28 548.35 177.18C548.4 177.07 548.45 176.97 548.5 176.87C548.56 176.77 548.62 176.68 548.68 176.58Z" />
						</g>
						<g id="Layer">
							<path id="Layer" class="shp17" d="M576.07 153.95L612.5 153.95L612.5 157.43L576.07 157.43L576.07 153.95Z" />
							<path id="Layer" class="shp17" d="M576.07 159.15L612.5 159.15L612.5 162.64L576.07 162.64L576.07 159.15Z" />
							<path id="Layer" class="shp17" d="M576.07 164.36L612.5 164.36L612.5 167.84L576.07 167.84L576.07 164.36Z" />
							<path id="Layer" class="shp17" d="M576.07 169.43L612.5 169.43L612.5 172.92L576.07 172.92L576.07 169.43Z" />
							<path id="Layer" class="shp17" d="M576.07 174.51L612.5 174.51L612.5 177.99L576.07 177.99L576.07 174.51Z" />
							<path id="Layer" class="shp17" d="M576.07 183.72L612.5 183.72L612.5 187.21L576.07 187.21L576.07 183.72Z" />
							<path id="Layer" class="shp17" d="M550.32 189.21L612.5 189.21L612.5 192.7L550.32 192.7L550.32 189.21Z" />
						</g>
					</g>
				</g>
				<g id="Layer">
					<path id="Layer" class="shp16" d="M101.8 270.47L181.52 270.47L171.97 263.42L171.97 219.81C171.97 219.12 171.84 218.45 171.58 217.81C171.32 217.18 170.93 216.61 170.45 216.13C169.96 215.64 169.39 215.26 168.76 215C168.13 214.73 167.45 214.6 166.76 214.6L101.8 214.6C101.11 214.6 100.44 214.73 99.8 215C99.17 215.26 98.6 215.64 98.11 216.13C97.63 216.61 97.25 217.18 96.99 217.81C96.72 218.45 96.59 219.12 96.59 219.81L96.59 265.26C96.59 265.95 96.72 266.62 96.98 267.26C97.25 267.89 97.63 268.46 98.11 268.95C98.6 269.43 99.17 269.81 99.8 270.08C100.44 270.34 101.11 270.47 101.8 270.47L101.8 270.47Z" />
					<g id="Layer">
						<path id="Layer" class="shp17" d="M139.95 226.17L103.52 226.17L103.52 222.69L139.95 222.69L139.95 226.17Z" />
						<path id="Layer" class="shp17" d="M139.95 231.38L103.52 231.38L103.52 227.9L139.95 227.9L139.95 231.38Z" />
						<path id="Layer" class="shp17" d="M139.95 236.59L103.52 236.59L103.52 233.1L139.95 233.1L139.95 236.59Z" />
						<path id="Layer" class="shp17" d="M139.95 241.66L103.52 241.66L103.52 238.17L139.95 238.17L139.95 241.66Z" />
						<path id="Layer" class="shp17" d="M139.95 246.73L103.52 246.73L103.52 243.25L139.95 243.25L139.95 246.73Z" />
						<path id="Layer" class="shp17" d="M139.95 255.95L103.52 255.95L103.52 252.46L139.95 252.46L139.95 255.95Z" />
						<path id="Layer" class="shp17" d="M165.7 261.44L103.52 261.44L103.52 257.95L165.7 257.95L165.7 261.44Z" />
						<path id="Layer" class="shp17" d="M165.7 255.64L142.81 255.64L142.81 252.77L165.7 252.77L165.7 255.64Z" />
						<g id="Layer">
							<path id="Layer" class="shp13" d="M144.25 235.51C144.25 240.14 147.04 244.32 151.32 246.09C155.61 247.86 160.54 246.88 163.81 243.61C167.09 240.33 168.07 235.4 166.3 231.12C164.52 226.84 160.35 224.05 155.71 224.05C154.2 224.04 152.71 224.34 151.32 224.91C149.93 225.48 148.66 226.33 147.59 227.39C146.53 228.46 145.69 229.72 145.11 231.11C144.54 232.51 144.24 234 144.25 235.51L144.25 235.51Z" />
							<path id="Layer" class="shp17" d="M147.51 241.65C147.53 241.64 147.55 241.63 147.56 241.62C147.58 241.61 147.59 241.6 147.61 241.59C147.62 241.58 147.64 241.57 147.66 241.56C147.67 241.55 147.69 241.54 147.71 241.54L147.72 241.53L147.72 241.53C148.11 241.33 148.5 241.15 148.9 240.97C149.3 240.8 149.7 240.63 150.11 240.48C150.52 240.32 150.93 240.18 151.35 240.05C151.76 239.92 152.18 239.8 152.6 239.69L152.6 239.69C153.13 239.53 153.53 239.42 153.67 239.39L153.91 239C153.92 238.88 153.93 238.77 153.93 238.65C153.94 238.54 153.94 238.42 153.94 238.31C153.95 238.19 153.95 238.08 153.94 237.96C153.94 237.85 153.94 237.73 153.93 237.62C153.8 237.44 153.68 237.26 153.57 237.08C153.46 236.89 153.36 236.69 153.28 236.49C153.2 236.29 153.13 236.09 153.07 235.88C153.02 235.67 152.97 235.45 152.95 235.24C152.88 235.29 152.83 235.18 152.83 235.18C152.87 235.11 152.28 233.68 152.38 233.35C152.44 233.17 152.57 233.19 152.66 233.25C152.65 233.16 152.63 233.08 152.62 232.98C152.58 232.68 152.58 232.38 152.6 232.08C152.62 231.78 152.67 231.48 152.75 231.19C152.82 230.89 152.92 230.61 153.05 230.33C153.18 230.06 153.33 229.8 153.5 229.55C153.54 229.53 153.58 229.51 153.63 229.49C153.67 229.47 153.71 229.46 153.76 229.45C153.8 229.44 153.85 229.43 153.89 229.42C153.94 229.41 153.98 229.41 154.03 229.41C154.31 229.3 154.6 229.21 154.9 229.16C155.19 229.1 155.5 229.07 155.8 229.07C156.1 229.07 156.4 229.1 156.7 229.15C157 229.2 157.29 229.29 157.57 229.39C157.77 229.59 157.94 229.8 158.08 230.03C158.23 230.26 158.35 230.51 158.44 230.76C158.52 231.02 158.58 231.29 158.61 231.56C158.64 231.83 158.64 232.1 158.6 232.37C158.58 232.55 158.56 232.74 158.54 232.91C158.54 232.91 158.54 232.92 158.54 232.92C158.54 232.92 158.54 232.92 158.54 232.92C158.54 232.92 158.54 232.92 158.54 232.92C158.54 232.92 158.54 232.92 158.54 232.92C158.53 232.99 158.53 233.06 158.52 233.12C158.61 233.07 158.73 233.04 158.8 233.22C158.8 233.38 158.79 233.53 158.77 233.69C158.75 233.85 158.73 234 158.69 234.16C158.66 234.31 158.63 234.47 158.58 234.62C158.54 234.77 158.49 234.92 158.43 235.07C158.37 235.21 158.33 235.21 158.26 235.15L158.26 235.15C158.24 235.37 158.2 235.6 158.14 235.82C158.09 236.04 158.02 236.26 157.94 236.47C157.86 236.68 157.76 236.89 157.66 237.09C157.55 237.29 157.43 237.48 157.29 237.67C157.32 238.18 157.4 238.78 157.45 239.17L157.89 239.63L157.89 239.63L157.96 239.66L157.96 239.66C162.98 240.99 164.4 241.93 164.4 241.93C164.44 241.97 164.49 242.01 164.52 242.05C164.56 242.1 164.6 242.15 164.63 242.2C164.66 242.25 164.69 242.3 164.72 242.35C164.74 242.41 164.77 242.46 164.78 242.52C163.74 243.87 162.4 244.98 160.87 245.75C159.34 246.52 157.66 246.94 155.95 246.97C154.23 247.01 152.54 246.66 150.98 245.95C149.42 245.24 148.04 244.2 146.94 242.88C146.97 242.78 147.01 242.67 147.05 242.56C147.09 242.45 147.13 242.35 147.18 242.25C147.23 242.14 147.28 242.04 147.34 241.94C147.39 241.84 147.45 241.74 147.51 241.65Z" />
						</g>
					</g>
				</g>
				<g id="Layer">
					<path id="Layer" class="shp18" d="M167.93 29.68C167.31 28.96 166.76 28.18 166.28 27.37C165.8 26.55 165.39 25.69 165.06 24.8C164.73 23.92 164.48 23 164.31 22.07C164.14 21.14 164.06 20.19 164.06 19.24C164.06 10 172 2.51 181.79 2.51C191.58 2.51 199.52 10 199.52 19.24C199.52 28.48 191.58 35.97 181.79 35.97C180.93 35.98 180.06 35.92 179.21 35.8C178.35 35.68 177.51 35.5 176.68 35.27C175.85 35.03 175.03 34.74 174.24 34.38C173.46 34.03 172.69 33.63 171.96 33.17L165.1 36.62L167.93 29.68Z" />
					<path id="Layer" class="shp19" d="M178.62 27.25C182.48 27.31 186.4 27.36 189.95 27.13C191.08 27.06 192.05 25.37 190.68 24.84C190.83 24.79 190.97 24.73 191.11 24.66C191.25 24.58 191.38 24.49 191.5 24.4C191.62 24.3 191.73 24.19 191.83 24.07C191.93 23.95 192.02 23.82 192.09 23.69C192.15 23.54 192.18 23.39 192.18 23.23C192.18 23.08 192.14 22.92 192.08 22.78C192.02 22.64 191.92 22.51 191.81 22.41C191.69 22.31 191.55 22.23 191.41 22.18C192.75 22.49 193.28 20.48 192.23 19.84C192.37 19.74 192.5 19.62 192.62 19.49C192.74 19.37 192.85 19.23 192.95 19.08C193.05 18.94 193.13 18.79 193.2 18.62C193.27 18.46 193.32 18.3 193.36 18.13C193.39 17.96 193.4 17.78 193.38 17.61C193.36 17.44 193.31 17.27 193.24 17.11C193.16 16.96 193.07 16.81 192.95 16.68C192.83 16.56 192.69 16.45 192.54 16.36C192.43 16.32 192.32 16.28 192.21 16.24C192.09 16.21 191.98 16.19 191.86 16.17C191.74 16.15 191.62 16.13 191.51 16.13C191.39 16.12 191.27 16.12 191.15 16.13C189.54 16.12 187.94 16.11 186.33 16.1C186.77 13.73 186.9 11.14 185.61 9.06C185.23 8.43 184.19 7.68 183.37 8.16C182.6 8.61 182.82 9.74 182.85 10.45C182.87 11.2 182.79 11.95 182.6 12.67C182.41 13.4 182.12 14.1 181.73 14.74C181.34 15.38 180.87 15.97 180.32 16.48C179.77 16.99 179.15 17.42 178.48 17.76C177.81 18.09 178.66 24.05 178.62 27.25Z" />
					<path id="Layer" class="shp19" d="M171.38 17.76L177.22 17.76L177.22 27.24L171.38 27.24L171.38 17.76Z" />
				</g>
			</g>
		</g>
		<g id="Layer">
			<path id="Layer" class="shp20" d="M495.37 364.25C504.19 363 517.47 360.07 524.67 354.82C531.87 349.56 537.08 340.9 536.29 332.03C535.92 327.9 534.34 324.04 532.55 320.27L555.46 317.36C555.68 318.39 555.89 319.42 556.07 320.46C556.24 321.49 556.4 322.53 556.53 323.58C556.66 324.62 556.76 325.67 556.85 326.72C556.93 327.77 556.98 328.82 557.01 329.87C557.28 341.39 553.7 353.45 545.24 361.27C539.75 366.34 532.58 369.33 525.27 370.86C517.95 372.4 504.13 372.54 496.66 372.63C494.49 372.65 493.37 364.53 495.37 364.25Z" />
			<path id="Layer" class="shp20" d="M474.34 366.57C474.11 366.64 473.88 366.72 473.66 366.81C473.44 366.9 473.22 367.01 473.01 367.12C472.8 367.23 472.59 367.35 472.39 367.49C472.19 367.62 472 367.76 471.81 367.91C471.63 368.07 471.47 368.25 471.33 368.44C471.2 368.64 471.09 368.85 471 369.08C470.92 369.3 470.87 369.54 470.86 369.78C470.84 370.02 470.85 370.26 470.89 370.49C471.25 371.86 472.84 372.44 474.22 372.74C475.3 372.95 476.39 373.13 477.48 373.29C478.57 373.45 479.66 373.59 480.76 373.71C481.85 373.83 482.95 373.92 484.05 374C485.15 374.07 486.25 374.12 487.35 374.15L488.86 374.23C489.46 374.26 490.05 374.29 490.65 374.31C493.28 374.37 496.34 373.96 497.87 371.54C498.14 371.15 498.36 370.71 498.5 370.26C498.64 369.8 498.7 369.32 498.7 368.84C498.69 368.37 498.61 367.89 498.46 367.44C498.3 366.98 498.08 366.56 497.8 366.17C494.91 362.81 488.04 363.74 484.27 364.21C483.42 364.31 482.58 364.44 481.74 364.59C480.9 364.75 480.07 364.92 479.24 365.12C478.41 365.32 477.58 365.54 476.77 365.78C475.95 366.02 475.14 366.29 474.34 366.57Z" />
			<path id="Layer" fill-rule="evenodd" class="shp21" d="M530.39 315.8C527.88 310.59 525.66 304.86 526.6 299.14C528.73 286.13 543.18 287.36 549.07 296.79C551.33 300.41 552.16 305.23 553.37 309.26C554.17 311.94 554.88 314.64 555.46 317.36L532.96 324.03C532.25 322.53 531.1 317.28 530.39 315.8Z" />
			<path id="Layer" class="shp22" d="M362.69 431.55C362.78 432 362.76 432.47 362.63 432.91C362.5 433.35 362.27 433.75 361.96 434.09C361.65 434.43 361.26 434.68 360.83 434.84C360.4 435 359.93 435.06 359.48 435C357.25 435.32 355.03 435.64 352.81 435.96C352.51 436.12 352.16 436.18 351.83 436.13C351.49 436.08 351.18 435.92 350.93 435.68C350.69 435.45 350.53 435.14 350.47 434.8C350.41 434.47 350.46 434.12 350.61 433.81L351.56 427.9C351.59 427.46 351.66 427.02 351.74 426.59C351.83 426.16 351.95 425.74 352.09 425.32C352.23 424.91 352.39 424.5 352.59 424.1C352.78 423.71 352.99 423.32 353.23 422.96C354.79 420.96 359.99 419.03 362.09 421.2C364.04 423.19 362.76 429.09 362.69 431.55Z" />
			<path id="Layer" fill-rule="evenodd" class="shp23" d="M329.73 448.02C329.18 446.32 330.49 444.5 332.09 443.71C333.7 442.91 335.54 442.81 337.28 442.39C338.51 442.07 339.7 441.59 340.81 440.96C341.92 440.33 342.94 439.56 343.84 438.67C344.75 437.77 345.53 436.76 346.17 435.66C346.81 434.55 347.31 433.37 347.64 432.14C347.66 431.97 347.69 431.8 347.74 431.63C347.79 431.46 347.85 431.29 347.92 431.13C347.99 430.97 348.07 430.82 348.17 430.67C348.26 430.52 348.36 430.38 348.48 430.25C348.67 430.11 348.87 430 349.09 429.93C349.31 429.85 349.54 429.81 349.77 429.8C350.01 429.79 350.24 429.81 350.47 429.87C350.69 429.92 350.91 430.01 351.11 430.13C351.31 430.25 351.51 430.38 351.7 430.5C351.9 430.63 352.09 430.76 352.28 430.89C352.47 431.02 352.67 431.16 352.85 431.3C353.04 431.43 353.23 431.57 353.42 431.71C353.77 431.93 354.15 432.11 354.54 432.26C354.94 432.4 355.34 432.51 355.76 432.57C356.17 432.63 356.59 432.66 357.01 432.64C357.43 432.62 357.84 432.56 358.25 432.46C359.61 432.13 360.9 430.73 362.36 431.12C363.66 431.46 364.34 432.99 364.9 434.06C365.86 435.91 366.77 437.78 367.71 439.64C367.77 439.75 367.82 439.85 367.87 439.96C367.92 440.06 367.97 440.17 368.01 440.28C368.06 440.38 368.1 440.49 368.15 440.6C368.19 440.71 368.23 440.82 368.27 440.93L358.79 443.12C358.62 442.89 358.45 442.66 358.29 442.43C358.13 442.19 357.98 441.95 357.84 441.7C357.69 441.46 357.56 441.21 357.43 440.95C357.3 440.7 357.18 440.44 357.07 440.18C357.13 440.45 357.16 440.73 357.19 441.02C357.21 441.3 357.22 441.58 357.21 441.86C357.21 442.14 357.18 442.43 357.14 442.71C357.11 442.99 357.05 443.26 356.98 443.54L330.95 449.55C330.81 449.46 330.67 449.36 330.55 449.25C330.43 449.14 330.31 449.02 330.21 448.89C330.11 448.76 330.02 448.62 329.94 448.47C329.86 448.33 329.79 448.18 329.73 448.02L329.73 448.02Z" />
			<path id="Layer" fill-rule="evenodd" class="shp23" d="M346.2 417.84C344.15 417.17 342.37 415.86 340.36 415.1C336.44 413.61 332.01 414.34 327.95 413.29C326.86 413 325.81 412.58 324.81 412.05C323.82 411.52 322.89 410.88 322.04 410.13C321.19 409.39 320.43 408.55 319.77 407.63C319.12 406.72 318.57 405.73 318.14 404.69C317.85 404.3 317.68 403.84 317.66 403.35C317.63 402.87 317.75 402.39 318 401.98C318.25 401.56 318.61 401.23 319.05 401.03C319.49 400.82 319.98 400.75 320.45 400.83C327.41 400.17 329.25 402.9 336.23 403.25C338.09 403.35 345.86 402.13 349.82 403.56C354.12 405.1 353.67 406.93 353.83 408.58C353.99 410.23 353.73 415.73 352.3 416.94C351.86 417.25 351.4 417.52 350.9 417.72C350.41 417.92 349.89 418.06 349.36 418.14C348.83 418.22 348.29 418.24 347.76 418.19C347.23 418.13 346.7 418.02 346.2 417.84L346.2 417.84Z" />
			<path id="Layer" class="shp20" d="M353.5 402.29C353.68 401.87 353.77 401.41 353.74 400.95C353.72 400.49 353.59 400.05 353.36 399.65C353.13 399.25 352.81 398.91 352.42 398.66C352.04 398.41 351.6 398.25 351.14 398.2L344.86 395.76C344.61 395.53 344.28 395.4 343.94 395.37C343.6 395.35 343.26 395.43 342.97 395.6C342.68 395.78 342.45 396.04 342.32 396.36C342.19 396.67 342.16 397.02 342.24 397.35C342.1 399.34 341.96 401.34 341.82 403.33C341.76 403.76 341.72 404.2 341.71 404.64C341.69 405.08 341.71 405.52 341.75 405.96C341.8 406.39 341.87 406.83 341.96 407.26C342.06 407.68 342.19 408.11 342.34 408.52C343.4 410.82 348.02 413.88 350.57 412.24C352.91 410.73 353 404.7 353.5 402.29Z" />
			<path id="Layer" class="shp24" d="M350.27 342.45C350.44 341.62 350.65 340.79 350.89 339.97C351.13 339.15 351.41 338.35 351.72 337.55C352.04 336.76 352.38 335.98 352.76 335.22C353.14 334.45 353.55 333.7 354 332.98L372.19 355.24C368.01 356.63 365.53 360.87 363.63 368.09C356.72 394.24 354.33 403.98 352.54 406.53C351.17 408.48 341.99 407.32 341.15 404.92C338.84 398.27 346.15 358.82 350.27 342.45Z" />
			<path id="Layer" class="shp25" d="M460.25 373.27C455.7 376.53 431.73 377.2 426.14 376.77L401.53 374.88C397.62 374.58 387.95 371.31 384.82 373.67C380.56 376.87 367.82 419.9 364.05 425.38C362.8 427.2 352.46 428.2 351.3 424.95C350.14 421.71 355.93 387.48 358.25 373.86C359.14 368.63 360.05 363.36 361.97 358.42C363.89 353.48 366.93 348.82 371.33 345.86C377.51 341.69 437.52 344.24 440.38 345.77C444.41 347.93 465.05 369.85 460.25 373.27Z" />
			<path id="Layer" class="shp24" d="M477.61 335.86C478.38 336.44 479.1 337.08 479.77 337.77C480.44 338.46 481.05 339.21 481.61 339.99C482.16 340.78 482.65 341.62 483.07 342.48C483.49 343.35 483.84 344.25 484.12 345.17C484.89 347.62 485.28 350.18 485.29 352.76C485.3 355.33 484.92 357.89 484.17 360.35C483.42 362.81 482.31 365.15 480.87 367.28C479.43 369.41 477.67 371.32 475.67 372.93C467.51 379.24 445.92 378.89 433.79 369.11C425.76 362.63 433.48 357.23 435.9 347.2C437.11 342.17 440.48 336.82 445.33 334.98C453.71 334.27 457.33 336.31 463.51 335.58C468.91 334.93 472.09 332 477.61 335.86Z" />
			<path id="Layer" class="shp24" d="M356.87 329.95C388.82 323.82 429.04 332.98 446.15 335.09C450.65 340.61 451.67 359.08 449.36 365.32C445.72 375.13 435.94 374.62 427.37 372.22C423.96 371.26 420.57 370.24 417.19 369.17C413.82 368.1 410.46 366.96 407.13 365.77C403.79 364.58 400.47 363.34 397.18 362.03C393.89 360.73 390.62 359.36 387.37 357.95C380.58 354.98 367.09 348.6 363.88 354.32L354 332.98C354.79 331.82 355.48 330.22 356.87 329.95Z" />
			<path id="Layer" fill-rule="evenodd" class="shp26" d="M542.11 285.86C544.24 288.74 544.96 292.43 545.21 296.01C546.32 312.13 538.94 327.94 528.31 340.11C517.68 352.28 503.98 361.33 490.26 369.86C488.94 370.62 487.58 371.3 486.17 371.89C484.77 372.48 483.33 372.98 481.86 373.38C480.39 373.78 478.9 374.09 477.39 374.29C475.88 374.5 474.36 374.61 472.84 374.62C470.92 368.61 469.73 350.44 467.81 344.43C466.8 341.27 465.78 337.89 466.63 334.69C467.96 329.72 473.14 327.01 477.67 324.56C480.8 322.87 483.85 321.04 486.81 319.07C489.76 317.1 492.63 314.99 495.39 312.76C498.15 310.52 500.81 308.16 503.35 305.67C505.89 303.19 508.32 300.59 510.62 297.88C513.78 294.16 516.72 290.21 520.42 287.03C526.23 282.01 536.5 278.3 542.11 285.86Z" />
			<g id="Layer">
				<path id="Layer" class="shp20" d="M539.89 282.08C539.99 282.32 540.07 282.56 540.15 282.81C540.22 283.06 540.29 283.31 540.35 283.56C540.4 283.82 540.44 284.07 540.48 284.33C540.51 284.59 540.54 284.84 540.55 285.1C540.56 285.36 540.53 285.62 540.46 285.87C540.4 286.12 540.3 286.36 540.17 286.59C540.04 286.81 539.88 287.01 539.69 287.19C539.5 287.37 539.29 287.52 539.06 287.64C538.89 287.69 538.71 287.73 538.53 287.76C538.35 287.79 538.17 287.81 537.99 287.81C537.81 287.82 537.63 287.81 537.45 287.79C537.27 287.77 537.1 287.74 536.92 287.69L524.98 285.82C525.23 284.66 525.38 283.48 525.42 282.29C525.47 281.11 525.41 279.92 525.24 278.74C525.08 277.57 524.81 276.41 524.45 275.28C524.08 274.15 523.62 273.06 523.06 272.01C522.47 270.91 521.76 269.72 522.03 268.51C522.32 267.24 523.59 266.46 524.78 265.9C525.44 265.59 526.11 265.3 526.79 265.03C527.47 264.77 528.15 264.52 528.85 264.3C529.55 264.07 530.25 263.87 530.96 263.69C531.66 263.52 532.38 263.36 533.1 263.23C536.34 262.63 538.09 261.66 538.21 265.03C538.42 270.98 538 276.25 539.89 282.08Z" />
				<path id="Layer" class="shp22" d="M545.06 252.31C547.15 255.88 547.4 260.88 544.51 263.84C542.81 265.58 540.38 266.32 538.05 267.01L525.57 270.71C523.07 271.45 516.79 270.41 514.68 268.87C512.53 267.31 514.65 265.71 514.68 263.05C514.72 258.75 518.56 252.81 520.03 248.78C521.5 244.74 521.78 242.86 525.83 241.41C532.95 238.88 541.7 246.57 545.06 252.31Z" />
				<path id="Layer" fill-rule="evenodd" class="shp23" d="M549.19 266.66C548.95 267.19 548.67 267.7 548.37 268.2C548.08 268.7 547.76 269.19 547.41 269.66C547.07 270.13 546.7 270.58 546.31 271.02C545.93 271.45 545.52 271.87 545.09 272.26C543.29 273.74 540.66 274.45 538.58 273.4C535.93 272.06 535.25 268.65 534.89 265.7C534.44 262.12 531.6 264.09 531.16 260.51C530.97 258.99 533.17 251.89 532.59 250.47C531.19 247.05 527.73 244.81 526.29 241.4C525.41 239.29 525.38 236.93 526.22 234.81C527.06 232.68 528.7 230.97 530.78 230.04C532.86 229.11 535.23 229.03 537.37 229.81C539.51 230.6 541.26 232.19 542.25 234.25C543.66 237.22 543.12 240.9 544.8 243.73C546.22 246.11 548.37 245.93 550.38 247.41C556.68 252.08 552.04 261.49 549.19 266.66Z" />
				<path id="Layer" class="shp22" d="M540.81 262.19C540.91 261.59 540.88 260.97 540.74 260.37C540.6 259.78 540.34 259.21 539.98 258.72C539.62 258.22 539.17 257.8 538.65 257.47C538.12 257.15 537.54 256.93 536.94 256.83C534.48 256.5 531.12 264.55 531.91 265.56C536.3 266.43 539.75 264.93 540.81 262.19Z" />
			</g>
			<path id="Layer" class="shp22" d="M460.23 263.05C463.03 271.52 468.26 284.06 474.71 290.21C481.17 296.37 490.6 299.96 499.21 297.61C503.21 296.52 506.72 294.27 510.12 291.84L517.04 313.87C516.07 314.27 515.09 314.66 514.1 315.02C513.11 315.37 512.11 315.71 511.11 316.02C510.1 316.34 509.09 316.63 508.07 316.89C507.05 317.16 506.03 317.4 505 317.62C493.7 319.92 481.19 318.54 471.99 311.59C466.03 307.09 461.82 300.57 459.01 293.64C456.21 286.72 453.62 273.15 452.21 265.81C451.8 263.68 459.6 261.14 460.23 263.05Z" />
			<path id="Layer" fill-rule="evenodd" class="shp26" d="M514.13 288.93C518.83 285.54 524.08 282.34 529.87 282.24C543.05 282.04 544.4 296.48 536.16 303.94C533 306.8 528.4 308.47 524.64 310.38C522.15 311.64 519.62 312.81 517.04 313.87L506.49 292.91C507.84 291.95 512.8 289.89 514.13 288.93Z" />
			<g id="Layer">
				<path id="Layer" class="shp27" d="M460.69 254.59L449.89 254.59C449.72 254.58 449.56 254.55 449.4 254.49C449.24 254.43 449.1 254.35 448.96 254.24C448.83 254.14 448.72 254.02 448.62 253.88C448.53 253.74 448.46 253.59 448.41 253.43L441.81 230.51C441.75 230.37 441.74 230.23 441.75 230.09C441.77 229.95 441.82 229.82 441.91 229.7C441.99 229.59 442.1 229.49 442.23 229.43C442.36 229.37 442.5 229.34 442.64 229.35L453.44 229.35C453.61 229.36 453.77 229.39 453.93 229.45C454.09 229.51 454.23 229.59 454.37 229.7C454.5 229.8 454.61 229.92 454.71 230.06C454.8 230.2 454.88 230.35 454.92 230.51L461.52 253.43C461.58 253.56 461.59 253.71 461.58 253.85C461.56 253.99 461.51 254.12 461.42 254.24C461.34 254.35 461.23 254.44 461.1 254.51C460.98 254.57 460.83 254.6 460.69 254.59L460.69 254.59Z" />
				<path id="Layer" class="shp28" d="M461.75 254.59L450.94 254.59C450.77 254.58 450.61 254.55 450.45 254.49C450.3 254.43 450.15 254.35 450.02 254.24C449.89 254.14 449.77 254.02 449.68 253.88C449.58 253.74 449.51 253.59 449.46 253.43L442.86 230.51C442.81 230.37 442.79 230.23 442.81 230.09C442.83 229.95 442.88 229.82 442.96 229.7C443.04 229.59 443.15 229.49 443.28 229.43C443.41 229.37 443.55 229.34 443.69 229.35L454.5 229.35C454.66 229.36 454.83 229.39 454.98 229.45C455.14 229.51 455.29 229.59 455.42 229.7C455.55 229.8 455.67 229.92 455.76 230.06C455.86 230.2 455.93 230.35 455.98 230.51L462.58 253.43C462.63 253.56 462.65 253.71 462.63 253.85C462.61 253.99 462.56 254.12 462.48 254.24C462.39 254.35 462.28 254.44 462.16 254.51C462.03 254.57 461.89 254.6 461.75 254.59Z" />
				<path id="Layer" class="shp27" d="M460.85 253.35L451.11 253.35C450.96 253.34 450.82 253.31 450.67 253.26C450.53 253.2 450.4 253.13 450.28 253.04C450.16 252.94 450.06 252.83 449.98 252.71C449.89 252.59 449.82 252.45 449.78 252.31L443.83 231.64C443.78 231.53 443.77 231.4 443.78 231.27C443.8 231.14 443.85 231.02 443.92 230.92C444 230.82 444.1 230.73 444.21 230.68C444.33 230.62 444.46 230.6 444.58 230.6L454.32 230.6C454.47 230.61 454.62 230.64 454.76 230.69C454.9 230.75 455.03 230.82 455.15 230.91C455.27 231.01 455.38 231.12 455.46 231.24C455.55 231.37 455.61 231.5 455.66 231.64L461.61 252.31C461.65 252.43 461.67 252.55 461.65 252.68C461.64 252.81 461.59 252.93 461.51 253.03C461.44 253.14 461.34 253.22 461.22 253.27C461.11 253.33 460.98 253.36 460.85 253.35L460.85 253.35Z" />
			</g>
			<path id="Layer" class="shp22" d="M458.9 251.69C458.46 250.33 455.96 246.66 454.64 243.17C452.21 242.34 453.5 249.31 454.32 250.14C451.48 249.57 446.15 246.4 444.91 241.29C444.69 241.53 444.47 241.78 444.27 242.04C444.07 242.31 443.88 242.58 443.71 242.86C443.53 243.13 443.37 243.42 443.22 243.72C443.07 244.01 442.94 244.31 442.82 244.62C442.69 247.11 444.28 249.41 444.14 251.9C444.04 253.76 443.18 254.73 443.75 256.51C444.65 259.36 447.07 261.42 449.48 263.2C449.78 263.45 450.09 263.68 450.41 263.9C450.73 264.12 451.06 264.32 451.4 264.51C451.73 264.7 452.08 264.88 452.43 265.04C452.79 265.2 453.15 265.35 453.51 265.48C461.76 267.95 460.26 255.9 458.9 251.69Z" />
		</g>
	</g>
</svg>