<svg xmlns="http://www.w3.org/2000/svg" width="522.016" height="532.016" viewBox="0 0 522.016 532.016"><defs><style>.a{fill:#41caff;}.b{fill:#fff;}.c{fill:#ffcb57;}.d{fill:#0170ce;}.e{fill:#8c7a7a;}.f{fill:#ffb100;}</style></defs><g transform="translate(-745.399 -144.93)"><g transform="translate(755.754 155.668)"><circle class="a" cx="149.16" cy="149.16" r="149.16" transform="translate(106.84 106.84)"/><path class="b" d="M375,256c0,2.36-.08,4.68-.24,7a118.235,118.235,0,0,1-29.8,72.04,128.959,128.959,0,0,1-9.92,9.92A118.235,118.235,0,0,1,263,374.76c-2.32.16-4.64.24-7,.24s-4.68-.08-7-.24a118.235,118.235,0,0,1-72.04-29.8,128.957,128.957,0,0,1-9.92-9.92A118.235,118.235,0,0,1,137.24,263c-.16-2.32-.24-4.64-.24-7s.08-4.68.24-7a118.235,118.235,0,0,1,29.8-72.04,128.955,128.955,0,0,1,9.92-9.92A118.235,118.235,0,0,1,249,137.24c2.32-.16,4.64-.24,7-.24s4.68.08,7,.24a118.235,118.235,0,0,1,72.04,29.8,128.957,128.957,0,0,1,9.92,9.92A118.235,118.235,0,0,1,374.76,249C374.92,251.32,375,253.64,375,256Z"/><path class="c" d="M256,58.332A198.123,198.123,0,0,0,120.26,112.4V101.08a7,7,0,1,0-14,0v28.736a7,7,0,0,0,7,7H142a7,7,0,1,0,0-14H129.6a182.688,182.688,0,1,1-29.824,36.52,7,7,0,0,0-11.82-7.5c-.026.04-.051.081-.076.122C30.407,244.785,59.068,366.628,151.9,424.1s214.672,28.812,272.145-64.017,28.812-214.672-64.017-272.145A197.686,197.686,0,0,0,256,58.332Z"/><path class="d" d="M263,253.04V196.668a7,7,0,0,0-14,0V256a7,7,0,0,0,2.124,5.024l22.668,22a7,7,0,1,0,9.752-10.048h0Z"/><path class="e" d="M263,137.24V150a7,7,0,0,1-14,0V137.24c2.32-.16,4.64-.24,7-.24S260.68,137.08,263,137.24Z"/><path class="e" d="M344.96,176.96,335.92,186a7.016,7.016,0,0,1-9.92-9.92l9.04-9.04A128.957,128.957,0,0,1,344.96,176.96Z"/><path class="e" d="M375,256c0,2.36-.08,4.68-.24,7H362a7,7,0,0,1,0-14h12.76C374.92,251.32,375,253.64,375,256Z"/><path class="e" d="M344.96,335.04a128.959,128.959,0,0,1-9.92,9.92L326,335.92a7.016,7.016,0,0,1,9.92-9.92Z"/><path class="e" d="M263,362v12.76c-2.32.16-4.64.24-7,.24s-4.68-.08-7-.24V362a7,7,0,0,1,14,0Z"/><path class="e" d="M186,335.92l-9.04,9.04a128.957,128.957,0,0,1-9.92-9.92l9.04-9.04a7.016,7.016,0,0,1,9.92,9.92Z"/><path class="e" d="M157,256a6.984,6.984,0,0,1-6.968,7H137.24c-.16-2.32-.24-4.64-.24-7s.08-4.68.24-7H150a6.984,6.984,0,0,1,7,6.968Z"/><path class="e" d="M186,186a7.048,7.048,0,0,1-9.92,0l-9.04-9.04a128.955,128.955,0,0,1,9.92-9.92l9.04,9.04A7.048,7.048,0,0,1,186,186Z"/></g><g transform="translate(715.396 389.594) rotate(-45)"><path class="f" d="M423.221,268.522a12.028,12.028,0,0,1-7.747-21.235c6.521-5.482,10.37-14.409,10.3-23.877C425.7,214.177,422,205.9,415.619,200.7a12.028,12.028,0,0,1,15.194-18.651c11.957,9.74,18.887,24.746,19.014,41.171.13,16.8-6.748,32.284-18.87,42.477A11.985,11.985,0,0,1,423.221,268.522Z" transform="translate(0 -6.605)"/><path class="f" d="M462.1,288.648a12.028,12.028,0,0,1-7.849-21.146c13.564-11.669,21.572-30.8,21.421-51.184-.148-20-7.905-37.872-21.284-49.04A12.028,12.028,0,1,1,469.8,148.811c18.817,15.708,29.723,40.248,29.924,67.33.2,27.361-10.933,53.379-29.787,69.6a11.983,11.983,0,0,1-7.839,2.909Z" transform="translate(-7.703)"/></g><g transform="translate(903.415 619.786) rotate(135)"><path class="f" d="M12.034,89.172A12.028,12.028,0,0,1,4.288,67.937c6.521-5.482,10.37-14.409,10.3-23.877-.072-9.233-3.772-17.509-10.152-22.706A12.028,12.028,0,0,1,19.626,2.7c11.956,9.74,18.887,24.746,19.014,41.171.13,16.8-6.748,32.284-18.87,42.477A11.985,11.985,0,0,1,12.034,89.172Z" transform="translate(0 26.729)"/><path class="f" d="M12.034,142.632a12.028,12.028,0,0,1-7.849-21.146c13.564-11.669,21.572-30.8,21.421-51.184-.148-20-7.905-37.872-21.284-49.04A12.028,12.028,0,0,1,19.736,2.794C38.554,18.5,49.46,43.042,49.66,70.124c.2,27.361-10.933,53.379-29.787,69.6a11.982,11.982,0,0,1-7.839,2.909Z" transform="translate(31.175 0)"/></g></g></svg>