<svg xmlns="http://www.w3.org/2000/svg" xmlns:xlink="http://www.w3.org/1999/xlink" width="599.819" height="335.498" viewBox="0 0 599.819 335.498"><defs><style>.a,.aa,.ac,.b,.f,.l,.t,.z{fill:none;}.a,.b,.f{stroke:#fff;}.a,.b,.f,.z{stroke-miterlimit:10;}.a{stroke-width:0.825px;}.b{stroke-width:0.66px;}.c{fill:#b3b3b3;}.d{fill:#3e3e3d;}.e{fill:#6f6f6f;}.f{stroke-width:0.704px;}.g{fill:#b5e5ff;}.h,.s{fill:#fff;}.i,.j{fill:#5e5e5e;}.i{font-size:9px;font-family:Poppins-SemiBold, Poppins;font-weight:600;}.k{fill:#e0f1fc;}.l{stroke:#5e5e5e;}.aa,.l,.t{stroke-linecap:round;stroke-linejoin:round;}.m{fill:#8f8f8f;}.n{fill:#5399ff;}.o{fill:#ff5959;}.p{fill:#10bce6;}.q{fill:#ffb531;}.r{fill:#cbe0ff;}.s{stroke:#e0f1fc;}.t{stroke:#4bc8f9;stroke-width:5px;}.u{fill:#f05540;}.v{fill:#f3705a;}.w{fill:#ffd15c;}.x{fill:#f7b64c;}.y{fill:#dd9ab2;}.z{stroke:#d6819f;stroke-width:3.86px;}.aa{stroke:#425973;stroke-width:2.75px;}.ab{stroke:none;}.ad{filter:url(#a);}</style><filter id="a" x="221.386" y="71.85" width="126.654" height="149.529" filterUnits="userSpaceOnUse"><feOffset dy="3" input="SourceAlpha"/><feGaussianBlur stdDeviation="3" result="b"/><feFlood flood-color="#cbeafd"/><feComposite operator="in" in2="b"/><feComposite in="SourceGraphic"/></filter></defs><g transform="translate(-701.767 -318.345)"><g transform="translate(702 240.649)"><g transform="translate(0 134.967)"><path class="a" d="M221.073,263.391c-24.7,9.61-20-11.763-32.936-27.054-11.764-14.118-15.295-7.058-30.585-7.058-47.054-3.529-25.882-25.88-38.822-51.76" transform="translate(-98.734 -153.992)"/><path class="b" d="M129.711,171.744c-3.529,4.705-6.273,6.47-10.981,8.823" transform="translate(-98.734 -160.569)"/><path class="b" d="M118.182,166.519c-.056,5.1,1.174,15.293,1.174,22.351" transform="translate(-99.36 -166.519)"/><path class="b" d="M112.131,168.719c4.7,5.882,9.409,11.764,15.29,15.293" transform="translate(-106.249 -164.014)"/><path class="b" d="M109.381,173.668c5.882,5.882,12.94,7.06,20,4.708" transform="translate(-109.381 -158.378)"/><g transform="translate(476.962 23.527)"><path class="a" d="M332.681,270.388c0-21.172,10.587-20,27.054-21.172,22.351-1.176,16.469-1.176,23.527-20,11.764-29.409,52.936-4.7,54.114-42.346" transform="translate(-332.681 -166.871)"/><g transform="translate(91.753)"><path class="b" d="M375.58,181.369a23.3,23.3,0,0,0,12.942,12.938" transform="translate(-375.58 -173.135)"/><path class="b" d="M380.53,177.519v17.645" transform="translate(-369.943 -177.519)"/><path class="b" d="M392.293,178.619c-2.351,7.056-5.882,11.764-11.763,16.469" transform="translate(-369.943 -176.266)"/><path class="b" d="M398.025,182.469c-3.531,5.882-9.413,9.411-15.295,11.764" transform="translate(-367.437 -171.882)"/></g></g></g><g transform="translate(0 77.696)"><g transform="translate(73.501)"><g transform="translate(0 237.444)"><g transform="translate(2.366)"><path class="c" d="M592.418,325.29c0,6.171-46.141,7.963-51.128,7.963H195.983c-4.981,0-51.131-1.792-51.131-7.963l42.107-63.206c0-6.173,4.043-11.175,9.024-11.175H541.29c4.987,0,9.024,5,9.024,11.175Z" transform="translate(-144.852 -250.908)"/><g transform="translate(22.948 22.659)"><path class="d" d="M263.7,299.144H174.83L190.38,261.5h80.381Z" transform="translate(-133.66 -261.502)"/><path class="d" d="M286.638,299.144H375.51L359.955,261.5H279.578Z" transform="translate(-15.007 -261.502)"/><path class="d" d="M338.591,299.144h31.3L344.278,261.5H320.67Z" transform="translate(31.789 -261.502)"/><path class="d" d="M186.878,299.144h-31.3L181.19,261.5h23.6Z" transform="translate(-155.581 -261.502)"/><path class="d" d="M346.628,299.144H220.036l7.058-37.642H339.57Z" transform="translate(-82.497 -261.502)"/><g transform="translate(3.53 6.87)"><rect class="c" width="386.229" height="5.763" transform="translate(4.194)"/><rect class="c" width="394.617" height="5.763" transform="translate(0 14.115)"/></g></g></g><g transform="translate(0 72.241)"><path class="d" d="M596.045,301.463c0,4.99-1.034,9.034-6.012,9.034H149.758c-4.985,0-6.012-4.044-6.012-9.034v-7.747c0-4.99,1.027-9.032,6.012-9.032H590.033c4.979,0,6.012,4.042,6.012,9.032Z" transform="translate(-143.746 -284.684)"/><path class="e" d="M376.27,293.324a4.707,4.707,0,0,1-4.705,4.708H215.7a4.706,4.706,0,0,1-4.705-4.708h0a4.7,4.7,0,0,1,4.705-4.705H371.565a4.706,4.706,0,0,1,4.705,4.705Z" transform="translate(-67.482 -280.203)"/></g></g><g transform="translate(40.015)"><rect class="d" width="372.268" height="249.566" rx="4.226"/><path class="f" d="M249.631,143.8" transform="translate(-63.496 -134.997)"/></g></g></g><g transform="translate(26.607 -23.331)"><path class="g" d="M433.185,114.428H110.623a5.244,5.244,0,0,0-5.23,5.23v32.037H438.416V119.658A5.245,5.245,0,0,0,433.185,114.428Z" transform="translate(0 0)"/><path class="h" d="M233.831,144.064c-2.877,0-6.093-2.705-7.15-6.009L222.22,124.08c-1.056-3.3-4.273-6.008-7.151-6.008h-82.25c-2.877,0-6.094,2.705-7.15,6.008l-4.461,13.975c-1.056,3.3-4.274,6.009-7.151,6.009h-3.433c-2.877,0-5.23,2.907-5.23,6.461V332.476c0,3.553,2.353,6.461,5.23,6.461H433.185c2.877,0,5.231-2.907,5.231-6.461V150.525c0-3.553-2.354-6.461-5.231-6.461Z" transform="translate(0 1.681)"/><text class="i" transform="translate(153.952 136.056)"><tspan x="-20.543" y="0">Contract</tspan></text><g transform="translate(209.827 128.537)"><path class="j" d="M178.163,129.5a.762.762,0,0,1-1.078,0h0a.764.764,0,0,1,0-1.08l6.165-6.165a.762.762,0,0,1,1.078,0h0a.762.762,0,0,1,0,1.078Z" transform="translate(-176.861 -122.03)"/><path class="j" d="M177.085,123.332a.762.762,0,0,1,0-1.078h0a.763.763,0,0,1,1.078,0l6.165,6.165a.762.762,0,0,1,0,1.08h0a.76.76,0,0,1-1.077,0Z" transform="translate(-176.861 -122.03)"/></g><g transform="translate(421.161 125.537)"><path class="j" d="M322.787,129.5a.764.764,0,0,1-1.08,0h0a.766.766,0,0,1,0-1.08l6.167-6.165a.76.76,0,0,1,1.077,0h0a.759.759,0,0,1,0,1.078Z" transform="translate(-321.485 -122.03)"/><path class="j" d="M321.707,123.332a.765.765,0,0,1,0-1.078h0a.765.765,0,0,1,1.08,0l6.164,6.165a.761.761,0,0,1,0,1.08h0a.76.76,0,0,1-1.077,0Z" transform="translate(-321.485 -122.03)"/></g><path class="k" d="M1.221,0H270.875A1.221,1.221,0,0,1,272.1,1.221V12.136a1.222,1.222,0,0,1-1.222,1.222H1.222A1.222,1.222,0,0,1,0,12.136V1.221A1.221,1.221,0,0,1,1.221,0Z" transform="translate(135.856 153.873)"/><rect class="l" width="6.42" height="6.42" transform="translate(408.581 126.172)"/><line class="l" x1="6.42" transform="translate(395.365 132.592)"/><g transform="translate(415.001 153.873)"><path class="m" d="M332.056,145.193a1.089,1.089,0,0,1-1.089,1.092H318.434a1.09,1.09,0,0,1-1.09-1.092h0a1.09,1.09,0,0,1,1.09-1.087h12.533a1.089,1.089,0,0,1,1.089,1.087Z" transform="translate(-317.344 -144.106)"/><path class="m" d="M332.056,149.073a1.09,1.09,0,0,1-1.089,1.09H318.434a1.09,1.09,0,0,1-1.09-1.09h0a1.09,1.09,0,0,1,1.09-1.089h12.533a1.089,1.089,0,0,1,1.089,1.089Z" transform="translate(-317.344 -142.317)"/><path class="m" d="M332.056,152.95a1.09,1.09,0,0,1-1.089,1.092H318.434a1.09,1.09,0,0,1-1.09-1.092h0a1.09,1.09,0,0,1,1.09-1.087h12.533a1.089,1.089,0,0,1,1.089,1.087Z" transform="translate(-317.344 -140.528)"/></g><path class="m" d="M124.053,147.469a.616.616,0,0,0-.863.04l-.584.642a5.305,5.305,0,1,0-5.283,5.763.611.611,0,1,0,0-1.222,4.085,4.085,0,1,1,4.044-4.487l-.637-.581a.61.61,0,0,0-.822.9l1.738,1.584a.6.6,0,0,0,.411.16h.028a.612.612,0,0,0,.423-.2l1.584-1.739A.611.611,0,0,0,124.053,147.469Z" transform="translate(7.856 11.318)"/><g transform="translate(203.55 178.799)"><g transform="translate(27.158 17.233)"><path class="n" d="M9.781,0H99.769a9.781,9.781,0,0,1,9.781,9.781V121.287a9.781,9.781,0,0,1-9.781,9.781H9.781A9.781,9.781,0,0,1,0,121.287V9.781A9.781,9.781,0,0,1,9.781,0Z" transform="translate(0.005 0.448)"/><path class="o" d="M5,0h98.654a5,5,0,0,1,5,5v9.3a0,0,0,0,1,0,0H0a0,0,0,0,1,0,0V5A5,5,0,0,1,5,0Z" transform="translate(0 0)"/><g transform="translate(28.773 36.729)"><path class="p" d="M36.255,11.509H83.6A2.255,2.255,0,1,0,83.6,7H36.255a2.255,2.255,0,0,0,0,4.509Z" transform="translate(-34 -7)"/><path class="p" d="M50.255,16.509H66.036a2.255,2.255,0,1,0,0-4.509H50.255a2.255,2.255,0,1,0,0,4.509Z" transform="translate(-48 -0.727)"/></g><path class="q" d="M204.433,58.891a5.453,5.453,0,0,0-7.278-7.278,5.453,5.453,0,0,0-10.283,0,5.453,5.453,0,0,0-7.259,7.278,5.453,5.453,0,0,0,0,10.283,5.453,5.453,0,0,0,7.278,7.259,5.453,5.453,0,0,0,10.283,0,5.453,5.453,0,0,0,7.259-7.278,5.453,5.453,0,0,0,0-10.264Zm0,0" transform="translate(-169.004 44.479)"/><g transform="translate(28.773 65.982)"><path class="p" d="M83.6,11.509H36.255a2.255,2.255,0,1,1,0-4.509H83.6a2.255,2.255,0,0,1,0,4.509Z" transform="translate(-34 -7)"/><path class="p" d="M66.036,16.509H50.255a2.255,2.255,0,1,1,0-4.509H66.036a2.255,2.255,0,1,1,0,4.509Z" transform="translate(-16.436 -0.727)"/></g></g><g transform="translate(14.29 9.857)"><path class="r" d="M9.781,0H99.769a9.781,9.781,0,0,1,9.781,9.781V121.287a9.781,9.781,0,0,1-9.781,9.781H9.781A9.781,9.781,0,0,1,0,121.287V9.781A9.781,9.781,0,0,1,9.781,0Z" transform="translate(1.135 0)"/><path class="o" d="M5,0H106.514a5,5,0,0,1,5,5v7.867a0,0,0,0,1,0,0H0a0,0,0,0,1,0,0V5A5,5,0,0,1,5,0Z" transform="translate(0 0.228)"/><g transform="translate(29.903 36.28)"><path class="p" d="M36.255,11.509H83.6A2.255,2.255,0,1,0,83.6,7H36.255a2.255,2.255,0,0,0,0,4.509Z" transform="translate(-34 -7)"/><path class="p" d="M50.255,16.509H66.036a2.255,2.255,0,1,0,0-4.509H50.255a2.255,2.255,0,1,0,0,4.509Z" transform="translate(-48 -0.727)"/></g><path class="q" d="M204.433,58.891a5.453,5.453,0,0,0-7.278-7.278,5.453,5.453,0,0,0-10.283,0,5.453,5.453,0,0,0-7.259,7.278,5.453,5.453,0,0,0,0,10.283,5.453,5.453,0,0,0,7.278,7.259,5.453,5.453,0,0,0,10.283,0,5.453,5.453,0,0,0,7.259-7.278,5.453,5.453,0,0,0,0-10.264Zm0,0" transform="translate(-167.874 44.031)"/><g transform="translate(29.903 65.534)"><path class="p" d="M83.6,11.509H36.255a2.255,2.255,0,1,1,0-4.509H83.6a2.255,2.255,0,0,1,0,4.509Z" transform="translate(-34 -7)"/><path class="p" d="M66.036,16.509H50.255a2.255,2.255,0,1,1,0-4.509H66.036a2.255,2.255,0,1,1,0,4.509Z" transform="translate(-16.436 -0.727)"/></g></g><g transform="translate(-0.006 0.078)"><g class="ad" transform="matrix(1, 0, 0, 1, -230.39, -77.85)"><g class="s" transform="translate(230.39 77.85)"><rect class="ab" width="108.654" height="131.529" rx="5"/><rect class="ac" x="0.5" y="0.5" width="107.654" height="130.529" rx="4.5"/></g></g><path class="o" d="M5,0h98.654a5,5,0,0,1,5,5v7.867a0,0,0,0,1,0,0H0a0,0,0,0,1,0,0V5A5,5,0,0,1,5,0Z" transform="translate(0)"/><g transform="translate(-2.219 46.044)"><g transform="translate(25)"><line class="t" x1="19.721" y2="19.718"/><line class="t" x1="19.719" y1="19.719" transform="translate(0.002 0.001)"/></g><g transform="translate(67.958)"><line class="t" x1="19.721" y2="19.718"/><line class="t" x1="19.718" y1="19.719" transform="translate(0.003 0.001)"/></g></g></g></g><g transform="translate(198.156 90.882)"><path class="u" d="M254.989,373.046l-7.132-2.5-3.744,6.419-8.38-23.357,10.876-3.744Z" transform="translate(-129.509 -248.873)"/><path class="v" d="M161.067,373.046l7.132-2.5,3.744,6.419,8.38-23.357-10.876-3.744Z" transform="translate(-67.324 -248.873)"/><circle class="w" cx="16.047" cy="16.047" r="16.047" transform="translate(93.564 78.528)"/><circle class="x" cx="9.985" cy="9.985" r="9.985" transform="translate(99.627 84.591)"/></g><g transform="translate(221.042 278.045)"><g transform="translate(51.936 0.013)"><path class="y" d="M277.732,213.819v11.639a4.169,4.169,0,0,1-4.169,4.169h-2.249a4.169,4.169,0,0,1-4.169-4.169V213.819" transform="translate(-267.144 -213.819)"/><path class="z" d="M272.73,214.46v13.551" transform="translate(-267.437 -213.853)"/></g><line class="aa" x2="70.679"/></g></g></g></g></svg>