<svg xmlns="http://www.w3.org/2000/svg" width="510.744" height="201.694" viewBox="0 0 510.744 201.694"><defs><style>.a{fill:#333;}.b,.k{fill:#666;}.c{fill:#4d4d4d;}.d{fill:#ccc;}.e{fill:#eceff1;}.f{fill:#ff6c22;}.g{fill:#b2b2b2;}.h{fill:#999;}.i{fill:#231f20;opacity:0.25;}.j{fill:#e0682b;}.k{opacity:0.18;mix-blend-mode:multiply;isolation:isolate;}</style></defs><g transform="translate(-556.391 -508.483)"><g transform="translate(659 508.483)"><g transform="translate(277.837 0.492)"><path class="a" d="M461.3,193.314l37.484,201.2H478.673l-36.05-201.2Z" transform="translate(-433.763 -193.31)"/><path class="b" d="M456.407,193.314l37.484,201.2H473.783l-36.05-201.2Z" transform="translate(-437.733 -193.31)"/></g><g transform="translate(69.021 0.492)"><path class="a" d="M346.049,193.314l37.484,201.2H363.425l-36.05-201.2Z" transform="translate(-318.515 -193.31)"/><path class="b" d="M341.16,193.314l37.484,201.2H358.535l-36.05-201.2Z" transform="translate(-322.485 -193.31)"/></g><path class="c" d="M327.827,193.535l-37.34,201.2H310.6l35.865-201.693Z" transform="translate(-279.442 -193.038)"/><g transform="translate(55.989 0.497)"><path class="d" d="M532.333,302.151H321.989l-6.7-6.48L525.636,193.313l6.7,6.48Z" transform="translate(-315.292 -193.313)"/><path class="e" d="M315.292,263.536H340.5l-25.207-30.643Z" transform="translate(-315.292 -161.177)"/><path class="e" d="M362.642,193.313l84.2,102.359h40.351V285.6l-75.911-92.283Z" transform="translate(-276.849 -193.313)"/><path class="e" d="M315.292,193.313v12.45l73.958,89.909h47.283l-84.2-102.359Z" transform="translate(-315.292 -193.313)"/><path class="e" d="M443.553,193.313H416.394l27.159,33.017Z" transform="translate(-233.209 -193.313)"/><path class="f" d="M315.292,259.45,340.5,290.092H389.25l-73.958-89.909Z" transform="translate(-315.292 -187.734)"/><path class="f" d="M335.736,193.313l84.2,102.359h48.752l-84.2-102.359Z" transform="translate(-298.694 -193.313)"/><path class="f" d="M438.239,193.313H389.487L465.4,285.6V226.329Z" transform="translate(-255.054 -193.313)"/><path class="g" d="M532.333,256.285l-6.7-6.48H315.292l6.589,6.589Z" transform="translate(-315.292 -147.447)"/></g><path class="c" d="M453.161,193.313l-37.34,201.2h20.108l36.238-201.2Z" transform="translate(-177.685 -192.816)"/><rect class="c" width="226.557" height="16.755" transform="translate(25.284 147.48)"/><rect class="h" width="226.557" height="16.755" transform="translate(22.552 139.649)"/><path class="h" d="M321.731,193.535l-37.339,201.2H304.5l35.865-201.693Z" transform="translate(-284.391 -193.038)"/><path class="h" d="M448.114,193.313l-37.34,201.2h20.108l35.7-201.2Z" transform="translate(-181.782 -192.816)"/></g><g transform="translate(556.391 582.025)"><path class="i" d="M280.49,322.6l-1.988-6.575-.726-2.4-10.4-34.4-5.566-18.406L253.361,232.9H242.254l-5.2,18.3h0l-4.148,14.606h0l-4.146,14.6h0l-3.784,13.325-8.2,28.874h-7.3V333.56H287.41V322.6Z" transform="translate(-209.476 -205.598)"/><g transform="translate(28.398)"><path class="f" d="M235.429,331.247l33.425-117.686h13.927l35.556,117.57Z" transform="translate(-227.186 -213.562)"/><rect class="j" width="99.071" height="13.927" transform="translate(0 114.035)"/><path class="e" d="M287.233,242.272l-31.271-12.23-5.274,18.568,43.62,17.06Z" transform="translate(-220.902 -206.775)"/><path class="e" d="M248.494,256.337,243.22,274.9l68.313,26.718-7.076-23.4Z" transform="translate(-223.978 -195.946)"/><path class="k" d="M305,319.238l-.922-3.05-13.226-43.732-7.076-23.4-10.735-35.5h-13.5l8.924,29.509,1.811,5.988h0l5.265,17.41,1.811,5.988,5.261,17.4,7.076,23.4.889,2.938.923,3.05,2.528,8.358h13.5Z" transform="translate(-217.255 -213.562)"/></g></g><g transform="translate(932.541 592.25)"><path class="i" d="M565.718,315.47l-1.8-5.959-.657-2.174-9.429-31.178-5.045-16.681-7.654-25.307H531.065l-4.711,16.587h0L522.594,264h0l-3.758,13.23h0l-3.43,12.077-7.432,26.168h-6.616V325.4h70.632V315.47Z" transform="translate(-437.395 -207.801)"/><g transform="translate(0 0)"><path class="f" d="M457.208,320.221,487.5,213.562h12.622l32.224,106.554Z" transform="translate(-449.737 -213.562)"/><rect class="j" width="89.789" height="12.622" transform="translate(0 103.351)"/><path class="e" d="M505.588,241.126l-28.341-11.084-4.78,16.828L512,262.331Z" transform="translate(-445.472 -208.955)"/><path class="e" d="M469.778,256.337,465,273.165l61.912,24.214L520.5,276.174Z" transform="translate(-447.559 -201.604)"/><path class="k" d="M522.522,309.337l-.836-2.764L509.7,266.938l-6.413-21.205-9.729-32.171H481.323l8.088,26.744,1.641,5.427h0l4.772,15.779,1.641,5.427,4.768,15.767,6.413,21.206.805,2.663.836,2.764,2.291,7.575h12.234Z" transform="translate(-442.996 -213.562)"/></g></g></g></svg>