<svg xmlns="http://www.w3.org/2000/svg" xmlns:xlink="http://www.w3.org/1999/xlink" width="159.905" height="153.552" viewBox="0 0 159.905 153.552"><defs><style>.a{fill:url(#a);}.b{fill:#fff;}.c{fill:#1072eb;}.d{fill:#eb116d;}.e{fill:#f4fbff;}</style><linearGradient id="a" x1="0.566" y1="0.5" x2="0.169" y2="0.881" gradientUnits="objectBoundingBox"><stop offset="0" stop-color="#00c7fb"/><stop offset="1" stop-color="#1072eb"/></linearGradient></defs><g transform="translate(0 -5.727)"><circle class="a" cx="76.776" cy="76.776" r="76.776" transform="translate(0 5.727)"/><circle class="b" cx="58.936" cy="58.936" r="58.936" transform="translate(17.841 23.568)"/><g transform="translate(26.511 32.239)"><g transform="translate(47.463)"><path class="c" d="M216.387,91.836a2.8,2.8,0,0,1-2.8-2.8v-3.96a2.8,2.8,0,1,1,5.6,0v3.96A2.8,2.8,0,0,1,216.387,91.836Z" transform="translate(-213.586 -82.273)"/></g><g transform="translate(78.225 13.902)"><path class="c" d="M305.2,130.814a2.8,2.8,0,0,1-1.981-4.783l2.8-2.8a2.8,2.8,0,0,1,3.962,3.962l-2.8,2.8A2.793,2.793,0,0,1,305.2,130.814Z" transform="translate(-302.402 -122.411)"/></g><g transform="translate(90.967 47.463)"><path class="c" d="M345.953,224.916h-3.96a2.8,2.8,0,0,1,0-5.6h3.96a2.8,2.8,0,1,1,0,5.6Z" transform="translate(-339.192 -219.313)"/></g><g transform="translate(48.616 92.119)"><path class="c" d="M219.714,357.808a2.8,2.8,0,0,1-2.8-2.8v-3.96a2.8,2.8,0,1,1,5.6,0v3.96A2.8,2.8,0,0,1,219.714,357.808Z" transform="translate(-216.912 -348.245)"/></g><g transform="translate(13.901 78.225)"><path class="c" d="M119.484,316.532a2.8,2.8,0,0,1-1.981-4.783l2.8-2.8a2.8,2.8,0,0,1,3.962,3.962l-2.8,2.8A2.794,2.794,0,0,1,119.484,316.532Z" transform="translate(-116.683 -308.129)"/></g><g transform="translate(0 47.463)"><path class="c" d="M83.307,224.916h-3.96a2.8,2.8,0,1,1,0-5.6h3.96a2.8,2.8,0,1,1,0,5.6Z" transform="translate(-76.545 -219.313)"/></g><g transform="translate(13.902 13.902)"><path class="c" d="M122.285,130.814a2.793,2.793,0,0,1-1.981-.821l-2.8-2.8a2.8,2.8,0,1,1,3.962-3.962l2.8,2.8a2.8,2.8,0,0,1-1.981,4.783Z" transform="translate(-116.683 -122.411)"/></g></g><g transform="translate(64.122 62.43)"><path class="c" d="M197.793,178.207a2.8,2.8,0,0,1-1.955-.794l-9.853-9.594a2.8,2.8,0,0,1,3.909-4.014l5.1,4.963V148.894a2.8,2.8,0,1,1,5.6,0v26.512a2.8,2.8,0,0,1-2.8,2.8Z" transform="translate(-185.138 -146.092)"/></g><g transform="translate(19 16)"><circle class="d" cx="32.822" cy="32.822" r="32.822" transform="translate(75.262 77.636)"/><g transform="translate(103.674 87.177)"><path class="e" d="M381.625,322.255a3.808,3.808,0,0,1-3.808-3.808V295.715a3.808,3.808,0,1,1,7.615,0v22.732A3.808,3.808,0,0,1,381.625,322.255Z" transform="translate(-377.817 -291.907)"/><g transform="translate(0 35.029)"><path class="e" d="M381.625,450.775a3.808,3.808,0,0,1-3.808-3.808v-2.425a3.808,3.808,0,1,1,7.615,0v2.425A3.808,3.808,0,0,1,381.625,450.775Z" transform="translate(-377.817 -440.734)"/></g></g></g></g></svg>