<svg xmlns="http://www.w3.org/2000/svg" width="739.588" height="510.498" viewBox="0 0 739.588 510.498"><defs><style>.a{fill:#10bce6;}.b{fill:#fff;}.c{fill:#91cdf8;}.d{fill:#1e76e2;}.e,.k,.l{fill:none;stroke-linecap:round;stroke-linejoin:round;}.e{stroke:#f7931e;}.f{fill:#f36290;}.g{fill:#f7931e;}.h{fill:#ff5959;}.i{fill:#00a6d6;}.j{fill:#0363a9;}.k{stroke:#f36290;}.l{stroke:#ff5959;}</style></defs><g transform="translate(-35.634 -223.192)"><g transform="translate(-91.871 118.453)"><path class="a" d="M0,0H604.833V447.533H0Z" transform="translate(198.464 104.739)"/><rect class="b" width="24.752" height="462.673" transform="translate(778.545 128.599)"/><rect class="c" width="604.833" height="23.86" transform="translate(198.464 104.739)"/><rect class="b" width="21.363" height="451.673" transform="translate(198.464 128.599)"/><rect class="b" width="576.718" height="21.057" transform="translate(219.826 128.599)"/><g transform="translate(220.311 132.765)"><path class="d" d="M214.176,114.144a5.82,5.82,0,1,1-5.821-5.821A5.82,5.82,0,0,1,214.176,114.144Z" transform="translate(-202.536 -108.323)"/><path class="d" d="M224.679,114.144a5.82,5.82,0,1,1-5.819-5.821A5.819,5.819,0,0,1,224.679,114.144Z" transform="translate(-195.38 -108.323)"/><path class="d" d="M235.232,114.144a5.82,5.82,0,1,1-5.819-5.821A5.82,5.82,0,0,1,235.232,114.144Z" transform="translate(-188.19 -108.323)"/></g><rect class="c" width="604.833" height="23.86" transform="translate(198.464 572.739)"/><rect class="b" width="604.718" height="21.057" transform="translate(198.826 552.599)"/></g><g transform="translate(35.634 632.92)"><g transform="translate(25.017)"><path class="e" d="M612.687,391.767s-13.627-2.195-18.437-14.219-5.611-16.031-5.611-25.249-5.21-14.429-10.02-16.433" transform="translate(-566.307 -324.551)"/><path class="f" d="M584.052,378.517s11.328-7.759,7.763-14.025S579.429,369.254,584.052,378.517Z" transform="translate(-551.2 -318.385)"/><path class="f" d="M610.742,365.781s-5.508-12.576-12.329-10.243S600.778,368.594,610.742,365.781Z" transform="translate(-585.814 -320.089)"/><path class="f" d="M588.146,356.093s13.311-3.367,12.129-10.479S587.007,345.8,588.146,356.093Z" transform="translate(-565.596 -322.96)"/><path class="g" d="M618.869,338.54s-3.82-13.188-10.887-11.764S608.623,340.03,618.869,338.54Z" transform="translate(-605.248 -326.669)"/></g><g transform="translate(0 18.755)"><path class="h" d="M525.887,399.745c0,2.877,15.252,5.21,34.067,5.21s34.067-2.332,34.067-5.21-15.252-5.211-34.067-5.211S525.887,396.868,525.887,399.745Z" transform="translate(-457.752 -331.801)"/><path class="h" d="M581.271,399.745c0,2.877,15.252,5.21,34.067,5.21s34.068-2.332,34.068-5.21-15.253-5.211-34.068-5.211S581.271,396.868,581.271,399.745Z" transform="translate(-581.271 -331.801)"/><path class="h" d="M581.275,386.03c-.677,2.8,13.6,8.648,31.889,13.07s33.661,5.738,34.337,2.941-13.6-8.648-31.889-13.07S581.952,383.232,581.275,386.03Z" transform="translate(-579.367 -334.097)"/><path class="h" d="M581.287,374.963c-1.245,2.594,11.5,11.292,28.466,19.427s31.727,12.624,32.972,10.03-11.5-11.292-28.467-19.427S582.53,372.368,581.287,374.963Z" transform="translate(-574.589 -336.476)"/><ellipse class="h" cx="34.067" cy="5.21" rx="34.067" ry="5.21" transform="matrix(-0.779, -0.627, 0.627, -0.779, 64.866, 72.002)"/><ellipse class="h" cx="34.067" cy="5.21" rx="34.067" ry="5.21" transform="translate(64.034 71.158) rotate(-128.095)"/><path class="h" d="M581.42,348.206c-2.628,1.172,1.457,16.052,9.123,33.234s16.012,30.16,18.64,28.987-1.458-16.052-9.124-33.234S584.048,347.033,581.42,348.206Z" transform="translate(-541.049 -342.483)"/><path class="h" d="M581.627,344.246c-2.833.5-2.454,15.929.845,34.452s8.271,33.13,11.1,32.626,2.454-15.93-.845-34.453S584.46,343.741,581.627,344.246Z" transform="translate(-525.441 -343.38)"/><path class="h" d="M582.835,343.542c-2.869-.216-6.343,14.818-7.759,33.578s-.237,34.147,2.633,34.363,6.343-14.818,7.759-33.578S585.705,343.759,582.835,343.542Z" transform="translate(-509.574 -343.54)"/><path class="h" d="M585.331,345.973c-2.743-.868-9.57,12.97-15.246,30.908s-8.053,33.183-5.31,34.052,9.569-12.97,15.245-30.907S588.074,346.842,585.331,345.973Z" transform="translate(-496.641 -342.989)"/><ellipse class="h" cx="5.21" cy="34.067" rx="5.21" ry="34.067" transform="translate(72.425 70.899) rotate(-145.442)"/><path class="h" d="M591.094,363.32c-1.845-2.208-15.044,5.783-29.48,17.85s-24.642,23.637-22.8,25.845,15.044-5.784,29.479-17.85S592.939,365.528,591.094,363.32Z" transform="translate(-470.682 -339.071)"/><path class="h" d="M592.848,375.576c-1.212-2.611-16.027,1.7-33.09,9.629s-29.912,16.47-28.7,19.08,16.027-1.7,33.09-9.63S594.061,378.185,592.848,375.576Z" transform="translate(-462.924 -336.341)"/><path class="h" d="M593.726,387.172c-.618-2.811-16.015-1.812-34.39,2.229s-32.771,9.6-32.152,12.406,16.015,1.812,34.39-2.229S594.345,389.981,593.726,387.172Z" transform="translate(-459.049 -333.864)"/></g><g transform="translate(61.708 35.009)"><path class="i" d="M605.056,416.4s4.181-5.575-2.788-12.544c0,0,4.03-23.6-20.036-26.779,0,0-4.541-15.893-18.163-17.71s-24.52,6.812-27.7,18.618c0,0-10.444-3.633-19.98,2.725s-8.627,19.524-8.627,19.524-10.444,3.724-6.358,16.166Z" transform="translate(-500.458 -359.126)"/><path class="j" d="M522.209,397.415a23.29,23.29,0,0,0-12.547-13.228c1.3-13.126-4.026-20.769-9.2-25.03a27.008,27.008,0,0,1,4.521.208c13.622,1.817,18.163,17.71,18.163,17.71,24.066,3.178,20.036,26.779,20.036,26.779,6.969,6.969,2.788,12.544,2.788,12.544h-28.9C522.424,411.3,524.706,404.093,522.209,397.415Z" transform="translate(-441.367 -359.124)"/></g></g><g transform="translate(592.386 647.459)"><g transform="translate(130.399 0.412)"><path class="k" d="M257.962,421.507s15.406-2.48,20.845-16.074,6.344-18.124,6.344-28.547,5.89-16.312,11.328-18.578" transform="translate(-257.962 -345.515)"/><path class="f" d="M271.646,403.028s-12.807-8.771-8.776-15.854S276.873,392.556,271.646,403.028Z" transform="translate(-256.351 -335.044)"/><path class="f" d="M275.4,389.6s6.227-14.219,13.939-11.58S286.664,392.778,275.4,389.6Z" transform="translate(-251.146 -337.939)"/><path class="f" d="M281.21,380.273s-15.049-3.807-13.712-11.847S282.5,368.64,281.21,380.273Z" transform="translate(-254.268 -342.813)"/><path class="f" d="M284.591,362.532s4.319-14.91,12.309-13.3S296.175,364.216,284.591,362.532Z" transform="translate(-247.554 -349.11)"/></g><g transform="translate(0)"><ellipse class="i" cx="38.516" cy="5.891" rx="38.516" ry="5.891" transform="translate(0 70.925)"/><ellipse class="i" cx="38.516" cy="5.891" rx="38.516" ry="5.891" transform="translate(77.031 70.925)"/><path class="i" d="M294.473,391.495c.765,3.161-15.377,9.778-36.053,14.776s-38.056,6.487-38.821,3.324,15.377-9.778,36.054-14.776S293.708,388.332,294.473,391.495Z" transform="translate(-142.567 -332.78)"/><path class="i" d="M289.078,380.332c1.408,2.933-13,12.767-32.183,21.963s-35.87,14.274-37.277,11.34,13-12.767,32.184-21.963S287.672,377.4,289.078,380.332Z" transform="translate(-142.587 -336.819)"/><path class="i" d="M279.657,369.432c2.04,2.534-9.737,15.4-26.306,28.743s-31.654,22.1-33.695,19.565,9.737-15.4,26.306-28.742S277.616,366.9,279.657,369.432Z" transform="translate(-142.625 -340.925)"/><path class="i" d="M267.245,360.517c2.561,2.007-6,17.206-19.127,33.946s-25.839,28.685-28.4,26.676,6-17.2,19.127-33.945S264.684,358.51,267.245,360.517Z" transform="translate(-142.687 -344.325)"/><path class="i" d="M251.233,353.487c2.971,1.326-1.647,18.148-10.315,37.574s-18.1,34.1-21.074,32.773,1.648-18.148,10.315-37.572S248.262,352.162,251.233,353.487Z" transform="translate(-142.813 -347.019)"/><path class="i" d="M233.7,349.52c3.2.57,2.775,18.01-.955,38.952s-9.351,37.457-12.554,36.885-2.775-18.009.956-38.951S230.5,348.95,233.7,349.52Z" transform="translate(-143.164 -348.542)"/><path class="i" d="M216.449,348.816c3.245-.245,7.173,16.751,8.773,37.963s.268,38.6-2.976,38.849-7.171-16.751-8.772-37.963S213.206,349.061,216.449,348.816Z" transform="translate(-145.216 -348.813)"/><ellipse class="i" cx="5.891" cy="38.516" rx="5.891" ry="38.516" transform="translate(48.175 5.15) rotate(-17.559)"/><path class="i" d="M188.326,358.48c2.68-1.846,14.633,10.86,26.7,28.379s19.676,33.216,17,35.06-14.632-10.86-26.7-28.377S185.647,360.326,188.326,358.48Z" transform="translate(-154.99 -345.104)"/><path class="i" d="M177.165,368.64c2.086-2.5,17.009,6.538,33.33,20.18s27.86,26.725,25.774,29.22-17.009-6.538-33.33-20.18S175.078,371.136,177.165,368.64Z" transform="translate(-159.238 -341.226)"/><path class="i" d="M169.389,380.947c1.37-2.95,18.12,1.924,37.411,10.888s33.818,18.621,32.447,21.571-18.12-1.924-37.411-10.886S168.018,383.9,169.389,380.947Z" transform="translate(-162.216 -336.59)"/><path class="i" d="M165.506,392.653c.7-3.178,18.106-2.05,38.881,2.52s37.051,10.849,36.351,14.025-18.106,2.05-38.881-2.52S164.807,395.83,165.506,392.653Z" transform="translate(-163.707 -332.384)"/></g><g transform="translate(57.059 7.878)"><path class="g" d="M243.451,432.164s-22.1-2.266-32.031-12.687-6.383-14.953,0-16.312,10.715,1.359,5.377-9.063-7.349-15.406,0-15.86,10.974,5.438,14.146,1.812-.453-18.578,10.875-24.014,18.493,4.078,11.285,16.765-2.676,15.858,5.933,14.5,15.354,5.438,11.075,9.516-18.326,7.249-13.341,9.968,17.092,3.173,14.664,8.609S247.8,430.352,243.451,432.164Z" transform="translate(-205.232 -354.477)"/><path class="l" d="M229.468,376.777s-4.709,26.455,4.958,46.671" transform="translate(-196.207 -345.761)"/></g></g></g></svg>