<svg xmlns="http://www.w3.org/2000/svg" viewBox="0 0 505 303" width="505" height="303">
	<style>
		tspan { white-space:pre }
		.shp0 { fill: none;stroke: #ffffff;stroke-width: 0.825 } 
		.shp1 { fill: none;stroke: #ffffff;stroke-width: 0.66 } 
		.shp2 { fill: #b3b3b3 } 
		.shp3 { fill: #3e3e3d } 
		.shp4 { fill: #6f6f6f } 
		.shp5 { fill: none;stroke: #ffffff;stroke-width: 0.704 } 
		.shp6 { fill: #ffffff } 
		.shp7 { fill: none;stroke: #4bc8f9;stroke-linecap:round;stroke-linejoin:round;stroke-width: 3.3 } 
		.shp8 { fill: #dd9ab2 } 
		.shp9 { fill: none;stroke: #d6819f;stroke-width: 3.86 } 
		.shp10 { fill: none;stroke: #425973;stroke-linecap:round;stroke-linejoin:round;stroke-width: 2.75 } 
		.shp11 { fill: none;stroke: #e9c2d0;stroke-width: 2.2 } 
		.txt12 { font-size: 100px;fill: #ff7f00;font-family: "Poppins";font-weight: bold } 
	</style>
	<g id="Layer">
		<g id="Layer">
			<g id="Layer">
				<g id="Layer">
					<g id="Layer">
						<path id="Layer" class="shp0" d="M103.06 160.51C82.3 168.58 86.26 150.62 75.38 137.77C65.49 125.9 62.52 131.83 49.67 131.83C10.12 128.87 27.92 110.08 17.04 88.33" />
						<path id="Layer" class="shp1" d="M26.27 77.94C23.3 81.9 21 83.38 17.04 85.36" />
						<path id="Layer" class="shp1" d="M16.05 68.55C16.01 72.84 17.04 81.4 17.04 87.34" />
						<path id="Layer" class="shp1" d="M5.18 72.5C9.13 77.45 13.09 82.39 18.03 85.36" />
						<path id="Layer" class="shp1" d="M0.23 81.4C1.28 82.52 2.48 83.47 3.8 84.24C5.12 85.01 6.55 85.57 8.04 85.92C9.53 86.27 11.06 86.4 12.58 86.31C14.11 86.21 15.61 85.89 17.04 85.36" />
						<g id="Layer">
							<path id="Layer" class="shp0" d="M401.68 175.34C401.68 157.54 410.58 158.53 424.42 157.54C443.21 156.55 438.26 156.55 444.2 140.73C454.08 116.01 488.7 136.77 489.68 105.13" />
							<g id="Layer">
								<path id="Layer" class="shp1" d="M478.8 95.25C479.3 96.47 479.91 97.64 480.64 98.74C481.36 99.84 482.2 100.87 483.13 101.8C484.06 102.73 485.09 103.57 486.19 104.29C487.29 105.02 488.46 105.63 489.68 106.12" />
								<path id="Layer" class="shp1" d="M487.7 88.33L487.7 103.16" />
								<path id="Layer" class="shp1" d="M497.59 90.3C497.15 91.68 496.61 93.01 495.96 94.3C495.32 95.59 494.57 96.83 493.73 98C492.9 99.18 491.97 100.28 490.96 101.31C489.95 102.34 488.86 103.29 487.7 104.15" />
								<path id="Layer" class="shp1" d="M504.51 97.23C501.55 102.17 496.6 105.14 491.66 107.11" />
							</g>
						</g>
					</g>
					<g id="Layer">
						<g id="Layer">
							<g id="Layer">
								<path id="Layer" class="shp2" d="M440.74 282.79C440.74 287.97 401.9 289.48 397.7 289.48L107.04 289.48C102.85 289.48 64 287.97 64 282.79L99.45 229.66C99.45 224.47 102.85 220.26 107.05 220.26L397.7 220.26C401.9 220.26 405.3 224.47 405.3 229.66L440.74 282.79Z" />
								<g id="Layer">
									<path id="Layer" class="shp3" d="M192.6 270.95L117.9 270.95L130.97 239.31L198.53 239.31L192.6 270.95Z" />
									<path id="Layer" class="shp3" d="M312.15 270.95L386.85 270.95L373.77 239.31L306.21 239.31L312.15 270.95Z" />
									<path id="Layer" class="shp3" d="M395.15 270.95L421.45 270.95L399.93 239.31L380.09 239.31L395.15 270.95Z" />
									<path id="Layer" class="shp3" d="M109.6 270.95L83.29 270.95L104.82 239.31L124.66 239.31L109.6 270.95Z" />
									<path id="Layer" class="shp3" d="M305.57 270.95L199.17 270.95L205.1 239.31L299.64 239.31L305.57 270.95Z" />
									<g id="Layer">
										<path id="Layer" class="shp2" d="M89.78 245.08L414.96 245.08L414.96 249.93L89.78 249.93L89.78 245.08Z" />
										<path id="Layer" class="shp2" d="M86.26 256.95L418.49 256.95L418.49 261.79L86.26 261.79L86.26 256.95Z" />
									</g>
								</g>
							</g>
							<g id="Layer">
								<path id="Layer" class="shp3" d="M442.73 295.09C442.73 299.28 441.86 302.68 437.67 302.68L67.07 302.68C62.87 302.68 62.01 299.28 62.01 295.09L62.01 288.58C62.01 284.38 62.87 280.99 67.07 280.99L437.67 280.99C441.86 280.99 442.73 284.39 442.73 288.58L442.73 295.09Z" />
								<path id="Layer" class="shp4" d="M321.83 292.01C321.84 292.53 321.73 293.05 321.53 293.53C321.34 294.01 321.04 294.44 320.68 294.81C320.31 295.18 319.87 295.47 319.39 295.67C318.91 295.87 318.4 295.97 317.88 295.97L186.86 295.97C186.35 295.97 185.83 295.87 185.35 295.67C184.87 295.47 184.44 295.18 184.07 294.81C183.7 294.45 183.41 294.01 183.21 293.53C183.01 293.05 182.91 292.53 182.91 292.01L182.91 292.01C182.91 291.5 183.01 290.98 183.21 290.5C183.41 290.02 183.7 289.59 184.07 289.22C184.44 288.85 184.87 288.56 185.35 288.36C185.83 288.16 186.35 288.06 186.87 288.06L317.88 288.06C318.4 288.06 318.91 288.16 319.39 288.36C319.87 288.56 320.31 288.85 320.68 289.22C321.04 289.59 321.33 290.02 321.53 290.5C321.73 290.98 321.83 291.5 321.83 292.01L321.83 292.01Z" />
							</g>
						</g>
						<g id="Layer">
							<path id="Layer" class="shp3" d="M99.87 20.31L404.87 20.31C407.21 20.31 409.09 22.2 409.09 24.53L409.09 225.86C409.09 228.19 407.21 230.08 404.87 230.08L99.87 230.08C97.54 230.08 95.65 228.19 95.65 225.86L95.65 24.53C95.65 22.2 97.54 20.31 99.87 20.31Z" />
							<path id="Layer" class="shp5" d="" />
							<g id="Layer">
								<path id="Layer" class="shp6" d="M121.22 36.39L383.52 36.39C384 36.39 384.47 36.48 384.91 36.66C385.35 36.85 385.75 37.11 386.09 37.45C386.43 37.79 386.7 38.19 386.88 38.63C387.06 39.07 387.16 39.54 387.16 40.02L387.16 213.15C387.16 213.63 387.06 214.1 386.88 214.54C386.7 214.98 386.43 215.38 386.09 215.72C385.75 216.06 385.35 216.33 384.91 216.51C384.47 216.69 384 216.79 383.52 216.79L121.22 216.79C120.74 216.79 120.27 216.69 119.83 216.51C119.39 216.33 118.99 216.06 118.65 215.72C118.31 215.39 118.05 214.99 117.86 214.54C117.68 214.1 117.59 213.63 117.59 213.15L117.59 40.02C117.59 39.54 117.68 39.07 117.86 38.63C118.05 38.19 118.31 37.79 118.65 37.45C118.99 37.11 119.39 36.85 119.83 36.66C120.27 36.48 120.74 36.39 121.22 36.39L121.22 36.39Z" />
								<g id="Layer">
									<g id="Layer">
										<path id="Layer" class="shp7" d="M213.13 104.21L190.76 126.59" />
										<path id="Layer" class="shp7" d="M213.13 126.59L190.76 104.22" />
										<g id="Layer">
											<path id="Layer" class="shp7" d="M313.99 104.21L291.61 126.59" />
											<path id="Layer" class="shp7" d="M313.99 126.59L291.62 104.22" />
										</g>
									</g>
									<g id="Layer">
										<g id="Layer">
											<path id="Layer" class="shp8" d="M303.95 153.59L303.95 175.67C303.95 176.71 303.74 177.73 303.34 178.69C302.95 179.65 302.36 180.53 301.63 181.26C300.89 182 300.02 182.58 299.06 182.98C298.1 183.37 297.07 183.58 296.04 183.58L291.77 183.58C290.73 183.58 289.7 183.37 288.74 182.98C287.78 182.58 286.91 182 286.18 181.26C285.44 180.53 284.86 179.65 284.46 178.69C284.06 177.73 283.86 176.71 283.86 175.67L283.86 153.59" />
											<path id="Layer" class="shp9" d="M293.9 154.74L293.9 180.45" />
										</g>
										<path id="Layer" class="shp10" d="M185.33 153.56L319.42 153.56" />
									</g>
									<g id="Layer">
										<path id="Layer" class="shp11" d="" />
										<path id="Layer" class="shp11" d="" />
									</g>
								</g>
							</g>
						</g>
					</g>
				</g>
				<text id="!" style="transform: matrix(0.906,0.423,-0.423,0.906,351.16,62.225)" >
					<tspan x="0" y="0" class="txt12">!</tspan>
				</text>
				<text id="!" style="transform: matrix(0.866,-0.5,0.5,0.866,106.314,95.425)" >
					<tspan x="0" y="0" class="txt12">!</tspan>
				</text>
			</g>
		</g>
	</g>
</svg>