<svg xmlns="http://www.w3.org/2000/svg" xmlns:xlink="http://www.w3.org/1999/xlink" width="678.978" height="485.918" viewBox="0 0 678.978 485.918"><defs><style>.a,.e,.f,.j,.m,.n{fill:none;}.b{fill:#036dad;}.c{fill:#ffb50f;}.d{fill:#6abcff;}.e,.f,.j{stroke:#fff;}.e,.f,.j,.m,.n{stroke-miterlimit:10;}.e{stroke-width:0.825px;}.f{stroke-width:0.66px;}.g{fill:#b3b3b3;}.h{fill:#3e3e3d;}.i{fill:#6f6f6f;}.j{stroke-width:0.704px;}.k{fill:#fff;}.l{fill:#dd9ab2;}.m{stroke:#d6819f;stroke-width:3.86px;}.n{stroke:#e9c2d0;stroke-width:2.2px;}.o{fill:#f0f0f0;}.p{fill:#0083d3;}.q{fill:#f7931e;}.r{fill:#fcc13d;}.s{fill:#ccc4c0;}.t{clip-path:url(#a);}.u{fill:#d17e46;}.v{opacity:0.2;}.w{clip-path:url(#b);}</style><clipPath id="a"><path class="a" d="M439.185,403.041H361.208l23.3-106.658h31.372Z" transform="translate(-361.208 -296.383)"/></clipPath><clipPath id="b"><path class="a" d="M620.035,419.853H529.769l26.978-123.47h36.314Z" transform="translate(-529.769 -296.383)"/></clipPath></defs><g transform="translate(-297.075 -191.561)"><path class="b" d="M976.053,392.949c0,38.083-151.994,68.957-339.489,68.957s-339.489-30.874-339.489-68.957S449.07,323.99,636.564,323.99,976.053,354.864,976.053,392.949Z" transform="translate(0 215.573)"/><path class="c" d="M654.937,247.751l-11.951,5.031a58.2,58.2,0,0,0-5.237-5.16l4.907-12.024a9.305,9.305,0,0,0-5.087-12.092L619.5,216.141a9.325,9.325,0,0,0-12.107,5.091L602.5,233.259a59.905,59.905,0,0,0-7.339.031l-5.036-11.956a9.3,9.3,0,0,0-12.155-4.95l-17.982,7.569a9.3,9.3,0,0,0-4.952,12.153l5.036,11.957a59.056,59.056,0,0,0-5.152,5.231l-12.032-4.9a9.3,9.3,0,0,0-12.09,5.1l-7.36,18.073a9.306,9.306,0,0,0,5.1,12.095l12.023,4.9a57.857,57.857,0,0,0,.029,7.34l-11.956,5.033a9.307,9.307,0,0,0-4.955,12.155l7.575,17.987a9.3,9.3,0,0,0,12.153,4.947l11.963-5.031a55.48,55.48,0,0,0,5.227,5.146l-4.911,12.02a9.312,9.312,0,0,0,5.093,12.1l18.079,7.363a9.287,9.287,0,0,0,12.087-5.093l4.9-12.02a59.351,59.351,0,0,0,7.342-.037l5.03,11.96a9.307,9.307,0,0,0,12.152,4.952l17.988-7.57a9.315,9.315,0,0,0,4.949-12.159l-5.033-11.954a57.748,57.748,0,0,0,5.148-5.224l12.031,4.9a9.313,9.313,0,0,0,12.092-5.09l7.368-18.076a9.321,9.321,0,0,0-5.1-12.1l-12.017-4.885a59.065,59.065,0,0,0-.029-7.345l11.952-5.03a9.313,9.313,0,0,0,4.951-12.155L667.105,252.7A9.328,9.328,0,0,0,654.937,247.751Zm-14.45,26.736a44.832,44.832,0,1,1-58.709-23.925A44.82,44.82,0,0,1,640.487,274.487Z" transform="translate(-125.635 107.851)"/><path class="d" d="M705.195,260.029,688.7,266.973a80.339,80.339,0,0,0-7.228-7.122l6.773-16.6a12.843,12.843,0,0,0-7.021-16.689L656.279,216.4a12.871,12.871,0,0,0-16.71,7.027l-6.752,16.6a82.676,82.676,0,0,0-10.129.042l-6.951-16.5a12.838,12.838,0,0,0-16.776-6.832l-24.819,10.446a12.839,12.839,0,0,0-6.835,16.774l6.951,16.5a81.508,81.508,0,0,0-7.111,7.219l-16.607-6.765a12.838,12.838,0,0,0-16.687,7.033l-10.159,24.944a12.845,12.845,0,0,0,7.033,16.693l16.594,6.761a79.859,79.859,0,0,0,.04,10.131l-16.5,6.947a12.846,12.846,0,0,0-6.839,16.776l10.455,24.826a12.838,12.838,0,0,0,16.774,6.828l16.512-6.944a76.574,76.574,0,0,0,7.215,7.1L568.2,398.6a12.852,12.852,0,0,0,7.029,16.7l24.952,10.163a12.818,12.818,0,0,0,16.683-7.029l6.765-16.59a81.913,81.913,0,0,0,10.133-.051L640.7,418.3a12.846,12.846,0,0,0,16.772,6.835L682.3,414.686a12.857,12.857,0,0,0,6.83-16.782l-6.947-16.5a79.692,79.692,0,0,0,7.105-7.211l16.6,6.767a12.854,12.854,0,0,0,16.689-7.025l10.169-24.948a12.865,12.865,0,0,0-7.037-16.7l-16.586-6.742a81.518,81.518,0,0,0-.04-10.138l16.5-6.942a12.854,12.854,0,0,0,6.833-16.776l-10.432-24.834A12.875,12.875,0,0,0,705.195,260.029Zm-19.944,36.9a61.877,61.877,0,1,1-81.03-33.021A61.861,61.861,0,0,1,685.251,296.93Z" transform="translate(176.257 58.741)"/><g transform="translate(-350.494 -33.694)"><g transform="translate(702 318.345)"><g transform="translate(0 57.272)"><path class="e" d="M221.073,263.391c-24.7,9.61-20-11.763-32.936-27.054-11.764-14.118-15.295-7.058-30.585-7.058-47.054-3.529-25.882-25.88-38.822-51.76" transform="translate(-98.734 -153.992)"/><path class="f" d="M129.711,171.744c-3.529,4.705-6.273,6.47-10.981,8.823" transform="translate(-98.734 -160.569)"/><path class="f" d="M118.182,166.519c-.056,5.1,1.174,15.293,1.174,22.351" transform="translate(-99.36 -166.519)"/><path class="f" d="M112.131,168.719c4.7,5.882,9.409,11.764,15.29,15.293" transform="translate(-106.249 -164.014)"/><path class="f" d="M109.381,173.668c5.882,5.882,12.94,7.06,20,4.708" transform="translate(-109.381 -158.378)"/><g transform="translate(476.962 23.527)"><path class="e" d="M332.681,270.388c0-21.172,10.587-20,27.054-21.172,22.351-1.176,16.469-1.176,23.527-20,11.764-29.409,52.936-4.7,54.114-42.346" transform="translate(-332.681 -166.871)"/><g transform="translate(91.753)"><path class="f" d="M375.58,181.369a23.3,23.3,0,0,0,12.942,12.938" transform="translate(-375.58 -173.135)"/><path class="f" d="M380.53,177.519v17.645" transform="translate(-369.943 -177.519)"/><path class="f" d="M392.293,178.619c-2.351,7.056-5.882,11.764-11.763,16.469" transform="translate(-369.943 -176.266)"/><path class="f" d="M398.025,182.469c-3.531,5.882-9.413,9.411-15.295,11.764" transform="translate(-367.437 -171.882)"/></g></g></g><g transform="translate(73.5 237.444)"><g transform="translate(2.366)"><path class="g" d="M592.418,325.29c0,6.171-46.141,7.963-51.128,7.963H195.983c-4.981,0-51.131-1.792-51.131-7.963l42.107-63.206c0-6.173,4.043-11.175,9.024-11.175H541.29c4.987,0,9.024,5,9.024,11.175Z" transform="translate(-144.852 -250.908)"/><g transform="translate(22.948 22.659)"><path class="h" d="M263.7,299.144H174.83L190.38,261.5h80.381Z" transform="translate(-133.66 -261.502)"/><path class="h" d="M286.638,299.144H375.51L359.955,261.5H279.578Z" transform="translate(-15.007 -261.502)"/><path class="h" d="M338.591,299.144h31.3L344.278,261.5H320.67Z" transform="translate(31.789 -261.502)"/><path class="h" d="M186.878,299.144h-31.3L181.19,261.5h23.6Z" transform="translate(-155.581 -261.502)"/><path class="h" d="M346.628,299.144H220.036l7.058-37.642H339.57Z" transform="translate(-82.497 -261.502)"/><g transform="translate(3.53 6.87)"><rect class="g" width="386.229" height="5.763" transform="translate(4.194)"/><rect class="g" width="394.617" height="5.763" transform="translate(0 14.115)"/></g></g></g><g transform="translate(0 72.241)"><path class="h" d="M596.045,301.463c0,4.99-1.034,9.034-6.012,9.034H149.758c-4.985,0-6.012-4.044-6.012-9.034v-7.747c0-4.99,1.027-9.032,6.012-9.032H590.033c4.979,0,6.012,4.042,6.012,9.032Z" transform="translate(-143.746 -284.684)"/><path class="i" d="M376.27,293.324a4.707,4.707,0,0,1-4.705,4.708H215.7a4.706,4.706,0,0,1-4.705-4.708h0a4.7,4.7,0,0,1,4.705-4.705H371.565a4.706,4.706,0,0,1,4.705,4.705Z" transform="translate(-67.482 -280.203)"/></g></g><g transform="translate(113.516)"><rect class="h" width="372.268" height="249.566" rx="4.226"/><path class="j" d="M249.631,143.8" transform="translate(-63.496 -134.997)"/><g transform="translate(26.1 19.13)"><path class="k" d="M3.634,0h312.8a3.634,3.634,0,0,1,3.634,3.634V210.985a3.635,3.635,0,0,1-3.635,3.635H3.632A3.632,3.632,0,0,1,0,210.988V3.634A3.634,3.634,0,0,1,3.634,0Z"/><g transform="translate(54.163 80.69)"><g transform="translate(46.106 58.709)"><g transform="translate(111.223 19.03)"><path class="l" d="M291.041,213.819V240.09a9.41,9.41,0,0,1-9.411,9.411h-5.075a9.41,9.41,0,0,1-9.411-9.411V213.819" transform="translate(-267.144 -213.819)"/><path class="m" d="M272.73,214.46v30.585" transform="translate(-260.783 -213.089)"/></g></g><g transform="translate(0 43.054)"><path class="n" d="M200.131,206.486" transform="translate(-200.131 -206.486)"/><path class="n" d="M299.131,206.486" transform="translate(-87.388 -206.486)"/></g><g transform="translate(0 -45.136)"><g transform="translate(0 118.154)"><path class="o" d="M600.782,293.541a4.448,4.448,0,0,1-4.449,4.449H393.174a4.448,4.448,0,0,1-4.449-4.449h0a4.448,4.448,0,0,1,4.449-4.447H596.333a4.448,4.448,0,0,1,4.449,4.447Z" transform="translate(-388.725 -289.094)"/><path class="p" d="M506.574,289.094h-113.4a4.448,4.448,0,1,0,0,8.9h113.4Z" transform="translate(-388.725 -289.094)"/></g><g transform="translate(-2.727 1.169)"><path class="q" d="M379.489,325.964c-6.087-9.649-16.048-9.649-22.137,0L341.363,351.3l-23.006,36.461c-6.089,9.647-1.734,17.541,9.673,17.541h80.781c11.409,0,15.76-7.894,9.673-17.541Z" transform="translate(-313.409 -316.545)"/><path class="r" d="M409.937,408.608H329.157c-6.35,0-11.074-2.229-13.309-6.282s-1.6-9.238,1.789-14.606l39-61.8c3.359-5.323,7.946-8.254,12.915-8.254s9.556,2.931,12.915,8.254l39,61.8c3.388,5.368,4.022,10.555,1.789,14.606S416.287,408.608,409.937,408.608Zm-40.39-86.576c-3.416,0-6.693,2.206-9.221,6.216l-39,61.8c-2.5,3.963-3.09,7.574-1.658,10.168s4.8,4.022,9.484,4.022h80.781c4.686,0,8.055-1.428,9.486-4.022s.84-6.206-1.66-10.168l-39-61.8C376.24,324.238,372.963,322.032,369.547,322.032Z" transform="translate(-314.535 -317.665)"/><g transform="translate(50.408 18.338)"><path class="k" d="M343.469,369.928s-9.445-43.336,0-43.336S343.469,369.928,343.469,369.928Z" transform="translate(-338.866 -326.592)"/><path class="k" d="M348.281,354.659a4.6,4.6,0,1,1-4.6-4.6A4.6,4.6,0,0,1,348.281,354.659Z" transform="translate(-339.074 -301.853)"/></g></g><g transform="translate(126.689 22.064)"><path class="q" d="M356.6,323.371c-3.906-6.191-10.3-6.191-14.2,0l-10.26,16.261-14.763,23.4c-3.907,6.19-1.113,11.256,6.207,11.256h51.836c7.321,0,10.113-5.066,6.207-11.256Z" transform="translate(-314.195 -317.327)"/><path class="r" d="M375.754,376.022H323.918c-4.075,0-7.106-1.43-8.541-4.031s-1.026-5.928,1.148-9.372l25.023-39.657c2.155-3.415,5.1-5.3,8.287-5.3s6.132,1.881,8.287,5.3l25.023,39.657c2.174,3.444,2.581,6.773,1.148,9.372S379.828,376.022,375.754,376.022Zm-25.918-55.555c-2.192,0-4.295,1.416-5.917,3.989L318.9,364.114c-1.6,2.543-1.983,4.86-1.064,6.525s3.079,2.581,6.086,2.581h51.836c3.007,0,5.169-.916,6.087-2.581s.539-3.982-1.065-6.525l-25.023-39.657C354.13,321.883,352.028,320.467,349.836,320.467Z" transform="translate(-314.535 -317.665)"/><g transform="translate(32.346 11.767)"><path class="k" d="M341.965,354.4s-6.061-27.808,0-27.808S341.965,354.4,341.965,354.4Z" transform="translate(-339.011 -326.592)"/><path class="k" d="M344.982,353.011a2.954,2.954,0,1,1-2.954-2.953A2.953,2.953,0,0,1,344.982,353.011Z" transform="translate(-339.074 -319.126)"/></g></g></g></g></g></g></g></g><g transform="translate(312.861 191.561)"><path class="s" d="M14114.721-4173.891h-1.349l-29.34,31.463-4.389-4.09,30.905-33.142v-86.232h8v87.306l29.9,32.068-4.389,4.09Z" transform="translate(-13718.903 4324)"/><g transform="translate(0)"><g transform="translate(0)"><g transform="translate(0 9.17)"><path class="k" d="M426.859,166.17l27.6,33.9V165.493h3.669v.82l27.486,33.754V165.493h3.667v1.219l24.872,30.549v-33.6H829.288v45.23H514.155v-5.827l-24.872-30.542v35.069h-2.272L458.13,172.123v35.468h-2.27l-31.848-39.105Zm119.992,32.981V167.326H520.933Zm31.155-31.825H551.342l26.664,32.742Zm30.83,0H582.171l26.664,32.742Zm31.151,1.228-.053-.068.053-.044v-1.116h-26.66l26.66,32.742Zm30.4-1.228H643.719l26.664,32.742Zm31.151,0h-26.66l26.66,32.742Zm30.825,0H705.7l26.656,32.742Zm31.155,0h-26.66l26.66,32.742Zm31.054,0H767.9l26.666,32.742Zm30.749,0H798.653l26.664,32.742Zm-27.085,5.29v32.607h26.552Zm-31.052-.359v32.966h26.85Zm-31.153-.133v33.1h26.954Zm-30.825.4v32.7h26.628Zm-31.155-.4v33.1h26.958Zm-30.4.934v32.167h26.2Zm-31.151-.93v33.1h26.958Zm-30.834.4v32.7H608.3Zm-30.4.518v32.182h26.21Zm-31.153,0v32.182h26.212Z" transform="translate(-421.77 -163.661)"/><path class="k" d="M467.727,163.661H782.86v45.23H467.727Zm311.464,41.561v-37.9h-307.8v37.9Z" transform="translate(-467.727 -163.661)"/><g transform="translate(125.774 1.833)"><path class="k" d="M575.3,164.528v42.1h-2.27l-31.845-39.105,2.844-2.317,27.6,33.9V164.528Z" transform="translate(-541.185 -164.528)"/><path class="k" d="M560.558,164.528v42.1h-2.27l-31.845-39.105,2.84-2.317,27.61,33.9V164.528Z" transform="translate(-495.288 -164.528)"/><g transform="translate(61.981)"><path class="k" d="M545.972,164.528v42.1H543.7l-31.845-39.105L514.7,165.2l27.606,33.9V164.528Z" transform="translate(-511.857 -164.528)"/><path class="k" d="M531.232,164.528v42.1h-2.266l-31.849-39.105,2.844-2.317,27.606,33.9V164.528Z" transform="translate(-465.966 -164.528)"/><path class="k" d="M516.541,164.528v42.1h-2.27l-31.845-39.105,2.844-2.317,27.606,33.9V164.528Z" transform="translate(-420.226 -164.528)"/><path class="k" d="M501.992,164.528v42.1h-2.27l-31.849-39.105,2.844-2.317,27.61,33.9V164.528Z" transform="translate(-374.923 -164.528)"/></g></g></g><rect class="r" width="63.57" height="63.569" transform="translate(61.857)"/><g transform="translate(71.026 62.046)"><path class="k" d="M607.064,188.681V503.816H561.83V188.681ZM565.5,500.151h37.9V192.35H565.5Z" transform="translate(-561.83 -188.681)"/><g transform="translate(1.299 2.246)"><path class="k" d="M604.8,223.86H562.7V221.59l39.109-31.847,2.315,2.843-33.9,27.606H604.8Z" transform="translate(-562.699 -189.744)"/><path class="k" d="M604.8,238.6H562.7v-2.268l39.109-31.848,2.315,2.843-33.9,27.606H604.8Z" transform="translate(-562.699 -173.332)"/><g transform="translate(0 61.982)"><path class="k" d="M604.8,253.187H562.7V250.92l39.109-31.848,2.315,2.844-33.9,27.6H604.8Z" transform="translate(-562.699 -219.072)"/><path class="k" d="M604.8,267.929H562.7V265.66l39.109-31.847,2.315,2.844-33.9,27.6H604.8Z" transform="translate(-562.699 -202.661)"/></g></g><g transform="translate(1.299 125.777)"><path class="k" d="M604.8,282.307H562.7v-2.264L601.809,248.2l2.315,2.841-33.9,27.6H604.8Z" transform="translate(-562.699 -248.196)"/><path class="k" d="M604.8,297.054H562.7v-2.27l39.109-31.847,2.315,2.844-33.9,27.61H604.8Z" transform="translate(-562.699 -231.785)"/><g transform="translate(0 61.979)"><path class="k" d="M604.8,311.64H562.7v-2.268l39.109-31.849,2.315,2.846-33.9,27.6H604.8Z" transform="translate(-562.699 -277.523)"/><path class="k" d="M604.8,326.382H562.7v-2.266l39.109-31.851,2.315,2.846-33.9,27.6H604.8Z" transform="translate(-562.699 -261.111)"/><path class="k" d="M604.8,341.072H562.7V338.8l39.109-31.849,2.315,2.848-33.9,27.6H604.8Z" transform="translate(-562.699 -244.756)"/><path class="k" d="M604.8,355.625H562.7v-2.266l39.109-31.851,2.315,2.844-33.9,27.606H604.8Z" transform="translate(-562.699 -228.553)"/></g></g></g></g><rect class="r" width="34.115" height="12.611" transform="translate(373.404 54.399)"/></g></g><g transform="translate(422.267 521.219)"><g transform="translate(-11 14)"><g transform="translate(12.344)"><path class="r" d="M439.185,403.041H361.208l23.3-106.658h31.372Z" transform="translate(-361.208 -296.383)"/><g class="t"><g transform="translate(-9.857 8.383)"><rect class="k" width="97.695" height="16.085" transform="translate(0 70.463)"/><path class="k" d="M356.544,317.632v16.085h97.7V316.831h-97.7Z" transform="translate(-356.544 -282)"/><rect class="k" width="97.695" height="16.087"/></g></g></g><path class="u" d="M456.952,350.851a4.43,4.43,0,0,1-4.432,4.43H359.8a4.433,4.433,0,0,1-4.432-4.43h0a4.435,4.435,0,0,1,4.432-4.438H452.52a4.432,4.432,0,0,1,4.432,4.438Z" transform="translate(-355.367 -240.681)"/><g class="v" transform="translate(56.545)"><path class="u" d="M392.6,296.383H382.123l23.3,106.658H415.9Z" transform="translate(-382.123 -296.383)"/></g></g><g transform="translate(353.233 -4.063)"><g transform="translate(14.286)"><path class="r" d="M620.035,419.853H529.769l26.978-123.47h36.314Z" transform="translate(-529.769 -296.383)"/><g class="w"><g transform="translate(-11.41 9.705)"><rect class="k" width="113.092" height="18.621" transform="translate(0 81.57)"/><path class="k" d="M525.105,317.758v18.621H638.2V316.831H525.105Z" transform="translate(-525.105 -276.51)"/><rect class="k" width="113.092" height="18.623"/></g></g></g><path class="u" d="M641.522,351.55a5.128,5.128,0,0,1-5.128,5.128H529.055a5.128,5.128,0,0,1-5.125-5.128h0a5.13,5.13,0,0,1,5.125-5.138H636.394a5.13,5.13,0,0,1,5.128,5.138Z" transform="translate(-523.93 -224.016)"/><g class="v" transform="translate(65.452)"><path class="u" d="M562.81,296.383H550.683l26.973,123.47h12.127Z" transform="translate(-550.683 -296.383)"/></g></g></g></g></svg>