<svg xmlns="http://www.w3.org/2000/svg" width="146.728" height="31.992" viewBox="0 0 146.728 31.992"><defs><style>.a{fill:#fff;}.b{fill:#10bce6;}</style></defs><g transform="translate(-73.459 -79.673)"><g transform="translate(73.459 79.673)"><rect class="a" width="31.992" height="31.992"/><path class="b" d="M227.93,152.778h.3v.277l-.039-.039-.158.158.079.08.119-.119v.594l-.039-.039-.158.158.079.08.119-.119v.594l-.039-.039-.158.138.079.1.119-.119v.594l-.039-.059-.158.158.079.1.119-.119v.4h-.4l.1-.1-.079-.1-.159.158.039.04h-.574l.1-.1-.079-.1-.158.158.039.04h-.573l.1-.1-.08-.1-.158.158.039.04h-.574l.119-.1-.1-.1-.159.158.04.04h-.555l.1-.1-.1-.1-.158.158.039.04h-.555l.1-.1-.079-.1-.158.158.019.04h-.554l.1-.1-.08-.1-.158.158.039.04h-.574l.1-.1-.08-.1-.158.158.039.04h-.356v-.357l.06.08.158-.158-.08-.1-.138.138v-.633l.06.079.158-.158-.08-.079-.138.138v-.633l.06.06.158-.159-.08-.08-.138.139v-.634l.06.06.158-.158-.08-.08-.138.139v-.377h.376l-.059.06.079.08.158-.139h.5l-.059.06.08.08.158-.139h.158v-8.317h-.039l-1.347-1.346v-.356l1.7,1.7h.316l-2.02-2.02v-.356l2.377,2.376h.317l-2.693-2.692v-.08h.277l2.773,2.772h.317l-2.773-2.772h.357l2.772,2.772h.316l-2.772-2.772h.356l2.534,2.535v-.039l.138-.139-.1-.079-.039.039v-.08L224.6,141.69h.356l1.881,1.882v-.059l.138-.138-.1-.08-.039.039v-.079l-1.565-1.565h.357l1.208,1.208v-.06l.138-.138-.1-.08-.039.039v-.079l-.89-.891h.356l.534.534v-.059l.138-.119-.1-.1-.039.039v-.08l-.218-.217h.514l-.079.08.1.1.158-.158-.019-.02h.514l-.08.08.08.1.159-.158v-.02h.514l-.079.08.079.1.158-.158v-.02h.515l-.08.08.08.1.177-.179c.066,0,.139,0,.218.009s.158.017.237.031l-.713.712.08.1.772-.792c.066.013.135.027.207.039a1.083,1.083,0,0,1,.208.059l-1.267,1.267.08.08,1.327-1.307.356.118-1.763,1.783.08.08,1.821-1.8a1.891,1.891,0,0,1,.317.158l-2.217,2.237h-.514l.079-.079-.079-.079-.159.158h-.515l.08-.079-.08-.079-.159.158h-.494l.079-.079-.1-.079-.158.158h-.218v3.328h.238l-.238.237v.179l.416-.416h.5l-.911.91v.178l1.089-1.089h.5l-1.585,1.584v.178l1.763-1.762h.495l-2.258,2.258v.158l2.435-2.416a1.57,1.57,0,0,0,.654-.178l-2.952,2.95h-.138v2.217h.238l-.059.06.079.08.158-.139h.5l-.06.06.08.08Zm-4.574-8.317-.674-.672v-.356l1.03,1.028Zm-.654,0-.02-.019v-.357l.376.376Zm.535,8.97-.08-.079-.158.158.079.079Zm0,.674-.08-.079-.158.158.079.079Zm0,.673-.08-.1-.158.158.079.1Zm.337-1.683-.08-.08-.158.158.079.08Zm0,.674-.08-.08-.158.158.079.08Zm0,.673-.08-.079-.158.138.079.1Zm0,.673-.08-.1-.158.158.079.1Zm.337-1.684-.08-.079-.158.158.08.079Zm0,.674-.08-.079-.158.158.08.079Zm0,.673-.08-.1-.158.158.08.1Zm.337-1.683-.079-.08-.158.158.079.08Zm0,.674-.079-.08-.158.158.079.08Zm0,.673-.079-.079-.158.138.079.1Zm0,.673-.079-.1-.158.158.079.1Zm.1-2.278.078.08.139-.139h-.158Zm.237.594-.079-.079-.158.158.078.079Zm0,.674-.079-.079-.158.158.078.079Zm0,.673-.079-.1-.158.158.078.1Zm.337-1.683-.1-.08-.139.158.08.08Zm0,.674-.1-.08-.139.158.08.08Zm0,.673-.1-.079-.139.138.08.1Zm0,.673-.1-.1-.139.158.08.1Zm.08-2.278.1.08.138-.139h-.177Zm.257.594-.1-.079-.158.158.1.079Zm0,.674-.1-.079-.158.158.1.079Zm0,.673-.1-.1-.158.158.1.1Zm.337-1.683-.1-.08-.158.158.1.08Zm0,.674-.1-.08-.158.158.1.08Zm0,.673-.1-.079-.158.138.1.1Zm0,.673-.1-.1-.158.158.1.1Zm.079-2.278.1.08.138-.139h-.178Zm.258.594-.1-.079-.159.158.1.079Zm0,.674-.1-.079-.159.158.1.079Zm0,.673-.1-.1-.159.158.1.1Zm.337-1.683-.1-.08-.158.158.1.08Zm0,.674-.1-.08-.158.158.1.08Zm0,.673-.1-.079-.158.138.1.1Zm0,.673-.1-.1-.158.158.1.1Zm.079-2.278.1.08.139-.139h-.178Zm.237.594-.08-.079-.158.158.1.079Zm0,.674-.08-.079-.158.158.1.079Zm0,.673-.08-.1-.158.158.1.1Zm.337-1.683-.08-.08-.158.158.079.08Zm0,.674-.08-.08-.158.158.079.08Zm0,.673-.08-.079-.158.138.079.1Zm0,.673-.08-.1-.158.158.079.1Zm.336-1.684-.079-.079-.158.158.079.079Zm0,.674-.079-.079-.158.158.079.079Zm0,.673-.079-.1-.158.158.079.1Zm-.2-12.337.1.1.158-.158-.1-.1Zm0,.674.1.08.158-.159-.1-.079Zm0,.674.1.08.158-.159-.1-.079Zm.1,6.772,6.139-6.139c.027.067.05.13.069.188s.043.123.069.188l-5.782,5.762Zm.436,2.535-.079-.08-.159.158.08.08Zm0,.674-.079-.08-.159.158.08.08Zm0,.673-.079-.079-.159.138.08.1Zm0,.673-.079-.1-.159.158.08.1Zm-.2-13.01.1.1.138-.158-.079-.1Zm0,.673.1.08.138-.158-.079-.08Zm0,.674.1.08.138-.158-.079-.08Zm0,.674.1.078.138-.158-.079-.079Zm.535,9.306-.079-.079-.159.158.08.079Zm0,.674-.079-.079-.159.158.08.079Zm0,.673-.079-.1-.159.158.08.1Zm-.2-12.337.08.1.159-.158-.08-.1Zm0,.674.08.08.159-.159-.08-.079Zm0,.674.08.08.159-.159-.08-.079Zm5.744,1.128c.013.066.025.136.039.208s.026.142.039.208l-5.227,5.227h-.5Zm-5.406-2.811.079.1.158-.158-.079-.1Zm0,.673.079.08.158-.158-.079-.08Zm0,.674.079.08.158-.158-.079-.08Zm0,.674.079.078.158-.158-.079-.079Zm.337-1.684.079.1.158-.158-.079-.1Zm0,.674.079.08.158-.159-.079-.079Zm0,.674.079.08.158-.159-.079-.079Zm5.187,1.683a1.368,1.368,0,0,1,.02.227,1.314,1.314,0,0,0,.021.229L229,150.561H228.5Zm-4.852-3.366.08.1.158-.158-.08-.1Zm0,.673.08.08.158-.158-.08-.08Zm0,.674.08.08.158-.158-.08-.08Zm0,.674.08.078.158-.158-.08-.079Zm4.892,2c0,.092,0,.178-.011.257s-.01.158-.01.238l-3.921,3.92c-.08,0-.158,0-.238.01s-.165.01-.257.01h-.02l4.456-4.454Zm-3.961-1.6a1.669,1.669,0,0,0-.436-.06l2.178-2.178a1.193,1.193,0,0,1,.149.09c.046.033.1.069.149.109Zm.455.218a2.741,2.741,0,0,0-.337-.158l2.02-2.02c.092.066.186.139.278.218Zm.415,5.6a1.984,1.984,0,0,1-.317.089c-.1.019-.217.043-.337.069l3.683-3.683c-.027.119-.05.232-.069.337a1.889,1.889,0,0,1-.089.318Zm-.058-5.288q-.06-.059-.129-.118c-.047-.04-.089-.08-.129-.119l1.96-1.96c.04.039.082.079.129.118s.089.08.129.119Zm.237.416a1.79,1.79,0,0,0-.179-.317l1.981-1.96c.079.092.152.184.217.277Zm-.039,1.386a2.1,2.1,0,0,0,.178-.653l2.218-2.238a1.185,1.185,0,0,0,.079.168,1.72,1.72,0,0,1,.079.168Zm.178-.832a3.145,3.145,0,0,0-.079-.415l2.04-2.04a.707.707,0,0,0,.1.148.74.74,0,0,1,.1.15Zm1.188,3.5a4.835,4.835,0,0,1-1.228.713l2.5-2.495a4.848,4.848,0,0,1-.713,1.227Z" transform="translate(-214.373 -138.237)"/><path class="b" d="M305.889,348.354l2.3,2.3a.953.953,0,0,0-.019.167.883.883,0,0,1-.021.169l-2.5-2.517a.562.562,0,0,1-.109.059c-.033.014-.069.027-.109.04l2.676,2.675a1.73,1.73,0,0,1-.079.3l-2.893-2.912-.079.079a.163.163,0,0,1-.06.02.146.146,0,0,0-.059.02l3.032,3.032a.306.306,0,0,0-.05.129.292.292,0,0,1-.05.128l-3.231-3.23a.92.92,0,0,1-.109.03.553.553,0,0,1-.109.009l.138-.119-.1-.1-.158.157.257.258a1.163,1.163,0,0,0-.515-.138v-.021h-2.933v.337l-2.775-2.775v-.356l2.775,2.773v-.317l-2.775-2.774v-.358l2.775,2.776v-.317l-2.775-2.775v-.356l2.775,2.775V347.2l-2.775-2.775v-.357l2.775,2.775v-.317l-2.775-2.775v-.139h-.079l.079-.079V343.4l.06.08.158-.158-.08-.1-.4.4h-.495l.753-.752v-.139l.06.08.158-.159-.08-.08-1.07,1.051h-.456V343.6l1.387-1.388v-.139l.06.059.158-.158-.08-.08-1.525,1.527v-.5l1.387-1.389V341.4l.06.059.158-.158-.08-.08-1.525,1.525v-.5l1.387-1.387v-.019h3.192l-.536.534.1.08.615-.614h.495l-1.209,1.208.1.08,1.288-1.287h.495l-1.882,1.882.1.08,1.962-1.962h.5l-2.557,2.537.1.1,2.637-2.636h.316a.642.642,0,0,1,.159.019l-2.775,2.755h-.317v.238l-.3-.3-.039.059h-.218l.555.555v.356l-.952-.971-.058.059h-.219l1.229,1.229v.357l-1.625-1.645-.059.059h-.2l1.883,1.884v.356l-2.3-2.3-.059.059h-.2l2.557,2.557v-.059h2.775a1.388,1.388,0,0,0,.555-.119l-.159.139h.04l.079.06,3.093-3.093a1.136,1.136,0,0,0,.079.169,1.484,1.484,0,0,1,.08.169l-2.795,2.794a.316.316,0,0,1,.139.039l2.7-2.7a1.218,1.218,0,0,1,.059.188,1.11,1.11,0,0,0,.06.189l-2.5,2.5.08.08,2.438-2.418a1.664,1.664,0,0,1,.06.436l-2.042,2.041.119.06,1.941-1.943v.337a.649.649,0,0,1-.019.159l-1.626,1.644a.613.613,0,0,1,.1.059l1.507-1.5a2.8,2.8,0,0,1-.059.317c-.027.1-.054.211-.08.318l-1.091,1.09c.014.013.023.019.03.019s.017.007.031.021l.039.039.891-.892a3.815,3.815,0,0,1-.653,1.13l.158.159a3.312,3.312,0,0,1,.357.475c.1.172.2.35.3.535l-.99-.991a.457.457,0,0,1-.159.159l1.348,1.347.119.476-1.644-1.645a.492.492,0,0,1-.09.069.5.5,0,0,0-.09.069l1.884,1.884a1.756,1.756,0,0,0,.009.188,1.663,1.663,0,0,1,.009.188l-2.12-2.12Zm-7.71-7.512-1.229,1.228v-.5l.733-.733Zm-.674,0-.554.555v-.555Zm6.383,11.1a.67.67,0,0,0,.2-.02l2.121,2.12a1.064,1.064,0,0,1-.119.069,1.166,1.166,0,0,0-.119.069l-2.081-2.1v.318l1.882,1.882c-.106.052-.191.094-.258.119l-1.625-1.645v.318l1.407,1.406c-.08.027-.173.053-.278.08l-1.129-1.13v.317l.871.873-.3.059-.574-.574v.317l.3.277a1.537,1.537,0,0,1-.3.021H296.95v-2.775h1.525l-.138-.139v-.357l.5.5h.3l-.793-.793v-.357l1.15,1.15h.317l-1.467-1.466v-.357l1.823,1.823h.318l-2.141-2.14v-.358l2.5,2.5Zm-2.775-2.061-2.775-2.776v-.336l2.775,2.774Zm-2.775-2.459,2.775,2.776v.356l-2.775-2.775Zm0,.674,2.775,2.775v.356l-2.775-2.774Zm0,.674,2.775,2.774v.358l-2.775-2.775Zm.317-7.729.08.08.158-.159-.079-.079Zm0,.673.08.08.158-.159-.079-.08Zm0,.674.08.08.158-.158-.079-.08Zm0,.655.08.1.158-.158-.079-.08Zm.337-1.666.08.08.158-.158-.079-.08Zm0,.673.08.08.158-.158-.079-.08Zm0,.675.08.08.158-.159-.079-.08Zm0,.654.08.1.158-.158-.079-.1Zm.338-2.339.08.08.158-.159-.08-.079Zm0,.673.08.08.158-.159-.08-.08Zm0,.674.08.08.158-.158-.08-.08Zm0,.655.08.1.158-.158-.08-.08Zm.337-1.666.08.08.158-.158-.08-.08Zm0,.673.08.08.158-.158-.08-.08Zm0,.675.08.08.158-.159-.08-.08Zm0,.654.08.1.158-.158-.08-.1ZM300,341.04l.08.08.159-.159-.08-.079Zm0,.673.08.08.159-.159-.08-.08Zm0,.674.08.08.159-.158-.08-.08Zm0,.655.08.1.159-.158-.08-.08Zm.337-1.666.08.08.158-.158-.1-.08Zm0,.673.08.08.158-.158-.1-.08Zm0,.675.08.08.158-.159-.1-.08Zm0,.654.08.1.158-.158-.1-.1Zm.318-2.339.1.08.158-.159-.1-.079Zm0,.673.1.08.158-.159-.1-.08Zm0,.674.1.08.158-.158-.1-.08Zm0,.655.1.1.158-.158-.1-.08Zm.951.574,2.755-2.735a1.223,1.223,0,0,1,.209.019l.208.04-2.676,2.675Zm.674,0,2.636-2.636a1.284,1.284,0,0,0,.188.059,1.149,1.149,0,0,1,.189.06l-2.518,2.517Zm.674,0,2.477-2.457.158.08c.053.027.113.052.179.079l-2.319,2.3Zm.674,0,2.24-2.239a.82.82,0,0,1,.168.089,1.148,1.148,0,0,0,.149.089l-2.081,2.082a.974.974,0,0,0-.217-.02Zm.595,2.755-.1-.08-.157.158.1.08Zm0,.674-.1-.08-.157.159.1.079Zm0,.675-.1-.08-.157.158.1.08Zm0,.674-.1-.08-.157.158.1.079Zm.357-4.558a.626.626,0,0,0-.158-.09c-.053-.019-.113-.042-.179-.069l2.041-2.041a1.106,1.106,0,0,0,.13.109l.148.109Zm-.021,2.874-.1-.081-.158.159.1.079Zm0,.673-.1-.079-.158.159.1.079Zm0,.675-.1-.079-.158.158.1.081Zm-.217,3.825a.5.5,0,0,1,.128-.06.412.412,0,0,0,.129-.059l1.983,2a1.256,1.256,0,0,0-.2.158Zm.535-5.509-.08-.08-.158.158.1.08Zm0,.674-.08-.08-.158.159.1.079Zm0,.675-.08-.08-.158.158.1.08Zm0,.674-.08-.08-.158.158.1.079Zm.039-4.222a.645.645,0,0,0-.238-.258l1.962-1.982a.813.813,0,0,0,.129.139.573.573,0,0,1,.109.119Zm-.138,7.472a.862.862,0,0,0,.2-.158l1.962,1.962a1.368,1.368,0,0,1-.179.159Zm.337-7a.994.994,0,0,0-.059-.188c-.027-.059-.054-.122-.08-.188l2-1.982a1.541,1.541,0,0,0,.1.13.773.773,0,0,1,.1.148Zm.1,2.062-.08-.081-.158.159.08.079Zm0,.673-.08-.079-.158.159.08.079Zm0,.675-.08-.079-.158.158.08.081Zm-.08-3.271,2.121-2.12a1.654,1.654,0,0,0,.088.158,1.554,1.554,0,0,1,.09.159L305,345.419a1.145,1.145,0,0,0,.139-.554Zm-.02,6.52a.891.891,0,0,0,.139-.217l2,2a.788.788,0,0,0-.159.2Zm.277-1.049a1.837,1.837,0,0,0-.139-.515l2.518,2.517-.119.238Zm.158-3.211-.079-.08-.159.159.08.079Zm0,.675-.079-.08-.159.158.08.08Zm0,.674-.079-.08-.159.158.08.079Zm-.138,2.179,2.121,2.121c-.027.039-.051.077-.071.109s-.042.069-.069.109l-2.041-2.042Zm.237-3.785.08.079.158-.157-.079-.081Zm0,.674.08.079.158-.159-.079-.079Zm.08.754.158-.159-.079-.079-.159.158Zm.257-1.091.079.079.158-.158-.079-.08Zm0,.674.079.08.158-.158-.079-.08Zm.338-.337.079.079.158-.159-.08-.079Z" transform="translate(-284.505 -326.299)"/></g><g transform="translate(109.637 90.2)"><g transform="translate(0 0)"><path class="a" d="M725.685,283.219h-2.51v-9.656h4a3.418,3.418,0,0,1,2.491.845,3.714,3.714,0,0,1,0,4.764,3.418,3.418,0,0,1-2.491.845h-1.486Zm0-5.225h.833q1.383,0,1.383-1.2t-1.383-1.2h-.833Z" transform="translate(-723.175 -273.294)"/><path class="a" d="M907.607,275.689h-2.984V277.3h2.818v2.126h-2.818v1.665h2.984v2.126h-5.494v-9.656h5.494Z" transform="translate(-892.149 -273.294)"/><path class="a" d="M1056.212,283.219v-9.656h2.51l4.636,5.9v-5.9h2.5v9.656h-2.5l-4.636-5.9v5.9Z" transform="translate(-1037.668 -273.294)"/><path class="a" d="M1288.741,273.563h3.74a2.878,2.878,0,0,1,2.023.64,2.39,2.39,0,0,1,.692,1.844,2.5,2.5,0,0,1-.263,1.21,2.207,2.207,0,0,1-.8.813,3.034,3.034,0,0,1,.916.314,1.992,1.992,0,0,1,.615.519,1.943,1.943,0,0,1,.339.692,3.158,3.158,0,0,1,.1.82,2.9,2.9,0,0,1-.237,1.2,2.446,2.446,0,0,1-.666.884,2.849,2.849,0,0,1-1.044.538,4.933,4.933,0,0,1-1.383.179h-4.034Zm2.51,3.791h.461q1.178,0,1.178-.935t-1.178-.935h-.461Zm0,3.919h.551a2.8,2.8,0,0,0,1.357-.243.949.949,0,0,0,0-1.562,2.8,2.8,0,0,0-1.357-.243h-.551Z" transform="translate(-1257.249 -273.294)"/><path class="a" d="M1478.928,283.219H1475.8l-2.395-3.714v3.714h-2.51v-9.656h3.906a3.834,3.834,0,0,1,1.409.237,2.652,2.652,0,0,1,1.582,1.594,3.3,3.3,0,0,1,.2,1.153,2.833,2.833,0,0,1-.531,1.787,2.676,2.676,0,0,1-1.569.928Zm-5.52-5.34h.474a1.831,1.831,0,0,0,1.14-.307,1.182,1.182,0,0,0,0-1.767,1.831,1.831,0,0,0-1.14-.307h-.474Z" transform="translate(-1429.263 -273.294)"/><path class="a" d="M1645.931,273.83a4.976,4.976,0,0,1,3.183-4.707,6.138,6.138,0,0,1,4.31,0,5.092,5.092,0,0,1,1.7,1.082,4.953,4.953,0,0,1,1.108,1.62,5.255,5.255,0,0,1,0,4.009,4.951,4.951,0,0,1-1.108,1.62,5.087,5.087,0,0,1-1.7,1.082,6.138,6.138,0,0,1-4.31,0,4.994,4.994,0,0,1-3.183-4.707Zm2.625,0a2.567,2.567,0,0,0,.218,1.063,2.659,2.659,0,0,0,1.453,1.4,2.844,2.844,0,0,0,2.088,0,2.736,2.736,0,0,0,.871-.557,2.64,2.64,0,0,0,.6-.845,2.7,2.7,0,0,0,0-2.126,2.643,2.643,0,0,0-.6-.845,2.744,2.744,0,0,0-.871-.557,2.844,2.844,0,0,0-2.088,0,2.659,2.659,0,0,0-1.453,1.4A2.568,2.568,0,0,0,1648.557,273.83Z" transform="translate(-1594.55 -268.733)"/><path class="a" d="M1875.9,275.689v7.53h-2.51v-7.53h-2.062v-2.126h6.634v2.126Z" transform="translate(-1807.396 -273.294)"/><path class="a" d="M2035.988,277.29h3.624v-3.727h2.51v9.656h-2.51v-3.983h-3.624v3.983h-2.51v-9.656h2.51Z" transform="translate(-1960.517 -273.294)"/><path class="a" d="M2253.559,275.689h-2.984V277.3h2.818v2.126h-2.818v1.665h2.984v2.126h-5.494v-9.656h5.494Z" transform="translate(-2163.155 -273.294)"/><path class="a" d="M2410.194,283.219h-3.125l-2.395-3.714v3.714h-2.51v-9.656h3.906a3.834,3.834,0,0,1,1.409.237,2.653,2.653,0,0,1,1.582,1.594,3.3,3.3,0,0,1,.2,1.153,2.833,2.833,0,0,1-.531,1.787,2.677,2.677,0,0,1-1.569.928Zm-5.52-5.34h.474a1.831,1.831,0,0,0,1.14-.307,1.182,1.182,0,0,0,0-1.767,1.83,1.83,0,0,0-1.14-.307h-.474Z" transform="translate(-2308.673 -273.294)"/><path class="a" d="M2586.152,271.474a3.113,3.113,0,0,0-.82-.493,2.177,2.177,0,0,0-.794-.16,1.288,1.288,0,0,0-.794.231.718.718,0,0,0-.308.6.6.6,0,0,0,.154.423,1.339,1.339,0,0,0,.4.288,3.427,3.427,0,0,0,.563.211q.314.09.621.192a3.872,3.872,0,0,1,1.8,1.095,2.7,2.7,0,0,1,.57,1.787,3.473,3.473,0,0,1-.25,1.345,2.806,2.806,0,0,1-.73,1.031,3.363,3.363,0,0,1-1.178.666,4.911,4.911,0,0,1-1.582.237,5.816,5.816,0,0,1-3.394-1.089l1.076-2.023a4.359,4.359,0,0,0,1.114.743,2.675,2.675,0,0,0,1.089.243,1.3,1.3,0,0,0,.916-.282.874.874,0,0,0,.224-1.018.818.818,0,0,0-.256-.295,2.056,2.056,0,0,0-.468-.25q-.288-.115-.7-.256-.487-.154-.954-.339a3,3,0,0,1-.833-.493,2.288,2.288,0,0,1-.589-.775,2.736,2.736,0,0,1-.224-1.185,3.419,3.419,0,0,1,.237-1.3,2.892,2.892,0,0,1,.666-1,2.972,2.972,0,0,1,1.05-.647,3.97,3.97,0,0,1,1.389-.231,6.083,6.083,0,0,1,1.5.2,6.617,6.617,0,0,1,1.5.583Z" transform="translate(-2476.998 -268.733)"/></g></g></g></svg>