<svg xmlns="http://www.w3.org/2000/svg" width="57.051" height="57.051" viewBox="0 0 57.051 57.051"><defs><style>.a{fill:#1e76e3;}.b{fill:#fff;}.c{fill:none;}.d{fill:#4bc8f9;fill-rule:evenodd;}</style></defs><g transform="translate(4.052 24.3)"><circle class="a" cx="20.171" cy="20.171" r="20.171" transform="translate(-4.052 4.226) rotate(-45)"/><path class="b" d="M300.256,211.322h.33v.307l-.044-.044-.175.175.087.088.132-.132v.658l-.044-.043-.175.175.087.088.132-.132v.658l-.044-.044-.175.153.087.11.132-.132v.658l-.044-.065-.175.176.087.109.132-.132v.439h-.439l.11-.11-.087-.109-.177.175.044.044H299.4l.109-.11-.087-.109-.175.175.044.044h-.635l.109-.11-.088-.109-.175.175.044.044h-.636l.132-.11-.11-.109-.176.175.044.044h-.615l.109-.11-.109-.109-.176.175.044.044h-.614l.109-.11-.087-.109-.175.175.021.044H295.7l.109-.11-.088-.109-.175.175.044.044h-.636l.11-.11-.088-.109-.175.175.044.044h-.394V214l.066.088.175-.175-.088-.11-.153.153v-.7l.066.087.175-.176-.088-.087-.153.153v-.7l.066.066.175-.176-.088-.088-.153.154v-.7l.066.066.175-.176-.088-.088-.153.154v-.418h.417l-.066.066.088.088.175-.154h.549l-.066.066.088.088.176-.154h.175v-9.212h-.044l-1.492-1.491v-.394l1.887,1.885h.35l-2.237-2.237v-.394l2.633,2.631h.351l-2.983-2.982v-.088h.307l3.071,3.07h.351l-3.072-3.07h.4l3.071,3.07h.35l-3.07-3.07h.395l2.807,2.807V201.8l.153-.154-.109-.087-.044.044v-.088l-2.478-2.478h.394l2.084,2.084v-.066l.153-.153-.109-.088-.044.043v-.087l-1.733-1.733h.4l1.338,1.338v-.066l.153-.153-.109-.088-.044.044v-.087l-.986-.987h.395l.591.592v-.065l.153-.132-.109-.109-.044.043v-.088l-.241-.241h.569l-.087.088.11.11.176-.175-.021-.022h.57l-.088.088.088.11.176-.175v-.022h.57l-.087.088.087.11.175-.175v-.022h.57l-.088.088.088.11.2-.2c.073,0,.154,0,.242.01s.175.019.263.034l-.789.788.088.11.856-.877c.073.014.15.03.229.044a1.194,1.194,0,0,1,.23.066l-1.4,1.4.088.088,1.47-1.447.394.13-1.953,1.975.088.088,2.017-2a2.1,2.1,0,0,1,.351.175l-2.456,2.478h-.569l.087-.087-.087-.088-.176.175h-.571l.088-.087-.088-.088-.176.175h-.548l.087-.087-.109-.088-.176.175h-.241V205.8h.263l-.263.263v.2l.46-.46h.549L299.05,206.8v.2l1.207-1.206h.548l-1.755,1.755v.2L301,205.8h.548l-2.5,2.5v.175l2.7-2.676a1.738,1.738,0,0,0,.725-.2l-3.269,3.268h-.153v2.456h.263l-.066.066.087.088.175-.154h.549l-.066.066.088.088Zm-5.066-9.212-.746-.745v-.394l1.141,1.139Zm-.724,0-.022-.021v-.4l.417.417Zm.592,9.936-.088-.087-.175.176.088.087Zm0,.746-.088-.087-.175.175.088.087Zm0,.746-.088-.109-.175.175.088.109Zm.373-1.864-.088-.088-.175.175.087.088Zm0,.746-.088-.088-.175.175.087.088Zm0,.745-.088-.087-.175.153.087.11Zm0,.746-.088-.11-.175.176.087.109Zm.373-1.865-.088-.087-.175.176.088.087Zm0,.746-.088-.087-.175.175.088.087Zm0,.746-.088-.109-.175.175.088.109Zm.373-1.864-.088-.088-.176.175.087.088Zm0,.746-.088-.088-.176.175.087.088Zm0,.745-.088-.087-.176.153.087.11Zm0,.746-.088-.11-.176.176.087.109Zm.11-2.523.087.088.154-.154h-.175Zm.262.658-.087-.087-.175.176.087.087Zm0,.746-.087-.087-.175.175.087.087Zm0,.746-.087-.109-.175.175.087.109Zm.373-1.864-.11-.088-.154.175.088.088Zm0,.746-.11-.088-.154.175.088.088Zm0,.745-.11-.087-.154.153.088.11Zm0,.746-.11-.11-.154.176.088.109Zm.088-2.523.11.088.153-.154h-.2Zm.285.658-.109-.087-.176.176.11.087Zm0,.746-.109-.087-.176.175.11.087Zm0,.746-.109-.109-.176.175.11.109Zm.373-1.864-.111-.088-.176.175.111.088Zm0,.746-.111-.088-.176.175.111.088Zm0,.745-.111-.087-.176.153.111.11Zm0,.746-.111-.11-.176.176.111.109Zm.087-2.523.11.088.153-.154h-.2Zm.286.658-.11-.087-.176.176.11.087Zm0,.746-.11-.087-.176.175.11.087Zm0,.746-.11-.109-.176.175.11.109Zm.373-1.864-.11-.088-.176.175.111.088Zm0,.746-.11-.088-.176.175.111.088Zm0,.745-.11-.087-.176.153.111.11Zm0,.746-.11-.11-.176.176.111.109Zm.087-2.523.11.088.154-.154h-.2Zm.263.658-.088-.087-.175.176.11.087Zm0,.746-.088-.087-.175.175.11.087Zm0,.746-.088-.109-.175.175.11.109Zm.373-1.864-.088-.088-.176.175.087.088Zm0,.746-.088-.088-.176.175.087.088Zm0,.745-.088-.087-.176.153.087.11Zm0,.746-.088-.11-.176.176.087.109Zm.372-1.865-.087-.087-.175.176.087.087Zm0,.746-.087-.087-.175.175.087.087Zm0,.746-.087-.109-.175.175.087.109Zm-.219-13.664.11.11.176-.175-.109-.11Zm0,.746.11.088.176-.176-.109-.087Zm0,.746.11.088.176-.176-.109-.087Zm.11,7.5,6.8-6.8c.03.074.055.144.077.209s.048.136.077.208l-6.4,6.383Zm.483,2.808-.087-.088-.176.175.088.088Zm0,.746-.087-.088-.176.175.088.088Zm0,.745-.087-.087-.176.153.088.11Zm0,.746-.087-.11-.176.176.088.109Zm-.219-14.41.11.109.153-.175-.087-.109Zm0,.745.11.088.153-.176-.087-.088Zm0,.746.11.088.153-.175-.087-.088Zm0,.746.11.087.153-.175-.087-.087Zm.592,10.307-.087-.087-.177.176.088.087Zm0,.746-.087-.087-.177.175.088.087Zm0,.746-.087-.109-.177.175.088.109Zm-.22-13.664.088.11.176-.175-.088-.11Zm0,.746.088.088.176-.176-.088-.087Zm0,.746.088.088.176-.176-.088-.087Zm6.361,1.25c.015.073.028.151.044.231s.029.157.044.23l-5.79,5.79h-.549ZM300.41,199.5l.087.109.176-.175-.087-.109Zm0,.745.087.088.176-.176-.087-.088Zm0,.746.087.088.176-.175-.087-.088Zm0,.746.087.087.176-.175-.087-.087Zm.373-1.865.087.11.175-.175-.087-.11Zm0,.746.087.088.175-.176-.087-.087Zm0,.746.087.088.175-.176-.087-.087Zm5.745,1.864a1.522,1.522,0,0,1,.022.252,1.448,1.448,0,0,0,.023.253l-5.133,5.131h-.548Zm-5.374-3.728.089.109.175-.175-.088-.109Zm0,.745.089.088.175-.176-.088-.088Zm0,.746.089.088.175-.175-.088-.088Zm0,.746.089.087.175-.175-.088-.087Zm5.418,2.215c0,.1-.005.2-.012.284s-.011.175-.011.264l-4.342,4.342c-.088,0-.175,0-.264.011s-.183.012-.285.012h-.022l4.936-4.934Zm-4.387-1.777a1.844,1.844,0,0,0-.483-.066l2.412-2.412a1.342,1.342,0,0,1,.165.1c.051.037.106.076.165.121Zm.5.241a3.038,3.038,0,0,0-.374-.175l2.237-2.237c.1.073.206.154.307.241Zm.46,6.208a2.2,2.2,0,0,1-.35.1c-.116.021-.241.048-.373.076l4.08-4.08c-.03.132-.055.257-.077.373a2.121,2.121,0,0,1-.1.352Zm-.064-5.857c-.044-.044-.092-.087-.143-.131s-.1-.088-.143-.132l2.171-2.171c.045.044.091.087.143.131s.1.088.143.132Zm.263.461a1.961,1.961,0,0,0-.2-.351l2.194-2.171c.088.1.168.2.24.307Zm-.044,1.535a2.321,2.321,0,0,0,.2-.723l2.457-2.478a1.3,1.3,0,0,0,.088.186,1.909,1.909,0,0,1,.087.186Zm.2-.921a3.509,3.509,0,0,0-.088-.46l2.259-2.259a.781.781,0,0,0,.11.164.828.828,0,0,1,.109.166Zm1.316,3.882a5.351,5.351,0,0,1-1.361.79l2.765-2.763a5.366,5.366,0,0,1-.79,1.359Z" transform="translate(-278.435 -208.33)"/><path class="b" d="M395.368,390.113l2.546,2.547a1.07,1.07,0,0,0-.021.185.979.979,0,0,1-.023.187l-2.766-2.787a.624.624,0,0,1-.121.065c-.037.016-.076.03-.121.045l2.964,2.963a1.9,1.9,0,0,1-.088.329l-3.2-3.226-.087.088a.179.179,0,0,1-.066.022.163.163,0,0,0-.066.022l3.358,3.358a.342.342,0,0,0-.055.143.322.322,0,0,1-.055.142l-3.578-3.577a1.038,1.038,0,0,1-.121.033.609.609,0,0,1-.12.01l.153-.132-.109-.109-.176.175.285.286a1.288,1.288,0,0,0-.571-.153V390.7h-3.248v.374L387,388v-.395l3.074,3.072v-.35L387,387.259v-.4l3.074,3.074v-.351L387,386.512v-.395l3.074,3.073v-.352L387,385.765v-.4l3.074,3.074v-.35L387,385.02v-.154h-.088l.088-.087v-.154l.066.088.175-.175-.088-.111-.439.439h-.548l.834-.834v-.154l.066.088.175-.176-.088-.088-1.185,1.164h-.5v-.021L387,383.307v-.154l.066.066.175-.175-.088-.088-1.69,1.691V384.1L387,382.56v-.152l.066.066.175-.175-.088-.088-1.69,1.689v-.548L387,381.814v-.021h3.536l-.594.592.11.088.681-.68h.548l-1.339,1.338.11.088,1.427-1.426h.548l-2.085,2.085.11.088,2.173-2.173h.549l-2.832,2.81.11.109,2.921-2.919h.35a.707.707,0,0,1,.177.021l-3.074,3.051h-.351v.263l-.329-.329-.044.066h-.242l.614.615v.395l-1.054-1.075-.064.066h-.243l1.362,1.361v.4l-1.8-1.822-.066.066h-.22l2.086,2.087v.394l-2.546-2.547-.066.066h-.22l2.832,2.832v-.065h3.074a1.538,1.538,0,0,0,.614-.132l-.176.154h.045l.087.067,3.426-3.425a1.272,1.272,0,0,0,.087.187,1.717,1.717,0,0,1,.088.187l-3.1,3.095a.353.353,0,0,1,.154.044l2.986-2.985a1.332,1.332,0,0,1,.065.208,1.219,1.219,0,0,0,.066.209L394.73,388l.088.088,2.7-2.678a1.844,1.844,0,0,1,.066.483l-2.261,2.261.132.066,2.15-2.152v.373a.711.711,0,0,1-.021.176l-1.8,1.821a.658.658,0,0,1,.109.065l1.669-1.667a3.139,3.139,0,0,1-.065.351c-.03.116-.059.234-.088.352l-1.208,1.207c.015.015.026.021.033.021s.019.008.034.023l.044.043.987-.988a4.22,4.22,0,0,1-.723,1.251l.175.176a3.686,3.686,0,0,1,.4.526c.116.19.226.387.328.593l-1.1-1.1a.506.506,0,0,1-.176.176l1.494,1.492.131.527-1.821-1.822a.562.562,0,0,1-.1.077.525.525,0,0,0-.1.077l2.087,2.086a2.007,2.007,0,0,0,.01.208,1.851,1.851,0,0,1,.011.209l-2.349-2.349Zm-8.54-8.32-1.361,1.36V382.6l.812-.812Zm-.747,0-.614.614v-.614Zm7.07,12.293a.748.748,0,0,0,.219-.021l2.35,2.349a1.207,1.207,0,0,1-.132.077,1.278,1.278,0,0,0-.132.077l-2.305-2.327v.352l2.085,2.085c-.117.058-.212.1-.286.132l-1.8-1.822v.352l1.559,1.558c-.088.03-.191.059-.308.088l-1.251-1.251v.351l.965.967-.329.065-.636-.636v.351l.329.307a1.7,1.7,0,0,1-.329.023h-7.684v-3.074h1.69l-.153-.154v-.4l.548.549h.33l-.878-.878v-.4l1.273,1.273h.351L387,392.462v-.4l2.019,2.02h.352L387,391.716v-.4l2.766,2.767Zm-3.074-2.283L387,388.729v-.373l3.074,3.073ZM387,389.08l3.074,3.075v.395L387,389.476Zm0,.747,3.074,3.074v.395L387,390.223Zm0,.746,3.074,3.073v.4L387,390.968Zm.351-8.561.088.088.175-.176-.087-.087Zm0,.746.088.088.175-.175-.087-.088Zm0,.746.088.088.175-.175-.087-.088Zm0,.726.088.109.175-.175-.087-.088Zm.373-1.845.088.088.175-.175-.087-.088Zm0,.745.088.088.175-.175-.087-.088Zm0,.747.088.088.175-.176-.087-.088Zm0,.725.088.109.175-.175-.087-.111Zm.374-2.591.088.088.175-.176-.088-.087Zm0,.746.088.088.175-.175-.088-.088Zm0,.746.088.088.175-.175-.088-.088Zm0,.726.088.109.175-.175-.088-.088Zm.373-1.845.088.088.175-.175-.088-.088Zm0,.745.088.088.175-.175-.088-.088Zm0,.747.088.088.175-.176-.088-.088Zm0,.725.088.109.175-.175-.088-.111Zm.372-2.591.088.088.176-.176-.088-.087Zm0,.746.088.088.176-.175-.088-.088Zm0,.746.088.088.176-.175-.088-.088Zm0,.726.088.109.176-.175-.088-.088Zm.374-1.845.089.088.175-.175-.11-.088Zm0,.745.089.088.175-.175-.11-.088Zm0,.747.089.088.175-.176-.11-.088Zm0,.725.089.109.175-.175-.11-.111Zm.352-2.591.109.088.175-.176-.109-.087Zm0,.746.109.088.175-.175-.109-.088Zm0,.746.109.088.175-.175-.109-.088Zm0,.726.109.109.175-.175-.109-.088Zm1.053.636,3.051-3.029a1.355,1.355,0,0,1,.232.021l.23.045-2.964,2.963Zm.746,0,2.919-2.919a1.415,1.415,0,0,0,.209.066,1.281,1.281,0,0,1,.21.066l-2.789,2.788Zm.746,0,2.744-2.722.175.088c.059.03.125.058.2.087l-2.568,2.546Zm.746,0,2.481-2.48a.9.9,0,0,1,.186.1,1.3,1.3,0,0,0,.165.1l-2.3,2.306a1.078,1.078,0,0,0-.241-.022Zm.659,3.052-.11-.088-.174.176.109.088Zm0,.746-.11-.088-.174.176.109.087Zm0,.748-.11-.088-.174.175.109.088Zm0,.746-.11-.088-.174.175.109.087Zm.4-5.049a.7.7,0,0,0-.175-.1c-.059-.021-.126-.047-.2-.076l2.261-2.261a1.2,1.2,0,0,0,.144.12l.164.121Zm-.023,3.183-.109-.089-.176.176.109.087Zm0,.745-.109-.087-.176.176.109.087Zm0,.747-.109-.087-.176.174.109.089Zm-.241,4.237a.551.551,0,0,1,.142-.066.466.466,0,0,0,.143-.065l2.2,2.218a1.408,1.408,0,0,0-.22.175Zm.593-6.1-.088-.088-.176.176.11.088Zm0,.746-.088-.088-.176.176.11.087Zm0,.748-.088-.088-.176.175.11.088Zm0,.746-.088-.088-.176.175.11.087Zm.044-4.677a.713.713,0,0,0-.264-.286L396.2,383a.9.9,0,0,0,.143.154.631.631,0,0,1,.121.132Zm-.153,8.276a.952.952,0,0,0,.219-.175l2.173,2.173a1.512,1.512,0,0,1-.2.177Zm.373-7.749a1.065,1.065,0,0,0-.065-.208c-.03-.066-.059-.135-.088-.209l2.218-2.2a1.733,1.733,0,0,0,.109.144.856.856,0,0,1,.11.163Zm.11,2.284-.088-.089-.175.176.088.087Zm0,.745-.088-.087-.175.176.088.087Zm0,.747-.088-.087-.175.174.088.089Zm-.088-3.622,2.35-2.349a1.893,1.893,0,0,0,.1.176,1.711,1.711,0,0,1,.1.176l-2.7,2.7a1.271,1.271,0,0,0,.153-.614Zm-.022,7.222a.984.984,0,0,0,.154-.241l2.218,2.219a.872.872,0,0,0-.176.218Zm.307-1.162a2.043,2.043,0,0,0-.153-.571l2.788,2.788-.132.264Zm.176-3.557-.087-.088-.177.176.088.087Zm0,.748-.087-.088-.177.175.088.088Zm0,.746-.087-.088-.177.175.088.087Zm-.152,2.414,2.349,2.35c-.03.044-.056.085-.079.12s-.046.076-.077.121l-2.26-2.261Zm.262-4.193.088.087.176-.174-.087-.089Zm0,.747.088.087.176-.177-.087-.087Zm.088.834.176-.176-.087-.087-.177.174Zm.285-1.208.088.087.175-.176-.087-.088Zm0,.746.088.088.175-.175-.087-.088Zm.375-.373.087.087.176-.177-.088-.087Z" transform="translate(-363.34 -378.8)"/><g transform="translate(2.979 -17.389)"><path class="c" d="M121.41,122.127H100.564V78.522H143v43.605H122.9a.28.28,0,0,1,.133-.021c.392-.028.785-.05,1.177-.085.429-.039.855-.095,1.281-.162.466-.074.929-.16,1.389-.268s.893-.214,1.339-.322c.189-.046.38-.081.565-.143a21.844,21.844,0,0,0,2.978-1.235,21.542,21.542,0,0,0,9.909-10.282c.016-.034.03-.068.047-.1s.03-.039.07-.029c.024.006.048.014.071.021l.961.294c.04.012.079.024.119.035s.046-.014.034-.044-.034-.076-.052-.113l-.689-1.377q-.425-.85-.85-1.7a.264.264,0,0,0-.072-.114l-.112.062-1.67.956-1.336.766a.438.438,0,0,0-.054.031c-.014.011-.041.013-.036.038s.036.025.056.031l.961.3c.027.008.058.009.07.049-.043.09-.088.183-.134.275a18.711,18.711,0,0,1-5.9,6.99,18.964,18.964,0,0,1-9.465,3.54c-.445.042-.892.063-1.339.072a18.482,18.482,0,0,1-2.158-.086q-.587-.057-1.17-.15c-.581-.091-1.155-.214-1.725-.358a.514.514,0,0,1-.138-.054,1,1,0,0,0-.229-.094c-.21-.063-.42-.128-.627-.2a18.95,18.95,0,0,1-11.043-9.6c-.133-.267-.254-.539-.378-.81a1.314,1.314,0,0,0-2.51.513,1.374,1.374,0,0,0,.123.59,21.584,21.584,0,0,0,12.873,11.771c.482.164.969.309,1.461.439a.227.227,0,0,0,.12.02.194.194,0,0,1,.109.009,16.65,16.65,0,0,0,1.856.331c.234.029.468.056.7.078q.389.038.779.066c.31.022.62.039.93.059A.168.168,0,0,1,121.41,122.127ZM100.592,100.16c0,.025,0,.05,0,.074.019.546.027,1.093.076,1.638.029.33.063.659.1.988.044.37.1.738.168,1.1.059.326.121.651.2.973a1.316,1.316,0,0,0,2.569-.575,19.5,19.5,0,0,1-.4-2.574,18.78,18.78,0,0,1-.065-2.035c.007-.315.02-.629.042-.943s.052-.6.087-.9c.037-.325.082-.649.142-.97.054-.285.118-.567.179-.85A18.912,18.912,0,0,1,107.91,87.7a19.083,19.083,0,0,1,4.894-4.016,18.987,18.987,0,0,1,6.632-2.306c.381-.057.763-.1,1.147-.135.367-.032.735-.057,1.1-.065.488-.011.977-.01,1.465.015.376.02.752.048,1.126.088.436.047.87.111,1.3.188a19.134,19.134,0,0,1,2.326.565,18.656,18.656,0,0,1,3.823,1.675,19.01,19.01,0,0,1,7.946,8.9q.283.649.516,1.317a1.311,1.311,0,0,0,1.335.871,1.318,1.318,0,0,0,1.143-1.762,21.509,21.509,0,0,0-1.2-2.791,21.756,21.756,0,0,0-5.576-6.864,21.328,21.328,0,0,0-3.274-2.2,22.012,22.012,0,0,0-4.257-1.767,21.04,21.04,0,0,0-2.1-.507c-.382-.072-.766-.135-1.151-.187-.34-.046-.682-.082-1.024-.111s-.669-.054-1-.063a23.16,23.16,0,0,0-2.371.04c-.38.029-.759.064-1.137.111q-.708.087-1.41.224a22.078,22.078,0,0,0-3.158.859,21.793,21.793,0,0,0-4.125,1.972,21.215,21.215,0,0,0-3.209,2.419A21.706,21.706,0,0,0,101.5,93.99a21.951,21.951,0,0,0-.587,2.488c-.084.477-.148.957-.2,1.438-.026.23-.039.462-.06.693C100.612,99.125,100.611,99.643,100.592,100.16Z" transform="translate(-100.564 -78.522)"/><path class="d" d="M146.5,510.16a.168.168,0,0,0-.084-.018c-.31-.019-.62-.036-.93-.059q-.39-.028-.779-.066c-.235-.023-.469-.049-.7-.078a16.655,16.655,0,0,1-1.856-.331.194.194,0,0,0-.109-.009.228.228,0,0,1-.12-.02c-.492-.13-.98-.275-1.461-.439a21.619,21.619,0,0,1-12.873-11.771,1.373,1.373,0,0,1-.123-.59,1.314,1.314,0,0,1,2.51-.513c.125.27.246.543.378.81a18.95,18.95,0,0,0,11.043,9.6c.208.069.417.134.627.2a1,1,0,0,1,.229.094.515.515,0,0,0,.138.054c.57.144,1.144.266,1.725.358q.583.092,1.17.15a18.491,18.491,0,0,0,2.158.086c.447-.009.894-.03,1.339-.072a18.964,18.964,0,0,0,9.465-3.54,18.711,18.711,0,0,0,5.9-6.99c.046-.093.09-.186.134-.275-.012-.039-.043-.041-.07-.049l-.961-.3c-.019-.006-.041-.007-.055-.031s.022-.027.036-.038a.444.444,0,0,1,.054-.031l1.336-.766,1.67-.956.112-.062a.264.264,0,0,1,.072.114q.426.849.85,1.7l.689,1.377c.018.037.036.074.052.113s0,.052-.034.044-.079-.023-.119-.035l-.961-.294c-.024-.007-.047-.015-.071-.021-.041-.01-.053-.005-.07.029s-.031.067-.047.1a21.542,21.542,0,0,1-9.909,10.282,21.843,21.843,0,0,1-2.978,1.235c-.185.061-.376.1-.565.143-.446.108-.892.218-1.339.322s-.923.194-1.389.268c-.425.068-.852.124-1.281.162-.392.035-.784.057-1.177.085a.28.28,0,0,0-.133.021Z" transform="translate(-125.656 -466.555)"/><path class="d" d="M100.976,100.371c.019-.517.02-1.035.065-1.551.02-.231.034-.462.06-.693.053-.481.117-.961.2-1.438a21.954,21.954,0,0,1,.587-2.488,21.706,21.706,0,0,1,6.167-9.817,21.214,21.214,0,0,1,3.209-2.419,21.791,21.791,0,0,1,4.125-1.972,22.077,22.077,0,0,1,3.158-.859q.7-.137,1.41-.224c.378-.046.757-.082,1.137-.111a23.167,23.167,0,0,1,2.371-.04c.335.009.67.034,1,.063s.684.066,1.024.111c.385.052.769.115,1.151.187a21.043,21.043,0,0,1,2.1.507A22.013,22.013,0,0,1,133,81.4a21.33,21.33,0,0,1,3.274,2.2,21.726,21.726,0,0,1,6.78,9.655,1.318,1.318,0,0,1-1.143,1.762,1.311,1.311,0,0,1-1.335-.871q-.235-.668-.516-1.317a19.01,19.01,0,0,0-7.946-8.9,18.658,18.658,0,0,0-3.823-1.675,19.137,19.137,0,0,0-2.326-.565c-.432-.077-.866-.141-1.3-.188-.374-.04-.75-.068-1.126-.088-.489-.026-.977-.026-1.465-.015-.368.008-.736.032-1.1.065-.384.034-.766.078-1.147.135a19.026,19.026,0,0,0-14.345,10.617,18.677,18.677,0,0,0-1.4,4.089c-.061.283-.126.566-.179.85-.06.321-.1.645-.142.97-.034.3-.065.6-.087.9s-.035.628-.042.943a18.782,18.782,0,0,0,.065,2.035,19.5,19.5,0,0,0,.4,2.574,1.316,1.316,0,0,1-2.569.575c-.077-.322-.139-.647-.2-.973-.067-.367-.124-.735-.168-1.1-.04-.329-.073-.659-.1-.988-.049-.545-.057-1.091-.076-1.638C100.976,100.421,100.976,100.4,100.976,100.371Z" transform="translate(-100.948 -78.733)"/></g></g></svg>