<svg xmlns="http://www.w3.org/2000/svg" width="961.134" height="730.524" viewBox="0 0 961.134 730.524"><defs><style>.a{fill:#0019b8;}.b,.v{fill:#10bce6;}.c{fill:#f7931e;}.d,.e{fill:#ff5959;}.e,.x{stroke:#f7931e;}.e,.g,.i,.k,.n,.o,.q,.r,.u,.x,.z{stroke-linecap:round;stroke-linejoin:round;}.f{fill:#00a6d6;}.g,.o,.q,.r,.u,.x,.z{fill:none;}.g,.k,.n,.q{stroke:#00ad9f;}.g,.l,.p,.t,.v{mix-blend-mode:multiply;isolation:isolate;}.h,.i{fill:#0363a9;}.i,.o{stroke:#0b43a4;}.j,.k,.t{fill:#46c3df;}.l,.m,.n{fill:#60cbd6;}.l,.p,.t,.v{opacity:0.2;}.p{fill:#5275a0;}.r{stroke:#ff5959;}.s{fill:#00ad9f;}.u{stroke:#0363a9;}.w{fill:#008dc7;}.y{fill:#f36290;}.z{stroke:#f36290;}</style></defs><g transform="translate(84.094 -57.796)"><g transform="translate(-68 -59.22)"><path class="a" d="M279.936,35.437s-100.618-19.764-109.6,77.26,138.35,77.26,89.838,174.283-158.114,66.48-154.52,222.8,181.471,147.332,210.219,88.04,129.366-88.04,215.608-46.716S741.7,675.077,840.52,649.923,969.886,579.85,964.5,506.184s-34.14-154.52,30.544-206.625,122.178-172.487,0-240.763c0,0-39.528-23.077-64.684-25.014Z" transform="translate(-121.661 192.944)"/><path class="b" d="M188.221,133.9c27.5,1.839,39-16.919,51.917-41.031,35.369-66.013,114.131-59.651,140.552-19,18.713,28.792,59.07,22.869,91.716,11.6,32.132-11.091,86.875-21.746,130.478-8.491,38.085,11.575,53.712,53.337,88.43,50.769,75.735-5.6,113.916,69.165,100.2,101.774-8.953,21.285-13.4,45.092-6.119,66.993,8.018,24.121,26.33,43.216,41.132,63.951s26.722,46.657,19.365,70.984c-6.3,20.815-25.078,35.215-36.738,53.624-36.2,57.162-.389,144.766-48.632,192.412-34.533,34.1-90.832,26.231-139.153,32.74-40.294,5.429-78.213,22.35-118.326,28.981-81.23,13.425-163.263-16.147-245.612-16.981-29.007-.294-58.556,2.938-86.652-4.214-37.484-9.544-69.384-38.386-82.388-74.492-17.946-49.824-.942-107.484-21.216-156.424-16.516-39.87-56.905-72.3-54.363-115.326,1.581-26.782,19.88-49.187,32.464-72.945C63.976,263.515,39.213,123.927,188.221,133.9ZM427.928,69.224c-7.226,0-13.084,4.489-13.084,10.025s5.874,9.548,13.084,10.025c23.5,1.553,23.5-7.948,23.5-13.483C451.427,66.945,435.156,69.224,427.928,69.224ZM666.575,111.97a38.672,38.672,0,0,0,22.463,8.715c2.181.113,4.557-.026,6.238-1.408a5.1,5.1,0,0,0,.461-7.162,11.983,11.983,0,0,0-4.43-2.424c-2.686-1.091-5.318-2.654-6.839-5.1a5.019,5.019,0,0,0-1.554-1.938C678.365,100.092,658.307,105.142,666.575,111.97Zm40.028,8.856c2.068.715,4.335.056,6.418-.62,1.334-.433,2.973-1.387,2.614-2.734a2.5,2.5,0,0,0-1.378-1.4c-2.741-1.466-6.293-2.547-9.048-.672S704.535,120.113,706.6,120.826Zm95.569,188.813c.357,3.119,2.281,5.812,4.144,8.352,3.591,4.9,7.238,9.854,11.978,13.675,2,1.618,4.337,3.063,6.921,3.153a10.851,10.851,0,0,0,6.516-2.352,20.729,20.729,0,0,0,8.43-14.307c.882-7.75-2.723-15.295-6.916-21.9-2.6-4.089-5.626-8.164-9.972-10.355-7.284-3.675-12.1-.466-14.135,5.985C807.266,297.831,801.415,303.027,802.172,309.638ZM27,490.074c-3.836,3.38-.375,13.27.757,19.8a12.051,12.051,0,0,0,2.03,5.545c1.692,2.139,4.5,3.015,7.131,3.779,4.67,1.355,10.331,2.5,13.9-.778,2.646-2.433,3.021-6.4,3.015-9.977a93.132,93.132,0,0,0-.526-9.782,10.446,10.446,0,0,0-1.227-4.5,10.02,10.02,0,0,0-4.832-3.487C40.56,487.846,30.833,486.695,27,490.074Zm234.5,247.784c-2.269.454-4.98,1.436-5.307,3.705-.271,1.876,1.308,3.478,2.836,4.617,12.522,9.342,29.373,9.938,45.048,10.157a13.347,13.347,0,0,0,5.409-.671,6.96,6.96,0,0,0,3.4-9.088,11.247,11.247,0,0,0-2.417-3.116C297.869,731.2,277.165,734.715,261.493,737.859Zm312.722-6.321c-14.133,10.34.16,19.565,18.011,12.718,9.62-3.69,18.842-7.333,28.685-9.8,3.183-.8,22.42-4.957,22.422-9.278.005-11.454-21.676-8.75-35.311-6.84C597.028,719.872,585.87,723.011,574.215,731.537Z" transform="translate(53.588 85.267)"/></g><g transform="translate(-79.965 -43.981)"><g transform="translate(127.108 137.389)"><path class="c" d="M649.813,185.832v-7.3h-4.235a15.618,15.618,0,0,0-1.834-4.464l2.983-2.983-5.161-5.161-2.941,2.939a15.62,15.62,0,0,0-4.507-1.92v-4.1h-7.3v4.007a15.624,15.624,0,0,0-4.651,1.874l-2.8-2.8-5.161,5.161,2.746,2.746a15.63,15.63,0,0,0-1.978,4.7h-3.852v7.3h3.845a15.632,15.632,0,0,0,1.974,4.714l-2.733,2.733,5.161,5.161,2.776-2.776a15.626,15.626,0,0,0,4.671,1.886v3.975h7.3v-4.072a15.649,15.649,0,0,0,4.527-1.934l2.92,2.92,5.161-5.161-2.971-2.971a15.619,15.619,0,0,0,1.829-4.476Zm-19.343,3.528a7.177,7.177,0,1,1,7.177-7.177A7.177,7.177,0,0,1,630.47,189.359Z" transform="translate(-6.684 -90.874)"/><path class="c" d="M156.459,224.157V212.251h-6.907a25.471,25.471,0,0,0-2.989-7.282l4.866-4.866-8.42-8.418-4.8,4.795a25.528,25.528,0,0,0-7.351-3.132v-6.7H118.954v6.536a25.458,25.458,0,0,0-7.587,3.057l-4.561-4.561L98.387,200.1l4.479,4.479a25.49,25.49,0,0,0-3.225,7.669H93.355v11.907h6.271a25.5,25.5,0,0,0,3.22,7.689l-4.459,4.459,8.418,8.418,4.528-4.528a25.488,25.488,0,0,0,7.62,3.077v6.483H130.86v-6.642a25.527,25.527,0,0,0,7.384-3.154l4.764,4.764,8.42-8.418-4.846-4.846a25.53,25.53,0,0,0,2.984-7.3Zm-31.552,5.754A11.708,11.708,0,1,1,136.616,218.2,11.709,11.709,0,0,1,124.907,229.911Z" transform="translate(-93.355 -88.011)"/><path class="c" d="M322.623,55.69V49.946H319.29a12.293,12.293,0,0,0-1.442-3.513l2.347-2.347-4.061-4.061-2.314,2.313a12.287,12.287,0,0,0-3.546-1.511V37.6h-5.743V40.75a12.288,12.288,0,0,0-3.66,1.475l-2.2-2.2-4.062,4.061,2.161,2.161a12.314,12.314,0,0,0-1.556,3.7h-3.031V55.69h3.025A12.335,12.335,0,0,0,296.76,59.4l-2.151,2.151,4.062,4.061,2.184-2.184a12.269,12.269,0,0,0,3.676,1.484v3.128h5.743v-3.2a12.282,12.282,0,0,0,3.561-1.52l2.3,2.3L320.2,61.55l-2.338-2.338A12.28,12.28,0,0,0,319.3,55.69ZM307.4,58.466a5.648,5.648,0,1,1,5.648-5.648A5.647,5.647,0,0,1,307.4,58.466Z" transform="translate(21.062 -37.598)"/></g><g transform="translate(34.825 96.494)"><g transform="matrix(-0.819, -0.574, 0.574, -0.819, 736.908, 372.948)"><path class="d" d="M99.151,140.264a233.594,233.594,0,0,0-8.2-32.028C83.529,85.586,73.282,63.777,62.923,42.247,57.519,30.993,35.6,4.955,23.839,0c1.372,29.369,1.484,63.665-1.932,93.314-3.276,28.557,7,50.2-4.2,76.683-1.428,3.388-2.912,6.775-4.4,10.163C7.741,192.759,2.226,205.413.49,218.992c-2.24,17.218,3.108,36.844,18,45.8,10.723,6.439,24.693,6.1,36.144,1.036s20.634-14.334,27.6-24.721C101.754,212.1,105.282,174.645,99.151,140.264Z" transform="translate(0 0)"/><path class="e" d="M.2,214.162c21.924-30.956,23.823-67.025,25.724-104.91A202.289,202.289,0,0,0,0,0" transform="translate(46.878 21.222)"/></g><g transform="translate(749.046 498.121) rotate(11)"><path class="f" d="M27.3,120.79c11.341-10.021,22.817-20.2,31.2-32.8,7.3-10.977,12.011-23.443,18.378-34.984,4.121-7.469,8.985-14.664,11.372-22.854s1.814-17.888-4-24.125c-6.069-6.506-16.51-7.5-24.751-4.152S44.949,12.157,40.138,19.642A84.673,84.673,0,0,0,27.7,52.56c-1.612,10.585-1.2,21.4-2.844,31.98a107.068,107.068,0,0,1-9.022,28.355C12.046,121.086,2.449,135.69,0,144.089,6.782,147.484,22.465,125.064,27.3,120.79Z" transform="translate(0 0)"/><path class="g" d="M62.474,0C51.69,4.72,47.4,17.582,45.152,29.136c-2.56,13.149-1.992,27.39-8.022,39.353C25.772,91.027,10.988,116.683,0,124.348" transform="translate(4.48 16.854)"/></g><g transform="translate(751.136 571.989) rotate(11)"><path class="h" d="M88.8,3.014c9.411-3.716,21.98-5.243,28.014,2.879,5.053,6.8,2.436,16.441-1.054,24.162-2.945,6.516-6.689,13.143-12.9,16.685-4.245,2.42-9.219,3.147-14.071,3.726A337.145,337.145,0,0,1,48,52.824C32.2,52.779,13.067,59.23,0,69.079,16.768,37.906,57.119,15.523,88.8,3.014Z" transform="translate(0 0)"/><path class="i" d="M99.628,0C87.648.51,75.559,1.352,64.061,4.753,52.3,8.231,7.07,28.987,0,37.822" transform="translate(5.679 23.279)"/></g><g transform="translate(734.156 390.296)"><path class="j" d="M28.315,399.824a79.958,79.958,0,0,1,55.932-35.706c16.709-2.245,33.9.881,50.388-2.6a64.211,64.211,0,0,0,48.317-81.27c-3.874-12.9-12.723-25.116-25.535-29.253-6.977-2.247-14.615-1.938-21.748-.22a60.44,60.44,0,0,0-18.336,7.924c-12.9,8.165-23.313,20.734-31.148,34.075-7.11,12.128-24.654,31.015-36.585,43.3-7,7.176-12.084,12.084-12.084,12.084C29.326,358.329,33.157,387.694,28.315,399.824Z" transform="translate(-28.315 -249.401)"/><path class="k" d="M152.517,268.161c-40.144,18.127-83.936,41.877-112.408,75.485" transform="translate(-19.69 -229.274)"/></g><g transform="translate(739.024 250.38)"><path class="l" d="M61.244,368.595s68.254-55.32,82.643-114.707c-14.715,9.314-26.595,23.653-35.533,38.872-8.111,13.835-28.125,35.381-41.735,49.394C65.011,349.586,63.228,358.3,61.244,368.595Z" transform="translate(-57.584 -87.662)"/><path class="l" d="M69.79,244.337c6.266,19.13,14.921,37.55,23.67,55.734,4.564,9.506,23.078,31.5,33.01,35.682-1.159-24.8-1.253-53.771,1.632-78.812,2.767-24.119-5.911-42.4,3.547-64.766,1.206-2.861,2.459-5.722,3.712-8.584-.875.284-1.726.591-2.554.946-15.559,6.668-22.747,23.126-24.072,39.11-1.111,13.194,1.277,26.413,3.05,39.536.828,6.053,1.49,12.249.189,18.184a.557.557,0,0,0-.047.189c-1.632,7.07-11.965,6.668-13.289-.5L94.5,259.092c-1.23-6.574-2.577-13.455-7.969-18.042a11.385,11.385,0,0,0-7.661-2.861C74.425,238.354,71.634,240.955,69.79,244.337Z" transform="translate(-69.265 -183.59)"/><path class="m" d="M57.57,445.142c10.78-56.3,16.45-64.972,11.707-79.084-6.042-17.985-2.646-36.07-8.347-54.166s-9.579-37.557-4.98-55.963c1.454-5.822,4.4-12.166,11.393-12.407a11.37,11.37,0,0,1,7.668,2.854c5.389,4.592,6.751,11.471,7.981,18.042l4.117,21.972c1.338,7.146,11.665,7.564,13.3.48l.04-.177c1.322-5.949.643-12.14-.173-18.177-1.771-13.135-4.157-26.349-3.065-39.557,1.324-15.982,8.517-32.442,24.086-39.094a27.5,27.5,0,0,1,17.559-1.4c16.25,4.169,20.454,20.049,18.073,33.608-1.679,9.544-6.155,18.316-10.2,27.12-9.886,21.5-2.634,41.213-4,64.835C138.945,379.219,57.57,445.142,57.57,445.142Z" transform="translate(-53.919 -178.08)"/><path class="n" d="M64.892,0C56.873,40.056,48.77,80.4,33.206,118.173,28.642,129.254,26.413,143.829,0,173.963" transform="translate(5.869 33.571) rotate(-9)"/></g><g transform="translate(565.44 120.167)"><path class="h" d="M127.827,278.279c7.254-8.287,13.949-16.718,21-24.84,4.567-5.27,9.279-10.415,14.4-15.292,2.542-2.439,5.166-4.794,7.935-7.088a222.828,222.828,0,0,1,54.164-33.085c11.779-5.042,24.22-9.2,34.222-17.235,10-8.018,17.194-21.2,13.866-33.581-2.418-8.927-10-15.871-18.7-19.053-8.679-3.162-18.31-2.914-27.34-.971-25.212,5.435-46.27,23.559-60.591,44.989-.248.372-.517.765-.765,1.157-10.5,16.016-17.834,33.829-24.22,51.973-2.046,5.828-3.988,11.7-5.91,17.545C132.994,251.538,124.108,269.62,127.827,278.279Z" transform="translate(-126.932 -125.694)"/><path class="o" d="M251.471,136.573c-27.5,5.245-46.974,23.457-67.373,42.635a149.357,149.357,0,0,0-42.124,71.378" transform="translate(-135.248 -114.091)"/></g><g transform="translate(538.827 117.911)"><path class="p" d="M185.031,228.881a32.541,32.541,0,0,1-.393,8.6c6.882-1.571,11.655-12.255,14.8-23.889a179.578,179.578,0,0,0,5.084-29.18,126.246,126.246,0,0,0-2.294-35.689c-10.5,16.016-17.834,33.829-24.22,51.973q3.286,9.764,5.621,19.756A57.425,57.425,0,0,1,185.031,228.881Z" transform="translate(-136.526 -98.88)"/><path class="m" d="M181.611,155.306c2.327,10.314,8.56,19.225,14.046,28.266,2.9,4.763,5.6,9.657,8.119,14.617a222.247,222.247,0,0,1,18.3,50.06c1.339,5.683,2.085,11.258,1.011,17.03,13.561-3.1,18.96-41.633,19.882-53.089a124.909,124.909,0,0,0-10.38-60.659c-3.709-8.3-8.493-16.437-15.867-21.748-7.353-5.311-17.776-7.175-25.567-2.546a20.841,20.841,0,0,0-9.173,12.686A31.494,31.494,0,0,0,181.611,155.306Z" transform="translate(-180.837 -124.602)"/><path class="q" d="M214.369,246.707c8.431-21.176,3.309-66-10.217-94.168-4.075-8.487-9.876-16.446-18.008-21.188" transform="translate(-166.918 -117.405)"/></g><g transform="translate(435.479 119.793)"><path class="p" d="M197.326,147.4c2.327,10.314,8.56,19.225,14.046,28.266,2.9,4.763,5.6,9.657,8.119,14.617a49.271,49.271,0,0,0,6.935-20.322c1.141-12-3.445-24.865-13.211-31.93a35.4,35.4,0,0,0-15.516-6.014A31.493,31.493,0,0,0,197.326,147.4Z" transform="translate(-117.679 -131.398)"/><path class="b" d="M201.171,237.412a43.721,43.721,0,0,0,3.511,11.411c6.014,13.015,18.632,24.185,37.549,33.271,0,0,1.054-20.587,1.273-26.094.922-23.592,26.532-36.65,42.73-53.856,8.252-8.779,14.505-19.861,15.668-31.866,1.141-12-3.445-24.865-13.211-31.93-8.186-5.9-18.9-7.2-28.969-6.431-16.241,1.294-32.635,8.1-42.73,20.783a18.7,18.7,0,0,0-1.184,1.492c-6.189,8.45-9.372,18.741-11.7,28.991C200.074,200.938,198.251,219.417,201.171,237.412Z" transform="translate(-199.738 -131.717)"/><path class="g" d="M265.06,141.05c-17.725,9.167-35.48,20.252-45.8,37.328-14.4,23.823-11.261,54.823-.155,80.347" transform="translate(-183.065 -121.763)"/></g><g transform="translate(95.357 233.414)"><path class="m" d="M526.629,346.366c-11.3-18.6-5.528-42.521-9.461-63.926a70.632,70.632,0,0,0-25.276-42.112c-8.221-6.532-19.768-11.2-29.058-6.3-2.013,1.06-4.4,2.552-6.342,1.36a5.069,5.069,0,0,1-1.893-3.476c-2.354-11.56,3.2-24.187-1.339-35.075-2.445-5.863-7.5-10.242-12.86-13.656a70.136,70.136,0,0,0-34.65-10.872c-3.249-.13-6.632-.006-9.539,1.451-5.251,2.633-7.652,9.173-6.948,15.005s3.92,11.052,7.489,15.718c11.868,15.514,29.252,28.9,31.544,48.3a12.592,12.592,0,0,1-.835,7.237c-1.089,2.118-3.112,3.631-4.251,5.724-3.654,6.716,3.406,14.331,10.3,17.634a59.442,59.442,0,0,0,20.08,5.557c4.784.446,10.194.562,13.449,4.1,6.007,6.526-.895,16.96.366,25.741.785,5.48,4.761,9.9,8.752,13.742a157.136,157.136,0,0,0,24.176,19.066c7.02,4.5,14.447,8.469,20.668,14.015s11.25,13.048,11.657,21.374" transform="translate(-389.144 -172.268)"/><path class="q" d="M499.317,320.177c-1.845-9.016-6.04-17.351-10.19-25.563-6.489-12.833-13.1-25.854-22.9-36.379-7.442-7.991-16.514-14.313-24.081-22.186a82.533,82.533,0,0,1-13.6-18.884c-1.957-3.738-3.65-7.667-6.29-10.957-3.137-3.908-7.425-6.691-11.157-10.035a47.826,47.826,0,0,1-11.825-16.309" transform="translate(-376.722 -164.168)"/></g><g transform="translate(67 367.145)"><path class="h" d="M388.255,292.319c2.542,9.8,6.324,19.487,12.813,27.258a58.148,58.148,0,0,0,16.16,13.04A90.866,90.866,0,0,0,427,337.39a117.348,117.348,0,0,0,40.855,9.051c20.417.765,41.413-3.74,61,2.087a60.108,60.108,0,0,1,24.075,13.949,58.564,58.564,0,0,1,10.808,13.66l-2.666-16.946c-4.939-18.227-9.981-36.784-20.066-52.759-6.509-10.353-14.962-19.364-23.951-27.65-14.362-13.267-30.3-24.943-47.882-33.478-14.218-6.9-30.006-11.759-45.712-9.837-15.685,1.9-31.1,11.821-36,26.844C384.328,271.964,385.692,282.5,388.255,292.319Z" transform="translate(-385.65 -235.045)"/><path class="o" d="M546.368,333.237A123.927,123.927,0,0,0,483.477,285.5c-15.838-5.286-32.585-7.3-48.628-11.926s-32.044-12.488-41.449-26.284" transform="translate(-384.291 -221.991)"/></g><g transform="translate(114.095 497.936)"><path class="c" d="M520.37,443.873c-1.117-28.5-15.852-54.823-33.748-77.038-14.926-18.529-32.936-35.487-55.182-43.928-6.968-2.647-14.619-4.422-21.856-2.642s-13.8,7.971-13.931,15.423c-.114,6.288,4.11,11.778,8.553,16.229,14.624,14.647,33.525,24.042,51.24,34.75,30.45,18.4,59.387,42.964,71.471,76.428" transform="translate(-395.651 -319.547)"/><path class="r" d="M501.09,409.041c-18.607-41.507-66.774-78.617-98.547-83.254" transform="translate(-387.638 -309.659)"/></g><g transform="translate(125.508 569.977)"><path class="s" d="M502.514,402.291c.2-3.819-12.254-13.8-15.061-16.35a144.283,144.283,0,0,0-53.565-30.61c-7.9-2.482-16.3-4.282-24.2-2.376s-15.158,8.384-15.935,16.915c-.752,8.27,4.8,16.361,11.876,20.362s15.361,4.606,23.255,4.148c12.2-.711,24.177-3.742,36.423-3.647S494.74,392.059,502.514,402.291Z" transform="translate(-393.682 -352.158)"/><path class="g" d="M490.171,381.006c-25.032-13.561-62.875-22.387-90.349-19.06" transform="translate(-394.025 -342.468)"/></g><g transform="translate(244.929 79.632)"><path class="t" d="M239.377,226.583a43.725,43.725,0,0,0,3.511,11.411,198.734,198.734,0,0,0,18.367-72.773,40.221,40.221,0,0,0-6.057-23.35,18.689,18.689,0,0,0-1.184,1.492c-6.189,8.45-9.372,18.741-11.7,28.991C238.28,190.108,236.457,208.587,239.377,226.583Z" transform="translate(-70.704 -67.906)"/><path class="j" d="M324.831,263.712c-18.69-6.638-38.1-11.932-55.09-22.164C264.6,238.455,259.65,234.857,256,230.1s-5.888-10.835-5.075-16.776c.827-6.043,4.693-11.829,3.391-17.787-.858-3.926-3.8-6.993-6.057-10.324a32.934,32.934,0,0,1-4.226-27.435c2.928-9.847,10.308-17.725,14.507-27.1a45.229,45.229,0,0,0,3.5-24.6c15.679.209,29.988,8.772,45.4,11.63,11.792,2.188,24.059,1,35.745,3.685,21.316,4.9,38.739,23.656,42.054,45.274a31.062,31.062,0,0,1,27.394,9.18,40.318,40.318,0,0,1,10.754,29.467c-4.817,77.348-49.1,117.7-49.1,117.7S331.956,266.244,324.831,263.712Z" transform="translate(-242.729 -106.079)"/><g transform="translate(27.892 18.5)"><path class="k" d="M353.507,253.623c1.943-19.08-4.724-37.94-12.383-55.524-7.466-17.138-16.055-33.937-27.584-48.648s-26.181-27.33-43.476-34.42" transform="translate(-257.496 -115.031)"/><path class="k" d="M281.7,120.694a153.832,153.832,0,0,1-3.842,54.044" transform="translate(-202.316 -108.991)"/><path class="k" d="M354.032,153.631C334.6,141.17,304.718,133.6,281.676,134.923" transform="translate(-281.676 -93.974)"/><path class="k" d="M283.662,145.438c-23.387,9.864-24.35,44.253-24.974,54.023" transform="translate(-163.801 -82.601)"/><path class="k" d="M336.646,168.166c-17.9-12.835-43.757-16.693-62.788-11.907" transform="translate(-248.134 -73.173)"/><path class="k" d="M294.439,116.421a28.246,28.246,0,0,1,6.181,20" transform="translate(-254.749 -113.549)"/><path class="k" d="M328.035,125.787c-8.25-4.224-19.279-5.193-31.077-2.236" transform="translate(-287.26 -107.766)"/></g></g><g transform="translate(543.385 -10) rotate(16)"><g transform="translate(0 0)"><path class="c" d="M34.667,34.517C32,34.377,13.838,20.921,6.843,16.39A19.132,19.132,0,0,1,1.5,11.875,6.742,6.742,0,0,1,.486,5.248C1.728,2.616,3.788-.012,8.986,0c9.051.018,12.191,2.992,16.592,7.541C40.13,22.589,34.667,34.517,34.667,34.517Z" transform="translate(196.592 78.162)"/><path class="c" d="M33.359,11.694c-7.907,3.555-16.36,7.1-24.957,6-3.335-.426-6.975-1.943-8.087-5.118C-.635,9.862.672,6.752,2.825,4.847S7.813,2.02,10.6,1.339C21.13-1.232,35.91.19,46.333,3.152,46.333,3.152,38.078,9.574,33.359,11.694Z" transform="translate(116.468 155.246)"/><path class="c" d="M24.054,16.77c3.528-2.226,7.424-5.208,7.421-9.379S27.109.02,22.925,0,14.858,2.261,11.716,5.02c-13.307,11.68-11.65,25-11.65,25S20.126,19.252,24.054,16.77Z" transform="translate(73.687 33.36)"/><path class="c" d="M25.265,14.5c3.1-1.329,6.292-2.934,8.107-5.771a5.519,5.519,0,0,0,.841-4.677C33.3,1.457,31.68-.867,25.155.318,4.5,4.063,0,18.209,0,18.209S19.782,16.855,25.265,14.5Z" transform="translate(61.982 0)"/><path class="c" d="M26.732,29.886c-8.285-.714-16.84-4.84-22.063-11.312a20.2,20.2,0,0,1-4.434-8.21c-.659-3.07.043-6.59,2.421-8.638,2.9-2.5,7.5-2.1,10.7.01s5.248,5.548,6.91,9C22.476,15.329,26.732,29.886,26.732,29.886Z" transform="translate(0 15.9)"/></g><g transform="translate(12.716 11.146)"><path class="u" d="M129.528,336.75,189.713,283.7c10.694-9.427,21.607-19.126,28.38-31.668,14.557-26.96,6.164-61.991-13.493-85.493s-48.455-37.376-77.384-47.476S68.181,101.875,40.6,88.52C23.311,80.143,5.923,67.664,1.181,49.044A39.971,39.971,0,0,1,7.543,16.087,39.979,39.979,0,0,1,37,0" transform="translate(32.427 0)"/><path class="u" d="M0,0C5.481,16.833,26.833,27.073,36.577,41.655" transform="translate(0 15.408)"/><path class="u" d="M18.611,0C14.405,4.439,9.37,8.11,5.7,13-2.05,23.338-2.7,40.13,8.772,50.551" transform="translate(58.051 34.77)"/><path class="u" d="M63.292,0C45.6,13.638,22.328,22.727,0,23.6" transform="translate(121.4 129.004)"/><path class="u" d="M21,68.085C29.151,44.054,20.27,15.265,0,0" transform="translate(204.214 85.761)"/></g></g><g transform="translate(63.817 108.55) rotate(-17)"><g transform="translate(0 0)"><path class="d" d="M25.98,11.746c1.042-3.223.99-7.181-1.392-9.59A7.067,7.067,0,0,0,17.071.475C-2,8.86.065,38.608.065,38.608S18.151,36,25.98,11.746Z" transform="translate(231.022 3.889)"/><path class="d" d="M47.318,6.947C59.653,29.241,15.81,27.54,0,14.41,0,14.41,36.7-12.243,47.318,6.947Z" transform="translate(210.147 64.414)"/><path class="d" d="M30.341,17.326c2.976-4.08,4.034-10.157.795-14.03C28.721.412,24.516-.478,20.824.233S11.6,4.361,9.241,7.294c-14.429,17.948-7.65,35.515-7.65,35.515S25.466,24.007,30.341,17.326Z" transform="translate(171.69 0)"/><path class="d" d="M27.916,12.089c1.064-3.472.814-7.71-1.885-10.14A8.614,8.614,0,0,0,19.618.031a19.531,19.531,0,0,0-6.559,1.959,20.94,20.94,0,0,0-10.1,10.034c-5.423,11.171-1.739,25-1.739,25S25.26,20.742,27.916,12.089Z" transform="translate(0 60.438)"/><path class="d" d="M15.764,6.825C23.514.018,35.388-2,44.834,2.145a14.906,14.906,0,0,1,6.22,4.669C54.515,11.6,53.3,18.606,49.708,23.3s-9.042,7.547-14.424,9.988C25.527,37.717,10.384,38.6,0,41.252,0,41.252.043,20.632,15.764,6.825Z" transform="translate(66.922 106.614)"/></g><g transform="translate(0.631 12.673)"><path class="u" d="M230.392,0c-6.451,21.113-24.708,37.045-45.031,45.664s-42.712,10.892-64.742,12.319S76.3,60.117,54.992,65.9C34.226,71.538,13.549,83.276,4.64,102.859-6.205,126.693,3.4,155.2,18.625,176.5s35.73,38.475,50.46,60.125c6.766,9.939,12.413,21.58,11.046,33.527-1.823,15.924-15.24,27.654-27.711,37.726" transform="translate(12.314 7.745)"/><path class="u" d="M29.108,0C14.51,16.152,2.84,41.41,0,63" transform="translate(162.817 0)"/><path class="u" d="M50.294,6.3c-8.347,2.216-16.808,4.446-25.443,4.468S6.209,6,0,0" transform="translate(190.723 56.086)"/><path class="u" d="M13,0A43.1,43.1,0,0,0,.019,29.056C-.388,39.921,5.64,53.088,12.875,61.2" transform="translate(0 61.167)"/><path class="u" d="M77.237,0C61.62,14.383,48.018,26.01,30.651,38.223,22.725,43.8,6.985,50.943,0,49.1" transform="translate(17.593 110.474)"/></g></g><g transform="translate(95.25 448.175)"><path class="v" d="M389.863,290.8a90.869,90.869,0,0,0,9.775,4.774,117.35,117.35,0,0,0,40.855,9.051c20.417.765,41.413-3.74,61,2.087a60.107,60.107,0,0,1,24.075,13.949c.682.331,1.364.7,2.046,1.1,1.633-13.825-32.837-31.845-43.315-36.536a124.874,124.874,0,0,0-60.653-10.581c-9.051.723-18.33,2.5-25.79,7.646A27.6,27.6,0,0,0,389.863,290.8Z" transform="translate(-386.535 -274.256)"/><path class="w" d="M426.977,278.635c-9.047.721-18.326,2.5-25.8,7.644s-12.73,14.344-10.986,23.248c2.029,10.374,12.755,17.123,23.246,18.4s20.977-1.612,31.329-3.742a223.385,223.385,0,0,1,69.806-3.191c5.8.651,11.3,1.8,16.375,4.766,1.63-13.833-32.854-31.845-43.331-36.541A124.9,124.9,0,0,0,426.977,278.635Z" transform="translate(-389.859 -269.99)"/><path class="q" d="M512.366,308.679c-17.119-15.047-61.062-25.259-92.137-21.969-9.364.992-18.806,3.786-26,9.857" transform="translate(-380.247 -261.632)"/></g></g></g><g transform="translate(-26 85)"><g transform="translate(84.634 579.92)"><g transform="translate(25.017)"><path class="x" d="M612.687,391.767s-13.627-2.195-18.437-14.219-5.611-16.031-5.611-25.249-5.21-14.429-10.02-16.433" transform="translate(-566.307 -324.551)"/><path class="y" d="M584.052,378.517s11.328-7.759,7.763-14.025S579.429,369.254,584.052,378.517Z" transform="translate(-551.2 -318.385)"/><path class="y" d="M610.742,365.781s-5.508-12.576-12.329-10.243S600.778,368.594,610.742,365.781Z" transform="translate(-585.814 -320.089)"/><path class="y" d="M588.146,356.093s13.311-3.367,12.129-10.479S587.007,345.8,588.146,356.093Z" transform="translate(-565.596 -322.96)"/><path class="c" d="M618.869,338.54s-3.82-13.188-10.887-11.764S608.623,340.03,618.869,338.54Z" transform="translate(-605.248 -326.669)"/></g><g transform="translate(0 18.755)"><path class="d" d="M525.887,399.745c0,2.877,15.252,5.21,34.067,5.21s34.067-2.332,34.067-5.21-15.252-5.211-34.067-5.211S525.887,396.868,525.887,399.745Z" transform="translate(-457.752 -331.801)"/><path class="d" d="M581.271,399.745c0,2.877,15.252,5.21,34.067,5.21s34.068-2.332,34.068-5.21-15.253-5.211-34.068-5.211S581.271,396.868,581.271,399.745Z" transform="translate(-581.271 -331.801)"/><path class="d" d="M581.275,386.03c-.677,2.8,13.6,8.648,31.889,13.07s33.661,5.738,34.337,2.941-13.6-8.648-31.889-13.07S581.952,383.232,581.275,386.03Z" transform="translate(-579.367 -334.097)"/><path class="d" d="M581.287,374.963c-1.245,2.594,11.5,11.292,28.466,19.427s31.727,12.624,32.972,10.03-11.5-11.292-28.467-19.427S582.53,372.368,581.287,374.963Z" transform="translate(-574.589 -336.476)"/><ellipse class="d" cx="34.067" cy="5.21" rx="34.067" ry="5.21" transform="matrix(-0.779, -0.627, 0.627, -0.779, 64.866, 72.002)"/><ellipse class="d" cx="34.067" cy="5.21" rx="34.067" ry="5.21" transform="translate(64.034 71.158) rotate(-128.095)"/><path class="d" d="M581.42,348.206c-2.628,1.172,1.457,16.052,9.123,33.234s16.012,30.16,18.64,28.987-1.458-16.052-9.124-33.234S584.048,347.033,581.42,348.206Z" transform="translate(-541.049 -342.483)"/><path class="d" d="M581.627,344.246c-2.833.5-2.454,15.929.845,34.452s8.271,33.13,11.1,32.626,2.454-15.93-.845-34.453S584.46,343.741,581.627,344.246Z" transform="translate(-525.441 -343.38)"/><path class="d" d="M582.835,343.542c-2.869-.216-6.343,14.818-7.759,33.578s-.237,34.147,2.633,34.363,6.343-14.818,7.759-33.578S585.705,343.759,582.835,343.542Z" transform="translate(-509.574 -343.54)"/><path class="d" d="M585.331,345.973c-2.743-.868-9.57,12.97-15.246,30.908s-8.053,33.183-5.31,34.052,9.569-12.97,15.245-30.907S588.074,346.842,585.331,345.973Z" transform="translate(-496.641 -342.989)"/><ellipse class="d" cx="5.21" cy="34.067" rx="5.21" ry="34.067" transform="translate(72.425 70.899) rotate(-145.442)"/><path class="d" d="M591.094,363.32c-1.845-2.208-15.044,5.783-29.48,17.85s-24.642,23.637-22.8,25.845,15.044-5.784,29.479-17.85S592.939,365.528,591.094,363.32Z" transform="translate(-470.682 -339.071)"/><path class="d" d="M592.848,375.576c-1.212-2.611-16.027,1.7-33.09,9.629s-29.912,16.47-28.7,19.08,16.027-1.7,33.09-9.63S594.061,378.185,592.848,375.576Z" transform="translate(-462.924 -336.341)"/><path class="d" d="M593.726,387.172c-.618-2.811-16.015-1.812-34.39,2.229s-32.771,9.6-32.152,12.406,16.015,1.812,34.39-2.229S594.345,389.981,593.726,387.172Z" transform="translate(-459.049 -333.864)"/></g><g transform="translate(61.708 35.009)"><path class="f" d="M605.056,416.4s4.181-5.575-2.788-12.544c0,0,4.03-23.6-20.036-26.779,0,0-4.541-15.893-18.163-17.71s-24.52,6.812-27.7,18.618c0,0-10.444-3.633-19.98,2.725s-8.627,19.524-8.627,19.524-10.444,3.724-6.358,16.166Z" transform="translate(-500.458 -359.126)"/><path class="h" d="M522.209,397.415a23.29,23.29,0,0,0-12.547-13.228c1.3-13.126-4.026-20.769-9.2-25.03a27.008,27.008,0,0,1,4.521.208c13.622,1.817,18.163,17.71,18.163,17.71,24.066,3.178,20.036,26.779,20.036,26.779,6.969,6.969,2.788,12.544,2.788,12.544h-28.9C522.424,411.3,524.706,404.093,522.209,397.415Z" transform="translate(-441.367 -359.124)"/></g></g><g transform="translate(650.386 605.459)"><g transform="translate(130.399 0.412)"><path class="z" d="M257.962,421.507s15.406-2.48,20.845-16.074,6.344-18.124,6.344-28.547,5.89-16.312,11.328-18.578" transform="translate(-257.962 -345.515)"/><path class="y" d="M271.646,403.028s-12.807-8.771-8.776-15.854S276.873,392.556,271.646,403.028Z" transform="translate(-256.351 -335.044)"/><path class="y" d="M275.4,389.6s6.227-14.219,13.939-11.58S286.664,392.778,275.4,389.6Z" transform="translate(-251.146 -337.939)"/><path class="y" d="M281.21,380.273s-15.049-3.807-13.712-11.847S282.5,368.64,281.21,380.273Z" transform="translate(-254.268 -342.813)"/><path class="y" d="M284.591,362.532s4.319-14.91,12.309-13.3S296.175,364.216,284.591,362.532Z" transform="translate(-247.554 -349.11)"/></g><g transform="translate(0)"><ellipse class="f" cx="38.516" cy="5.891" rx="38.516" ry="5.891" transform="translate(0 70.925)"/><ellipse class="f" cx="38.516" cy="5.891" rx="38.516" ry="5.891" transform="translate(77.031 70.925)"/><path class="f" d="M294.473,391.495c.765,3.161-15.377,9.778-36.053,14.776s-38.056,6.487-38.821,3.324,15.377-9.778,36.054-14.776S293.708,388.332,294.473,391.495Z" transform="translate(-142.567 -332.78)"/><path class="f" d="M289.078,380.332c1.408,2.933-13,12.767-32.183,21.963s-35.87,14.274-37.277,11.34,13-12.767,32.184-21.963S287.672,377.4,289.078,380.332Z" transform="translate(-142.587 -336.819)"/><path class="f" d="M279.657,369.432c2.04,2.534-9.737,15.4-26.306,28.743s-31.654,22.1-33.695,19.565,9.737-15.4,26.306-28.742S277.616,366.9,279.657,369.432Z" transform="translate(-142.625 -340.925)"/><path class="f" d="M267.245,360.517c2.561,2.007-6,17.206-19.127,33.946s-25.839,28.685-28.4,26.676,6-17.2,19.127-33.945S264.684,358.51,267.245,360.517Z" transform="translate(-142.687 -344.325)"/><path class="f" d="M251.233,353.487c2.971,1.326-1.647,18.148-10.315,37.574s-18.1,34.1-21.074,32.773,1.648-18.148,10.315-37.572S248.262,352.162,251.233,353.487Z" transform="translate(-142.813 -347.019)"/><path class="f" d="M233.7,349.52c3.2.57,2.775,18.01-.955,38.952s-9.351,37.457-12.554,36.885-2.775-18.009.956-38.951S230.5,348.95,233.7,349.52Z" transform="translate(-143.164 -348.542)"/><path class="f" d="M216.449,348.816c3.245-.245,7.173,16.751,8.773,37.963s.268,38.6-2.976,38.849-7.171-16.751-8.772-37.963S213.206,349.061,216.449,348.816Z" transform="translate(-145.216 -348.813)"/><ellipse class="f" cx="5.891" cy="38.516" rx="5.891" ry="38.516" transform="translate(48.175 5.15) rotate(-17.559)"/><path class="f" d="M188.326,358.48c2.68-1.846,14.633,10.86,26.7,28.379s19.676,33.216,17,35.06-14.632-10.86-26.7-28.377S185.647,360.326,188.326,358.48Z" transform="translate(-154.99 -345.104)"/><path class="f" d="M177.165,368.64c2.086-2.5,17.009,6.538,33.33,20.18s27.86,26.725,25.774,29.22-17.009-6.538-33.33-20.18S175.078,371.136,177.165,368.64Z" transform="translate(-159.238 -341.226)"/><path class="f" d="M169.389,380.947c1.37-2.95,18.12,1.924,37.411,10.888s33.818,18.621,32.447,21.571-18.12-1.924-37.411-10.886S168.018,383.9,169.389,380.947Z" transform="translate(-162.216 -336.59)"/><path class="f" d="M165.506,392.653c.7-3.178,18.106-2.05,38.881,2.52s37.051,10.849,36.351,14.025-18.106,2.05-38.881-2.52S164.807,395.83,165.506,392.653Z" transform="translate(-163.707 -332.384)"/></g><g transform="translate(57.059 7.878)"><path class="c" d="M243.451,432.164s-22.1-2.266-32.031-12.687-6.383-14.953,0-16.312,10.715,1.359,5.377-9.063-7.349-15.406,0-15.86,10.974,5.438,14.146,1.812-.453-18.578,10.875-24.014,18.493,4.078,11.285,16.765-2.676,15.858,5.933,14.5,15.354,5.438,11.075,9.516-18.326,7.249-13.341,9.968,17.092,3.173,14.664,8.609S247.8,430.352,243.451,432.164Z" transform="translate(-205.232 -354.477)"/><path class="r" d="M229.468,376.777s-4.709,26.455,4.958,46.671" transform="translate(-196.207 -345.761)"/></g></g></g></g></svg>