<svg xmlns="http://www.w3.org/2000/svg" width="200.073" height="326.539" viewBox="0 0 200.073 326.539"><defs><style>.a{fill:#036dad;}.b{fill:#ccc4c0;}.c{fill:#f7931e;}.d{fill:#fcc13d;}.e,.f{fill:#fff;}.f{font-size:13px;font-family:Montserrat-ExtraBold, Montserrat;font-weight:800;}</style></defs><g transform="translate(34.717)"><path class="a" d="M497.148,344.31c0,11.222-44.788,20.319-100.036,20.319s-100.036-9.1-100.036-20.319,44.788-20.32,100.036-20.32S497.148,333.088,497.148,344.31Z" transform="translate(-331.792 -38.09)"/><rect class="b" width="12.435" height="198.837" transform="translate(58.866 107.852)"/><path class="c" d="M601.923,338.47a14.758,14.758,0,0,1-11.524-6.655L564.411,286.8a14.746,14.746,0,0,1,0-13.308l25.988-45.01a14.747,14.747,0,0,1,11.524-6.655H653.9a14.757,14.757,0,0,1,11.524,6.655l25.988,45.01a14.746,14.746,0,0,1,0,13.308l-25.988,45.012A14.768,14.768,0,0,1,653.9,338.47Z" transform="translate(-562.824 -221.83)"/><g transform="translate(6.019 5.121)"><path class="d" d="M647.3,330.648H602.177a15.385,15.385,0,0,1-12.226-7.056l-22.564-39.082a15.375,15.375,0,0,1,0-14.113l22.564-39.082a15.4,15.4,0,0,1,12.226-7.061H647.3a15.406,15.406,0,0,1,12.232,7.061L682.09,270.4a15.374,15.374,0,0,1,0,14.113l-22.562,39.082A15.406,15.406,0,0,1,647.3,330.648Zm-45.118-101.27a10.276,10.276,0,0,0-7.788,4.5l-22.564,39.08a10.241,10.241,0,0,0,0,8.992l22.564,39.084a10.286,10.286,0,0,0,7.788,4.5H647.3a10.28,10.28,0,0,0,7.79-4.5l22.564-39.084a10.256,10.256,0,0,0,0-8.992l-22.564-39.08a10.27,10.27,0,0,0-7.79-4.5Z" transform="translate(-565.672 -224.253)"/></g><g transform="translate(43.949 20.825)"><g transform="translate(16.923)"><path class="e" d="M595.642,271.295s-8.633-39.611,0-39.611S595.642,271.295,595.642,271.295Z" transform="translate(-591.43 -231.684)"/><path class="e" d="M600.048,256.739a4.21,4.21,0,1,1-4.208-4.206A4.208,4.208,0,0,1,600.048,256.739Z" transform="translate(-591.628 -208.472)"/></g><text class="f" transform="translate(18 71.944)"><tspan x="-17.778" y="0">STOP</tspan></text></g></g></svg>