<svg xmlns="http://www.w3.org/2000/svg" xmlns:xlink="http://www.w3.org/1999/xlink" width="151.699" height="178.144" viewBox="0 0 151.699 178.144"><defs><style>.a{fill:url(#a);}</style><linearGradient id="a" x1="1" y1="0.149" x2="0.354" y2="1" gradientUnits="objectBoundingBox"><stop offset="0" stop-color="#00c7fb"/><stop offset="1" stop-color="#1072eb"/></linearGradient></defs><g transform="translate(-1252.581 -310.964)"><path class="a" d="M264,302.677a33.942,33.942,0,1,0,33.942,33.942A33.981,33.981,0,0,0,264,302.677Zm20.152,27.55L259.84,354.543a5.225,5.225,0,0,1-7.392,0l-9.292-9.292a5.226,5.226,0,1,1,7.391-7.391l5.6,5.6,20.622-20.621a5.226,5.226,0,1,1,7.391,7.391Zm0,0" transform="translate(1064.426 63.42)"/><path class="a" d="M151.523,48.333l-.005-.139c-.077-1.711-.129-3.522-.16-5.536a18.88,18.88,0,0,0-17.777-18.5C113.1,23.019,97.253,16.341,83.714,3.145l-.116-.11a11.4,11.4,0,0,0-15.494,0l-.116.11c-13.538,13.2-29.383,19.875-49.865,21.019A18.879,18.879,0,0,0,.347,42.66c-.03,2-.083,3.811-.16,5.534l-.008.322C-.22,69.4-.715,95.4,7.981,118.989A89.708,89.708,0,0,0,29.5,152.512c10.819,10.558,24.989,18.939,42.117,24.911a13.026,13.026,0,0,0,1.726.47,12.752,12.752,0,0,0,5.012,0,13.033,13.033,0,0,0,1.733-.473c17.107-5.983,31.263-14.369,42.072-24.925a89.839,89.839,0,0,0,21.522-33.531C152.413,95.3,151.92,69.258,151.523,48.333ZM75.849,133.469a44.4,44.4,0,1,1,44.4-44.4A44.445,44.445,0,0,1,75.849,133.469Zm0,0" transform="translate(1252.581 310.965)"/></g></svg>