<svg xmlns="http://www.w3.org/2000/svg" xmlns:xlink="http://www.w3.org/1999/xlink" width="132" height="132" viewBox="0 0 132 132"><defs><style>.a,.h{fill:#1e76e2;}.a{stroke:#1e76e2;}.b{fill:#fff;}.c{fill:#ff5959;}.d{fill:#fa502e;}.e{fill:#ffb531;}.f{fill:#ffd54d;}.g{fill:#fdda50;}.i{stroke:none;}.j{fill:none;}.k{filter:url(#a);}</style><filter id="a" x="0" y="0" width="132" height="132" filterUnits="userSpaceOnUse"><feOffset dy="1" input="SourceAlpha"/><feGaussianBlur stdDeviation="5" result="b"/><feFlood flood-color="#608fba" flood-opacity="0.8"/><feComposite operator="in" in2="b"/><feComposite in="SourceGraphic"/></filter></defs><g transform="translate(-321 -307.203)"><g class="k" transform="matrix(1, 0, 0, 1, 321, 307.2)"><g class="a" transform="translate(15 14)"><rect class="i" width="102" height="102" rx="15"/><rect class="j" x="0.5" y="0.5" width="101" height="101" rx="14.5"/></g></g><g transform="translate(-4 -0.148)"><g transform="translate(366 341.604)"><rect class="b" width="56" height="67" rx="5" transform="translate(0 0.451)"/><path class="c" d="M5,0H51a5,5,0,0,1,5,5V7a0,0,0,0,1,0,0H0A0,0,0,0,1,0,7V5A5,5,0,0,1,5,0Z" transform="translate(0 0.451)"/></g><g transform="translate(268.672 358.35) rotate(-14)"><g transform="translate(82.361 26.142)"><path class="c" d="M89.282,265.686l-6.921,21.048,5.937-1.647,3.726,4.873,6.788-20.743Z" transform="translate(-82.361 -265.646)"/><path class="d" d="M271.811,265.275l-9.554,3.481,6.832,20.832,3.725-4.871,5.938,1.647Z" transform="translate(-244.529 -265.275)"/></g><path class="c" d="M271.811,265.275l-9.554,3.481,6.832,20.832,3.725-4.871,5.938,1.647Z" transform="translate(-162.168 -239.133)"/><path class="e" d="M124.362,16.156l-1.872-2.841.647-3.344-2.822-1.906-.684-3.334L116.3,4.048l-1.906-2.822-3.344.647L108.206,0l-2.841,1.872-3.344-.647-1.906,2.822-3.334.684L96.1,8.066,93.274,9.971l.647,3.344-1.872,2.841L93.921,19l-.647,3.344L96.1,24.247l.684,3.334,3.334.684,1.906,2.822,3.344-.647,2.841,1.872,2.841-1.872,3.344.647,1.906-2.822,3.334-.684.684-3.334,2.822-1.906L122.49,19Z" transform="translate(-8.733)"/><path class="f" d="M173.816,72.782a8.984,8.984,0,1,0,8.984,8.984A8.994,8.994,0,0,0,173.816,72.782Z" transform="translate(-74.344 -65.61)"/><path class="g" d="M263.756,80.542Z" transform="translate(-155.3 -64.385)"/></g><g transform="translate(385 357.367)"><path class="h" d="M23.464,38.084a6.409,6.409,0,0,0-1.89-1.339,4.934,4.934,0,0,0-1.978-.356c-.054,0-.117,0-.181,0a2.562,2.562,0,0,0-1.99-1.683,4.026,4.026,0,0,0-3.1.824c.065-.368.172-.806.251-1.122a7.229,7.229,0,0,0,.319-3.054,1.758,1.758,0,0,0-1.6-1.413c-2.042-.114-3.711.985-5.182,1.979-1.545,1.043-2.535,1.665-3.52,1.313-1.2-.428-1.324-3.683-.745-6.583.517-2.612,1.48-7.475,3.946-9.684.831-.743,2.034-1.548,3.022-1.157,1.162.456,2.123,2.37,2.337,4.651a1.753,1.753,0,0,0,3.491-.328c-.347-3.717-2.09-6.623-4.546-7.589-1.471-.572-3.81-.726-6.644,1.811C2.363,17.111,1.224,21.794.4,25.965c-.414,2.083-1.422,8.994,3.01,10.57,2.7.962,4.893-.522,6.655-1.711.323-.217.64-.431.948-.622a4.685,4.685,0,0,0,.293,3.778c1.145,1.722,2.763,1.909,4.807.563.079-.051.17-.11.256-.17A2.379,2.379,0,0,0,17.5,39.5a4.635,4.635,0,0,0,2.009.393,2.783,2.783,0,0,1,.638.054,3.045,3.045,0,0,1,.9.682,11.153,11.153,0,0,0,.964.834,1.753,1.753,0,0,0,2.1-2.807A8.283,8.283,0,0,1,23.464,38.084Z" transform="translate(0 0)"/></g></g></g></svg>