<svg xmlns="http://www.w3.org/2000/svg" width="143.266" height="143.999" viewBox="0 0 143.266 143.999"><defs><style>.a{fill:#1e76e2;}.b{fill:#57a2ff;}.c{fill:#0053b9;}.d{fill:#fff;}.e{fill:#d8ecfe;}.f{fill:#b3dafe;}.g{fill:#c8dbfb;}.h{fill:#ffd54d;}.i{fill:#ffc919;}.j{fill:#ff5959;}.k{fill:#f77f82;}.l{fill:#e0e0de;}.m{fill:#646464;}.n{fill:#ebebe9;}.o{fill:#575353;}</style></defs><g transform="translate(-18.82)"><g transform="translate(31.423 0)"><path class="a" d="M154.5,4.35H148A4.35,4.35,0,0,0,143.646,0H67.98a4.35,4.35,0,0,0-4.35,4.35V119.971a4.35,4.35,0,0,0,4.35,4.35c82.48,0,76.052.254,77.472-.4a4.363,4.363,0,0,0,2.331-2.616H154.5c0-.835,0-115.328,0-116.958Z" transform="translate(-63.63)"/></g><path class="b" d="M357.176,0h-9.044a4.35,4.35,0,0,1,4.35,4.35V119.971a4.35,4.35,0,0,1-4.35,4.35h9.044a4.35,4.35,0,0,0,4.35-4.35V4.35A4.35,4.35,0,0,0,357.176,0Z" transform="translate(-236.693)"/><path class="c" d="M174.437,54.611,154.343,34.517H93.848a6.014,6.014,0,0,0-6.013,6.013V148.05a6.025,6.025,0,0,0,.1,1.081h82.15a4.35,4.35,0,0,0,4.35-4.35Z" transform="translate(-49.605 -24.809)"/><path class="d" d="M202.573,55.731l-10.2-6.366-8.8-14.847H123.079a6.014,6.014,0,0,0-6.013,6.013V148.05a6.014,6.014,0,0,0,6.013,6.013h79.377c.039,0,.078-.005.117-.006Z" transform="translate(-70.614 -24.809)"/><path class="e" d="M403.581,108.6l-9.043-5.647v94.284a6.014,6.014,0,0,1-6.013,6.013h9.044a6.014,6.014,0,0,0,6.013-6.013V108.6Z" transform="translate(-265.725 -74.001)"/><path class="f" d="M359.554,59.413h18.882l-24.9-24.9V53.4A6.014,6.014,0,0,0,359.554,59.413Z" transform="translate(-240.581 -24.809)"/><g transform="translate(58.709 43.88)"><path class="g" d="M225.362,160.369h-62.54a2.175,2.175,0,0,1,0-4.35h62.54a2.175,2.175,0,1,1,0,4.35Z" transform="translate(-160.647 -156.019)"/><g transform="translate(0 14.391)"><path class="g" d="M225.362,211.539h-62.54a2.175,2.175,0,0,1,0-4.35h62.54a2.175,2.175,0,1,1,0,4.35Z" transform="translate(-160.647 -207.189)"/></g></g><path class="h" d="M147.127,211.8h-4.714a5.818,5.818,0,0,0-5.023-2.915H64.365l-7.636-12.634H52.1a4.349,4.349,0,0,0-3.482-1.745H23.17a4.35,4.35,0,0,0-4.35,4.35V278a5.8,5.8,0,0,0,5.8,5.8H137.389a5.813,5.813,0,0,0,2.793-.724h.011a5.83,5.83,0,0,0,1.858-1.632h5.075V211.8Z" transform="translate(0 -139.802)"/><g transform="translate(48.618 54.705)"><path class="i" d="M128.625,196.841l6.3,12.046h9.044l-6.3-12.046a4.35,4.35,0,0,0-3.855-2.334H124.77A4.35,4.35,0,0,1,128.625,196.841Z" transform="translate(-124.77 -194.507)"/><path class="i" d="M449.445,245.634H440.4a5.8,5.8,0,0,1,5.8,5.8v63.314a5.8,5.8,0,0,1-5.8,5.8h9.043a5.8,5.8,0,0,0,5.8-5.8V251.435A5.8,5.8,0,0,0,449.445,245.634Z" transform="translate(-351.631 -231.255)"/></g><g transform="translate(99.023 78.192)"><path class="j" d="M212.786,337.517H177.752A1.752,1.752,0,0,1,176,335.766V321.752A1.752,1.752,0,0,1,177.752,320h35.035a1.752,1.752,0,0,1,1.752,1.752v14.014A1.752,1.752,0,0,1,212.786,337.517Zm-33.283-3.5h31.531V323.5H179.5Zm0,0" transform="translate(-176 -279.71)"/><path class="k" d="M208,352h7.007v3.5H208Zm0,0" transform="translate(-200.993 -304.703)"/><path class="k" d="M256,352h14.014v3.5H256Zm0,0" transform="translate(-238.483 -304.703)"/><path class="l" d="M240,218.513,250.51,208l24.524,24.524-10.51,10.509Zm0,0" transform="translate(-225.986 -192.237)"/><path class="m" d="M322.276,136a10.511,10.511,0,0,0-10.51,10.51v.876L296,164.028l8.759,8.759L321.4,157.021h.876a10.51,10.51,0,1,0,0-21.021Zm0,0" transform="translate(-269.724 -136)"/><path class="n" d="M216,261.251,221.259,256l24.524,24.524-5.255,5.255Zm0,0" transform="translate(-207.244 -229.721)"/><path class="o" d="M342.273,140.238c-7.258,18.353-18.6,27.115-26.183,31.5l4.36,4.36,16.641-15.766h.876a10.51,10.51,0,0,0,4.306-20.093Zm0,0" transform="translate(-285.415 -139.31)"/></g></g></svg>