<svg xmlns="http://www.w3.org/2000/svg" width="127.293" height="151.311" viewBox="0 0 127.293 151.311"><defs><style>.a{fill:#dfdefd;}.b{fill:#fff;}.c{fill:#1e76e2;}.d{fill:#c8dbfb;}.e{fill:#f05540;}.f{fill:#f3705a;}.g{fill:#ffd15c;}.h{fill:#f7b64c;}</style></defs><g transform="translate(-355.492 -335.738)"><g transform="translate(358 346.192)"><rect class="a" width="119.403" height="136.857" rx="5" transform="translate(-2.507 4)"/><rect class="b" width="114.388" height="136.857" rx="5" transform="translate(0 0)"/><path class="c" d="M5,0H109.388a5,5,0,0,1,5,5v9.3a0,0,0,0,1,0,0H0a0,0,0,0,1,0,0V5A5,5,0,0,1,5,0Z" transform="translate(0 0)"/><g transform="translate(21.038 68.522)"><path class="d" d="M36.354,11.708H85.791a2.354,2.354,0,1,0,0-4.708H36.354a2.354,2.354,0,0,0,0,4.708Z" transform="translate(-34 -7)"/><path class="d" d="M50.354,16.708H66.833a2.354,2.354,0,1,0,0-4.708H50.354a2.354,2.354,0,0,0,0,4.708Z" transform="translate(-48 -0.229)"/></g><g transform="translate(21.039 40.522)"><path class="d" d="M36.354,11.708H85.791a2.354,2.354,0,1,0,0-4.708H36.354a2.354,2.354,0,0,0,0,4.708Z" transform="translate(-34 -7)"/><path class="d" d="M50.354,16.708H66.833a2.354,2.354,0,1,0,0-4.708H50.354a2.354,2.354,0,0,0,0,4.708Z" transform="translate(-48 -0.229)"/></g></g><path class="c" d="M236.687,384.086c-1.818,4.045-.6,6.018.744,6.961,3.144,2.208,7.028-1.273,8.9-2.951a6.285,6.285,0,0,0,2.911,3.105c3.249,1.646,5.968.022,7.94-2.046a8.058,8.058,0,0,0,1.74,2.193c1.759,1.545,4.288,2.081,6.953,2.081a30.661,30.661,0,0,0,7.032-.952,2.241,2.241,0,1,0-1.058-4.355c-4.74,1.151-8.56,1.1-9.969-.141a5.626,5.626,0,0,1-1.492-3.953,2.241,2.241,0,0,0-4.139-1.115c-2.24,3.578-3.775,4.9-4.98,4.291a1.924,1.924,0,0,1-.963-1.27,3.881,3.881,0,0,1,.409-2.912,2.241,2.241,0,1,0-3.814-2.353,19,19,0,0,1-3.566,4.095,16.013,16.013,0,0,1-3,2.283c.231-.843.988-2.46,3.093-5.553,2.233-3.281,4.486-6.535,6.857-9.725l.043-.057a2.241,2.241,0,0,0-3.4-2.908c-5.063,5.149-13.269,7.584-20.906,6.2a2.241,2.241,0,0,0-.8,4.411,29.249,29.249,0,0,0,15.023-1.234,58.739,58.739,0,0,0-3.56,5.905Z" transform="matrix(0.951, -0.309, 0.309, 0.951, 81.317, 173.893)"/><g transform="translate(344.852 257.21)"><path class="e" d="M262.354,381.911l-9.86-3.451-5.176,8.874-11.585-32.29,15.036-5.176Z" transform="translate(-124.668 -240.281)"/><path class="f" d="M161.067,381.911l9.86-3.451,5.176,8.874,11.585-32.29-15.036-5.176Z" transform="translate(-67.256 -240.281)"/><circle class="g" cx="22.184" cy="22.184" r="22.184" transform="translate(93.564 78.528)"/><circle class="h" cx="13.803" cy="13.803" r="13.803" transform="translate(101.945 86.909)"/></g></g></svg>