<svg xmlns="http://www.w3.org/2000/svg" viewBox="0 0 132 132" width="132" height="132">
	<style>
		tspan { white-space:pre }
		.shp0 { fill: #1e76e2 } 
		.shp1 { fill: none;stroke: #1e76e2 } 
		.shp2 { fill: none;stroke: #1e76e2;stroke-width: 0.746 } 
		.shp3 { fill: #5399ff } 
		.shp4 { fill: #ff5959 } 
		.shp5 { fill: #10bce6 } 
		.shp6 { fill: #ffb531 } 
		.shp7 { fill: #cbe0ff } 
		.shp8 { fill: #ffffff } 
	</style>
	<g id="Layer">
		<g id="Layer">
			<g id="Layer">
				<path id="Layer" class="shp0" d="M30 14L102 14C110.3 14 117 20.7 117 29L117 101C117 109.29 110.3 116 102 116L30 116C21.7 116 15 109.29 15 101L15 29C15 20.7 21.7 14 30 14Z" />
				<path id="Layer" class="shp1" d="M30 14.5L102 14.5C110.02 14.5 116.5 20.98 116.5 29L116.5 101C116.5 109.02 110.02 115.5 102 115.5L30 115.5C21.98 115.5 15.5 109.02 15.5 101L15.5 29C15.5 20.98 21.98 14.5 30 14.5Z" />
			</g>
		</g>
	</g>
	<g id="Layer">
		<g id="Layer">
			<g id="Layer">
				<path id="Layer" class="shp0" d="M39.14 25.73L92.84 25.73C99.02 25.73 104.03 30.72 104.03 36.9L104.03 90.6C104.03 96.78 99.04 101.79 92.86 101.79L39.16 101.79C32.98 101.79 27.97 96.8 27.97 90.62L27.97 36.92C27.97 30.74 32.96 25.73 39.14 25.73Z" />
				<path id="Layer" class="shp2" d="M39.14 26.1L92.84 26.1C98.82 26.1 103.66 30.92 103.66 36.9L103.66 90.6C103.66 96.58 98.84 101.42 92.86 101.42L39.16 101.42C33.18 101.42 28.34 96.6 28.34 90.62L28.34 36.92C28.34 30.94 33.16 26.1 39.14 26.1Z" />
			</g>
		</g>
		<g id="Layer">
			<path id="Layer" class="shp3" d="M54.07 42.14L88.37 42.14C88.86 42.14 89.35 42.23 89.8 42.42C90.25 42.61 90.66 42.88 91.01 43.23C91.36 43.57 91.63 43.99 91.82 44.44C92.01 44.89 92.1 45.37 92.1 45.86L92.1 88.37C92.1 88.86 92.01 89.35 91.82 89.8C91.63 90.25 91.36 90.66 91.01 91.01C90.66 91.36 90.25 91.63 89.8 91.82C89.35 92.01 88.86 92.1 88.37 92.1L54.07 92.1C53.58 92.1 53.09 92.01 52.64 91.82C52.19 91.63 51.78 91.36 51.43 91.01C51.08 90.66 50.81 90.25 50.62 89.8C50.44 89.35 50.34 88.86 50.34 88.37L50.34 45.86C50.34 45.37 50.44 44.89 50.62 44.44C50.81 43.99 51.08 43.57 51.43 43.23C51.78 42.88 52.19 42.61 52.64 42.42C53.09 42.23 53.58 42.14 54.07 42.14L54.07 42.14Z" />
			<path id="Layer" class="shp4" d="M54.07 42.14L88.37 42.14C88.86 42.14 89.35 42.23 89.8 42.42C90.25 42.61 90.66 42.88 91.01 43.23C91.36 43.57 91.63 43.99 91.82 44.44C92.01 44.89 92.1 45.37 92.1 45.86L92.1 47.36L50.34 47.36L50.34 45.86C50.34 45.37 50.44 44.89 50.62 44.44C50.81 43.99 51.08 43.57 51.43 43.23C51.78 42.88 52.19 42.61 52.64 42.42C53.09 42.23 53.58 42.14 54.07 42.14L54.07 42.14Z" />
			<g id="Layer">
				<path id="Layer" class="shp5" d="M62.16 57.68L80.21 57.68C80.45 57.7 80.68 57.61 80.85 57.45C81.02 57.29 81.12 57.06 81.12 56.82C81.12 56.59 81.02 56.36 80.85 56.2C80.68 56.04 80.45 55.95 80.21 55.97L62.16 55.97C61.95 55.98 61.74 56.08 61.59 56.23C61.44 56.39 61.36 56.61 61.36 56.82C61.36 57.04 61.44 57.25 61.59 57.41C61.74 57.57 61.95 57.67 62.16 57.68Z" />
				<path id="Layer" class="shp5" d="M62.16 61.98L68.18 61.98C68.42 61.99 68.65 61.91 68.82 61.75C68.99 61.58 69.09 61.36 69.09 61.12C69.09 60.88 68.99 60.66 68.82 60.5C68.65 60.33 68.42 60.25 68.18 60.26L62.16 60.26C61.93 60.25 61.7 60.33 61.52 60.5C61.35 60.66 61.25 60.88 61.25 61.12C61.25 61.36 61.35 61.58 61.52 61.75C61.7 61.91 61.93 61.99 62.16 61.98Z" />
			</g>
			<path id="Layer" class="shp6" d="M63.84 81.37C64.03 80.98 64.09 80.55 64.02 80.12C63.95 79.7 63.74 79.31 63.44 79C63.13 78.7 62.74 78.49 62.32 78.42C61.89 78.35 61.46 78.41 61.07 78.6C60.93 78.19 60.66 77.84 60.31 77.59C59.96 77.34 59.54 77.21 59.11 77.21C58.68 77.21 58.26 77.34 57.91 77.59C57.56 77.84 57.29 78.19 57.15 78.6C56.76 78.41 56.33 78.35 55.9 78.43C55.48 78.5 55.09 78.7 54.79 79.01C54.48 79.31 54.28 79.7 54.21 80.13C54.14 80.55 54.2 80.98 54.38 81.37C53.98 81.51 53.62 81.78 53.38 82.13C53.13 82.48 52.99 82.9 52.99 83.33C52.99 83.76 53.13 84.18 53.38 84.53C53.62 84.88 53.98 85.15 54.38 85.29C54.2 85.68 54.14 86.11 54.21 86.54C54.28 86.96 54.49 87.35 54.79 87.65C55.1 87.96 55.49 88.16 55.91 88.23C56.33 88.3 56.77 88.24 57.16 88.06C57.3 88.46 57.56 88.82 57.91 89.06C58.27 89.31 58.69 89.45 59.12 89.45C59.55 89.45 59.97 89.31 60.32 89.06C60.67 88.82 60.93 88.46 61.08 88.06C61.46 88.24 61.9 88.3 62.32 88.23C62.75 88.16 63.14 87.95 63.44 87.65C63.74 87.34 63.94 86.95 64.02 86.53C64.09 86.11 64.03 85.67 63.84 85.28C64.25 85.14 64.59 84.87 64.84 84.52C65.09 84.17 65.22 83.76 65.22 83.33C65.22 82.9 65.09 82.48 64.84 82.13C64.59 81.78 64.25 81.52 63.84 81.37Z" />
			<g id="Layer">
				<path id="Layer" class="shp5" d="M80.21 68.83L62.17 68.83C61.93 68.85 61.7 68.76 61.53 68.6C61.35 68.44 61.26 68.21 61.26 67.98C61.26 67.74 61.35 67.51 61.53 67.35C61.7 67.19 61.93 67.1 62.17 67.12L80.21 67.12C80.43 67.13 80.64 67.23 80.79 67.39C80.94 67.55 81.02 67.76 81.02 67.98C81.02 68.2 80.94 68.41 80.79 68.57C80.64 68.73 80.43 68.82 80.21 68.83L80.21 68.83Z" />
				<path id="Layer" class="shp5" d="M80.21 73.13L74.2 73.13C73.96 73.14 73.73 73.06 73.56 72.9C73.39 72.74 73.29 72.51 73.29 72.27C73.29 72.04 73.39 71.81 73.56 71.65C73.73 71.49 73.96 71.4 74.2 71.42L80.21 71.42C80.45 71.4 80.68 71.49 80.85 71.65C81.03 71.81 81.12 72.04 81.12 72.27C81.12 72.51 81.03 72.74 80.85 72.9C80.68 73.06 80.45 73.14 80.21 73.13Z" />
			</g>
		</g>
		<g id="Layer">
			<path id="Layer" class="shp7" d="M49.59 39.15L83.9 39.15C84.39 39.15 84.87 39.25 85.33 39.44C85.78 39.62 86.19 39.9 86.53 40.24C86.88 40.59 87.16 41 87.34 41.45C87.53 41.91 87.63 42.39 87.63 42.88L87.63 85.39C87.63 85.88 87.53 86.36 87.34 86.82C87.16 87.27 86.88 87.68 86.53 88.03C86.19 88.37 85.78 88.65 85.33 88.83C84.87 89.02 84.39 89.12 83.9 89.12L49.59 89.12C49.1 89.12 48.62 89.02 48.17 88.83C47.71 88.65 47.3 88.37 46.96 88.03C46.61 87.68 46.34 87.27 46.15 86.82C45.96 86.36 45.86 85.88 45.86 85.39L45.86 42.88C45.86 42.39 45.96 41.91 46.15 41.45C46.34 41 46.61 40.59 46.96 40.24C47.3 39.9 47.71 39.62 48.17 39.44C48.62 39.25 49.1 39.15 49.59 39.15L49.59 39.15Z" />
			<path id="Layer" class="shp4" d="M49.59 39.15L83.9 39.15C84.39 39.15 84.87 39.25 85.33 39.44C85.78 39.62 86.19 39.9 86.53 40.24C86.88 40.59 87.16 41 87.34 41.45C87.53 41.91 87.63 42.39 87.63 42.88L87.63 44.37L45.86 44.37L45.86 42.88C45.86 42.39 45.96 41.91 46.15 41.45C46.34 41 46.61 40.59 46.96 40.24C47.3 39.9 47.71 39.62 48.17 39.44C48.62 39.25 49.1 39.15 49.59 39.15L49.59 39.15Z" />
			<g id="Layer">
				<path id="Layer" class="shp5" d="M57.69 54.7L75.74 54.7C75.97 54.71 76.21 54.63 76.38 54.47C76.55 54.3 76.65 54.08 76.65 53.84C76.65 53.6 76.55 53.38 76.38 53.22C76.21 53.05 75.97 52.97 75.74 52.98L57.69 52.98C57.47 53 57.27 53.09 57.12 53.25C56.97 53.41 56.88 53.62 56.88 53.84C56.88 54.06 56.97 54.27 57.12 54.43C57.27 54.59 57.47 54.69 57.69 54.7Z" />
				<path id="Layer" class="shp5" d="M57.69 59L63.71 59C63.94 59.01 64.17 58.93 64.35 58.76C64.52 58.6 64.62 58.37 64.62 58.14C64.62 57.9 64.52 57.68 64.35 57.51C64.17 57.35 63.94 57.27 63.71 57.28L57.69 57.28C57.45 57.27 57.22 57.35 57.05 57.51C56.88 57.68 56.78 57.9 56.78 58.14C56.78 58.37 56.88 58.6 57.05 58.76C57.22 58.93 57.45 59.01 57.69 59Z" />
			</g>
			<path id="Layer" class="shp6" d="M59.37 78.39C59.56 78 59.62 77.56 59.54 77.14C59.47 76.71 59.27 76.32 58.96 76.02C58.66 75.71 58.27 75.51 57.84 75.44C57.42 75.37 56.98 75.43 56.59 75.61C56.45 75.21 56.19 74.86 55.84 74.61C55.48 74.36 55.06 74.23 54.63 74.23C54.2 74.23 53.78 74.36 53.43 74.61C53.08 74.86 52.82 75.21 52.67 75.61C52.29 75.43 51.85 75.37 51.43 75.44C51 75.52 50.61 75.72 50.31 76.02C50.01 76.33 49.81 76.72 49.73 77.14C49.66 77.57 49.72 78 49.91 78.39C49.5 78.53 49.15 78.8 48.9 79.15C48.65 79.5 48.52 79.92 48.52 80.35C48.52 80.78 48.65 81.2 48.9 81.55C49.15 81.9 49.5 82.17 49.91 82.31C49.72 82.7 49.66 83.13 49.74 83.56C49.81 83.98 50.01 84.37 50.32 84.67C50.62 84.97 51.01 85.18 51.43 85.25C51.86 85.32 52.29 85.26 52.68 85.08C52.82 85.48 53.09 85.83 53.44 86.08C53.79 86.33 54.21 86.46 54.64 86.46C55.07 86.46 55.49 86.33 55.84 86.08C56.19 85.83 56.46 85.48 56.6 85.08C56.99 85.26 57.42 85.32 57.85 85.25C58.27 85.17 58.66 84.97 58.96 84.67C59.27 84.36 59.47 83.97 59.54 83.55C59.61 83.12 59.55 82.69 59.37 82.3C59.77 82.16 60.12 81.89 60.37 81.54C60.61 81.19 60.74 80.77 60.74 80.35C60.74 79.92 60.61 79.5 60.37 79.15C60.12 78.8 59.77 78.53 59.37 78.39Z" />
			<g id="Layer">
				<path id="Layer" class="shp5" d="M75.74 65.85L57.69 65.85C57.46 65.86 57.22 65.78 57.05 65.62C56.88 65.46 56.78 65.23 56.78 64.99C56.78 64.76 56.88 64.53 57.05 64.37C57.22 64.21 57.46 64.12 57.69 64.14L75.74 64.14C75.96 64.15 76.16 64.24 76.31 64.4C76.46 64.56 76.55 64.77 76.55 64.99C76.55 65.21 76.46 65.42 76.31 65.58C76.16 65.74 75.96 65.84 75.74 65.85L75.74 65.85Z" />
				<path id="Layer" class="shp5" d="M75.74 70.15L69.72 70.15C69.49 70.16 69.26 70.08 69.08 69.92C68.91 69.75 68.81 69.53 68.81 69.29C68.81 69.05 68.91 68.83 69.08 68.67C69.26 68.5 69.49 68.42 69.72 68.43L75.74 68.43C75.98 68.42 76.21 68.5 76.38 68.67C76.55 68.83 76.65 69.05 76.65 69.29C76.65 69.53 76.55 69.75 76.38 69.92C76.21 70.08 75.98 70.16 75.74 70.15Z" />
			</g>
		</g>
		<g id="Layer">
			<path id="Layer" class="shp8" d="M43.63 35.42L77.93 35.42C79.99 35.42 81.66 37.09 81.66 39.15L81.66 81.66C81.66 83.72 79.99 85.39 77.93 85.39L43.63 85.39C41.57 85.39 39.9 83.72 39.9 81.66L39.9 39.15C39.9 37.09 41.57 35.42 43.63 35.42Z" />
			<path id="Layer" class="shp4" d="M43.63 35.42L77.93 35.42C78.42 35.42 78.91 35.52 79.36 35.71C79.81 35.89 80.22 36.17 80.57 36.52C80.92 36.86 81.19 37.27 81.38 37.73C81.56 38.18 81.66 38.66 81.66 39.15L81.66 40.64L39.9 40.64L39.9 39.15C39.9 38.66 39.99 38.18 40.18 37.73C40.37 37.27 40.64 36.86 40.99 36.52C41.34 36.17 41.75 35.89 42.2 35.71C42.65 35.52 43.14 35.42 43.63 35.42L43.63 35.42Z" />
			<g id="Layer">
				<path id="Layer" class="shp5" d="M51.72 50.97L69.77 50.97C70.01 50.98 70.24 50.9 70.41 50.74C70.58 50.58 70.68 50.35 70.68 50.11C70.68 49.88 70.58 49.65 70.41 49.49C70.24 49.32 70.01 49.24 69.77 49.25L51.72 49.25C51.51 49.27 51.3 49.36 51.15 49.52C51 49.68 50.92 49.89 50.92 50.11C50.92 50.33 51 50.54 51.15 50.7C51.3 50.86 51.51 50.96 51.72 50.97Z" />
				<path id="Layer" class="shp5" d="M51.72 55.27L57.74 55.27C57.98 55.28 58.21 55.2 58.38 55.03C58.55 54.87 58.65 54.65 58.65 54.41C58.65 54.17 58.55 53.95 58.38 53.78C58.21 53.62 57.98 53.54 57.74 53.55L51.72 53.55C51.49 53.54 51.26 53.62 51.08 53.78C50.91 53.95 50.81 54.17 50.81 54.41C50.81 54.65 50.91 54.87 51.08 55.03C51.26 55.2 51.49 55.28 51.72 55.27Z" />
			</g>
			<path id="Layer" class="shp6" d="M53.4 74.66C53.59 74.27 53.65 73.83 53.58 73.41C53.51 72.99 53.3 72.59 53 72.29C52.69 71.99 52.3 71.78 51.88 71.71C51.45 71.64 51.02 71.7 50.63 71.89C50.49 71.48 50.22 71.13 49.87 70.88C49.52 70.63 49.1 70.5 48.67 70.5C48.24 70.5 47.82 70.63 47.47 70.88C47.12 71.13 46.85 71.48 46.71 71.89C46.32 71.7 45.88 71.64 45.46 71.72C45.04 71.79 44.65 71.99 44.34 72.3C44.04 72.6 43.84 72.99 43.77 73.41C43.69 73.84 43.76 74.27 43.94 74.66C43.53 74.8 43.18 75.07 42.94 75.42C42.69 75.77 42.55 76.19 42.55 76.62C42.55 77.05 42.69 77.47 42.94 77.82C43.18 78.17 43.53 78.44 43.94 78.58C43.76 78.97 43.7 79.4 43.77 79.83C43.84 80.25 44.05 80.64 44.35 80.94C44.65 81.25 45.04 81.45 45.47 81.52C45.89 81.59 46.33 81.53 46.71 81.35C46.86 81.75 47.12 82.1 47.47 82.35C47.83 82.6 48.24 82.73 48.67 82.73C49.1 82.73 49.52 82.6 49.88 82.35C50.23 82.1 50.49 81.75 50.64 81.35C51.02 81.53 51.46 81.59 51.88 81.52C52.3 81.44 52.69 81.24 53 80.94C53.3 80.63 53.5 80.24 53.58 79.82C53.65 79.4 53.59 78.96 53.4 78.57C53.81 78.43 54.15 78.16 54.4 77.81C54.65 77.46 54.78 77.04 54.78 76.62C54.78 76.19 54.65 75.77 54.4 75.42C54.15 75.07 53.81 74.8 53.4 74.66Z" />
			<g id="Layer">
				<path id="Layer" class="shp5" d="M69.77 62.12L51.73 62.12C51.49 62.14 51.26 62.05 51.09 61.89C50.91 61.73 50.82 61.5 50.82 61.26C50.82 61.03 50.91 60.8 51.09 60.64C51.26 60.48 51.49 60.39 51.73 60.41L69.77 60.41C69.99 60.42 70.2 60.52 70.35 60.68C70.5 60.83 70.58 61.05 70.58 61.26C70.58 61.48 70.5 61.69 70.35 61.85C70.2 62.01 69.99 62.11 69.77 62.12L69.77 62.12Z" />
				<path id="Layer" class="shp5" d="M69.77 66.42L63.76 66.42C63.52 66.43 63.29 66.35 63.12 66.19C62.94 66.02 62.85 65.8 62.85 65.56C62.85 65.32 62.94 65.1 63.12 64.94C63.29 64.77 63.52 64.69 63.76 64.7L69.77 64.7C70.01 64.69 70.24 64.77 70.41 64.94C70.59 65.1 70.68 65.32 70.68 65.56C70.68 65.8 70.59 66.02 70.41 66.19C70.24 66.35 70.01 66.43 69.77 66.42Z" />
			</g>
		</g>
	</g>
</svg>