<svg xmlns="http://www.w3.org/2000/svg" xmlns:xlink="http://www.w3.org/1999/xlink" width="91.37" height="91.37" viewBox="0 0 91.37 91.37"><defs><style>.a{fill:url(#a);}.b{fill:#faf7f7;}.c{fill:#fff;}.d{fill:#1e76e2;}.e{filter:url(#b);}</style><linearGradient id="a" x1="0.101" y1="0.28" x2="0.973" y2="0.643" gradientUnits="objectBoundingBox"><stop offset="0" stop-color="#1072eb"/><stop offset="1" stop-color="#07a5f5"/></linearGradient><filter id="b" x="42.734" y="47.613" width="40.93" height="40.93" filterUnits="userSpaceOnUse"><feOffset dy="3" input="SourceAlpha"/><feGaussianBlur stdDeviation="3" result="c"/><feFlood flood-opacity="0.161"/><feComposite operator="in" in2="c"/><feComposite in="SourceGraphic"/></filter></defs><g transform="translate(-34.939 10.249)"><circle class="a" cx="45.685" cy="45.685" r="45.685" transform="translate(34.939 -10.249)"/><path class="b" d="M3579.379-13958.548h-37.193a2.02,2.02,0,0,1-2.017-2.018v-53.454a2.021,2.021,0,0,1,2.017-2.021h25.832v-2.521a.805.805,0,0,0-.8-.81h2.665a.805.805,0,0,1,.8.81v2.521h8.7a2.021,2.021,0,0,1,2.017,2.021v53.454A2.02,2.02,0,0,1,3579.379-13958.548Zm-24.533-9.335a.971.971,0,0,0-.968.972.971.971,0,0,0,.968.972h7.293a.972.972,0,0,0,.971-.972.972.972,0,0,0-.971-.972Zm-8.648,0a.972.972,0,0,0-.971.972.972.972,0,0,0,.971.972h2.971a.972.972,0,0,0,.971-.972.972.972,0,0,0-.971-.972Zm8.648-5.35a.971.971,0,0,0-.968.971.971.971,0,0,0,.968.972h8.229a.972.972,0,0,0,.971-.972.972.972,0,0,0-.971-.971Zm-8.648,0a.972.972,0,0,0-.971.971.972.972,0,0,0,.971.972h2.971a.972.972,0,0,0,.971-.972.972.972,0,0,0-.971-.971Zm8.648-5.347a.971.971,0,0,0-.968.972.971.971,0,0,0,.968.971h11.034a.972.972,0,0,0,.971-.971.972.972,0,0,0-.971-.972Zm-8.648,0a.972.972,0,0,0-.971.972.972.972,0,0,0,.971.971h2.971a.972.972,0,0,0,.971-.971.972.972,0,0,0-.971-.972Zm8.648-5.347a.971.971,0,0,0-.968.972.971.971,0,0,0,.968.971h15.29a.972.972,0,0,0,.971-.971.972.972,0,0,0-.971-.972Zm-8.648,0a.972.972,0,0,0-.971.972.972.972,0,0,0,.971.971h2.971a.972.972,0,0,0,.971-.971.972.972,0,0,0-.971-.972Zm8.648-5.347a.969.969,0,0,0-.968.968.971.971,0,0,0,.968.972h20.52a.972.972,0,0,0,.971-.972.971.971,0,0,0-.971-.968Zm-8.648,0a.971.971,0,0,0-.971.968.972.972,0,0,0,.971.972h2.971a.972.972,0,0,0,.971-.972.971.971,0,0,0-.971-.968Zm8.648-5.35a.971.971,0,0,0-.968.971.971.971,0,0,0,.968.972h20.52a.972.972,0,0,0,.971-.972.972.972,0,0,0-.971-.971Zm-8.648,0a.972.972,0,0,0-.971.971.972.972,0,0,0,.971.972h2.971a.972.972,0,0,0,.971-.972.972.972,0,0,0-.971-.971Zm8.648-5.347a.971.971,0,0,0-.968.972.971.971,0,0,0,.968.971h20.52a.972.972,0,0,0,.971-.971.972.972,0,0,0-.971-.972Zm-8.648,0a.972.972,0,0,0-.971.972.972.972,0,0,0,.971.971h2.971a.972.972,0,0,0,.971-.971.972.972,0,0,0-.971-.972Zm8.648-5.347a.971.971,0,0,0-.968.972.971.971,0,0,0,.968.971h20.52a.972.972,0,0,0,.971-.971.972.972,0,0,0-.971-.972Zm-8.648,0a.972.972,0,0,0-.971.972.972.972,0,0,0,.971.971h2.971a.972.972,0,0,0,.971-.971.972.972,0,0,0-.971-.972Zm18.567-14.055h-1.207a1.457,1.457,0,0,1-1.457-1.453,4.024,4.024,0,0,0-2.65-3.788,3.887,3.887,0,0,1,1.334-.231,4,4,0,0,1,3.981,4.02v1.452Z" transform="translate(-3481.726 14024.843)"/><g class="e" transform="matrix(1, 0, 0, 1, 34.94, -10.25)"><path class="c" d="M11.465,0A11.465,11.465,0,1,1,0,11.465,11.465,11.465,0,0,1,11.465,0Z" transform="translate(51.73 53.61)"/></g><path class="b" d="M155.076,5.474V4.018a3.981,3.981,0,1,0-7.962,0V5.474H142a.8.8,0,0,0-.8.807v5.046a.8.8,0,0,0,.8.807h18.2a.8.8,0,0,0,.8-.807V6.281a.8.8,0,0,0-.8-.807Z" transform="translate(-72.038)"/><path class="d" d="M11.416-13.549l-.9-.9a.54.54,0,0,0-.766,0L4.34-9.03,1.821-11.55a.54.54,0,0,0-.766,0l-.9.9a.543.543,0,0,0,0,.769l3.8,3.8a.54.54,0,0,0,.766,0l6.692-6.7A.545.545,0,0,0,11.416-13.549Zm-7.331,2.4a.359.359,0,0,0,.511,0l4.7-4.707a.363.363,0,0,0,0-.511L8.275-17.394a.359.359,0,0,0-.511,0L4.34-13.969,3.087-15.224a.359.359,0,0,0-.511,0L1.552-14.2a.363.363,0,0,0,0,.511Z" transform="translate(92.353 66.542)"/></g></svg>