<svg xmlns="http://www.w3.org/2000/svg" xmlns:xlink="http://www.w3.org/1999/xlink" width="92.185" height="92.185" viewBox="0 0 92.185 92.185"><defs><style>.a{fill:url(#a);}.b{fill:#fff;}.c{fill:#ddebf0;}</style><linearGradient id="a" x1="0.818" y1="0.827" x2="0.202" y2="0.163" gradientUnits="objectBoundingBox"><stop offset="0" stop-color="#10bce6"/><stop offset="1" stop-color="#1e76e2"/></linearGradient></defs><path class="a" d="M92.185,46.093A46.086,46.086,0,0,1,46.4,92.183c-.03,0-.063,0-.094,0-.068,0-.139,0-.209,0A46.092,46.092,0,0,1,13.5,13.5,45.791,45.791,0,0,1,46.093,0c.07,0,.139,0,.209,0h.1A46.088,46.088,0,0,1,92.185,46.093Zm0,0"/><path d="M257.18,307.563C257.114,307.563,257.245,307.564,257.18,307.563Zm0,0" transform="translate(-210.859 -252.186)"/><g transform="translate(20.266 23.686)"><path class="b" d="M44.746,170.051a6.854,6.854,0,0,0-6.908,6.781v6.545a.2.2,0,0,1-.215.175H14.371a.2.2,0,0,1-.215-.175v-6.545a6.912,6.912,0,0,0-7.249-6.781A6.854,6.854,0,0,0,0,176.832v8.26a11.615,11.615,0,0,0,11.719,11.481H39.935a11.615,11.615,0,0,0,11.719-11.481v-8.26A6.854,6.854,0,0,0,44.746,170.051Zm0,0" transform="translate(0 -152.895)"/><path class="c" d="M281.827,176.832v8.26a11.615,11.615,0,0,1-11.719,11.481H256V183.552h11.8a.2.2,0,0,0,.215-.175v-6.545a6.909,6.909,0,0,1,13.815,0Zm0,0" transform="translate(-230.173 -152.895)"/><path class="b" d="M185.055,11.009a2.974,2.974,0,0,1-4.255,0l-.53-.54a.118.118,0,0,0-.2.083v11.6a2.976,2.976,0,0,1-2.919,2.976c-.042,0-.084,0-.125,0a3.036,3.036,0,0,1-2.908-3.043V10.447a.119.119,0,0,0-.2-.084l-.67.671a2.977,2.977,0,0,1-4.209-4.21L174.988.872A2.955,2.955,0,0,1,177.025,0c.022,0,.045,0,.068,0a2.967,2.967,0,0,1,2.067.834l.008.008.015.015.011.011.017.016.007.008L185.006,6.8A3.019,3.019,0,0,1,185.055,11.009Zm0,0" transform="translate(-151.198 0)"/><path class="c" d="M264.031,11.009a2.974,2.974,0,0,1-4.255,0l-.53-.54a.118.118,0,0,0-.2.083v11.6a2.976,2.976,0,0,1-2.919,2.976c-.042,0-.083,0-.125,0V0c.022,0,.045,0,.068,0a2.968,2.968,0,0,1,2.067.834l.008.008.015.015.011.011.017.016.007.008L263.981,6.8A3.019,3.019,0,0,1,264.031,11.009Zm0,0" transform="translate(-230.173 0)"/></g></svg>