<svg xmlns="http://www.w3.org/2000/svg" width="280.731" height="238.96" viewBox="0 0 280.731 238.96"><defs><style>.a{fill:#f2f8ff;}</style></defs><path class="a" d="M71.677,73.61c9.239.616,13.1-5.67,17.446-13.749,11.885-22.12,38.351-19.989,47.23-6.368,6.288,9.648,19.849,7.663,30.819,3.888,10.8-3.717,29.193-7.287,43.845-2.845,12.8,3.879,18.049,17.873,29.715,17.012,25.449-1.878,38.279,23.177,33.67,34.1-3.008,7.132-4.5,15.11-2.056,22.449,2.694,8.083,8.848,14.481,13.822,21.43s8.98,15.634,6.507,23.786c-2.116,6.975-8.427,11.8-12.345,17.969-12.166,19.154-.131,48.51-16.342,64.476-11.6,11.428-30.522,8.79-46.76,10.971-13.54,1.819-26.282,7.489-39.761,9.711-27.3,4.5-54.861-5.411-82.533-5.69-9.747-.1-19.677.984-29.118-1.412A40.492,40.492,0,0,1,38.13,244.378c-6.03-16.7-.316-36.017-7.129-52.416-5.55-13.36-19.122-24.228-18.268-38.645.531-8.974,6.68-16.482,10.909-24.443C29.927,117.043,21.606,70.269,71.677,73.61Zm80.549-21.672c-2.428,0-4.4,1.5-4.4,3.359s1.974,3.2,4.4,3.359c7.9.52,7.9-2.663,7.9-4.518C160.123,51.174,154.655,51.938,152.226,51.938Zm80.193,14.324a13.016,13.016,0,0,0,7.548,2.92,3.027,3.027,0,0,0,2.1-.472,1.706,1.706,0,0,0,.155-2.4,4.03,4.03,0,0,0-1.489-.812,4.681,4.681,0,0,1-2.3-1.71,1.682,1.682,0,0,0-.522-.649C236.381,62.282,229.641,63.974,232.419,66.262ZM245.87,69.23a3.463,3.463,0,0,0,2.157-.208c.448-.145,1-.465.878-.916a.84.84,0,0,0-.463-.468,2.983,2.983,0,0,0-3.04-.225C244.476,68.041,245.175,68.991,245.87,69.23ZM277.984,132.5a6.141,6.141,0,0,0,1.392,2.8,23.584,23.584,0,0,0,4.025,4.582,4.081,4.081,0,0,0,2.326,1.056,3.653,3.653,0,0,0,2.19-.788,6.942,6.942,0,0,0,2.833-4.794c.3-2.6-.915-5.125-2.324-7.337a9.133,9.133,0,0,0-3.351-3.47c-2.448-1.232-4.065-.156-4.75,2.005C279.7,128.542,277.729,130.283,277.984,132.5ZM17.5,192.961c-1.289,1.133-.126,4.447.254,6.634a4.031,4.031,0,0,0,.682,1.858,4.515,4.515,0,0,0,2.4,1.266c1.569.454,3.471.839,4.67-.261a4.4,4.4,0,0,0,1.013-3.343,31.121,31.121,0,0,0-.177-3.278,3.493,3.493,0,0,0-.412-1.508,3.367,3.367,0,0,0-1.624-1.168C22.058,192.214,18.79,191.829,17.5,192.961Zm78.8,83.03c-.762.152-1.673.481-1.783,1.242-.091.629.439,1.165.953,1.547,4.208,3.13,9.87,3.33,15.138,3.4a4.5,4.5,0,0,0,1.818-.225,2.33,2.33,0,0,0,1.143-3.045,3.77,3.77,0,0,0-.812-1.044C108.522,273.761,101.565,274.938,96.3,275.991Zm105.084-2.118c-4.749,3.465.054,6.556,6.052,4.262a84.152,84.152,0,0,1,9.639-3.285c1.069-.267,7.534-1.661,7.535-3.109,0-3.838-7.284-2.932-11.865-2.292A23.873,23.873,0,0,0,201.383,273.873Z" transform="translate(-12.695 -43.227)"/></svg>