<svg xmlns="http://www.w3.org/2000/svg" width="150.243" height="164.333" viewBox="0 0 150.243 164.333"><defs><style>.a{fill:#dfdefd;}.b{fill:#fff;}.b,.c,.d{stroke:#ededed;stroke-width:0.5px;}.c{fill:#f0f7fb;}.d{fill:#fcfcfd;}.e,.f{fill:#ff5959;}.f{font-size:10px;font-family:Poppins-Bold, Poppins;font-weight:700;}</style></defs><g transform="translate(-423.551 -115.301)"><g transform="translate(385.631 87.038)"><path class="a" d="M14.11,163.73.118,111.553H0l.05-.253L0,111.113H.087L10.436,58.79,1.176,6.908,6.908,0,15.58,7.2,21.459,0,30.13,7.2,36.156,0l8.672,7.2L50.706,0l8.672,7.2L65.4,0l8.524,7.2L79.954,0l8.672,7.2L94.652,0l8.524,7.2L109.2,0l8.671,7.2L123.9,0l8.084,6.908,9.406,51.881L130.857,111.3l14.06,52.428Z" transform="translate(182.837 192.242) rotate(180)"/><path class="b" d="M109.614,124.43H240.421L226.312,71.813H95.5Z" transform="translate(-52.584 -43.3)"/><path class="c" d="M95.5,255.988H226.459l10.435-52.764H106.087Z" transform="translate(-49.057 -122.536)"/><path class="d" d="M232.947,394.906l-8.672-7.2-5.879,7.2-8.672-7.2-6.026,7.2-8.671-7.2-5.879,7.2-8.671-7.2-6.026,7.2-8.524-7.2-6.026,7.2-8.672-7.2-6.026,7.2-8.524-7.2-6.026,7.2-8.671-7.2-6.026,7.2L107.872,388l-9.406-51.882H229.419L238.679,388Z" transform="translate(-52.018 -202.664)"/><g transform="matrix(0.966, -0.259, 0.259, 0.966, -480.563, -4.533)"><path class="e" d="M-3296.868-203.207h-69a3,3,0,0,1-3-3v-17a3,3,0,0,1,3-3h69a3,3,0,0,1,3,3v17A3,3,0,0,1-3296.868-203.207Zm-64.652-19.827a3,3,0,0,0-3,3v10.655a3,3,0,0,0,3,3h61.392a3,3,0,0,0,3-3v-10.655a3,3,0,0,0-3-3Z" transform="translate(3878.271 477.139)"/><text class="f" transform="translate(517.157 265.793)"><tspan x="0" y="0">NO RECORD</tspan></text></g></g></g></svg>