<svg xmlns="http://www.w3.org/2000/svg" width="103.336" height="176.154" viewBox="0 0 103.336 176.154"><defs><style>.a{fill:#c4c3fc;opacity:0.55;mix-blend-mode:multiply;isolation:isolate;}.b{fill:#f0f7fb;}.c{fill:#c8dbfb;}.d,.e{fill:#fff;}.d{stroke:#d5d5d5;}.f,.g{fill:#1e76e2;font-family:OpenSans-Bold, Open Sans;}.f{font-size:5px;}.f,.g,.k{font-weight:700;}.g{font-size:6px;}.h{fill:none;stroke:#c8dbfb;stroke-miterlimit:10;stroke-width:2px;}.i{fill:#bad2db;}.j,.k{fill:#ff5959;}.k{font-size:10px;font-family:Poppins-Bold, Poppins;}</style></defs><path class="a" d="M262.608,123.033v-50.2L259.755,71l-2.85,1.834L254.055,71,251.2,72.834,248.353,71l-2.85,1.834L242.651,71,239.8,72.834,236.948,71,234.1,72.834,231.244,71l-2.852,1.834L225.54,71l-2.853,1.834L219.836,71l-2.853,1.834L214.13,71l-2.853,1.834L208.424,71l-2.853,1.834L202.72,71l-2.852,1.834L197.015,71l-2.853,1.834L191.308,71l-2.854,1.834L185.6,71l-2.855,1.834L179.889,71l-2.857,1.834v85.04h13.088v83.446l2.852,1.834,2.85-1.834,2.85,1.834,2.851-1.834,2.852,1.834,2.85-1.834,2.851,1.834,2.852-1.834,2.851,1.834,2.852-1.834,2.852,1.834,2.852-1.834,2.852,1.834,2.853-1.834,2.852,1.834,2.853-1.834,2.853,1.834,2.853-1.834,2.853,1.834,2.853-1.834,2.851,1.834,2.852-1.834,2.853,1.834,2.853-1.834,2.853,1.834,2.854-1.834,2.853,1.834,2.855-1.834,2.857,1.834,2.857-1.834V123.033Z" transform="translate(-177.033 -67)"/><g transform="translate(4.172)"><path class="b" d="M0,0H34.841a0,0,0,0,1,0,0V10.544a0,0,0,0,1,0,0H9.226A9.226,9.226,0,0,1,0,1.318V0A0,0,0,0,1,0,0Z" transform="translate(0 86.874) rotate(-90)"/><rect class="b" width="85.575" height="73.656" transform="translate(0 5.807)"/><path class="b" d="M269.909,65.834,267.056,64l-2.85,1.834L261.356,64l-2.851,1.834L255.653,64l-2.85,1.834L249.952,64,247.1,65.834,244.249,64,241.4,65.834,238.545,64l-2.852,1.834L232.841,64l-2.853,1.834L227.136,64l-2.853,1.834L221.43,64l-2.853,1.834L215.725,64l-2.853,1.834L210.021,64l-2.852,1.834L204.316,64l-2.853,1.834L198.609,64l-2.854,1.834L192.9,64l-2.855,1.834L187.19,64l-2.857,1.834v3.973h85.575Z" transform="translate(-184.333 -64)"/><g transform="translate(5.807 39.655)"><rect class="c" width="14.37" height="3.056" transform="translate(35.605 16.045)"/><rect class="c" width="10.544" height="3.056" transform="translate(63.417)"/><rect class="c" width="24.45" height="3.056"/><rect class="c" width="14.67" height="3.056" transform="translate(59.291 8.023)"/><rect class="c" width="36.981" height="3.056" transform="translate(0 8.023)"/><rect class="c" width="14.67" height="3.056" transform="translate(59.291 16.045)"/><rect class="c" width="32.402" height="3.056" transform="translate(0 16.045)"/><rect class="c" width="14.67" height="3.056" transform="translate(59.291 24.068)"/><rect class="c" width="24.45" height="3.056" transform="translate(0 24.068)"/><rect class="c" width="24.45" height="3.056" transform="translate(27.354)"/><rect class="c" width="24.45" height="3.056" transform="translate(27.354 24.068)"/><rect class="c" width="10.544" height="3.056" transform="translate(63.417 32.091)"/><rect class="c" width="36.981" height="3.056" transform="translate(0 32.091)"/></g><rect class="d" width="85.575" height="114.725" transform="translate(13.088 52.033)"/><path class="e" d="M207.239,359.09l2.852,1.834,2.85-1.834,2.85,1.834,2.851-1.834,2.852,1.834,2.85-1.834,2.851,1.834,2.852-1.834,2.851,1.834,2.852-1.834,2.851,1.834,2.852-1.834,2.852,1.834,2.853-1.834,2.852,1.834,2.853-1.834,2.853,1.834,2.853-1.834,2.853,1.834,2.853-1.834,2.851,1.834,2.852-1.834,2.853,1.834,2.853-1.834,2.853,1.834,2.854-1.834,2.853,1.834,2.855-1.834,2.857,1.834,2.857-1.834v-3.973H207.239Z" transform="translate(-194.15 -188.769)"/><rect class="c" width="32.402" height="3.056" transform="translate(39.675 152.635)"/><rect class="c" width="14.67" height="3.056" transform="translate(78.187 59.75)"/><rect class="c" width="32.402" height="3.056" transform="translate(18.895 59.75)"/><rect class="c" width="14.37" height="3.056" transform="translate(54.501 59.75)"/><rect class="c" width="14.37" height="3.056" transform="translate(54.501 83.818)"/><rect class="c" width="10.544" height="3.056" transform="translate(82.313 67.773)"/><rect class="c" width="24.45" height="3.056" transform="translate(18.895 67.773)"/><rect class="c" width="14.67" height="3.056" transform="translate(78.187 75.795)"/><rect class="c" width="36.981" height="3.056" transform="translate(18.895 75.795)"/><rect class="c" width="14.67" height="3.056" transform="translate(78.187 83.818)"/><rect class="c" width="32.402" height="3.056" transform="translate(18.895 83.818)"/><rect class="c" width="14.67" height="3.056" transform="translate(78.187 91.841)"/><rect class="c" width="24.45" height="3.056" transform="translate(18.895 91.841)"/><rect class="c" width="24.45" height="3.056" transform="translate(46.249 67.773)"/><rect class="c" width="24.45" height="3.056" transform="translate(46.249 91.841)"/><rect class="c" width="10.544" height="3.056" transform="translate(82.313 99.863)"/><rect class="c" width="14.67" height="3.056" transform="translate(78.187 138.098)"/><rect class="c" width="36.981" height="3.056" transform="translate(18.895 99.863)"/><rect class="c" width="14.37" height="3.056" transform="translate(54.501 107.109)"/><rect class="c" width="14.67" height="3.056" transform="translate(78.187 107.109)"/><rect class="c" width="32.402" height="3.056" transform="translate(18.895 107.109)"/><rect class="c" width="14.67" height="3.056" transform="translate(78.187 115.132)"/><rect class="c" width="24.45" height="3.056" transform="translate(18.895 115.132)"/><rect class="c" width="24.45" height="3.056" transform="translate(46.249 115.132)"/><rect class="c" width="10.544" height="3.056" transform="translate(82.313 123.154)"/><rect class="c" width="36.981" height="3.056" transform="translate(18.895 123.154)"/><text class="f" transform="translate(18.895 134.16)"><tspan x="0" y="0">TOTAL</tspan></text><g transform="translate(6.036 13.071)"><text class="g" transform="translate(33.134 6)"><tspan x="-12.325" y="0">INVOICE</tspan></text><line class="h" x2="73.962" transform="translate(0 18.886)"/></g><line class="h" x2="73.962" transform="translate(18.895 146.541)"/><path class="i" d="M197.422,155.06V189.9H184.333Z" transform="translate(-184.333 -103.027)"/></g><g transform="matrix(0.966, -0.259, 0.259, 0.966, -520.064, 30.399)"><path class="j" d="M-3318.868-203.207h-47a3,3,0,0,1-3-3v-17a3,3,0,0,1,3-3h47a3,3,0,0,1,3,3v17A3,3,0,0,1-3318.868-203.207Zm-43.928-19.827a3,3,0,0,0-3,3v10.655a3,3,0,0,0,3,3h41.623a3,3,0,0,0,3-3v-10.655a3,3,0,0,0-3-3Z" transform="translate(3878.271 477.139)"/><text class="k" transform="translate(525.402 265.932)"><tspan x="0" y="0">PAID</tspan></text></g></svg>