<svg xmlns="http://www.w3.org/2000/svg" width="91.37" height="91.37" viewBox="0 0 91.37 91.37"><defs><style>.a{fill:#10bce6;}.b{fill:#fff;}</style></defs><path class="a" d="M45.685,0A45.685,45.685,0,1,0,91.37,45.685,45.736,45.736,0,0,0,45.685,0Z"/><path class="b" d="M83.167,232h43.621a4.362,4.362,0,0,0,0-8.724H83.167a4.362,4.362,0,1,0,0,8.724Z" transform="translate(-59.292 -159.417)"/><path class="b" d="M120.2,106.139a3.265,3.265,0,0,0,4.624,0L139,91.962a3.271,3.271,0,0,0-2.312-5.583h-9.815V66.749a4.362,4.362,0,0,0-8.724,0V86.379h-9.815a3.271,3.271,0,0,0-2.312,5.583Z" transform="translate(-76.826 -46.269)"/></svg>