<svg xmlns="http://www.w3.org/2000/svg" xmlns:xlink="http://www.w3.org/1999/xlink" width="93.604" height="93.604" viewBox="0 0 93.604 93.604"><defs><style>.a{fill:url(#a);}.b{fill:#fff;}</style><linearGradient id="a" x1="0.187" y1="0.162" x2="0.709" y2="0.83" gradientUnits="objectBoundingBox"><stop offset="0" stop-color="#10bce6"/><stop offset="1" stop-color="#1e76e2"/></linearGradient></defs><path class="a" d="M46.8,0A46.8,46.8,0,1,1,0,46.8,46.8,46.8,0,0,1,46.8,0Z"/><g transform="translate(17.114 18.862)"><path class="b" d="M46.087,16.407h-30a4.475,4.475,0,0,0-4.52,4.519V24.54H4.518A4.474,4.474,0,0,0,0,29.059V67.735a4.475,4.475,0,0,0,4.518,4.52H43.2a4.476,4.476,0,0,0,4.519-4.52V64.121h7.048A4.477,4.477,0,0,0,59.281,59.6V28.877ZM19.339,58.7a1.745,1.745,0,0,1-2.529,0,1.746,1.746,0,0,1,0-2.529l12.109-12.11H21.69a1.806,1.806,0,1,1,0-3.613H33.256a1.082,1.082,0,0,1,.723.182,2.185,2.185,0,0,1,.9.9,1.084,1.084,0,0,1,.182.723V53.819a1.812,1.812,0,0,1-1.807,1.807,1.941,1.941,0,0,1-1.806-1.807V46.591ZM46.81,18.035,57.474,28.156H50.606a3.817,3.817,0,0,1-3.8-3.794Zm-1.987,49.7a1.426,1.426,0,0,1-1.447,1.445H4.518a1.426,1.426,0,0,1-1.446-1.445V29.059a1.425,1.425,0,0,1,1.446-1.446h7.048V59.6a4.475,4.475,0,0,0,4.52,4.518H44.823v3.615Z" transform="translate(0 -16.407)"/></g></svg>