<svg xmlns="http://www.w3.org/2000/svg" width="329.097" height="280.916" viewBox="0 0 329.097 280.916"><defs><style>.a{fill:#dbf8ff;}</style></defs><path class="a" d="M81.839,78.945C92.67,79.67,97.2,72.28,102.29,62.782c13.933-26,44.959-23.5,55.367-7.486,7.372,11.342,23.269,9.009,36.129,4.57,12.657-4.369,34.222-8.566,51.4-3.345,15,4.56,21.159,21.011,34.835,20,29.834-2.208,44.874,27.246,39.471,40.091-3.527,8.385-5.277,17.763-2.41,26.39,3.158,9.5,10.372,17.024,16.2,25.192s10.527,18.379,7.628,27.962c-2.48,8.2-9.879,13.872-14.472,21.124-14.262,22.518-.153,57.027-19.157,75.8-13.6,13.435-35.781,10.333-54.816,12.9-15.873,2.139-30.81,8.8-46.611,11.416-32,5.289-64.313-6.361-96.753-6.689-11.427-.116-23.067,1.157-34.134-1.66A47.516,47.516,0,0,1,42.513,279.7c-7.069-19.627-.371-42.341-8.358-61.619-6.506-15.706-22.416-28.482-21.415-45.43.623-10.55,7.831-19.376,12.788-28.735C32.9,130,23.141,75.017,81.839,78.945Zm94.426-25.477c-2.846,0-5.154,1.768-5.154,3.949s2.314,3.761,5.154,3.949c9.257.612,9.257-3.131,9.257-5.311C185.523,52.57,179.113,53.468,176.266,53.468Zm94.009,16.839a15.234,15.234,0,0,0,8.849,3.433,3.54,3.54,0,0,0,2.457-.555,2.009,2.009,0,0,0,.182-2.821,4.72,4.72,0,0,0-1.745-.955,5.488,5.488,0,0,1-2.694-2.01,1.977,1.977,0,0,0-.612-.763C274.919,65.627,267.018,67.617,270.275,70.307ZM286.043,73.8a4.049,4.049,0,0,0,2.528-.244c.526-.171,1.171-.546,1.03-1.077a.987.987,0,0,0-.543-.55c-1.08-.578-2.479-1-3.564-.265S285.228,73.514,286.043,73.8Zm37.647,74.378a7.227,7.227,0,0,0,1.632,3.29,27.7,27.7,0,0,0,4.719,5.387,4.778,4.778,0,0,0,2.727,1.242,4.274,4.274,0,0,0,2.567-.926,8.166,8.166,0,0,0,3.321-5.636c.347-3.053-1.073-6.025-2.724-8.625A10.723,10.723,0,0,0,332,138.825c-2.869-1.448-4.766-.184-5.568,2.358C325.7,143.522,323.392,145.569,323.69,148.173ZM18.328,219.251c-1.511,1.331-.148,5.228.3,7.8a4.747,4.747,0,0,0,.8,2.184,5.289,5.289,0,0,0,2.809,1.489c1.84.534,4.07.986,5.474-.307,1.042-.958,1.19-2.521,1.188-3.93a36.687,36.687,0,0,0-.207-3.853,4.115,4.115,0,0,0-.483-1.773,3.947,3.947,0,0,0-1.9-1.374C23.672,218.373,19.84,217.92,18.328,219.251ZM110.7,316.86c-.894.179-1.962.566-2.091,1.46-.107.739.515,1.37,1.117,1.819,4.933,3.68,11.571,3.915,17.746,4a5.258,5.258,0,0,0,2.131-.264,2.742,2.742,0,0,0,1.34-3.58,4.43,4.43,0,0,0-.952-1.227C125.032,314.238,116.876,315.621,110.7,316.86Zm123.189-2.49c-5.567,4.073.063,7.707,7.095,5.01a98.46,98.46,0,0,1,11.3-3.862c1.254-.314,8.832-1.953,8.833-3.655,0-4.512-8.539-3.447-13.91-2.695A27.94,27.94,0,0,0,233.892,314.37Z" transform="translate(-12.695 -43.227)"/></svg>