<svg xmlns="http://www.w3.org/2000/svg" xmlns:xlink="http://www.w3.org/1999/xlink" width="104.345" height="104.345" viewBox="0 0 104.345 104.345"><defs><style>.a{fill:url(#a);}.b{fill:#fff;}</style><linearGradient id="a" x1="0.136" y1="0.875" x2="0.813" y2="0.199" gradientUnits="objectBoundingBox"><stop offset="0" stop-color="#ff5959"/><stop offset="1" stop-color="#f7931e"/></linearGradient></defs><circle class="a" cx="52.173" cy="52.173" r="52.173" transform="translate(0 0)"/><path class="b" d="M93.322,54.638a38.686,38.686,0,1,0,38.686,38.686A38.73,38.73,0,0,0,93.322,54.638Zm0,10.151a28.363,28.363,0,0,1,15.142,4.36L69.147,108.465A28.522,28.522,0,0,1,93.322,64.788Zm0,57.071a28.363,28.363,0,0,1-15.142-4.36L117.5,78.182a28.522,28.522,0,0,1-24.176,43.677Z" transform="translate(-41.149 -41.15)"/></svg>