<svg xmlns="http://www.w3.org/2000/svg" xmlns:xlink="http://www.w3.org/1999/xlink" width="91.373" height="91.373" viewBox="0 0 91.373 91.373"><defs><style>.a{fill:url(#a);}.b{fill:#fff;}</style><linearGradient id="a" x1="0.136" y1="0.875" x2="0.813" y2="0.199" gradientUnits="objectBoundingBox"><stop offset="0" stop-color="#ff5959"/><stop offset="1" stop-color="#f7931e"/></linearGradient></defs><circle class="a" cx="45.687" cy="45.687" r="45.687" transform="translate(0 0)"/><path class="b" d="M88.513,54.638a33.876,33.876,0,1,0,33.877,33.876A33.915,33.915,0,0,0,88.513,54.638Zm0,8.889a24.837,24.837,0,0,1,13.259,3.818L67.343,101.774a24.976,24.976,0,0,1,21.17-38.247Zm0,49.976a24.837,24.837,0,0,1-13.259-3.818l34.43-34.429A24.976,24.976,0,0,1,88.513,113.5Z" transform="translate(-42.826 -42.827)"/></svg>