<svg xmlns="http://www.w3.org/2000/svg" xmlns:xlink="http://www.w3.org/1999/xlink" width="102.419" height="102.419" viewBox="0 0 102.419 102.419"><defs><style>.a{fill:url(#a);}</style><linearGradient id="a" x1="0.305" y1="0.31" x2="0.799" y2="0.733" gradientUnits="objectBoundingBox"><stop offset="0" stop-color="#1072eb"/><stop offset="1" stop-color="#00c7fb"/></linearGradient></defs><g transform="translate(14.539 11.539)"><g transform="translate(-14.539 -11.539)"><path class="a" d="M51.209,0a51.209,51.209,0,1,0,51.209,51.209A51.269,51.269,0,0,0,51.209,0ZM79.83,37.733,47.1,70.2a5.035,5.035,0,0,1-7.059.128L22.717,54.546a5.205,5.205,0,0,1-.385-7.187,5.077,5.077,0,0,1,7.187-.257L43.252,59.68,72.514,30.418a5.173,5.173,0,0,1,7.316,7.316Z"/></g></g></svg>