<svg xmlns="http://www.w3.org/2000/svg" width="361.389" height="304.27" viewBox="0 0 361.389 304.27"><defs><style>.a{fill:#e5f1ff;}</style></defs><path class="a" d="M88.624,82.45c11.894.8,16.87-7.319,22.458-17.749,15.3-28.556,49.37-25.8,60.8-8.221,8.095,12.455,25.553,9.893,39.674,5.019,13.9-4.8,37.58-9.407,56.442-3.673,16.475,5.007,23.235,23.073,38.253,21.962,32.761-2.424,49.278,29.919,43.344,44.025-3.873,9.207-5.8,19.506-2.647,28.98,3.468,10.434,11.39,18.694,17.793,27.664s11.56,20.183,8.377,30.706c-2.724,9-10.848,15.233-15.892,23.2-15.661,24.727-.168,62.623-21.037,83.233-14.938,14.753-39.292,11.347-60.194,14.163-17.43,2.348-33.833,9.668-51.185,12.536-35.138,5.807-70.624-6.985-106.246-7.346-12.548-.127-25.33,1.271-37.484-1.823A52.178,52.178,0,0,1,45.439,302.9c-7.763-21.553-.407-46.5-9.178-67.666-7.145-17.247-24.616-31.277-23.516-49.887.684-11.585,8.6-21.277,14.043-31.554C34.878,138.519,24.166,78.136,88.624,82.45ZM192.316,54.473c-3.126,0-5.66,1.942-5.66,4.336s2.541,4.13,5.66,4.336c10.165.672,10.165-3.438,10.165-5.833C202.481,53.487,195.442,54.473,192.316,54.473ZM295.549,72.964a16.729,16.729,0,0,0,9.717,3.77,3.887,3.887,0,0,0,2.7-.609,2.206,2.206,0,0,0,.2-3.1,5.184,5.184,0,0,0-1.917-1.049,6.027,6.027,0,0,1-2.958-2.207,2.17,2.17,0,0,0-.672-.838C300.649,67.825,291.973,70.01,295.549,72.964Zm17.315,3.831a4.446,4.446,0,0,0,2.776-.268c.577-.187,1.286-.6,1.131-1.183a1.084,1.084,0,0,0-.6-.6c-1.186-.634-2.722-1.1-3.914-.291S311.97,76.486,312.864,76.794Zm41.341,81.676A7.937,7.937,0,0,0,356,162.084,30.415,30.415,0,0,0,361.18,168a5.247,5.247,0,0,0,2.994,1.364,4.694,4.694,0,0,0,2.819-1.017,8.967,8.967,0,0,0,3.647-6.189c.381-3.353-1.178-6.616-2.992-9.472a11.775,11.775,0,0,0-4.314-4.48c-3.151-1.59-5.233-.2-6.114,2.589C356.409,153.363,353.878,155.611,354.205,158.471ZM18.881,236.523c-1.659,1.462-.162,5.741.327,8.565a5.213,5.213,0,0,0,.878,2.4,5.808,5.808,0,0,0,3.085,1.635c2.02.586,4.469,1.083,6.012-.337,1.144-1.052,1.227-7.142,1.077-8.547a4.518,4.518,0,0,0-.531-1.947,4.335,4.335,0,0,0-2.09-1.508C24.749,235.559,20.541,235.061,18.881,236.523ZM255.6,340.975c-6.114,4.473.069,8.463,7.791,5.5a108.123,108.123,0,0,1,12.408-4.241c1.377-.345,9.7-2.144,9.7-4.014,0-4.955-9.376-3.785-15.275-2.959A30.682,30.682,0,0,0,255.6,340.975Z" transform="translate(-12.695 -43.227)"/></svg>