<svg xmlns="http://www.w3.org/2000/svg" xmlns:xlink="http://www.w3.org/1999/xlink" width="106.51" height="106.51" viewBox="0 0 106.51 106.51"><defs><style>.a{fill:url(#a);}</style><linearGradient id="a" x1="0.724" y1="0.731" x2="0.246" y2="0.294" gradientUnits="objectBoundingBox"><stop offset="0" stop-color="#ff5959"/><stop offset="1" stop-color="#e20000"/></linearGradient></defs><path class="a" d="M53.463,0C24.212,0,0,23.8,0,53.047A53.821,53.821,0,0,0,53.463,106.51c29.251,0,53.047-24.212,53.047-53.463A53.106,53.106,0,0,0,53.463,0ZM79.72,70.478a6.243,6.243,0,0,1-8.829,8.829L53.463,61.872,35.616,79.308a6.243,6.243,0,0,1-8.829-8.829L44.22,53.047,26.788,35.614a6.243,6.243,0,1,1,8.829-8.829L53.463,44.222,70.892,26.786a6.243,6.243,0,1,1,8.829,8.829L62.288,53.047Z"/></svg>