<svg xmlns="http://www.w3.org/2000/svg" width="77" height="77" viewBox="0 0 77 77"><defs><style>.a,.g{fill:#1e76e2;}.a{stroke:#1e76e2;}.b{fill:#fff;}.c{fill:#ff5959;}.d{fill:#f7931e;}.e{fill:#ffe34a;}.f{fill:#10bce6;}.g{font-size:14px;font-family:Poppins-Bold, Poppins;font-weight:700;}.h{stroke:none;}.i{fill:none;}</style></defs><g transform="translate(-321 -116)"><g class="a" transform="translate(321 116)"><rect class="h" width="77" height="77" rx="15"/><rect class="i" x="0.5" y="0.5" width="76" height="76" rx="14.5"/></g><g transform="translate(8 15.43)"><rect class="b" width="47" height="56" rx="5" transform="translate(332 113.57)"/><path class="c" d="M5,0H42a5,5,0,0,1,5,5V6a0,0,0,0,1,0,0H0A0,0,0,0,1,0,6V5A5,5,0,0,1,5,0Z" transform="translate(332 113.57)"/><g transform="translate(343.343 106.29)"><path class="d" d="M20.94,15.264H5.677A5.669,5.669,0,0,1,0,9.588V5.677A1.874,1.874,0,0,1,1.892,3.785H7.909A5.825,5.825,0,0,1,13.372,0a5.658,5.658,0,0,1,5.336,3.785h6.144a1.874,1.874,0,0,1,1.892,1.893v3.91a5.477,5.477,0,0,1-.256,1.657,5.842,5.842,0,0,1-5.547,4.02Z" transform="translate(0 0)"/></g><path class="e" d="M7.093,1.957a1,1,0,0,1,1.814,0L10.124,4.58a1,1,0,0,0,.795.573L13.8,5.48a1,1,0,0,1,.558,1.735L12.242,9.132a1,1,0,0,0-.308.942l.573,2.792a1,1,0,0,1-1.466,1.075L8.486,12.52a1,1,0,0,0-.972,0L4.959,13.941a1,1,0,0,1-1.466-1.075l.573-2.792a1,1,0,0,0-.308-.942L1.641,7.215A1,1,0,0,1,2.2,5.48l2.882-.327a1,1,0,0,0,.795-.573Z" transform="translate(348 123.57)"/><path class="e" d="M7.093,1.957a1,1,0,0,1,1.814,0L10.124,4.58a1,1,0,0,0,.795.573L13.8,5.48a1,1,0,0,1,.558,1.735L12.242,9.132a1,1,0,0,0-.308.942l.573,2.792a1,1,0,0,1-1.466,1.075L8.486,12.52a1,1,0,0,0-.972,0L4.959,13.941a1,1,0,0,1-1.466-1.075l.573-2.792a1,1,0,0,0-.308-.942L1.641,7.215A1,1,0,0,1,2.2,5.48l2.882-.327a1,1,0,0,0,.795-.573Z" transform="translate(348 138.57)"/><path class="e" d="M7.093,1.957a1,1,0,0,1,1.814,0L10.124,4.58a1,1,0,0,0,.795.573L13.8,5.48a1,1,0,0,1,.558,1.735L12.242,9.132a1,1,0,0,0-.308.942l.573,2.792a1,1,0,0,1-1.466,1.075L8.486,12.52a1,1,0,0,0-.972,0L4.959,13.941a1,1,0,0,1-1.466-1.075l.573-2.792a1,1,0,0,0-.308-.942L1.641,7.215A1,1,0,0,1,2.2,5.48l2.882-.327a1,1,0,0,0,.795-.573Z" transform="translate(348 152.57)"/></g><g transform="translate(-83 -11.245)"><g transform="translate(408 143.094)"><path class="f" d="M18.846,17.934a14.994,14.994,0,0,1,16.807-3.048l1.665.889a14.991,14.991,0,1,1-18.473,2.158Z" transform="translate(-14.456 -13.544)"/><path class="b" d="M21.871,20.959a11.658,11.658,0,0,1,16.487,0c.16.16.315.324.464.49l1.116,1.471a11.659,11.659,0,1,1-18.066-1.961Z" transform="translate(-15.125 -14.213)"/></g><text class="g" transform="translate(414 162.245)"><tspan x="0" y="0">A+</tspan></text></g></g></svg>