<svg xmlns="http://www.w3.org/2000/svg" xmlns:xlink="http://www.w3.org/1999/xlink" width="91.373" height="91.373" viewBox="0 0 91.373 91.373"><defs><style>.a{fill:url(#a);}.b{fill:#fff;}</style><linearGradient id="a" x1="0.369" y1="0.275" x2="0.657" y2="0.693" gradientUnits="objectBoundingBox"><stop offset="0" stop-color="#00a6d6"/><stop offset="1" stop-color="#60cbd6"/></linearGradient></defs><g transform="translate(0 0.15)"><circle class="a" cx="45.687" cy="45.687" r="45.687" transform="translate(0 -0.15)"/><g transform="translate(21 17.167)"><g transform="translate(0 4.684)"><path class="b" d="M45.272,9.675h-.387V7.92a3.238,3.238,0,0,0-6.476,0V9.675H33.587V7.92a3.237,3.237,0,0,0-6.474,0V9.675H22.257V7.92a3.238,3.238,0,0,0-6.476,0V9.675H10.926V7.92a3.237,3.237,0,0,0-6.474,0V9.675H4.063A4.063,4.063,0,0,0,0,13.737l.032,31.97a7.309,7.309,0,0,0,7.3,7.3H42a7.306,7.306,0,0,0,7.3-7.3l.036-31.97A4.063,4.063,0,0,0,45.272,9.675Zm.795,36.032A4.066,4.066,0,0,1,42,49.772H7.334A4.066,4.066,0,0,1,3.27,45.707V18.273h42.8Z" transform="translate(0 -4.684)"/></g><g transform="translate(7.19 22.69)"><path class="b" d="M68.112,181.317H75a1.649,1.649,0,0,0,1.65-1.65v-6.888A1.648,1.648,0,0,0,75,171.131H68.112a1.648,1.648,0,0,0-1.65,1.648v6.888A1.649,1.649,0,0,0,68.112,181.317Z" transform="translate(-66.462 -171.131)"/><g transform="translate(0 12.501)"><path class="b" d="M68.112,296.88H75a1.649,1.649,0,0,0,1.65-1.648v-6.89A1.649,1.649,0,0,0,75,286.694H68.112a1.649,1.649,0,0,0-1.65,1.648v6.89A1.649,1.649,0,0,0,68.112,296.88Z" transform="translate(-66.462 -286.694)"/></g><g transform="translate(12.503 12.501)"><path class="b" d="M183.687,296.88h6.888a1.65,1.65,0,0,0,1.65-1.648v-6.89a1.65,1.65,0,0,0-1.65-1.648h-6.888a1.648,1.648,0,0,0-1.648,1.648v6.89A1.648,1.648,0,0,0,183.687,296.88Z" transform="translate(-182.039 -286.694)"/></g><g transform="translate(24.96)"><path class="b" d="M298.85,181.317h6.887a1.648,1.648,0,0,0,1.65-1.65v-6.888a1.647,1.647,0,0,0-1.65-1.648H298.85a1.648,1.648,0,0,0-1.65,1.648v6.888A1.649,1.649,0,0,0,298.85,181.317Zm.363-7.96a.217.217,0,0,1,.215-.217h5.731a.218.218,0,0,1,.217.217v5.733a.216.216,0,0,1-.217.215h-5.731a.214.214,0,0,1-.215-.215Z" transform="translate(-297.2 -171.131)"/></g><g transform="translate(24.96 12.501)"><path class="b" d="M298.85,296.88h6.887a1.648,1.648,0,0,0,1.65-1.648v-6.89a1.648,1.648,0,0,0-1.65-1.648H298.85a1.649,1.649,0,0,0-1.65,1.648v6.89A1.649,1.649,0,0,0,298.85,296.88Z" transform="translate(-297.2 -286.694)"/></g><g transform="translate(12.459)"><path class="b" d="M183.287,181.317h6.887a1.65,1.65,0,0,0,1.65-1.65v-6.888a1.649,1.649,0,0,0-1.65-1.648h-6.887a1.647,1.647,0,0,0-1.65,1.648v6.888A1.648,1.648,0,0,0,183.287,181.317Z" transform="translate(-181.637 -171.131)"/></g></g></g></g></svg>