<svg xmlns="http://www.w3.org/2000/svg" width="159" height="103.77" viewBox="0 0 159 103.77"><defs><style>.a{fill:#ffc380;}.b{fill:#ffd2a0;}.c{fill:#73c3ff;}.d{fill:#10bce6;}.e{fill:#0363a9;}.f{fill:#ffe34a;}</style></defs><g transform="translate(19.359 1.554)"><path class="a" d="M149.647,81.318H125.469a2.8,2.8,0,0,1-1.422-5.2c10.534-6.225,16.006-13.486,16.728-22.2a6.008,6.008,0,0,1,6-5.4,11.815,11.815,0,0,1,11.629,11.81h0v.939c0,7.626-2.259,12.489-6.427,18.795A2.8,2.8,0,0,1,149.647,81.318Z" transform="translate(-74.803 -26.881)"/><path class="b" d="M152.479,147.334a8.769,8.769,0,0,0-8.759-8.759H98.67a2.793,2.793,0,0,0-1.423.389c-3.162,1.87-6.355,3.409-8.921,4.646-.895.431-1.74.839-2.509,1.223a2.8,2.8,0,0,0-1.545,2.5v35.781a2.8,2.8,0,0,0,1.545,2.5c11.3,5.647,20.684,6.33,31.633,6.33,1.7,0,3.429-.016,5.213-.033,1.972-.019,4.011-.038,6.149-.038h8.837a8.756,8.756,0,0,0,7.541-13.21,8.751,8.751,0,0,0,2.982-11.927,8.75,8.75,0,0,0,1.907-13.378A8.7,8.7,0,0,0,152.479,147.334Z" transform="translate(-48.004 -89.728)"/><path class="c" d="M50.261,259.915v14.722H44.671V259.915a2.8,2.8,0,0,1,5.591,0Z" transform="translate(-20.368 -172.457)"/><g transform="translate(24.303 84.663)"><path class="c" d="M50.261,259.915v14.722H44.671V259.915a2.8,2.8,0,0,1,5.591,0Z" transform="translate(-44.671 -257.12)"/></g><path class="d" d="M31.844,138.575H7.99a2.8,2.8,0,0,0-2.8,2.8v47.708a2.849,2.849,0,0,0,2.8,2.831h17.89a8.86,8.86,0,0,0,7.836-4.886,8.684,8.684,0,0,0,.922-3.908V141.37A2.8,2.8,0,0,0,31.844,138.575Z" transform="translate(7.181 -89.728)"/><path class="e" d="M50.261,259.3v14.909H44.671V259.3a2.8,2.8,0,1,1,5.591,0Z" transform="translate(-20.368 -172.027)"/><path class="f" d="M12.595,1.928a1,1,0,0,1,1.81,0l2.839,6.048a1,1,0,0,0,.794.569l6.739.755a1,1,0,0,1,.555,1.739l-4.959,4.434a1,1,0,0,0-.313.949L21.4,22.875a1,1,0,0,1-1.461,1.08l-5.96-3.274a1,1,0,0,0-.963,0l-5.96,3.274A1,1,0,0,1,5.6,22.875l1.341-6.452a1,1,0,0,0-.313-.949L1.667,11.04A1,1,0,0,1,2.222,9.3l6.739-.755a1,1,0,0,0,.794-.569Z" transform="translate(28.641 9.446)"/><path class="f" d="M16.592,1.97a1,1,0,0,1,1.816,0l4.019,8.717a1,1,0,0,0,.795.575l9.589,1.094a1,1,0,0,1,.56,1.733l-7.1,6.462a1,1,0,0,0-.307.939l1.913,9.373a1,1,0,0,1-1.468,1.073l-8.423-4.712a1,1,0,0,0-.976,0L8.589,31.935a1,1,0,0,1-1.468-1.073l1.913-9.373a1,1,0,0,0-.307-.939l-7.1-6.462a1,1,0,0,1,.56-1.733l9.589-1.094a1,1,0,0,0,.795-.575Z" transform="translate(-19.359 25.446)"/><path class="f" d="M19.59,1.99a1,1,0,0,1,1.819,0l4.9,10.73a1,1,0,0,0,.8.578l11.719,1.349a1,1,0,0,1,.562,1.73L30.7,24.357a1,1,0,0,0-.3.935l2.339,11.564a1,1,0,0,1-1.472,1.069l-10.273-5.8a1,1,0,0,0-.983,0l-10.273,5.8a1,1,0,0,1-1.472-1.069L10.6,25.292a1,1,0,0,0-.3-.935l-8.688-7.98a1,1,0,0,1,.562-1.73L13.892,13.3a1,1,0,0,0,.8-.578Z" transform="translate(98.641 15.446)"/><path class="f" d="M8.5,0l2.508,5.768L17,6.493l-4.443,4.29L13.753,17,8.5,13.883,3.247,17l1.2-6.217L0,6.493l5.992-.725Z" transform="translate(70.641 -1.554)"/></g></svg>