<svg xmlns="http://www.w3.org/2000/svg" xmlns:xlink="http://www.w3.org/1999/xlink" width="91.373" height="91.373" viewBox="0 0 91.373 91.373"><defs><style>.a{fill:url(#a);}.b{fill:#fff;}</style><linearGradient id="a" x1="0.369" y1="0.275" x2="0.657" y2="0.693" gradientUnits="objectBoundingBox"><stop offset="0" stop-color="#00a6d6"/><stop offset="1" stop-color="#60cbd6"/></linearGradient></defs><g transform="translate(0 0.15)"><circle class="a" cx="45.687" cy="45.687" r="45.687" transform="translate(0 -0.15)"/><g transform="translate(21.814 21.643)"><path class="b" d="M43.229.716a1.914,1.914,0,0,0-.986-.322H13.518l4.023,4.023H34.9a6.931,6.931,0,0,0-.7,3.017V41.552a3.017,3.017,0,1,1-6.035,0V36.6a2.018,2.018,0,0,0-2.012-2.012H8.046V21.858L4.023,17.835V34.591H2.012A2.018,2.018,0,0,0,0,36.6v5.954a6.053,6.053,0,0,0,6.035,6.035H31.18a7.074,7.074,0,0,0,7.041-7.041V12.464h8.046a2.018,2.018,0,0,0,2.012-2.012V7.435A7.024,7.024,0,0,0,43.229.716Z" transform="translate(0 -0.341)"/><path class="b" d="M24.662,26.164a1.476,1.476,0,0,1-.3-.03L17.32,24.726a1.49,1.49,0,0,1-.77-.412L1.046,8.81a3.507,3.507,0,0,1,0-4.953L3.864,1.039a3.5,3.5,0,0,1,4.951,0l15.5,15.505a1.5,1.5,0,0,1,.412.77l1.41,7.047a1.506,1.506,0,0,1-1.479,1.8Z" transform="translate(-0.02 0)"/></g></g></svg>