<svg xmlns="http://www.w3.org/2000/svg" width="77" height="77" viewBox="0 0 77 77"><defs><style>.a,.f,.g{fill:#1e76e2;}.a{stroke:#1e76e2;}.b{fill:#fff;}.c{fill:#ff5959;}.d{fill:#f7931e;}.e{fill:#10bce6;}.f{font-size:9px;font-family:FontAwesome5Free-Solid, 'Font Awesome 5 Free';}.g{font-size:15px;font-family:Poppins-Bold, Poppins;font-weight:700;}.h{stroke:none;}.i{fill:none;}</style></defs><g transform="translate(-336 -321)"><g class="a" transform="translate(336 321)"><rect class="h" width="77" height="77" rx="15"/><rect class="i" x="0.5" y="0.5" width="76" height="76" rx="14.5"/></g><g transform="translate(-5 -0.233)"><rect class="b" width="47" height="57" rx="5" transform="translate(352 330.233)"/><path class="c" d="M5,0H42a5,5,0,0,1,5,5V6a0,0,0,0,1,0,0H0A0,0,0,0,1,0,6V5A5,5,0,0,1,5,0Z" transform="translate(352 330.233)"/><g transform="translate(365.639 325.419)"><g transform="translate(4.277)"><path class="d" d="M23.367,0a5.907,5.907,0,1,0,5.907,5.907A5.923,5.923,0,0,0,23.367,0Z" transform="translate(-17.459)"/></g><g transform="translate(0 12.237)"><path class="d" d="M24.131,43.354a5.507,5.507,0,0,0-.593-1.083,7.343,7.343,0,0,0-5.082-3.2,1.087,1.087,0,0,0-.748.181,6.3,6.3,0,0,1-7.429,0,.968.968,0,0,0-.748-.181,7.29,7.29,0,0,0-5.082,3.2,6.35,6.35,0,0,0-.593,1.083.549.549,0,0,0,.026.49,10.292,10.292,0,0,0,.7,1.032,9.8,9.8,0,0,0,1.187,1.341A15.463,15.463,0,0,0,6.95,47.25a11.764,11.764,0,0,0,14.033,0,11.342,11.342,0,0,0,1.187-1.032,11.913,11.913,0,0,0,1.187-1.341,9.044,9.044,0,0,0,.7-1.032A.44.44,0,0,0,24.131,43.354Z" transform="translate(-3.808 -39.056)"/></g></g><rect class="c" width="8" height="7" rx="3" transform="translate(357 353.233)"/><rect class="c" width="8" height="8" rx="3" transform="translate(357 363.233)"/><rect class="c" width="8" height="7" rx="3" transform="translate(357 374.233)"/><path class="e" d="M35.106,9.212h23.23a1.106,1.106,0,0,0,0-2.212H35.106a1.106,1.106,0,0,0,0,2.212Z" transform="translate(333.509 349.02)"/><path class="e" d="M35.106,9.212h23.23a1.106,1.106,0,0,0,0-2.212H35.106a1.106,1.106,0,0,0,0,2.212Z" transform="translate(333.509 358.87)"/><path class="e" d="M35.106,9.212h23.23a1.106,1.106,0,0,0,0-2.212H35.106a1.106,1.106,0,0,0,0,2.212Z" transform="translate(333.509 368.721)"/><text class="f" transform="translate(358 359.233)"><tspan x="0" y="0"></tspan></text><text class="f" transform="translate(358 368.233)"><tspan x="0" y="0"></tspan></text><text class="f" transform="translate(358 381.233)"><tspan x="0" y="0"></tspan></text></g><g transform="translate(14.58 213.791)"><path class="e" d="M18.452,17.54a13.648,13.648,0,0,1,15.3-2.774l1.516.81A13.645,13.645,0,1,1,18.452,17.54Z" transform="translate(352.544 139.245)"/><path class="b" d="M21.565,20.653a10.612,10.612,0,0,1,15.007,0c.146.146.287.295.422.446l1.016,1.339a10.613,10.613,0,1,1-16.445-1.785Z" transform="translate(351.587 138.276)"/><text class="g" transform="translate(376.42 172.209)"><tspan x="0" y="0">?</tspan></text></g></g></svg>