<svg xmlns="http://www.w3.org/2000/svg" width="77" height="77" viewBox="0 0 77 77"><defs><style>.a,.i{fill:#1e76e2;}.a{stroke:#1e76e2;}.b{fill:#ff5959;}.c{fill:#f2f8ff;}.d{fill:#f7931e;}.e{fill:#10bce6;}.f{fill:#fff;}.g{fill:#00a6d6;}.h{fill:#0363a9;}.i{font-size:24px;font-family:Poppins-Bold, Poppins;font-weight:700;}.j{stroke:none;}.k{fill:none;}</style></defs><g transform="translate(8.629 9.677)"><g class="a" transform="translate(-8.629 -9.677)"><rect class="j" width="77" height="77" rx="15"/><rect class="k" x="0.5" y="0.5" width="76" height="76" rx="14.5"/></g><g transform="translate(-6.242 -1.429)"><path class="b" d="M27,10.937V60.376a25.563,25.563,0,1,0,0-49.438Z" transform="translate(0.824 -10.098)"/><path class="c" d="M27,61h0Z" transform="translate(-27 -0.323)"/><path class="d" d="M59.079,10.937V60.376a25.563,25.563,0,1,1,0-49.438Z" transform="translate(-18.55 -10.098)"/><path class="e" d="M20.74,19.828A21.464,21.464,0,0,1,44.8,15.466l2.384,1.273a21.459,21.459,0,1,1-26.444,3.09Z" transform="translate(-1.887 -9.436)"/><path class="f" d="M23.345,22.432a16.689,16.689,0,0,1,23.6,0c.229.229.451.464.664.7l1.6,2.105a16.69,16.69,0,1,1-25.862-2.807Z" transform="translate(-1.119 -8.668)"/><path class="e" d="M16.487,55.258A4.768,4.768,0,1,1,9.744,62L3,55.258l6.743-6.743Z" transform="translate(51.254 -2.72)"/><path class="g" d="M19.4,41.117l5.446,5.446L18.1,53.307,12.657,47.86a21.523,21.523,0,0,0,3.761-2.982A21.424,21.424,0,0,0,19.4,41.117Z" transform="translate(32.78 -4.141)"/><path class="h" d="M17.663,45.091a2.384,2.384,0,1,1,3.371,3.371l-.843.843-6.743,6.743-.843.843A2.384,2.384,0,0,1,9.234,53.52l.843-.843,6.743-6.743Z" transform="translate(40.806 -3.512)"/><text class="i" transform="translate(29.613 31.752)"><tspan x="0" y="0">i</tspan></text></g><g transform="translate(5.474 54.106)"><path class="f" d="M34.985,8.97H55.666a.985.985,0,1,0,0-1.97H34.985a.985.985,0,0,0,0,1.97Z" transform="translate(-34 -7)"/><path class="f" d="M48.985,13.97h6.894a.985.985,0,1,0,0-1.97H48.985a.985.985,0,0,0,0,1.97Z" transform="translate(-48 -7.076)"/></g></g></svg>