<svg xmlns="http://www.w3.org/2000/svg" width="104.509" height="57.561" viewBox="0 0 104.509 57.561"><defs><style>.a{fill:none;stroke:#f7931e;stroke-linecap:round;stroke-linejoin:round;}.b{fill:#f36290;}.c{fill:#f7931e;}.d{fill:#ff5959;}.e{fill:#00a6d6;}.f{fill:#0363a9;}</style></defs><g transform="translate(15.604)"><path class="a" d="M599.869,370.734s-8.5-1.369-11.5-8.869-3.5-10-3.5-15.749-3.25-9-6.25-10.25" transform="translate(-570.939 -328.809)"/><path class="b" d="M583.559,372.549s7.065-4.84,4.842-8.748S580.675,366.771,583.559,372.549Z" transform="translate(-563.068 -335.042)"/><path class="b" d="M605.216,361.818s-3.435-7.844-7.69-6.389S599,363.573,605.216,361.818Z" transform="translate(-589.668 -333.319)"/><path class="b" d="M588.118,351.084s8.3-2.1,7.565-6.536S587.407,344.666,588.118,351.084Z" transform="translate(-574.052 -330.417)"/><path class="c" d="M613.744,334.074s-2.383-8.226-6.791-7.338S607.353,335,613.744,334.074Z" transform="translate(-605.248 -326.669)"/></g><g transform="translate(0 11.698)"><path class="d" d="M525.887,397.784c0,1.795,9.513,3.25,21.249,3.25s21.249-1.455,21.249-3.25-9.513-3.25-21.249-3.25S525.887,395.99,525.887,397.784Z" transform="translate(-483.389 -355.405)"/><path class="d" d="M581.271,397.784c0,1.795,9.513,3.25,21.249,3.25s21.25-1.455,21.25-3.25-9.514-3.25-21.25-3.25S581.271,395.99,581.271,397.784Z" transform="translate(-581.271 -355.405)"/><path class="d" d="M581.267,385.477c-.422,1.745,8.484,5.394,19.891,8.152s21,3.579,21.418,1.835-8.484-5.394-19.891-8.152S581.689,383.732,581.267,385.477Z" transform="translate(-580.077 -353.085)"/><path class="d" d="M581.255,374.686c-.776,1.618,7.173,7.043,17.755,12.118s19.789,7.874,20.566,6.256-7.174-7.043-17.756-12.118S582.031,373.068,581.255,374.686Z" transform="translate(-577.078 -350.68)"/><ellipse class="d" cx="21.249" cy="3.25" rx="21.249" ry="3.25" transform="matrix(-0.779, -0.627, 0.627, -0.779, 40.46, 44.911)"/><ellipse class="d" cx="21.249" cy="3.25" rx="21.249" ry="3.25" transform="translate(39.94 44.384) rotate(-128.095)"/><path class="d" d="M581.12,348.178c-1.639.731.909,10.012,5.691,20.729s9.988,18.812,11.627,18.081-.909-10.012-5.691-20.729S582.759,347.447,581.12,348.178Z" transform="translate(-555.939 -344.609)"/><path class="d" d="M580.912,344.242c-1.767.315-1.531,9.935.527,21.489s5.159,20.665,6.926,20.35,1.531-9.936-.527-21.49S582.679,343.926,580.912,344.242Z" transform="translate(-545.867 -343.701)"/><path class="d" d="M579.69,343.542c-1.789-.135-3.956,9.242-4.84,20.944s-.148,21.3,1.642,21.434,3.956-9.242,4.84-20.944S581.48,343.677,579.69,343.542Z" transform="translate(-533.994 -343.54)"/><path class="d" d="M577.168,345.959c-1.711-.542-5.969,8.09-9.51,19.278s-5.023,20.7-3.312,21.24,5.968-8.09,9.509-19.278S578.879,346.5,577.168,345.959Z" transform="translate(-521.848 -344.097)"/><ellipse class="d" cx="3.25" cy="21.249" rx="3.25" ry="21.249" transform="translate(45.174 44.223) rotate(-145.442)"/><path class="d" d="M571.343,363.182c-1.151-1.377-9.384,3.607-18.388,11.134s-15.37,14.743-14.219,16.121,9.384-3.608,18.387-11.134S572.494,364.559,571.343,363.182Z" transform="translate(-496.237 -348.057)"/><path class="d" d="M569.569,375.289c-.756-1.628-10,1.061-20.64,6.006s-18.658,10.273-17.9,11.9,10-1.061,20.64-6.007S570.326,376.916,569.569,375.289Z" transform="translate(-488.531 -350.817)"/><path class="d" d="M568.682,386.571c-.385-1.753-9.989-1.13-21.451,1.39s-20.441,5.985-20.055,7.738,9.989,1.13,21.451-1.39S569.068,388.324,568.682,386.571Z" transform="translate(-484.678 -353.321)"/></g><g transform="translate(38.49 21.836)"><path class="e" d="M565.7,394.851s2.608-3.478-1.739-7.824c0,0,2.514-14.721-12.5-16.7,0,0-2.832-9.913-11.329-11.046a15.516,15.516,0,0,0-17.277,11.613,15.171,15.171,0,0,0-12.462,1.7c-5.948,3.965-5.381,12.178-5.381,12.178s-6.515,2.323-3.966,10.083Z" transform="translate(-500.458 -359.126)"/><path class="f" d="M514.025,383.014a14.527,14.527,0,0,0-7.826-8.251c.813-8.187-2.512-12.955-5.741-15.612a16.846,16.846,0,0,1,2.82.13c8.5,1.133,11.329,11.046,11.329,11.046,15.011,1.982,12.5,16.7,12.5,16.7,4.347,4.347,1.739,7.824,1.739,7.824H510.819C514.159,391.674,515.583,387.179,514.025,383.014Z" transform="translate(-463.6 -359.129)"/></g></svg>