<svg xmlns="http://www.w3.org/2000/svg" width="94.603" height="44.94" viewBox="0 0 94.603 44.94"><defs><style>.a,.e{fill:none;stroke-linecap:round;stroke-linejoin:round;}.a{stroke:#f36290;}.b{fill:#f36290;}.c{fill:#00a6d6;}.d{fill:#f7931e;}.e{stroke:#ff5959;}</style></defs><g transform="translate(48 -3)"><g transform="translate(-48 3)"><g transform="translate(67.471 0.213)"><path class="a" d="M257.962,391.008s7.972-1.283,10.785-8.317,3.282-9.378,3.282-14.771,3.048-8.44,5.862-9.612" transform="translate(-257.962 -351.688)"/><path class="b" d="M267.032,394.375s-6.627-4.538-4.541-8.2S269.736,388.956,267.032,394.375Z" transform="translate(-259.118 -359.198)"/><path class="b" d="M275.4,383.851s3.222-7.357,7.212-5.992S281.228,385.5,275.4,383.851Z" transform="translate(-262.851 -357.122)"/><path class="b" d="M274.552,373.009s-7.787-1.97-7.1-6.13S275.219,366.99,274.552,373.009Z" transform="translate(-260.612 -353.626)"/><path class="b" d="M284.591,356.055s2.234-7.715,6.369-6.882S290.585,356.926,284.591,356.055Z" transform="translate(-265.427 -349.11)"/></g><ellipse class="c" cx="19.929" cy="3.048" rx="19.929" ry="3.048" transform="translate(0 36.698)"/><ellipse class="c" cx="19.929" cy="3.048" rx="19.929" ry="3.048" transform="translate(39.858 36.698)"/><path class="c" d="M258.327,390.693c.4,1.636-7.956,5.059-18.655,7.646s-19.691,3.356-20.087,1.72,7.956-5.059,18.655-7.646S257.932,389.057,258.327,390.693Z" transform="translate(-179.728 -360.313)"/><path class="c" d="M255.512,379.93c.728,1.518-6.727,6.606-16.652,11.364s-18.56,7.386-19.288,5.867,6.728-6.606,16.653-11.364S254.784,378.413,255.512,379.93Z" transform="translate(-179.715 -357.416)"/><path class="c" d="M250.59,369.221c1.056,1.311-5.038,7.969-13.612,14.872s-16.379,11.435-17.434,10.123,5.038-7.969,13.611-14.872S249.535,367.91,250.59,369.221Z" transform="translate(-179.687 -354.471)"/><path class="c" d="M244.091,360.411c1.325,1.038-3.106,8.9-9.9,17.565s-13.37,14.842-14.695,13.8,3.106-8.9,9.9-17.564S242.766,359.372,244.091,360.411Z" transform="translate(-179.642 -352.033)"/><path class="c" d="M235.651,353.447c1.537.686-.852,9.39-5.337,19.441s-9.367,17.644-10.9,16.957.853-9.39,5.337-19.441S234.113,352.761,235.651,353.447Z" transform="translate(-179.552 -350.1)"/><path class="c" d="M226.148,349.513c1.657.3,1.436,9.319-.494,20.155s-4.838,19.381-6.5,19.085-1.436-9.318.494-20.154S224.491,349.218,226.148,349.513Z" transform="translate(-179.301 -349.007)"/><path class="c" d="M214.687,348.814c1.679-.127,3.711,8.668,4.54,19.643s.139,19.975-1.54,20.1-3.711-8.667-4.539-19.643S213.009,348.941,214.687,348.814Z" transform="translate(-177.829 -348.813)"/><ellipse class="c" cx="3.048" cy="19.929" rx="3.048" ry="19.929" transform="translate(24.927 2.665) rotate(-17.559)"/><path class="c" d="M188.067,358.394c1.387-.955,7.571,5.619,13.814,14.684s10.181,17.187,8.794,18.141-7.571-5.619-13.814-14.683S186.681,359.349,188.067,358.394Z" transform="translate(-170.818 -351.473)"/><path class="c" d="M177.047,368.44c1.079-1.292,8.8,3.383,17.246,10.441S208.708,392.71,207.629,394s-8.8-3.383-17.246-10.441S175.967,369.731,177.047,368.44Z" transform="translate(-167.771 -354.255)"/><path class="c" d="M169.346,380.531c.709-1.526,9.376,1,19.357,5.633s17.5,9.635,16.789,11.161-9.376-1-19.357-5.633S168.636,382.058,169.346,380.531Z" transform="translate(-165.635 -357.58)"/><path class="c" d="M165.5,391.782c.361-1.644,9.368-1.061,20.118,1.3s19.171,5.613,18.809,7.257-9.368,1.061-20.118-1.3S165.134,393.426,165.5,391.782Z" transform="translate(-164.565 -360.598)"/><g transform="translate(29.524 4.076)"><path class="d" d="M225.007,394.674s-11.436-1.172-16.574-6.565-3.3-7.737,0-8.44,5.544.7,2.782-4.689-3.8-7.972,0-8.206,5.678,2.814,7.32.938-.235-9.612,5.627-12.426,9.568,2.11,5.839,8.675-1.385,8.206,3.07,7.5,7.944,2.814,5.731,4.924-9.482,3.751-6.9,5.158,8.844,1.642,7.587,4.455S227.259,393.736,225.007,394.674Z" transform="translate(-205.232 -354.477)"/><path class="e" d="M228.915,376.777s-2.437,13.689,2.566,24.149" transform="translate(-211.705 -360.729)"/></g></g></g></svg>