<svg xmlns="http://www.w3.org/2000/svg" width="280.731" height="238.96" viewBox="0 0 280.731 238.96"><defs><style>.a,.c{fill:#10bce6;}.a{opacity:0.127;}.b{fill:#60cbd6;}.d{fill:#ff5959;}.e{fill:#008dc7;}.f{fill:#f7931e;}.g{fill:#1e76e2;}.h{fill:#005ac7;}.i{fill:#ea7e00;}.j{fill:#effdff;}.k{fill:#0363a9;}</style></defs><g transform="translate(56.85 2.799)"><path class="a" d="M71.677,73.61c9.239.616,13.1-5.67,17.446-13.749,11.885-22.12,38.351-19.989,47.23-6.368,6.288,9.648,19.849,7.663,30.819,3.888,10.8-3.717,29.193-7.287,43.845-2.845,12.8,3.879,18.049,17.873,29.715,17.012,25.449-1.878,38.279,23.177,33.67,34.1-3.008,7.132-4.5,15.11-2.056,22.449,2.694,8.083,8.848,14.481,13.822,21.43s8.98,15.634,6.507,23.786c-2.116,6.975-8.427,11.8-12.345,17.969-12.166,19.154-.131,48.51-16.342,64.476-11.6,11.428-30.522,8.79-46.76,10.971-13.54,1.819-26.282,7.489-39.761,9.711-27.3,4.5-54.861-5.411-82.533-5.69-9.747-.1-19.677.984-29.118-1.412A40.492,40.492,0,0,1,38.13,244.378c-6.03-16.7-.316-36.017-7.129-52.416-5.55-13.36-19.122-24.228-18.268-38.645.531-8.974,6.68-16.482,10.909-24.443C29.927,117.043,21.606,70.269,71.677,73.61Zm80.549-21.672c-2.428,0-4.4,1.5-4.4,3.359s1.974,3.2,4.4,3.359c7.9.52,7.9-2.663,7.9-4.518C160.123,51.174,154.655,51.938,152.226,51.938Zm80.193,14.324a13.016,13.016,0,0,0,7.548,2.92,3.027,3.027,0,0,0,2.1-.472,1.706,1.706,0,0,0,.155-2.4,4.03,4.03,0,0,0-1.489-.812,4.681,4.681,0,0,1-2.3-1.71,1.682,1.682,0,0,0-.522-.649C236.381,62.282,229.641,63.974,232.419,66.262ZM245.87,69.23a3.463,3.463,0,0,0,2.157-.208c.448-.145,1-.465.878-.916a.84.84,0,0,0-.463-.468,2.983,2.983,0,0,0-3.04-.225C244.476,68.041,245.175,68.991,245.87,69.23ZM277.984,132.5a6.141,6.141,0,0,0,1.392,2.8,23.584,23.584,0,0,0,4.025,4.582,4.081,4.081,0,0,0,2.326,1.056,3.653,3.653,0,0,0,2.19-.788,6.942,6.942,0,0,0,2.833-4.794c.3-2.6-.915-5.125-2.324-7.337a9.133,9.133,0,0,0-3.351-3.47c-2.448-1.232-4.065-.156-4.75,2.005C279.7,128.542,277.729,130.283,277.984,132.5ZM17.5,192.961c-1.289,1.133-.126,4.447.254,6.634a4.031,4.031,0,0,0,.682,1.858,4.515,4.515,0,0,0,2.4,1.266c1.569.454,3.471.839,4.67-.261a4.4,4.4,0,0,0,1.013-3.343,31.121,31.121,0,0,0-.177-3.278,3.493,3.493,0,0,0-.412-1.508,3.367,3.367,0,0,0-1.624-1.168C22.058,192.214,18.79,191.829,17.5,192.961Zm78.8,83.03c-.762.152-1.673.481-1.783,1.242-.091.629.439,1.165.953,1.547,4.208,3.13,9.87,3.33,15.138,3.4a4.5,4.5,0,0,0,1.818-.225,2.33,2.33,0,0,0,1.143-3.045,3.77,3.77,0,0,0-.812-1.044C108.522,273.761,101.565,274.938,96.3,275.991Zm105.084-2.118c-4.749,3.465.054,6.556,6.052,4.262a84.152,84.152,0,0,1,9.639-3.285c1.069-.267,7.534-1.661,7.535-3.109,0-3.838-7.284-2.932-11.865-2.292A23.873,23.873,0,0,0,201.383,273.873Z" transform="translate(-69.544 -46.026)"/><g transform="translate(0.001 11.982)"><path class="b" d="M159.46,147.431A13.663,13.663,0,0,1,146.972,159.6q-41.673,3.283-83.343,2.4-24.127-.5-48.254-2.4A13.663,13.663,0,0,1,2.887,147.431a492.59,492.59,0,0,1-1.8-85.885c.307-4.6,3.048-6.027,5.05-8.529a9.152,9.152,0,0,0,2.048-5.008A13.657,13.657,0,0,1,20.671,35.842c43.863-3.456,73.762-4.374,117.626-.915a13.663,13.663,0,0,1,12.491,12.168c.745,6.879,10.019,7.582,10.476,14.458a492.479,492.479,0,0,1-1.8,85.878Z" transform="translate(-0.001 -26.159)"/><path class="c" d="M163.6,47.377l-.065-.007a909.377,909.377,0,0,0-160.049,0l-.065.01q.681-10.319,1.8-20.635A13.663,13.663,0,0,1,17.711,14.574a836.406,836.406,0,0,1,131.6,0A13.663,13.663,0,0,1,161.8,26.745Q162.918,37.059,163.6,47.377Z" transform="translate(-2.335 -11.982)"/><circle class="d" cx="7.662" cy="7.662" r="7.662" transform="translate(13.007 9.683)"/><circle class="e" cx="7.662" cy="7.662" r="7.662" transform="translate(58.981 9.683)"/><circle class="f" cx="7.662" cy="7.662" r="7.662" transform="translate(35.994 9.683)"/></g><g transform="translate(16.86 49.112)"><path class="g" d="M386.562,348.155a278.034,278.034,0,0,0-37.867,30.312s-1.473,5.075,5.556,12.1,12.1,5.556,12.1,5.556a278.033,278.033,0,0,0,30.312-37.867" transform="translate(-348.566 -279.651)"/><path class="h" d="M388.43,372.113l-3.669-3.669c-17.786,19.584-32.619,34.65-36.189,38.253,5.67,4.408,9.547,3.284,9.547,3.284A277.954,277.954,0,0,0,388.43,372.113Z" transform="translate(-340.33 -293.504)"/><circle class="f" cx="45.862" cy="45.862" r="45.862" transform="translate(24.881 0)"/><path class="i" d="M132.619,223.8q1.719.127,3.465.128a45.862,45.862,0,1,0,0-91.725q-1.749,0-3.465.128a45.865,45.865,0,0,1,0,91.468Z" transform="translate(-65.343 -132.208)"/><circle class="j" cx="36.08" cy="36.08" r="36.08" transform="translate(34.663 9.781)"/><path class="b" d="M204.491,199.122a36.08,36.08,0,0,0-36.08-36.08,36.668,36.668,0,0,0-4.956.337,36.086,36.086,0,0,1,0,71.487,36.659,36.659,0,0,0,4.956.337,36.08,36.08,0,0,0,36.08-36.08Z" transform="translate(-97.668 -153.261)"/></g><g transform="translate(57.368 80.841)"><g transform="translate(0 0)"><path class="k" d="M186.757,255.332a7.71,7.71,0,0,1-5.2-2.252,2.451,2.451,0,0,1,3.46-3.473c.085.08,1.329,1.231,2.419.627a1.876,1.876,0,0,0,.937-1.654V231.5a2.451,2.451,0,1,1,4.9,0v17.081a6.78,6.78,0,0,1-3.46,5.94A6.229,6.229,0,0,1,186.757,255.332Z" transform="translate(-180.842 -229.048)"/></g><g transform="translate(15.111)"><g transform="translate(28.071)"><path class="k" d="M319.416,243.807a2.451,2.451,0,0,1-2.451-2.451V231.5a2.451,2.451,0,0,1,2.451-2.451h6.208a7.369,7.369,0,0,1,0,14.738c-1.345,0-6.2.022-6.2.022Zm2.451-9.857v4.945c1.42-.006,3.059-.011,3.757-.011a2.466,2.466,0,0,0,0-4.933h-3.757Z" transform="translate(-316.965 -229.047)"/><path class="k" d="M319.416,276.5a2.451,2.451,0,0,1-2.451-2.451V262.521a2.451,2.451,0,0,1,2.451-2.451h7.292a8.2,8.2,0,1,1,0,16.408c-1.573,0-7.281.025-7.281.025h-.011Zm2.451-11.531v6.618c1.755-.007,3.954-.015,4.841-.015a3.3,3.3,0,0,0,0-6.6Z" transform="translate(-316.965 -250.229)"/></g><path class="k" d="M241.613,255.322a13.137,13.137,0,1,1,13.137-13.137A13.152,13.152,0,0,1,241.613,255.322Zm0-21.372a8.235,8.235,0,1,0,8.235,8.235A8.244,8.244,0,0,0,241.613,233.95Z" transform="translate(-228.476 -229.048)"/></g></g></g></svg>