<svg xmlns="http://www.w3.org/2000/svg" width="128.747" height="148.346" viewBox="0 0 128.747 148.346"><defs><style>.a{fill:#f2f2f2;}.b{fill:#b5dcff;}.c{fill:#8bcaff;}.d{fill:#64a6f4;}.e{fill:#fff;}.f{fill:#d8effc;}.g{fill:#f36290;}.h{fill:#e5646e;}.i{fill:#dbedff;}.j{fill:#477b9e;}.k{fill:#3f6d8e;}.l{fill:#365e7d;}.m{fill:#f7931e;}.n{fill:#c8dbfb;}.o{fill:#00c7fb;}.p{fill:#294b64;}</style></defs><g transform="translate(-44.391)"><path class="a" d="M525.7,562.95H511.811l-.426.515,2.388,9.642.562.453h8.7l.718-.453,2.388-9.642Z" transform="translate(-363.903 -438.677)"/><path class="b" d="M518.4,562.95h-6.587l-.426.515,2.388,9.642.562.453h5.18Z" transform="translate(-363.903 -438.677)"/><path class="c" d="M522.2,608.96l2.542,10.261a2.522,2.522,0,0,0,4.9,0l2.542-10.261Z" transform="translate(-372.334 -474.53)"/><path class="d" d="M527.9,608.96H522.2l2.542,10.261a2.532,2.532,0,0,0,4.346,1.073Z" transform="translate(-372.334 -474.53)"/><path class="e" d="M134.255,112.468l-3.648-1.725H46.952l-2.56,1.725V231.011a3.642,3.642,0,0,0,3.631,3.631h82.6a3.641,3.641,0,0,0,3.631-3.631Z" transform="translate(0 -86.296)"/><path class="f" d="M54.9,231.01V112.466l2.56-1.725H46.952l-2.56,1.725V231.01a3.642,3.642,0,0,0,3.631,3.631H58.534A3.641,3.641,0,0,1,54.9,231.01Z" transform="translate(0 -86.295)"/><path class="g" d="M130.624,42.656h-82.6a3.641,3.641,0,0,0-3.631,3.631V59.412h89.864V46.287A3.642,3.642,0,0,0,130.624,42.656Z" transform="translate(0 -33.24)"/><path class="h" d="M58.534,42.658H48.022a3.641,3.641,0,0,0-3.631,3.631V59.413H54.9V46.288A3.641,3.641,0,0,1,58.534,42.658Z" transform="translate(0 -33.241)"/><path class="i" d="M529.372,42.658H527.02a3.539,3.539,0,0,0-3.528,3.528v9.5l.32.476h8.95l.139-.476v-9.5A3.539,3.539,0,0,0,529.372,42.658Z" transform="translate(-373.337 -33.241)"/><path class="b" d="M528.2,46.185a3.539,3.539,0,0,1,2.352-3.322,3.493,3.493,0,0,0-1.176-.207h-2.352a3.539,3.539,0,0,0-3.529,3.528v9.5l.32.476h4.7l-.32-.476v-9.5Z" transform="translate(-373.338 -33.24)"/><path class="j" d="M510.166,304.65l-.766.9v55.423a1.907,1.907,0,0,0,1.907,1.907h11.816a1.907,1.907,0,0,0,1.907-1.907V305.547l-.9-.9Z" transform="translate(-362.357 -237.398)"/><path class="k" d="M517.216,360.969V305.547l.766-.9h-7.815l-.766.9v55.423a1.907,1.907,0,0,0,1.907,1.907h7.815A1.907,1.907,0,0,1,517.216,360.969Z" transform="translate(-362.357 -237.398)"/><path class="k" d="M521.394,101.5h-8.357a3.647,3.647,0,0,0-3.637,3.637v42.106h15.631V105.136A3.647,3.647,0,0,0,521.394,101.5Z" transform="translate(-362.357 -79.093)"/><path class="l" d="M520.852,101.5h-7.815a3.647,3.647,0,0,0-3.637,3.637v42.106h7.815V105.136A3.647,3.647,0,0,1,520.852,101.5Z" transform="translate(-362.357 -79.093)"/><g transform="translate(54.213)"><path class="m" d="M91.089,18.833a2.205,2.205,0,0,1-2.205-2.205V2.205a2.205,2.205,0,1,1,4.41,0V16.628A2.2,2.2,0,0,1,91.089,18.833Z" transform="translate(-88.884)"/></g><g transform="translate(67.375)"><path class="m" d="M150.711,18.833a2.205,2.205,0,0,1-2.205-2.205V2.205a2.205,2.205,0,0,1,4.411,0V16.628A2.205,2.205,0,0,1,150.711,18.833Z" transform="translate(-148.506)"/></g><g transform="translate(80.537)"><path class="m" d="M210.335,18.833a2.205,2.205,0,0,1-2.205-2.205V2.205a2.205,2.205,0,1,1,4.41,0V16.628A2.205,2.205,0,0,1,210.335,18.833Z" transform="translate(-208.13)"/></g><g transform="translate(93.699)"><path class="m" d="M269.958,18.833a2.205,2.205,0,0,1-2.205-2.205V2.205a2.205,2.205,0,0,1,4.411,0V16.628A2.206,2.206,0,0,1,269.958,18.833Z" transform="translate(-267.753)"/></g><g transform="translate(106.861)"><path class="m" d="M329.581,18.833a2.205,2.205,0,0,1-2.205-2.205V2.205a2.205,2.205,0,0,1,4.411,0V16.628A2.206,2.206,0,0,1,329.581,18.833Z" transform="translate(-327.376)"/></g><g transform="translate(120.023)"><path class="m" d="M389.2,18.833A2.205,2.205,0,0,1,387,16.628V2.205a2.205,2.205,0,0,1,4.411,0V16.628A2.205,2.205,0,0,1,389.2,18.833Z" transform="translate(-386.998)"/></g><g transform="translate(54.213 56.389)"><path class="n" d="M95.043,259.849H91.089a2.205,2.205,0,1,1,0-4.41h3.953a2.205,2.205,0,1,1,0,4.41Z" transform="translate(-88.884 -255.439)"/></g><g transform="translate(54.213 46.834)"><path class="n" d="M95.043,216.566H91.089a2.205,2.205,0,1,1,0-4.41h3.953a2.205,2.205,0,1,1,0,4.41Z" transform="translate(-88.884 -212.155)"/></g><g transform="translate(54.213 85.054)"><path class="n" d="M95.043,389.7H91.089a2.205,2.205,0,0,1,0-4.411h3.953a2.205,2.205,0,0,1,0,4.411Z" transform="translate(-88.884 -385.289)"/></g><g transform="translate(54.213 75.499)"><path class="n" d="M95.043,346.416H91.089a2.205,2.205,0,0,1,0-4.411h3.953a2.205,2.205,0,0,1,0,4.411Z" transform="translate(-88.884 -342.005)"/></g><g transform="translate(54.213 65.944)"><path class="n" d="M95.043,303.133H91.089a2.205,2.205,0,0,1,0-4.41h3.953a2.205,2.205,0,0,1,0,4.41Z" transform="translate(-88.884 -298.723)"/></g><g transform="translate(54.213 113.718)"><path class="n" d="M95.043,519.55H91.089a2.205,2.205,0,0,1,0-4.411h3.953a2.205,2.205,0,0,1,0,4.411Z" transform="translate(-88.884 -515.14)"/></g><g transform="translate(54.213 104.164)"><path class="o" d="M95.043,476.267H91.089a2.205,2.205,0,0,1,0-4.411h3.953a2.205,2.205,0,0,1,0,4.411Z" transform="translate(-88.884 -471.856)"/></g><g transform="translate(54.213 94.609)"><path class="o" d="M95.043,432.983H91.089a2.205,2.205,0,0,1,0-4.411h3.953a2.205,2.205,0,0,1,0,4.411Z" transform="translate(-88.884 -428.572)"/></g><g transform="translate(54.213 132.829)"><path class="n" d="M95.043,606.119H91.089a2.205,2.205,0,0,1,0-4.411h3.953a2.205,2.205,0,0,1,0,4.411Z" transform="translate(-88.884 -601.708)"/></g><g transform="translate(54.213 123.273)"><path class="n" d="M95.043,562.834H91.089a2.205,2.205,0,0,1,0-4.411h3.953a2.205,2.205,0,0,1,0,4.411Z" transform="translate(-88.884 -558.423)"/></g><g transform="translate(67.375 56.389)"><path class="n" d="M203.359,259.849H150.711a2.205,2.205,0,1,1,0-4.41h52.648a2.205,2.205,0,1,1,0,4.41Z" transform="translate(-148.506 -255.439)"/></g><g transform="translate(67.375 46.834)"><path class="n" d="M203.359,216.566H150.711a2.205,2.205,0,1,1,0-4.41h52.648a2.205,2.205,0,1,1,0,4.41Z" transform="translate(-148.506 -212.155)"/></g><g transform="translate(54.213 37.278)"><path class="n" d="M95.043,173.282H91.089a2.205,2.205,0,1,1,0-4.41h3.953a2.205,2.205,0,0,1,0,4.41Z" transform="translate(-88.884 -168.872)"/><g transform="translate(13.162)"><path class="n" d="M203.359,173.282H150.711a2.205,2.205,0,1,1,0-4.41h52.648a2.205,2.205,0,1,1,0,4.41Z" transform="translate(-148.506 -168.872)"/></g></g><g transform="translate(67.375 85.054)"><path class="n" d="M203.359,389.7H150.711a2.205,2.205,0,1,1,0-4.411h52.648a2.205,2.205,0,1,1,0,4.411Z" transform="translate(-148.506 -385.289)"/></g><g transform="translate(67.375 75.499)"><path class="n" d="M203.359,346.416H150.711a2.205,2.205,0,1,1,0-4.411h52.648a2.205,2.205,0,1,1,0,4.411Z" transform="translate(-148.506 -342.005)"/></g><g transform="translate(67.375 65.944)"><path class="n" d="M203.359,303.133H150.711a2.205,2.205,0,1,1,0-4.41h52.648a2.205,2.205,0,1,1,0,4.41Z" transform="translate(-148.506 -298.723)"/></g><g transform="translate(67.375 113.718)"><path class="n" d="M203.359,519.55H150.711a2.205,2.205,0,1,1,0-4.411h52.648a2.205,2.205,0,1,1,0,4.411Z" transform="translate(-148.506 -515.14)"/></g><g transform="translate(67.375 104.164)"><path class="o" d="M203.359,476.267H150.711a2.205,2.205,0,1,1,0-4.411h52.648a2.205,2.205,0,1,1,0,4.411Z" transform="translate(-148.506 -471.856)"/></g><g transform="translate(67.375 94.609)"><path class="o" d="M203.359,432.983H150.711a2.205,2.205,0,1,1,0-4.411h52.648a2.205,2.205,0,1,1,0,4.411Z" transform="translate(-148.506 -428.572)"/></g><g transform="translate(67.375 132.829)"><path class="n" d="M203.359,606.119H150.711a2.205,2.205,0,1,1,0-4.411h52.648a2.205,2.205,0,1,1,0,4.411Z" transform="translate(-148.506 -601.708)"/></g><g transform="translate(67.375 123.273)"><path class="n" d="M203.359,562.834H150.711a2.205,2.205,0,1,1,0-4.411h52.648a2.205,2.205,0,1,1,0,4.411Z" transform="translate(-148.506 -558.423)"/></g><g transform="translate(142.264 28.377)"><path class="p" d="M516.417,170.525a2.205,2.205,0,0,1-2.206-2.205V138.2a5.25,5.25,0,0,0-5.244-5.244H489.953a2.205,2.205,0,1,1,0-4.411h19.015a9.665,9.665,0,0,1,9.654,9.654v30.117A2.2,2.2,0,0,1,516.417,170.525Z" transform="translate(-487.748 -128.548)"/></g></g></svg>