<svg xmlns="http://www.w3.org/2000/svg" width="625.235" height="526.414" viewBox="0 0 625.235 526.414"><defs><style>.a{fill:#fff4e6;}</style></defs><path class="a" d="M144.059,111.086c20.577,1.377,29.186-12.662,38.854-30.708,26.47-49.4,85.415-44.643,105.189-14.222,14,21.548,44.208,17.115,68.64,8.683,24.047-8.3,65.017-16.275,97.65-6.355,28.5,8.663,40.2,39.917,66.181,38,56.68-4.194,85.255,51.763,74.988,76.167-6.7,15.93-10.026,33.747-4.579,50.138,6,18.052,19.705,32.343,30.783,47.861s20,34.918,14.492,53.124c-4.712,15.578-18.769,26.355-27.495,40.132-27.1,42.78-.291,108.342-36.4,144-25.844,25.524-67.979,19.631-104.142,24.5-30.156,4.063-58.534,16.727-88.555,21.689-60.792,10.047-122.185-12.084-183.816-12.709-21.709-.22-43.823,2.2-64.85-3.154-28.053-7.143-51.926-28.728-61.659-55.75-13.431-37.288-.7-80.441-15.878-117.067-12.361-29.838-42.588-54.112-40.685-86.31,1.183-20.044,14.878-36.811,24.3-54.592C51.074,208.09,32.541,103.623,144.059,111.086Zm179.4-48.4c-5.408,0-9.792,3.359-9.792,7.5s4.4,7.145,9.792,7.5c17.587,1.162,17.587-5.948,17.587-10.091C341.041,60.977,328.864,62.683,323.454,62.683Zm178.6,31.991a28.943,28.943,0,0,0,16.811,6.522,6.726,6.726,0,0,0,4.669-1.054,3.817,3.817,0,0,0,.345-5.36,8.968,8.968,0,0,0-3.316-1.814,10.427,10.427,0,0,1-5.118-3.819,3.755,3.755,0,0,0-1.163-1.45C510.881,85.784,495.87,89.564,502.057,94.674Zm29.957,6.628c1.548.535,3.245.042,4.8-.464,1-.324,2.225-1.038,1.956-2.046a1.874,1.874,0,0,0-1.031-1.045c-2.051-1.1-4.71-1.906-6.771-.5S530.466,100.768,532.014,101.3Zm71.524,141.307c.268,2.334,1.707,4.35,3.1,6.251,2.687,3.665,5.417,7.375,8.965,10.235a9.077,9.077,0,0,0,5.18,2.359,8.121,8.121,0,0,0,4.877-1.76,15.514,15.514,0,0,0,6.309-10.708c.66-5.8-2.038-11.447-5.176-16.387-1.943-3.06-4.21-6.11-7.463-7.75-5.451-2.751-9.054-.349-10.579,4.479C607.35,233.772,602.971,237.661,603.538,242.609ZM23.4,377.646c-2.871,2.529-.281,9.932.566,14.818a9.019,9.019,0,0,0,1.519,4.15c1.266,1.6,3.367,2.257,5.337,2.828,3.495,1.014,7.732,1.873,10.4-.582,1.98-1.821,2.122-12.356,1.863-14.787a7.817,7.817,0,0,0-.918-3.368,7.5,7.5,0,0,0-3.616-2.61C33.549,375.979,26.269,375.117,23.4,377.646Zm409.538,180.71c-10.577,7.738.12,14.643,13.479,9.518,7.2-2.761,14.1-5.488,21.468-7.336,2.382-.6,16.779-3.71,16.781-6.944,0-8.572-16.222-6.549-26.426-5.119C450.008,549.627,441.657,551.976,432.935,558.357Z" transform="translate(-12.695 -43.227)"/></svg>