<svg xmlns="http://www.w3.org/2000/svg" xmlns:xlink="http://www.w3.org/1999/xlink" width="133.395" height="133.396" viewBox="0 0 133.395 133.396"><defs><style>.a{fill:url(#a);}.b{fill:#fff;}</style><linearGradient id="a" x1="0.187" y1="0.162" x2="0.709" y2="0.83" gradientUnits="objectBoundingBox"><stop offset="0" stop-color="#ff5959"/><stop offset="1" stop-color="#f7931e"/></linearGradient></defs><g transform="translate(0.302 0.443)"><path class="a" d="M-2282.3-4050.745a66.7,66.7,0,0,1,66.7-66.7,66.7,66.7,0,0,1,66.7,66.7,66.7,66.7,0,0,1-66.7,66.7A66.7,66.7,0,0,1-2282.3-4050.745Z" transform="translate(2282 4117)"/><g transform="translate(43.429 37.83)"><path class="b" d="M194.511,167.171h14.071a4.052,4.052,0,0,1,4.052,4.052V236.73a4.052,4.052,0,0,1-4.052,4.052H194.511a4.052,4.052,0,0,1-4.052-4.052V171.223A4.052,4.052,0,0,1,194.511,167.171Z" transform="translate(-197.19 -175.444)"/><path class="b" d="M336.656,167.171H322.585a4.052,4.052,0,0,0-4.052,4.052V236.73a4.052,4.052,0,0,0,4.052,4.052h14.072a4.052,4.052,0,0,0,4.052-4.052V171.223A4.053,4.053,0,0,0,336.656,167.171Z" transform="translate(-287.546 -175.444)"/></g></g></svg>