<svg xmlns="http://www.w3.org/2000/svg" xmlns:xlink="http://www.w3.org/1999/xlink" width="91.37" height="91.37" viewBox="0 0 91.37 91.37"><defs><style>.a{fill:url(#a);}.b{fill:#fff;}</style><linearGradient id="a" x1="0.134" y1="0.862" x2="0.888" y2="0.147" gradientUnits="objectBoundingBox"><stop offset="0" stop-color="#6429e6"/><stop offset="1" stop-color="#da6cf5"/></linearGradient></defs><circle class="a" cx="45.685" cy="45.685" r="45.685"/><g transform="translate(-132.429 -71.025)"><path class="b" d="M242.879,366.773a4.105,4.105,0,1,1-4.105-4.105A4.105,4.105,0,0,1,242.879,366.773Zm0,0" transform="translate(-60.298 -223.962)"/><path class="b" d="M184.974,120.813a4.124,4.124,0,0,0-2.394,3.733v1.843a4.105,4.105,0,1,1-8.211,0v-1.843a12.369,12.369,0,0,1,7.164-11.192c4.184-1.925,7.2-7.037,7.2-9.546a10.264,10.264,0,1,0-20.528,0,4.106,4.106,0,1,1-8.212,0,18.475,18.475,0,0,1,36.951,0C196.951,109.355,192.139,117.508,184.974,120.813Zm0,0"/></g></svg>