<svg xmlns="http://www.w3.org/2000/svg" viewBox="0 0 1051 1590" width="1051" height="1590">
	<defs>
		<radialGradient id="grd1" gradientUnits="userSpaceOnUse"  cx="1017.131" cy="107.775" r="65.778">
			<stop offset="0" stop-color="#000000"  />
			<stop offset="0.009" stop-color="#030303"  />
			<stop offset="0.228" stop-color="#4e4e4e"  />
			<stop offset="0.434" stop-color="#8d8d8d"  />
			<stop offset="0.62" stop-color="#bebebe"  />
			<stop offset="0.782" stop-color="#e1e1e1"  />
			<stop offset="0.914" stop-color="#f7f7f7"  />
			<stop offset="1" stop-color="#ffffff"  />
		</radialGradient>
		<linearGradient id="grd2" gradientUnits="userSpaceOnUse"  x1="901.553" y1="55.387" x2="1148.413" y2="55.387">
			<stop offset="0" stop-color="#ffbd08"  />
			<stop offset="0.409" stop-color="#f7931e"  />
			<stop offset="1" stop-color="#ff5959"  />
		</linearGradient>
		<linearGradient id="grd3" gradientUnits="userSpaceOnUse"  x1="90.288" y1="274.852" x2="10.764" y2="306.929">
			<stop offset="0" stop-color="#1988f0"  />
			<stop offset="1" stop-color="#10b9e6"  />
		</linearGradient>
		<linearGradient id="grd4" gradientUnits="userSpaceOnUse"  x1="28.611" y1="1167.908" x2="131.515" y2="1358.703">
			<stop offset="0" stop-color="#f7931e"  />
			<stop offset="1" stop-color="#ff5959"  />
		</linearGradient>
		<linearGradient id="grd5" gradientUnits="userSpaceOnUse"  x1="84.835" y1="274.851" x2="10.111" y2="306.933">
			<stop offset="0" stop-color="#1988f0"  />
			<stop offset="1" stop-color="#10b9e6"  />
		</linearGradient>
		<linearGradient id="grd6" gradientUnits="userSpaceOnUse"  x1="984.835" y1="1565.851" x2="910.111" y2="1597.933">
			<stop offset="0" stop-color="#1988f0"  />
			<stop offset="1" stop-color="#10b9e6"  />
		</linearGradient>
	</defs>
	<style>
		tspan { white-space:pre }
		.shp0 { fill: #ffffff } 
		.shp1 { fill: none;stroke: #dbe4f2 } 
		.shp2 { opacity: 0.02;fill: #10bce6 } 
		.shp3 { fill: none;stroke: #60cbd6;stroke-width: 2.122 } 
		.shp4 { fill: #baf2ff } 
		.shp5 { opacity: 0.502;mix-blend-mode: multiply;fill: url(#grd1) } 
		.shp6 { fill: url(#grd2) } 
		.shp7 { fill: none;stroke: #60cbd6;stroke-width: 0.5 } 
		.shp8 { fill: none;stroke: #60cbd6;stroke-width: 0.727 } 
		.shp9 { fill: none;stroke: #60cbd6;stroke-width: 0.955 } 
		.shp10 { fill: none;stroke: #60cbd6;stroke-width: 1.182 } 
		.shp11 { fill: none;stroke: #60cbd6;stroke-width: 1.409 } 
		.shp12 { fill: none;stroke: #60cbd6;stroke-width: 1.636 } 
		.shp13 { fill: none;stroke: #60cbd6;stroke-width: 1.864 } 
		.shp14 { fill: none;stroke: #60cbd6;stroke-width: 2.091 } 
		.shp15 { fill: none;stroke: #60cbd6;stroke-width: 2.318 } 
		.shp16 { fill: none;stroke: #60cbd6;stroke-width: 2.545 } 
		.shp17 { fill: none;stroke: #60cbd6;stroke-width: 2.773 } 
		.shp18 { fill: none;stroke: #60cbd6;stroke-width: 3 } 
		.shp19 { fill: #ede7e4 } 
		.shp20 { fill: #f7f6f0 } 
		.shp21 { opacity: 0.071;fill: url(#grd3) } 
		.shp22 { fill: #10bce6 } 
		.shp23 { opacity: 0.086;fill: none;stroke: #1e76e2 } 
		.shp24 { fill: none;stroke: #46c3df;stroke-linecap:round;stroke-width: 0.951;stroke-dasharray: 5 } 
		.shp25 { fill: #46c3df } 
		.shp26 { fill: #00a6d6 } 
		.shp27 { fill: #0363a9 } 
		.shp28 { opacity: 0.455;fill: #60cbd6 } 
		.shp29 { fill: #f1d1b6 } 
		.shp30 { opacity: 0.078;fill: url(#grd4) } 
		.shp31 { opacity: 0.071;fill: url(#grd5) } 
		.shp32 { opacity: 0.051;fill: #10bce6 } 
		.shp33 { opacity: 0.086;fill: url(#grd6) } 
	</style>
	<g id="Layer">
		<g id="Layer">
			<path id="Layer" class="shp0" d="M5 -0.15L1046 -0.15C1048.77 -0.15 1051 2.08 1051 4.85L1051 1583.85C1051 1586.61 1048.77 1588.85 1046 1588.85L5 1588.85C2.23 1588.85 0 1586.61 0 1583.85L0 4.85C0 2.08 2.23 -0.15 5 -0.15Z" />
			<path id="Layer" class="shp1" d="M5 0.35L1046 0.35C1048.49 0.35 1050.5 2.36 1050.5 4.85L1050.5 1583.85C1050.5 1586.33 1048.49 1588.35 1046 1588.35L5 1588.35C2.51 1588.35 0.5 1586.33 0.5 1583.85L0.5 4.85C0.5 2.36 2.51 0.35 5 0.35Z" />
		</g>
		<path id="Layer" class="shp2" d="M982.48 474.36C964.74 429.87 938.81 417.05 913.59 388.99C882.78 354.72 861.94 329.76 868.03 284.09C877.97 209.45 876.86 24.22 681.29 55.29C611.19 66.43 557.44 122.33 518.85 177.6C486.02 224.63 397.4 188.92 347.91 201.36C284.26 209.36 252.2 280.56 196.54 311.6C81.89 375.52 50.04 462.77 58.66 572.65C61.26 605.85 67.8 658.06 126.11 717.38C204.82 797.44 315.37 804.66 446.63 762.03C476.68 752.27 504.89 737.62 534.39 726.31C542.05 723.37 549.79 720.66 557.62 718.18C565.44 715.69 573.33 713.44 581.28 711.42C589.23 709.4 597.24 707.61 605.3 706.06C613.36 704.51 621.46 703.19 629.59 702.12C705.49 692.09 784.9 702.64 857.15 677.34C866.7 673.98 876.03 670.03 885.08 665.5C894.13 660.97 902.89 655.87 911.3 650.24C919.71 644.6 927.75 638.45 935.39 631.8C943.02 625.16 950.23 618.04 956.97 610.48C990.59 572.71 1001.21 521.33 982.48 474.36Z" />
		<g id="Layer">
			<g id="Layer" style="opacity: 0.275">
				<path id="Layer" class="shp3" d="M951.27 891.27L806.06 1036.47" />
				<path id="Layer" class="shp3" d="M941.83 881.83L796.63 1027.04" />
				<path id="Layer" class="shp3" d="M932.4 872.4L787.19 1017.61" />
				<path id="Layer" class="shp3" d="M922.96 862.96L777.75 1008.17" />
				<path id="Layer" class="shp3" d="M913.53 853.53L768.32 998.74" />
				<path id="Layer" class="shp3" d="M904.09 844.09L758.89 989.3" />
				<path id="Layer" class="shp3" d="M894.66 834.66L749.45 979.87" />
				<path id="Layer" class="shp3" d="M885.23 825.22L740.02 970.43" />
				<path id="Layer" class="shp3" d="M875.79 815.79L730.58 961" />
				<path id="Layer" class="shp3" d="M866.36 806.35L721.15 951.56" />
				<path id="Layer" class="shp3" d="M856.92 796.92L711.71 942.13" />
				<path id="Layer" class="shp3" d="M847.49 787.49L702.28 932.69" />
				<path id="Layer" class="shp3" d="M838.05 778.05L692.84 923.26" />
				<path id="Layer" class="shp3" d="M828.62 768.62L683.41 913.82" />
				<path id="Layer" class="shp3" d="M819.18 759.18L673.97 904.39" />
				<path id="Layer" class="shp3" d="M809.75 749.75L664.54 894.96" />
				<path id="Layer" class="shp3" d="M800.31 740.31L655.11 885.52" />
				<path id="Layer" class="shp3" d="M790.88 730.88L645.67 876.09" />
				<path id="Layer" class="shp3" d="M781.44 721.44L636.24 866.65" />
				<path id="Layer" class="shp3" d="M772.01 712.01L626.8 857.22" />
				<path id="Layer" class="shp3" d="M762.57 702.57L617.37 847.78" />
			</g>
		</g>
		<g id="Layer">
			<path id="Layer" class="shp4" d="M88.9 49.29C88.12 49.29 87.49 48.66 87.49 47.89C87.49 47.11 88.12 46.48 88.9 46.48C89.68 46.48 90.31 47.11 90.31 47.89C90.31 48.66 89.68 49.29 88.9 49.29Z" />
			<path id="Layer" class="shp4" d="M88.9 61.42C88.12 61.42 87.49 60.79 87.49 60.01C87.49 59.23 88.12 58.6 88.9 58.6C89.68 58.6 90.31 59.23 90.31 60.01C90.31 60.79 89.68 61.42 88.9 61.42Z" />
			<path id="Layer" class="shp4" d="M88.9 73.54C88.12 73.54 87.49 72.91 87.49 72.13C87.49 71.36 88.12 70.73 88.9 70.73C89.68 70.73 90.31 71.36 90.31 72.13C90.31 72.91 89.68 73.54 88.9 73.54Z" />
			<path id="Layer" class="shp4" d="M88.9 85.67C88.12 85.67 87.49 85.04 87.49 84.26C87.49 83.48 88.12 82.85 88.9 82.85C89.68 82.85 90.31 83.48 90.31 84.26C90.31 85.04 89.68 85.67 88.9 85.67Z" />
			<path id="Layer" class="shp4" d="M88.9 97.79C88.12 97.79 87.49 97.16 87.49 96.38C87.49 95.6 88.12 94.98 88.9 94.98C89.68 94.98 90.31 95.6 90.31 96.38C90.31 97.16 89.68 97.79 88.9 97.79Z" />
			<path id="Layer" class="shp4" d="M88.9 109.91C88.12 109.91 87.49 109.29 87.49 108.51C87.49 107.73 88.12 107.1 88.9 107.1C89.68 107.1 90.31 107.73 90.31 108.51C90.31 109.29 89.68 109.91 88.9 109.91Z" />
			<path id="Layer" class="shp4" d="M88.9 122.04C88.12 122.04 87.49 121.41 87.49 120.63C87.49 119.85 88.12 119.22 88.9 119.22C89.68 119.22 90.31 119.85 90.31 120.63C90.31 121.41 89.68 122.04 88.9 122.04Z" />
			<path id="Layer" class="shp4" d="M88.9 134.17C88.33 134.17 87.82 133.82 87.6 133.3C87.38 132.77 87.5 132.17 87.91 131.76C88.31 131.36 88.91 131.24 89.44 131.46C89.97 131.68 90.31 132.19 90.31 132.76C90.31 132.94 90.27 133.13 90.2 133.3C90.13 133.47 90.03 133.62 89.9 133.76C89.76 133.89 89.61 133.99 89.44 134.06C89.27 134.13 89.08 134.17 88.9 134.17L88.9 134.17Z" />
			<path id="Layer" class="shp4" d="M76.77 49.29C76.2 49.29 75.69 48.95 75.47 48.43C75.26 47.9 75.38 47.29 75.78 46.89C76.18 46.49 76.79 46.37 77.31 46.59C77.84 46.8 78.18 47.32 78.18 47.89C78.18 48.07 78.14 48.25 78.07 48.43C78 48.6 77.9 48.75 77.77 48.88C77.64 49.01 77.48 49.12 77.31 49.19C77.14 49.26 76.96 49.29 76.77 49.29L76.77 49.29Z" />
			<path id="Layer" class="shp4" d="M76.77 61.42C76.2 61.42 75.69 61.08 75.47 60.55C75.26 60.02 75.38 59.42 75.78 59.02C76.18 58.61 76.79 58.49 77.31 58.71C77.84 58.93 78.18 59.44 78.18 60.01C78.18 60.2 78.14 60.38 78.07 60.55C78 60.72 77.9 60.88 77.77 61.01C77.64 61.14 77.48 61.24 77.31 61.31C77.14 61.38 76.96 61.42 76.77 61.42Z" />
			<path id="Layer" class="shp4" d="M76.77 73.54C76.2 73.54 75.69 73.2 75.47 72.67C75.26 72.15 75.38 71.54 75.78 71.14C76.18 70.74 76.78 70.62 77.31 70.84C77.84 71.05 78.18 71.57 78.18 72.13C78.18 72.32 78.14 72.5 78.07 72.67C78 72.84 77.9 73 77.77 73.13C77.64 73.26 77.48 73.37 77.31 73.44C77.14 73.51 76.96 73.54 76.77 73.54L76.77 73.54Z" />
			<path id="Layer" class="shp4" d="M76.77 85.67C76.2 85.67 75.69 85.32 75.47 84.8C75.26 84.27 75.38 83.67 75.78 83.27C76.18 82.86 76.79 82.74 77.31 82.96C77.84 83.18 78.18 83.69 78.18 84.26C78.18 84.44 78.14 84.63 78.07 84.8C78 84.97 77.9 85.12 77.77 85.25C77.64 85.39 77.48 85.49 77.31 85.56C77.14 85.63 76.96 85.67 76.77 85.67Z" />
			<path id="Layer" class="shp4" d="M76.77 97.79C76.2 97.79 75.69 97.45 75.47 96.92C75.26 96.4 75.38 95.79 75.78 95.39C76.18 94.99 76.79 94.87 77.31 95.08C77.84 95.3 78.18 95.81 78.18 96.38C78.18 96.57 78.14 96.75 78.07 96.92C78 97.09 77.9 97.25 77.77 97.38C77.64 97.51 77.48 97.61 77.31 97.68C77.14 97.75 76.96 97.79 76.77 97.79L76.77 97.79Z" />
			<path id="Layer" class="shp4" d="M76.77 109.91C76.2 109.91 75.69 109.57 75.47 109.05C75.26 108.52 75.38 107.92 75.78 107.51C76.18 107.11 76.78 106.99 77.31 107.21C77.84 107.43 78.18 107.94 78.18 108.51C78.18 108.69 78.14 108.87 78.07 109.05C78 109.22 77.9 109.37 77.77 109.5C77.64 109.63 77.48 109.74 77.31 109.81C77.14 109.88 76.96 109.92 76.77 109.91L76.77 109.91Z" />
			<path id="Layer" class="shp4" d="M76.77 122.04C76.2 122.04 75.69 121.7 75.47 121.17C75.26 120.64 75.38 120.04 75.78 119.64C76.18 119.23 76.79 119.11 77.31 119.33C77.84 119.55 78.18 120.06 78.18 120.63C78.18 120.82 78.14 121 78.07 121.17C78 121.34 77.9 121.5 77.77 121.63C77.64 121.76 77.48 121.86 77.31 121.93C77.14 122 76.96 122.04 76.77 122.04L76.77 122.04Z" />
			<path id="Layer" class="shp4" d="M76.77 134.17C76.2 134.17 75.69 133.82 75.47 133.3C75.26 132.77 75.38 132.17 75.78 131.77C76.18 131.36 76.79 131.24 77.31 131.46C77.84 131.68 78.18 132.19 78.18 132.76C78.18 132.94 78.14 133.13 78.07 133.3C78 133.47 77.9 133.62 77.77 133.75C77.64 133.89 77.48 133.99 77.31 134.06C77.14 134.13 76.96 134.17 76.77 134.17Z" />
			<path id="Layer" class="shp4" d="M64.65 49.29C63.87 49.29 63.25 48.66 63.25 47.89C63.25 47.11 63.87 46.48 64.65 46.48C65.43 46.48 66.06 47.11 66.06 47.89C66.06 48.66 65.43 49.29 64.65 49.29Z" />
			<path id="Layer" class="shp4" d="M64.65 61.42C63.87 61.42 63.25 60.79 63.25 60.01C63.25 59.23 63.87 58.6 64.65 58.6C65.43 58.6 66.06 59.23 66.06 60.01C66.06 60.79 65.43 61.42 64.65 61.42Z" />
			<path id="Layer" class="shp4" d="M64.65 73.54C63.87 73.54 63.25 72.91 63.25 72.13C63.25 71.36 63.87 70.73 64.65 70.73C65.43 70.73 66.06 71.36 66.06 72.13C66.06 72.91 65.43 73.54 64.65 73.54Z" />
			<path id="Layer" class="shp4" d="M64.65 85.67C63.87 85.67 63.25 85.04 63.25 84.26C63.25 83.48 63.87 82.85 64.65 82.85C65.43 82.85 66.06 83.48 66.06 84.26C66.06 85.04 65.43 85.67 64.65 85.67Z" />
			<path id="Layer" class="shp4" d="M64.65 97.79C63.87 97.79 63.25 97.16 63.25 96.38C63.25 95.6 63.87 94.98 64.65 94.98C65.43 94.98 66.06 95.6 66.06 96.38C66.06 97.16 65.43 97.79 64.65 97.79Z" />
			<path id="Layer" class="shp4" d="M64.65 109.91C63.87 109.91 63.25 109.29 63.25 108.51C63.25 107.73 63.87 107.1 64.65 107.1C65.43 107.1 66.06 107.73 66.06 108.51C66.06 109.29 65.43 109.91 64.65 109.91Z" />
			<path id="Layer" class="shp4" d="M64.65 122.04C63.87 122.04 63.25 121.41 63.25 120.63C63.25 119.85 63.87 119.22 64.65 119.22C65.43 119.22 66.06 119.85 66.06 120.63C66.06 121.41 65.43 122.04 64.65 122.04Z" />
			<path id="Layer" class="shp4" d="M64.65 134.17C64.09 134.17 63.57 133.83 63.35 133.3C63.13 132.78 63.25 132.17 63.65 131.77C64.05 131.36 64.66 131.24 65.18 131.46C65.71 131.67 66.05 132.19 66.05 132.76C66.06 132.94 66.02 133.12 65.95 133.29C65.88 133.46 65.78 133.62 65.65 133.75C65.52 133.88 65.36 133.99 65.19 134.06C65.02 134.13 64.84 134.17 64.65 134.17L64.65 134.17Z" />
			<path id="Layer" class="shp4" d="M52.53 49.29C51.75 49.29 51.12 48.66 51.12 47.89C51.12 47.11 51.75 46.48 52.53 46.48C53.31 46.48 53.93 47.11 53.93 47.89C53.93 48.66 53.31 49.29 52.53 49.29Z" />
			<path id="Layer" class="shp4" d="M52.53 61.42C51.75 61.42 51.12 60.79 51.12 60.01C51.12 59.23 51.75 58.6 52.53 58.6C53.31 58.6 53.93 59.23 53.93 60.01C53.93 60.79 53.31 61.42 52.53 61.42Z" />
			<path id="Layer" class="shp4" d="M52.53 73.54C51.75 73.54 51.12 72.91 51.12 72.13C51.12 71.36 51.75 70.73 52.53 70.73C53.31 70.73 53.93 71.36 53.93 72.13C53.93 72.91 53.31 73.54 52.53 73.54Z" />
			<path id="Layer" class="shp4" d="M52.53 85.67C51.75 85.67 51.12 85.04 51.12 84.26C51.12 83.48 51.75 82.85 52.53 82.85C53.31 82.85 53.93 83.48 53.93 84.26C53.93 85.04 53.31 85.67 52.53 85.67Z" />
			<path id="Layer" class="shp4" d="M52.53 97.79C51.75 97.79 51.12 97.16 51.12 96.38C51.12 95.6 51.75 94.98 52.53 94.98C53.31 94.98 53.93 95.6 53.93 96.38C53.93 97.16 53.31 97.79 52.53 97.79Z" />
			<path id="Layer" class="shp4" d="M52.53 109.91C51.75 109.91 51.12 109.29 51.12 108.51C51.12 107.73 51.75 107.1 52.53 107.1C53.31 107.1 53.93 107.73 53.93 108.51C53.93 109.29 53.31 109.91 52.53 109.91Z" />
			<path id="Layer" class="shp4" d="M52.53 122.04C51.75 122.04 51.12 121.41 51.12 120.63C51.12 119.85 51.75 119.22 52.53 119.22C53.31 119.22 53.93 119.85 53.93 120.63C53.93 121.41 53.31 122.04 52.53 122.04Z" />
			<path id="Layer" class="shp4" d="M52.53 134.17C51.96 134.17 51.45 133.82 51.23 133.3C51.01 132.77 51.13 132.17 51.53 131.76C51.94 131.36 52.54 131.24 53.07 131.46C53.59 131.68 53.94 132.19 53.94 132.76C53.94 132.94 53.9 133.13 53.83 133.3C53.76 133.47 53.65 133.62 53.52 133.76C53.39 133.89 53.24 133.99 53.07 134.06C52.9 134.13 52.71 134.17 52.53 134.17L52.53 134.17Z" />
			<path id="Layer" class="shp4" d="M40.4 49.29C39.63 49.29 39 48.66 39 47.89C39 47.11 39.63 46.48 40.4 46.48C41.18 46.48 41.81 47.11 41.81 47.89C41.81 48.66 41.18 49.29 40.4 49.29Z" />
			<path id="Layer" class="shp4" d="M40.4 61.42C39.63 61.42 39 60.79 39 60.01C39 59.23 39.63 58.6 40.4 58.6C41.18 58.6 41.81 59.23 41.81 60.01C41.81 60.79 41.18 61.42 40.4 61.42Z" />
			<path id="Layer" class="shp4" d="M40.4 73.54C39.63 73.54 39 72.91 39 72.13C39 71.36 39.63 70.73 40.4 70.73C41.18 70.73 41.81 71.36 41.81 72.13C41.81 72.91 41.18 73.54 40.4 73.54Z" />
			<path id="Layer" class="shp4" d="M40.4 85.67C39.63 85.67 39 85.04 39 84.26C39 83.48 39.63 82.85 40.4 82.85C41.18 82.85 41.81 83.48 41.81 84.26C41.81 85.04 41.18 85.67 40.4 85.67Z" />
			<path id="Layer" class="shp4" d="M40.4 97.79C39.63 97.79 39 97.16 39 96.38C39 95.6 39.63 94.98 40.4 94.98C41.18 94.98 41.81 95.6 41.81 96.38C41.81 97.16 41.18 97.79 40.4 97.79Z" />
			<path id="Layer" class="shp4" d="M40.4 109.91C39.63 109.91 39 109.29 39 108.51C39 107.73 39.63 107.1 40.4 107.1C41.18 107.1 41.81 107.73 41.81 108.51C41.81 109.29 41.18 109.91 40.4 109.91Z" />
			<path id="Layer" class="shp4" d="M40.4 122.04C39.63 122.04 39 121.41 39 120.63C39 119.85 39.63 119.22 40.4 119.22C41.18 119.22 41.81 119.85 41.81 120.63C41.81 121.41 41.18 122.04 40.4 122.04Z" />
			<path id="Layer" class="shp4" d="M40.4 134.17C39.83 134.17 39.32 133.82 39.1 133.3C38.89 132.77 39.01 132.17 39.41 131.77C39.81 131.36 40.42 131.24 40.94 131.46C41.47 131.68 41.81 132.19 41.81 132.76C41.81 132.94 41.77 133.13 41.7 133.3C41.63 133.47 41.53 133.62 41.4 133.75C41.27 133.89 41.11 133.99 40.94 134.06C40.77 134.13 40.59 134.17 40.4 134.17Z" />
			<path id="Layer" class="shp4" d="M28.28 49.29C27.5 49.29 26.87 48.66 26.87 47.89C26.87 47.11 27.5 46.48 28.28 46.48C29.06 46.48 29.69 47.11 29.69 47.89C29.69 48.66 29.06 49.29 28.28 49.29Z" />
			<path id="Layer" class="shp4" d="M28.28 61.42C27.5 61.42 26.87 60.79 26.87 60.01C26.87 59.23 27.5 58.6 28.28 58.6C29.06 58.6 29.69 59.23 29.69 60.01C29.69 60.79 29.06 61.42 28.28 61.42Z" />
			<path id="Layer" class="shp4" d="M28.28 73.54C27.5 73.54 26.87 72.91 26.87 72.13C26.87 71.36 27.5 70.73 28.28 70.73C29.06 70.73 29.69 71.36 29.69 72.13C29.69 72.91 29.06 73.54 28.28 73.54Z" />
			<path id="Layer" class="shp4" d="M28.28 85.67C27.5 85.67 26.87 85.04 26.87 84.26C26.87 83.48 27.5 82.85 28.28 82.85C29.06 82.85 29.69 83.48 29.69 84.26C29.69 85.04 29.06 85.67 28.28 85.67Z" />
			<path id="Layer" class="shp4" d="M28.28 97.79C27.5 97.79 26.87 97.16 26.87 96.38C26.87 95.6 27.5 94.98 28.28 94.98C29.06 94.98 29.69 95.6 29.69 96.38C29.69 97.16 29.06 97.79 28.28 97.79Z" />
			<path id="Layer" class="shp4" d="M28.28 109.91C27.5 109.91 26.87 109.29 26.87 108.51C26.87 107.73 27.5 107.1 28.28 107.1C29.06 107.1 29.69 107.73 29.69 108.51C29.69 109.29 29.06 109.91 28.28 109.91Z" />
			<path id="Layer" class="shp4" d="M28.28 122.04C27.5 122.04 26.87 121.41 26.87 120.63C26.87 119.85 27.5 119.22 28.28 119.22C29.06 119.22 29.69 119.85 29.69 120.63C29.69 121.41 29.06 122.04 28.28 122.04Z" />
			<path id="Layer" class="shp4" d="M28.28 134.17C27.71 134.17 27.2 133.82 26.98 133.3C26.76 132.77 26.88 132.17 27.29 131.77C27.69 131.36 28.29 131.24 28.82 131.46C29.34 131.68 29.69 132.19 29.69 132.76C29.69 132.94 29.65 133.13 29.58 133.3C29.51 133.47 29.41 133.62 29.27 133.75C29.14 133.89 28.99 133.99 28.82 134.06C28.65 134.13 28.46 134.17 28.28 134.17L28.28 134.17Z" />
		</g>
		<g id="Layer">
			<g id="Layer" style="opacity: 0.133">
				<path id="Layer" class="shp5" d="M1051.51 154.05C1009.89 184.97 960.77 189.32 941.78 163.77C922.79 138.22 941.13 92.44 982.75 61.5C1024.37 30.57 1073.5 26.23 1092.49 51.78C1111.48 77.33 1093.13 123.12 1051.51 154.05Z" />
				<path id="Layer" class="shp6" d="M908.23 5.09C918.33 10.37 914.45 24.52 912.43 33.19C909.03 53.74 906.43 74.33 909.39 95.19C913.04 118.48 923.04 142.07 947.25 152.02C973.09 161.26 994.81 140.81 1011.57 124.1C1029.12 107.42 1049.34 101.24 1072.47 100.78C1097.19 100.4 1117.62 106.18 1134.65 83.9C1159.3 52.44 1151.77 -5.3 1117.8 -27.68C1070.67 -57.87 1026.62 -36.92 979.74 -23.28C963.57 -18.49 949.67 -11.21 932.97 -12.02C925.82 -12.37 894.73 -12.3 906.71 3.42" />
			</g>
		</g>
		<g id="Layer" style="opacity: 0.118">
			<path id="Layer" class="shp7" d="M916.49 535.89C865.15 587.22 782.16 587.22 730.83 535.89C679.49 484.55 679.49 401.56 730.83 350.23C782.16 298.89 865.15 298.89 916.49 350.23C967.83 401.56 967.83 484.55 916.49 535.89Z" />
			<path id="Layer" class="shp8" d="M909.95 529.35C862.23 577.07 785.09 577.07 737.37 529.35C689.65 481.63 689.65 404.49 737.37 356.77C785.09 309.05 862.23 309.05 909.95 356.77C957.67 404.49 957.67 481.63 909.95 529.35Z" />
			<path id="Layer" class="shp9" d="M903.41 522.81C859.31 566.91 788.01 566.91 743.91 522.81C699.81 478.71 699.81 407.41 743.91 363.31C788.01 319.21 859.31 319.21 903.41 363.31C947.51 407.41 947.51 478.71 903.41 522.81Z" />
			<path id="Layer" class="shp10" d="M896.87 516.27C856.38 556.75 790.94 556.75 750.45 516.27C709.97 475.78 709.97 410.33 750.45 369.85C790.94 329.37 856.38 329.37 896.87 369.85C937.35 410.33 937.35 475.78 896.87 516.27Z" />
			<path id="Layer" class="shp11" d="M890.33 509.72C853.46 546.59 793.86 546.59 757 509.72C720.13 472.86 720.13 413.26 757 376.39C793.86 339.53 853.46 339.53 890.33 376.39C927.19 413.26 927.19 472.86 890.33 509.72Z" />
			<path id="Layer" class="shp12" d="M841.09 526.35C795.06 535.99 750.06 506.57 740.42 460.54C730.78 414.51 760.2 369.5 806.23 359.86C852.26 350.23 897.27 379.64 906.91 425.68C916.55 471.71 887.13 516.71 841.09 526.35Z" />
			<path id="Layer" class="shp13" d="M837.76 517.51C796.59 525.31 757 498.33 749.2 457.16C741.41 415.99 768.39 376.4 809.56 368.6C850.73 360.81 890.32 387.78 898.12 428.96C905.91 470.13 878.94 509.72 837.76 517.51Z" />
			<path id="Layer" class="shp14" d="M834.5 508.7C798.2 514.69 764.02 490.2 758.02 453.9C752.03 417.6 776.52 383.41 812.82 377.42C849.12 371.42 883.31 395.92 889.3 432.22C895.29 468.52 870.8 502.7 834.5 508.7Z" />
			<path id="Layer" class="shp15" d="M831.37 499.81C799.99 504.08 771.17 482.16 766.9 450.77C762.64 419.38 784.56 390.57 815.95 386.3C847.33 382.04 876.15 403.96 880.42 435.35C884.68 466.73 862.76 495.55 831.37 499.81Z" />
			<path id="Layer" class="shp16" d="M828.48 490.83C802.05 493.48 778.55 474.27 775.89 447.84C773.23 421.41 792.45 397.91 818.87 395.25C845.3 392.6 868.81 411.81 871.46 438.24C874.12 464.66 854.91 488.17 828.48 490.83Z" />
			<path id="Layer" class="shp17" d="M825.82 481.77C804.41 482.97 786.14 466.63 784.94 445.22C783.75 423.81 800.09 405.53 821.5 404.34C842.91 403.15 861.18 419.49 862.38 440.9C863.57 462.31 847.23 480.58 825.82 481.77Z" />
			<path id="Layer" class="shp18" d="M823.66 472.58C807.33 472.58 794.13 459.39 794.13 443.06C794.13 426.73 807.33 413.53 823.66 413.53C839.99 413.53 853.19 426.73 853.19 443.06C853.19 459.39 839.99 472.58 823.66 472.58Z" />
		</g>
		<g id="Layer" style="opacity: 0.302">
			<g id="Layer">
				<path id="Layer" class="shp19" d="M158.95 770.74C162.82 759.25 175.85 754.89 182.46 744.95C190.07 733.49 187.12 716.93 179.15 706.36C178.64 705.68 140.31 630.27 100.17 663.14C88.55 672.65 83.11 707.7 81.66 723.35C79.45 747.3 77.24 771.26 75.03 795.22C72.13 826.63 97.8 850.35 126.74 843.03C138.74 840 157.83 830.19 162.48 816.78C167.98 800.91 153.65 786.44 158.95 770.74Z" />
				<g id="Layer">
					<path id="Layer" class="shp19" d="M116.89 942.93L119.09 842.93L122.67 843L120.47 943.01L116.89 942.93Z" />
				</g>
				<g id="Layer">
					<path id="Layer" class="shp20" d="M119.08 842.95L121.5 734.44L125.08 734.52L122.67 843.03L119.08 842.95Z" />
				</g>
				<g id="Layer">
					<path id="Layer" class="shp20" d="M123.03 759.71L94.89 742.66L96.74 739.59L122.52 755.21L150.72 727.87L153.22 730.44L123.03 759.71Z" />
				</g>
				<g id="Layer">
					<path id="Layer" class="shp20" d="M121.77 800.49L92.48 789.28L93.77 785.93L121.96 796.72L154.4 787.95L155.33 791.41L121.77 800.49Z" />
				</g>
				<g id="Layer">
					<path id="Layer" class="shp20" d="M133.48 794.36L141.1 774.75L144.44 776.05L136.83 795.66L133.48 794.36Z" />
				</g>
				<g id="Layer">
					<path id="Layer" class="shp20" d="M104.41 729.17L108 729.13L108.2 747.53L104.62 747.56L104.41 729.17Z" />
				</g>
			</g>
			<g id="Layer">
				<path id="Layer" class="shp19" d="M67.61 812.59C68.15 802.26 68.42 790.95 62.13 782.74C60.74 781.01 59.11 779.48 57.28 778.21C55.45 776.94 53.45 775.95 51.34 775.25C49.22 774.56 47.02 774.17 44.8 774.11C42.58 774.04 40.35 774.3 38.21 774.88C36.07 775.51 34.04 776.44 32.16 777.64C30.29 778.84 28.59 780.29 27.11 781.95C25.63 783.61 24.38 785.47 23.41 787.47C22.44 789.47 21.75 791.6 21.36 793.79C20.04 801.69 22.67 809.64 23.69 817.59C26.02 835.96 19.8 855.61 27.08 872.64C31.07 881.97 41.28 890.03 50.85 886.68C61.11 883.09 64.64 869.63 65.24 859.99C66.23 844.21 66.77 828.38 67.61 812.59Z" />
				<g id="Layer">
					<path id="Layer" class="shp19" d="M43.25 887.5L46.84 887.39L49.1 960.73L45.52 960.85L43.25 887.5Z" />
				</g>
				<g id="Layer">
					<path id="Layer" class="shp20" d="M41.11 817.92L44.7 817.81L46.85 887.43L43.27 887.54L41.11 817.92Z" />
				</g>
				<g id="Layer">
					<path id="Layer" class="shp20" d="M43.77 842.48L29.35 830.57L31.63 827.8L43.4 837.52L57.07 822.21L59.74 824.6L43.77 842.48Z" />
				</g>
				<g id="Layer">
					<path id="Layer" class="shp20" d="M31.52 860.45L32.83 857.12L44.97 861.92L43.65 865.25L31.52 860.45Z" />
				</g>
			</g>
		</g>
		<g id="Layer">
			<g id="Layer">
				<path id="Layer" class="shp21" d="M-44.85 335.21C-64.04 301.97 -61.32 260.44 -37.95 229.99C-14.59 199.54 24.82 186.16 61.9 196.09C98.97 206.03 126.41 237.32 131.42 275.37C136.43 313.43 118.03 350.75 84.79 369.95C73.99 376.18 62.08 380.22 49.72 381.85C37.37 383.47 24.81 382.65 12.77 379.43C0.74 376.2 -10.55 370.64 -20.44 363.05C-30.32 355.46 -38.62 346 -44.85 335.21L-44.85 335.21Z" />
			</g>
		</g>
		<g id="Layer" style="opacity: 0.075">
			<path id="Layer" class="shp22" d="M240.73 601.69C239.18 601.69 237.92 600.44 237.92 598.88C237.92 597.33 239.18 596.07 240.73 596.07C242.29 596.07 243.54 597.33 243.54 598.88C243.54 600.44 242.29 601.69 240.73 601.69Z" />
			<path id="Layer" class="shp22" d="M240.73 625.9C239.18 625.9 237.92 624.65 237.92 623.09C237.92 621.54 239.18 620.28 240.73 620.28C242.29 620.28 243.54 621.54 243.54 623.09C243.54 624.65 242.29 625.9 240.73 625.9Z" />
			<path id="Layer" class="shp22" d="M240.73 650.11C239.18 650.11 237.92 648.86 237.92 647.3C237.92 645.75 239.18 644.49 240.73 644.49C242.29 644.49 243.54 645.75 243.54 647.3C243.54 648.86 242.29 650.11 240.73 650.11Z" />
			<path id="Layer" class="shp22" d="M240.73 674.32C239.18 674.32 237.92 673.07 237.92 671.51C237.92 669.96 239.18 668.7 240.73 668.7C242.29 668.7 243.54 669.96 243.54 671.51C243.54 673.07 242.29 674.32 240.73 674.32Z" />
			<path id="Layer" class="shp22" d="M240.73 698.53C239.18 698.53 237.92 697.28 237.92 695.72C237.92 694.17 239.18 692.91 240.73 692.91C242.29 692.91 243.54 694.17 243.54 695.72C243.54 697.28 242.29 698.53 240.73 698.53Z" />
			<path id="Layer" class="shp22" d="M240.73 722.74C239.18 722.74 237.92 721.49 237.92 719.93C237.92 718.38 239.18 717.12 240.73 717.12C242.29 717.12 243.54 718.38 243.54 719.93C243.54 721.49 242.29 722.74 240.73 722.74Z" />
			<path id="Layer" class="shp22" d="M240.73 746.95C239.18 746.95 237.92 745.7 237.92 744.14C237.92 742.59 239.18 741.33 240.73 741.33C242.29 741.33 243.54 742.59 243.54 744.14C243.54 745.7 242.29 746.95 240.73 746.95Z" />
			<path id="Layer" class="shp22" d="M240.73 771.16C239.6 771.16 238.57 770.48 238.14 769.43C237.7 768.38 237.94 767.17 238.75 766.37C239.55 765.56 240.76 765.32 241.81 765.76C242.86 766.19 243.54 767.22 243.54 768.35C243.54 768.72 243.47 769.09 243.33 769.43C243.19 769.77 242.98 770.08 242.72 770.34C242.46 770.6 242.15 770.81 241.81 770.95C241.47 771.09 241.1 771.16 240.73 771.16L240.73 771.16Z" />
			<path id="Layer" class="shp22" d="M216.52 601.69C215.39 601.69 214.36 601.01 213.93 599.96C213.49 598.91 213.73 597.7 214.53 596.9C215.34 596.09 216.55 595.85 217.6 596.29C218.65 596.72 219.33 597.75 219.33 598.88C219.33 599.25 219.26 599.62 219.12 599.96C218.98 600.3 218.77 600.61 218.51 600.87C218.25 601.13 217.94 601.34 217.6 601.48C217.26 601.62 216.89 601.69 216.52 601.69L216.52 601.69Z" />
			<path id="Layer" class="shp22" d="M216.52 625.9C215.39 625.9 214.36 625.22 213.93 624.17C213.49 623.12 213.73 621.91 214.54 621.11C215.34 620.3 216.55 620.06 217.6 620.5C218.65 620.93 219.33 621.96 219.33 623.09C219.33 623.46 219.26 623.83 219.12 624.17C218.98 624.51 218.77 624.82 218.51 625.08C218.25 625.34 217.94 625.55 217.6 625.69C217.26 625.83 216.89 625.9 216.52 625.9Z" />
			<path id="Layer" class="shp22" d="M216.52 650.11C215.39 650.11 214.36 649.43 213.93 648.38C213.49 647.33 213.73 646.12 214.53 645.32C215.34 644.51 216.55 644.27 217.6 644.71C218.65 645.14 219.33 646.17 219.33 647.3C219.33 647.67 219.26 648.04 219.12 648.38C218.98 648.72 218.77 649.03 218.51 649.29C218.25 649.55 217.94 649.76 217.6 649.9C217.26 650.04 216.89 650.11 216.52 650.11L216.52 650.11Z" />
			<path id="Layer" class="shp22" d="M216.52 674.32C215.39 674.32 214.36 673.64 213.93 672.59C213.49 671.54 213.73 670.33 214.53 669.53C215.34 668.72 216.55 668.48 217.6 668.92C218.65 669.35 219.33 670.38 219.33 671.51C219.33 671.88 219.26 672.25 219.12 672.59C218.98 672.93 218.77 673.24 218.51 673.5C218.25 673.76 217.94 673.97 217.6 674.11C217.26 674.25 216.89 674.32 216.52 674.32Z" />
			<path id="Layer" class="shp22" d="M216.52 698.53C215.39 698.53 214.36 697.85 213.93 696.8C213.49 695.75 213.73 694.54 214.54 693.74C215.34 692.93 216.55 692.69 217.6 693.13C218.65 693.56 219.33 694.59 219.33 695.72C219.33 696.09 219.26 696.46 219.12 696.8C218.98 697.14 218.77 697.45 218.51 697.71C218.25 697.97 217.94 698.18 217.6 698.32C217.26 698.46 216.89 698.53 216.52 698.53L216.52 698.53Z" />
			<path id="Layer" class="shp22" d="M216.52 722.74C215.39 722.74 214.36 722.06 213.93 721.01C213.49 719.96 213.73 718.75 214.53 717.95C215.34 717.14 216.55 716.9 217.6 717.34C218.65 717.77 219.33 718.8 219.33 719.93C219.33 720.3 219.26 720.67 219.12 721.01C218.98 721.35 218.77 721.66 218.51 721.92C218.25 722.18 217.94 722.39 217.6 722.53C217.26 722.67 216.89 722.74 216.52 722.74Z" />
			<path id="Layer" class="shp22" d="M216.52 746.96C215.39 746.96 214.36 746.27 213.93 745.22C213.49 744.17 213.73 742.96 214.53 742.16C215.34 741.36 216.55 741.12 217.6 741.55C218.65 741.99 219.33 743.01 219.33 744.15C219.33 744.52 219.26 744.88 219.12 745.22C218.98 745.56 218.77 745.87 218.51 746.13C218.25 746.4 217.94 746.6 217.6 746.74C217.26 746.88 216.89 746.96 216.52 746.96L216.52 746.96Z" />
			<path id="Layer" class="shp22" d="M216.52 771.16C215.39 771.16 214.36 770.48 213.93 769.43C213.49 768.38 213.73 767.17 214.54 766.37C215.34 765.56 216.55 765.32 217.6 765.76C218.65 766.19 219.33 767.22 219.33 768.35C219.33 768.72 219.26 769.09 219.12 769.43C218.98 769.77 218.77 770.08 218.51 770.34C218.25 770.6 217.94 770.81 217.6 770.95C217.26 771.09 216.89 771.16 216.52 771.16L216.52 771.16Z" />
			<path id="Layer" class="shp22" d="M192.31 601.69C190.76 601.69 189.5 600.44 189.5 598.88C189.5 597.33 190.76 596.07 192.31 596.07C193.87 596.07 195.12 597.33 195.12 598.88C195.12 600.44 193.87 601.69 192.31 601.69Z" />
			<path id="Layer" class="shp22" d="M192.31 625.9C190.76 625.9 189.5 624.65 189.5 623.09C189.5 621.54 190.76 620.28 192.31 620.28C193.87 620.28 195.12 621.54 195.12 623.09C195.12 624.65 193.87 625.9 192.31 625.9Z" />
			<path id="Layer" class="shp22" d="M192.31 650.11C190.76 650.11 189.5 648.86 189.5 647.3C189.5 645.75 190.76 644.49 192.31 644.49C193.87 644.49 195.12 645.75 195.12 647.3C195.12 648.86 193.87 650.11 192.31 650.11Z" />
			<path id="Layer" class="shp22" d="M192.31 674.32C190.76 674.32 189.5 673.07 189.5 671.51C189.5 669.96 190.76 668.7 192.31 668.7C193.87 668.7 195.12 669.96 195.12 671.51C195.12 673.07 193.87 674.32 192.31 674.32Z" />
			<path id="Layer" class="shp22" d="M192.31 698.53C190.76 698.53 189.5 697.28 189.5 695.72C189.5 694.17 190.76 692.91 192.31 692.91C193.87 692.91 195.12 694.17 195.12 695.72C195.12 697.28 193.87 698.53 192.31 698.53Z" />
			<path id="Layer" class="shp22" d="M192.31 722.74C190.76 722.74 189.5 721.49 189.5 719.93C189.5 718.38 190.76 717.12 192.31 717.12C193.87 717.12 195.12 718.38 195.12 719.93C195.12 721.49 193.87 722.74 192.31 722.74Z" />
			<path id="Layer" class="shp22" d="M192.31 746.95C190.76 746.95 189.5 745.7 189.5 744.14C189.5 742.59 190.76 741.33 192.31 741.33C193.87 741.33 195.12 742.59 195.12 744.14C195.12 745.7 193.87 746.95 192.31 746.95Z" />
			<path id="Layer" class="shp22" d="M192.31 771.16C191.18 771.16 190.15 770.48 189.72 769.43C189.28 768.38 189.52 767.17 190.33 766.37C191.13 765.56 192.34 765.32 193.39 765.76C194.44 766.19 195.12 767.22 195.12 768.35C195.12 768.72 195.05 769.09 194.91 769.43C194.77 769.77 194.56 770.08 194.3 770.34C194.04 770.6 193.73 770.81 193.39 770.95C193.05 771.09 192.68 771.16 192.31 771.16L192.31 771.16Z" />
			<path id="Layer" class="shp22" d="M168.1 601.69C166.55 601.69 165.29 600.44 165.29 598.88C165.29 597.33 166.55 596.07 168.1 596.07C169.66 596.07 170.91 597.33 170.91 598.88C170.91 600.44 169.66 601.69 168.1 601.69Z" />
			<path id="Layer" class="shp22" d="M168.1 625.9C166.55 625.9 165.29 624.65 165.29 623.09C165.29 621.54 166.55 620.28 168.1 620.28C169.66 620.28 170.91 621.54 170.91 623.09C170.91 624.65 169.66 625.9 168.1 625.9Z" />
			<path id="Layer" class="shp22" d="M168.1 650.11C166.55 650.11 165.29 648.86 165.29 647.3C165.29 645.75 166.55 644.49 168.1 644.49C169.66 644.49 170.91 645.75 170.91 647.3C170.91 648.86 169.66 650.11 168.1 650.11Z" />
			<path id="Layer" class="shp22" d="M168.1 674.32C166.55 674.32 165.29 673.07 165.29 671.51C165.29 669.96 166.55 668.7 168.1 668.7C169.66 668.7 170.91 669.96 170.91 671.51C170.91 673.07 169.66 674.32 168.1 674.32Z" />
			<path id="Layer" class="shp22" d="M168.1 698.53C166.55 698.53 165.29 697.28 165.29 695.72C165.29 694.17 166.55 692.91 168.1 692.91C169.66 692.91 170.91 694.17 170.91 695.72C170.91 697.28 169.66 698.53 168.1 698.53Z" />
			<path id="Layer" class="shp22" d="M168.1 722.74C166.55 722.74 165.29 721.49 165.29 719.93C165.29 718.38 166.55 717.12 168.1 717.12C169.66 717.12 170.91 718.38 170.91 719.93C170.91 721.49 169.66 722.74 168.1 722.74Z" />
			<path id="Layer" class="shp22" d="M168.1 746.95C166.55 746.95 165.29 745.7 165.29 744.14C165.29 742.59 166.55 741.33 168.1 741.33C169.66 741.33 170.91 742.59 170.91 744.14C170.91 745.7 169.66 746.95 168.1 746.95Z" />
			<path id="Layer" class="shp22" d="M168.1 771.16C166.97 771.16 165.94 770.48 165.51 769.43C165.07 768.38 165.31 767.17 166.12 766.37C166.92 765.56 168.13 765.32 169.18 765.76C170.23 766.19 170.91 767.22 170.91 768.35C170.91 768.72 170.84 769.09 170.7 769.43C170.56 769.77 170.35 770.08 170.09 770.34C169.83 770.6 169.52 770.81 169.18 770.95C168.84 771.09 168.47 771.16 168.1 771.16L168.1 771.16Z" />
			<path id="Layer" class="shp22" d="M143.89 601.69C142.34 601.69 141.08 600.44 141.08 598.88C141.08 597.33 142.34 596.07 143.89 596.07C145.45 596.07 146.7 597.33 146.7 598.88C146.7 600.44 145.45 601.69 143.89 601.69Z" />
			<path id="Layer" class="shp22" d="M143.89 625.9C142.34 625.9 141.08 624.65 141.08 623.09C141.08 621.54 142.34 620.28 143.89 620.28C145.45 620.28 146.7 621.54 146.7 623.09C146.7 624.65 145.45 625.9 143.89 625.9Z" />
			<path id="Layer" class="shp22" d="M143.89 650.11C142.34 650.11 141.08 648.86 141.08 647.3C141.08 645.75 142.34 644.49 143.89 644.49C145.45 644.49 146.7 645.75 146.7 647.3C146.7 648.86 145.45 650.11 143.89 650.11Z" />
			<path id="Layer" class="shp22" d="M143.89 674.32C142.34 674.32 141.08 673.07 141.08 671.51C141.08 669.96 142.34 668.7 143.89 668.7C145.45 668.7 146.7 669.96 146.7 671.51C146.7 673.07 145.45 674.32 143.89 674.32Z" />
			<path id="Layer" class="shp22" d="M143.89 698.53C142.34 698.53 141.08 697.28 141.08 695.72C141.08 694.17 142.34 692.91 143.89 692.91C145.45 692.91 146.7 694.17 146.7 695.72C146.7 697.28 145.45 698.53 143.89 698.53Z" />
			<path id="Layer" class="shp22" d="M143.89 722.74C142.34 722.74 141.08 721.49 141.08 719.93C141.08 718.38 142.34 717.12 143.89 717.12C145.45 717.12 146.7 718.38 146.7 719.93C146.7 721.49 145.45 722.74 143.89 722.74Z" />
			<path id="Layer" class="shp22" d="M143.89 746.95C142.34 746.95 141.08 745.7 141.08 744.14C141.08 742.59 142.34 741.33 143.89 741.33C145.45 741.33 146.7 742.59 146.7 744.14C146.7 745.7 145.45 746.95 143.89 746.95Z" />
			<path id="Layer" class="shp22" d="M143.89 771.16C142.76 771.16 141.73 770.48 141.3 769.43C140.86 768.38 141.1 767.17 141.91 766.37C142.71 765.56 143.92 765.32 144.97 765.76C146.02 766.19 146.7 767.22 146.7 768.35C146.7 768.72 146.63 769.09 146.49 769.43C146.35 769.77 146.14 770.08 145.88 770.34C145.62 770.6 145.31 770.81 144.97 770.95C144.63 771.09 144.26 771.16 143.89 771.16L143.89 771.16Z" />
			<path id="Layer" class="shp22" d="M119.68 601.69C118.13 601.69 116.87 600.44 116.87 598.88C116.87 597.33 118.13 596.07 119.68 596.07C121.24 596.07 122.49 597.33 122.49 598.88C122.49 600.44 121.24 601.69 119.68 601.69Z" />
			<path id="Layer" class="shp22" d="M119.68 625.9C118.13 625.9 116.87 624.65 116.87 623.09C116.87 621.54 118.13 620.28 119.68 620.28C121.24 620.28 122.49 621.54 122.49 623.09C122.49 624.65 121.24 625.9 119.68 625.9Z" />
			<path id="Layer" class="shp22" d="M119.68 650.11C118.13 650.11 116.87 648.86 116.87 647.3C116.87 645.75 118.13 644.49 119.68 644.49C121.24 644.49 122.49 645.75 122.49 647.3C122.49 648.86 121.24 650.11 119.68 650.11Z" />
			<path id="Layer" class="shp22" d="M119.68 674.32C118.13 674.32 116.87 673.07 116.87 671.51C116.87 669.96 118.13 668.7 119.68 668.7C121.24 668.7 122.49 669.96 122.49 671.51C122.49 673.07 121.24 674.32 119.68 674.32Z" />
			<path id="Layer" class="shp22" d="M119.68 698.53C118.13 698.53 116.87 697.28 116.87 695.72C116.87 694.17 118.13 692.91 119.68 692.91C121.24 692.91 122.49 694.17 122.49 695.72C122.49 697.28 121.24 698.53 119.68 698.53Z" />
			<path id="Layer" class="shp22" d="M119.68 722.74C118.13 722.74 116.87 721.49 116.87 719.93C116.87 718.38 118.13 717.12 119.68 717.12C121.24 717.12 122.49 718.38 122.49 719.93C122.49 721.49 121.24 722.74 119.68 722.74Z" />
			<path id="Layer" class="shp22" d="M119.68 746.95C118.13 746.95 116.87 745.7 116.87 744.14C116.87 742.59 118.13 741.33 119.68 741.33C121.24 741.33 122.49 742.59 122.49 744.14C122.49 745.7 121.24 746.95 119.68 746.95Z" />
			<path id="Layer" class="shp22" d="M119.68 771.16C118.55 771.16 117.52 770.48 117.09 769.43C116.65 768.38 116.89 767.17 117.7 766.37C118.5 765.56 119.71 765.32 120.76 765.76C121.81 766.19 122.49 767.22 122.49 768.35C122.49 768.72 122.42 769.09 122.28 769.43C122.14 769.77 121.93 770.08 121.67 770.34C121.41 770.6 121.1 770.81 120.76 770.95C120.42 771.09 120.05 771.16 119.68 771.16L119.68 771.16Z" />
		</g>
		<path id="Layer" fill-rule="evenodd" class="shp23" d="M310.89 142.78L428.93 24.73L310.88 142.78L310.89 142.78ZM292 128.88L415.03 5.84L292 128.88L292 128.88ZM439.48 68.84L354.99 153.32L439.48 68.84ZM344.4 152.99L439.14 58.24L344.4 152.99ZM438.29 80.95L367.11 152.14L438.29 80.95ZM334.88 151.57L437.73 48.73L334.88 151.57ZM326.21 149.31L435.47 40.05L326.21 149.31ZM434.42 95.76L381.91 148.26L434.42 95.76ZM318.24 146.35L432.51 32.09L318.24 146.35ZM304.09 138.65L424.81 17.93L304.09 138.65ZM420.65 120.46L406.62 134.49L420.65 120.46ZM297.8 134.01L420.17 11.64C420.17 11.64 297.8 134.01 297.8 134.01ZM286.68 123.26L409.41 0.53L286.68 123.26ZM281.86 117.16L403.31 -4.29L281.86 117.16ZM277.54 110.55L396.7 -8.61C396.7 -8.61 277.54 110.55 277.54 110.55ZM273.75 103.4L389.55 -12.4L273.75 103.4ZM270.55 95.67L381.82 -15.59C381.82 -15.59 270.55 95.67 270.55 95.67ZM268.02 87.27L373.42 -18.13L268.02 87.27ZM266.28 78.09L364.24 -19.87L266.28 78.09ZM265.51 67.93L354.08 -20.64L265.51 67.93ZM266.05 56.45L342.6 -20.1C342.6 -20.1 266.05 56.45 266.05 56.45ZM268.7 42.88L329.02 -17.45L268.7 42.88ZM276.27 24.37L310.51 -9.87L276.27 24.37Z" />
		<g id="Layer" style="opacity: 0.188">
			<path id="Layer" class="shp24" d="M101.93 493.45L207.25 506.45C248.45 511.54 290.3 516.8 328.41 533.29C366.51 549.78 401.01 579.37 413.49 618.96C425.97 658.55 410.73 707.89 373.31 725.86" />
			<g id="Layer">
				<path id="Layer" class="shp25" d="M112.3 467.27C111.74 468.21 106.94 482.34 106.94 482.34L73.16 498.53L112.3 467.27Z" />
				<path id="Layer" class="shp26" d="M116.6 494.82L106.95 482.34L73.16 498.54L116.6 494.82Z" />
				<path id="Layer" class="shp27" d="M116.6 494.83L102.49 493.05L73.16 498.53L116.6 494.83Z" />
				<path id="Layer" class="shp25" d="M102.49 493.05L96.1 510.34L73.16 498.53L102.49 493.05Z" />
			</g>
		</g>
		<g id="Layer" style="opacity: 0.278">
			<path id="Layer" fill-rule="evenodd" class="shp28" d="M571.38 350.38C571.24 350.96 571.08 351.53 570.9 352.09C570.72 352.65 570.52 353.2 570.3 353.75C570.08 354.29 569.83 354.83 569.57 355.36C569.3 355.88 569.02 356.4 568.71 356.9L573.04 361.23L565.52 368.74L561.27 364.49C560.77 364.81 560.25 365.11 559.71 365.39C559.18 365.67 558.64 365.92 558.09 366.16C557.54 366.39 556.98 366.61 556.41 366.8C555.84 366.99 555.26 367.16 554.68 367.31L554.68 373.24L544.05 373.24L544.05 367.45C543.45 367.31 542.86 367.15 542.27 366.97C541.69 366.79 541.11 366.58 540.54 366.35C539.97 366.12 539.41 365.87 538.86 365.59C538.31 365.32 537.78 365.02 537.25 364.7L533.21 368.74L525.69 361.23L529.67 357.25C529.34 356.72 529.03 356.18 528.75 355.62C528.46 355.07 528.2 354.51 527.96 353.93C527.72 353.35 527.5 352.77 527.31 352.18C527.11 351.58 526.95 350.98 526.8 350.38L521.2 350.38L521.2 339.75L526.82 339.75C526.96 339.14 527.13 338.54 527.32 337.95C527.52 337.36 527.73 336.78 527.97 336.2C528.22 335.63 528.48 335.07 528.77 334.52C529.05 333.97 529.36 333.43 529.69 332.9L525.69 328.9L533.21 321.38L537.28 325.46C537.8 325.14 538.34 324.84 538.89 324.57C539.43 324.3 539.99 324.05 540.56 323.82C541.12 323.59 541.7 323.38 542.28 323.2C542.87 323.02 543.46 322.86 544.05 322.73L544.05 316.89L554.68 316.89L554.68 322.87C555.26 323.01 555.84 323.18 556.4 323.37C556.97 323.56 557.53 323.78 558.07 324.01C558.62 324.24 559.16 324.5 559.69 324.78C560.22 325.05 560.74 325.35 561.24 325.67L565.53 321.39L573.04 328.9L568.7 333.25C569 333.75 569.29 334.27 569.55 334.79C569.82 335.32 570.06 335.85 570.29 336.39C570.51 336.94 570.71 337.49 570.89 338.05C571.07 338.61 571.23 339.18 571.37 339.75L577.53 339.75L577.53 350.38L571.38 350.38ZM549.37 355.52C550.74 355.52 552.1 355.25 553.37 354.72C554.64 354.2 555.79 353.43 556.76 352.46C557.73 351.49 558.5 350.33 559.03 349.07C559.55 347.8 559.82 346.44 559.82 345.07C559.82 340.84 557.28 337.03 553.37 335.41C549.47 333.79 544.97 334.68 541.98 337.67C538.99 340.66 538.1 345.16 539.71 349.06C541.33 352.97 545.14 355.52 549.37 355.52L549.37 355.52Z" />
		</g>
		<g id="Layer" style="opacity: 0.149">
			<path id="Layer" fill-rule="evenodd" class="shp28" d="M183.09 145.51C183.01 145.86 182.91 146.21 182.8 146.56C182.69 146.9 182.56 147.24 182.43 147.58C182.29 147.92 182.14 148.25 181.98 148.57C181.81 148.89 181.64 149.21 181.45 149.52L184.11 152.19L179.49 156.81L176.87 154.19C176.56 154.39 176.24 154.57 175.91 154.75C175.58 154.92 175.25 155.08 174.91 155.22C174.57 155.37 174.22 155.5 173.87 155.62C173.52 155.73 173.17 155.84 172.81 155.93L172.81 159.58L166.27 159.58L166.27 156.01C165.9 155.93 165.53 155.83 165.17 155.72C164.81 155.61 164.46 155.48 164.11 155.34C163.76 155.2 163.41 155.04 163.07 154.87C162.73 154.7 162.4 154.52 162.08 154.32L159.59 156.81L154.97 152.19L157.42 149.73C157.21 149.41 157.02 149.08 156.85 148.74C156.67 148.4 156.51 148.05 156.36 147.7C156.21 147.34 156.08 146.98 155.96 146.62C155.84 146.25 155.74 145.88 155.65 145.51L152.2 145.51L152.2 138.97L155.65 138.97C155.74 138.59 155.85 138.23 155.96 137.86C156.08 137.5 156.22 137.14 156.37 136.79C156.51 136.43 156.68 136.09 156.85 135.75C157.03 135.41 157.22 135.08 157.42 134.75L154.96 132.29L159.59 127.67L162.1 130.17C162.42 129.98 162.75 129.8 163.08 129.63C163.42 129.46 163.76 129.3 164.11 129.16C164.46 129.02 164.82 128.9 165.18 128.78C165.53 128.67 165.9 128.57 166.26 128.49L166.26 124.9L172.81 124.9L172.81 128.58C173.16 128.67 173.52 128.77 173.87 128.89C174.21 129.01 174.56 129.14 174.9 129.28C175.23 129.42 175.57 129.58 175.89 129.75C176.22 129.92 176.54 130.1 176.85 130.3L179.48 127.67L184.11 132.29L181.44 134.97C181.62 135.28 181.8 135.59 181.96 135.92C182.13 136.24 182.28 136.57 182.41 136.9C182.55 137.24 182.68 137.58 182.79 137.92C182.9 138.27 183 138.62 183.08 138.97L186.88 138.97L186.88 145.51L183.09 145.51ZM169.54 148.67C170.39 148.67 171.22 148.51 172 148.18C172.78 147.86 173.49 147.39 174.09 146.79C174.69 146.19 175.16 145.48 175.49 144.7C175.81 143.92 175.98 143.08 175.98 142.24C175.98 139.64 174.41 137.29 172 136.29C169.6 135.3 166.83 135.85 164.99 137.69C163.15 139.53 162.6 142.3 163.6 144.7C164.59 147.1 166.94 148.67 169.54 148.67L169.54 148.67Z" />
		</g>
		<g id="Layer" style="opacity: 0.153">
			<g id="Layer">
				<path id="Layer" class="shp29" d="M928.5 551.07C925.28 538.42 911.66 532.67 905.38 521.46C898.15 508.53 902.68 491 912.1 480.32C912.71 479.63 960.03 401.83 1000.42 440.4C1012.11 451.57 1015.08 489.63 1015.34 506.55C1015.75 532.44 1016.16 558.33 1016.57 584.23C1017.1 618.18 987.6 641.53 957.14 631.3C944.52 627.06 924.82 614.97 920.93 600.2C916.33 582.71 932.9 568.36 928.5 551.07Z" />
				<g id="Layer">
					<path id="Layer" class="shp19" d="M952.76 795.97L968.01 514.99L971.51 515.18L956.26 796.16L952.76 795.97Z" />
				</g>
				<g id="Layer">
					<path id="Layer" class="shp19" d="M968 541.96L938.1 508.17L940.73 505.85L968.84 537.61L997.9 522.9L999.49 526.03L968 541.96Z" />
				</g>
				<g id="Layer">
					<path id="Layer" class="shp19" d="M965.97 585.86L930.75 573.38L931.93 570.08L966.07 582.18L997.28 572.9L998.28 576.26L965.97 585.86Z" />
				</g>
				<g id="Layer">
					<path id="Layer" class="shp19" d="M943.81 557.91L947.16 556.89L953.73 578.56L950.37 579.58L943.81 557.91Z" />
				</g>
				<g id="Layer">
					<path id="Layer" class="shp19" d="M985.05 530.33L986.78 510.61L990.27 510.91L988.54 530.64L985.05 530.33Z" />
				</g>
			</g>
			<path id="Layer" class="shp19" d="M860.81 618.45C862.26 615.29 864.44 612.51 865.94 609.37C867.45 606.24 868.23 602.46 866.75 599.32C864.64 594.84 858.9 593.3 855.99 589.3C852.54 584.55 854.06 577.81 856.85 572.64C859.63 567.48 863.59 562.81 864.97 557.11C866.84 549.36 863.61 541.14 864.97 533.29C866.06 527.02 870.41 521.23 876.41 519.11C882.41 516.99 889.83 519.05 893.34 524.37C898.32 531.92 894.45 542.19 896.7 550.95C898.94 559.67 907.15 566.45 907.46 575.44C907.68 581.61 904.09 587.18 902.33 593.09C900.33 599.8 900.72 606.97 901.41 613.94C902.1 620.91 903.08 627.94 902.21 634.89C900.54 648.1 886.82 662.86 872.94 653.36C863.15 646.67 855.72 629.52 860.81 618.45Z" />
			<g id="Layer">
				<path id="Layer" class="shp19" d="M880.38 555.95L883.89 555.93L884.76 760.23L881.26 760.24L880.38 555.95Z" />
			</g>
		</g>
		<g id="Layer">
			<g id="Layer">
				<path id="Layer" class="shp30" d="M77.41 1411.88C-8.91 1417.42 -83.15 1352.12 -88.69 1265.81C-94.22 1179.5 -28.93 1105.25 57.38 1099.71C143.7 1094.18 217.94 1159.47 223.48 1245.79C229.02 1332.1 163.72 1406.35 77.41 1411.88Z" />
			</g>
		</g>
		<g id="Layer">
			<path id="Layer" class="shp4" d="M519.9 1123.29C519.12 1123.29 518.49 1122.66 518.49 1121.89C518.49 1121.11 519.12 1120.48 519.9 1120.48C520.68 1120.48 521.31 1121.11 521.31 1121.89C521.31 1122.66 520.68 1123.29 519.9 1123.29Z" />
			<path id="Layer" class="shp4" d="M519.9 1135.42C519.12 1135.42 518.49 1134.79 518.49 1134.01C518.49 1133.23 519.12 1132.6 519.9 1132.6C520.68 1132.6 521.31 1133.23 521.31 1134.01C521.31 1134.79 520.68 1135.42 519.9 1135.42Z" />
			<path id="Layer" class="shp4" d="M519.9 1147.54C519.12 1147.54 518.49 1146.91 518.49 1146.13C518.49 1145.36 519.12 1144.73 519.9 1144.73C520.68 1144.73 521.31 1145.36 521.31 1146.13C521.31 1146.91 520.68 1147.54 519.9 1147.54Z" />
			<path id="Layer" class="shp4" d="M519.9 1159.67C519.12 1159.67 518.49 1159.04 518.49 1158.26C518.49 1157.48 519.12 1156.85 519.9 1156.85C520.68 1156.85 521.31 1157.48 521.31 1158.26C521.31 1159.04 520.68 1159.67 519.9 1159.67Z" />
			<path id="Layer" class="shp4" d="M519.9 1171.79C519.12 1171.79 518.49 1171.16 518.49 1170.38C518.49 1169.6 519.12 1168.98 519.9 1168.98C520.68 1168.98 521.31 1169.6 521.31 1170.38C521.31 1171.16 520.68 1171.79 519.9 1171.79Z" />
			<path id="Layer" class="shp4" d="M519.9 1183.91C519.12 1183.91 518.49 1183.29 518.49 1182.51C518.49 1181.73 519.12 1181.1 519.9 1181.1C520.68 1181.1 521.31 1181.73 521.31 1182.51C521.31 1183.29 520.68 1183.91 519.9 1183.91Z" />
			<path id="Layer" class="shp4" d="M519.9 1196.04C519.12 1196.04 518.49 1195.41 518.49 1194.63C518.49 1193.85 519.12 1193.22 519.9 1193.22C520.68 1193.22 521.31 1193.85 521.31 1194.63C521.31 1195.41 520.68 1196.04 519.9 1196.04Z" />
			<path id="Layer" class="shp4" d="M519.9 1208.17C519.33 1208.17 518.82 1207.82 518.6 1207.3C518.38 1206.77 518.5 1206.17 518.91 1205.76C519.31 1205.36 519.91 1205.24 520.44 1205.46C520.97 1205.68 521.31 1206.19 521.31 1206.76C521.31 1206.94 521.27 1207.13 521.2 1207.3C521.13 1207.47 521.03 1207.62 520.9 1207.76C520.76 1207.89 520.61 1207.99 520.44 1208.06C520.27 1208.13 520.08 1208.17 519.9 1208.17L519.9 1208.17Z" />
			<path id="Layer" class="shp4" d="M507.77 1123.29C507.2 1123.29 506.69 1122.95 506.47 1122.43C506.26 1121.9 506.38 1121.29 506.78 1120.89C507.18 1120.49 507.79 1120.37 508.31 1120.59C508.84 1120.8 509.18 1121.32 509.18 1121.89C509.18 1122.07 509.14 1122.25 509.07 1122.43C509 1122.6 508.9 1122.75 508.77 1122.88C508.64 1123.01 508.48 1123.12 508.31 1123.19C508.14 1123.26 507.96 1123.29 507.77 1123.29L507.77 1123.29Z" />
			<path id="Layer" class="shp4" d="M507.77 1135.42C507.2 1135.42 506.69 1135.08 506.47 1134.55C506.26 1134.02 506.38 1133.42 506.78 1133.02C507.18 1132.61 507.79 1132.49 508.31 1132.71C508.84 1132.93 509.18 1133.44 509.18 1134.01C509.18 1134.2 509.14 1134.38 509.07 1134.55C509 1134.72 508.9 1134.88 508.77 1135.01C508.64 1135.14 508.48 1135.24 508.31 1135.31C508.14 1135.38 507.96 1135.42 507.77 1135.42Z" />
			<path id="Layer" class="shp4" d="M507.77 1147.54C507.2 1147.54 506.69 1147.2 506.47 1146.67C506.26 1146.15 506.38 1145.54 506.78 1145.14C507.18 1144.74 507.78 1144.62 508.31 1144.84C508.84 1145.05 509.18 1145.57 509.18 1146.13C509.18 1146.32 509.14 1146.5 509.07 1146.67C509 1146.84 508.9 1147 508.77 1147.13C508.64 1147.26 508.48 1147.37 508.31 1147.44C508.14 1147.51 507.96 1147.54 507.77 1147.54L507.77 1147.54Z" />
			<path id="Layer" class="shp4" d="M507.77 1159.67C507.2 1159.67 506.69 1159.32 506.47 1158.8C506.26 1158.27 506.38 1157.67 506.78 1157.27C507.18 1156.86 507.79 1156.74 508.31 1156.96C508.84 1157.18 509.18 1157.69 509.18 1158.26C509.18 1158.44 509.14 1158.63 509.07 1158.8C509 1158.97 508.9 1159.12 508.77 1159.25C508.64 1159.39 508.48 1159.49 508.31 1159.56C508.14 1159.63 507.96 1159.67 507.77 1159.67Z" />
			<path id="Layer" class="shp4" d="M507.77 1171.79C507.2 1171.79 506.69 1171.45 506.47 1170.92C506.26 1170.4 506.38 1169.79 506.78 1169.39C507.18 1168.99 507.79 1168.87 508.31 1169.08C508.84 1169.3 509.18 1169.81 509.18 1170.38C509.18 1170.57 509.14 1170.75 509.07 1170.92C509 1171.09 508.9 1171.25 508.77 1171.38C508.64 1171.51 508.48 1171.61 508.31 1171.68C508.14 1171.75 507.96 1171.79 507.77 1171.79L507.77 1171.79Z" />
			<path id="Layer" class="shp4" d="M507.77 1183.91C507.2 1183.91 506.69 1183.57 506.47 1183.05C506.26 1182.52 506.38 1181.92 506.78 1181.51C507.18 1181.11 507.78 1180.99 508.31 1181.21C508.84 1181.43 509.18 1181.94 509.18 1182.51C509.18 1182.69 509.14 1182.87 509.07 1183.05C509 1183.22 508.9 1183.37 508.77 1183.5C508.64 1183.63 508.48 1183.74 508.31 1183.81C508.14 1183.88 507.96 1183.92 507.77 1183.91L507.77 1183.91Z" />
			<path id="Layer" class="shp4" d="M507.77 1196.04C507.2 1196.04 506.69 1195.7 506.47 1195.17C506.26 1194.64 506.38 1194.04 506.78 1193.64C507.18 1193.23 507.79 1193.11 508.31 1193.33C508.84 1193.55 509.18 1194.06 509.18 1194.63C509.18 1194.82 509.14 1195 509.07 1195.17C509 1195.34 508.9 1195.5 508.77 1195.63C508.64 1195.76 508.48 1195.86 508.31 1195.93C508.14 1196 507.96 1196.04 507.77 1196.04L507.77 1196.04Z" />
			<path id="Layer" class="shp4" d="M507.77 1208.17C507.2 1208.17 506.69 1207.82 506.47 1207.3C506.26 1206.77 506.38 1206.17 506.78 1205.77C507.18 1205.36 507.79 1205.24 508.31 1205.46C508.84 1205.68 509.18 1206.19 509.18 1206.76C509.18 1206.94 509.14 1207.13 509.07 1207.3C509 1207.47 508.9 1207.62 508.77 1207.75C508.64 1207.89 508.48 1207.99 508.31 1208.06C508.14 1208.13 507.96 1208.17 507.77 1208.17Z" />
			<path id="Layer" class="shp4" d="M495.65 1123.29C494.87 1123.29 494.25 1122.66 494.25 1121.89C494.25 1121.11 494.87 1120.48 495.65 1120.48C496.43 1120.48 497.06 1121.11 497.06 1121.89C497.06 1122.66 496.43 1123.29 495.65 1123.29Z" />
			<path id="Layer" class="shp4" d="M495.65 1135.42C494.87 1135.42 494.25 1134.79 494.25 1134.01C494.25 1133.23 494.87 1132.6 495.65 1132.6C496.43 1132.6 497.06 1133.23 497.06 1134.01C497.06 1134.79 496.43 1135.42 495.65 1135.42Z" />
			<path id="Layer" class="shp4" d="M495.65 1147.54C494.87 1147.54 494.25 1146.91 494.25 1146.13C494.25 1145.36 494.87 1144.73 495.65 1144.73C496.43 1144.73 497.06 1145.36 497.06 1146.13C497.06 1146.91 496.43 1147.54 495.65 1147.54Z" />
			<path id="Layer" class="shp4" d="M495.65 1159.67C494.87 1159.67 494.25 1159.04 494.25 1158.26C494.25 1157.48 494.87 1156.85 495.65 1156.85C496.43 1156.85 497.06 1157.48 497.06 1158.26C497.06 1159.04 496.43 1159.67 495.65 1159.67Z" />
			<path id="Layer" class="shp4" d="M495.65 1171.79C494.87 1171.79 494.25 1171.16 494.25 1170.38C494.25 1169.6 494.87 1168.98 495.65 1168.98C496.43 1168.98 497.06 1169.6 497.06 1170.38C497.06 1171.16 496.43 1171.79 495.65 1171.79Z" />
			<path id="Layer" class="shp4" d="M495.65 1183.91C494.87 1183.91 494.25 1183.29 494.25 1182.51C494.25 1181.73 494.87 1181.1 495.65 1181.1C496.43 1181.1 497.06 1181.73 497.06 1182.51C497.06 1183.29 496.43 1183.91 495.65 1183.91Z" />
			<path id="Layer" class="shp4" d="M495.65 1196.04C494.87 1196.04 494.25 1195.41 494.25 1194.63C494.25 1193.85 494.87 1193.22 495.65 1193.22C496.43 1193.22 497.06 1193.85 497.06 1194.63C497.06 1195.41 496.43 1196.04 495.65 1196.04Z" />
			<path id="Layer" class="shp4" d="M495.66 1208.17C495.09 1208.17 494.57 1207.83 494.35 1207.3C494.13 1206.78 494.25 1206.17 494.65 1205.77C495.05 1205.36 495.66 1205.24 496.18 1205.46C496.71 1205.67 497.05 1206.19 497.05 1206.76C497.06 1206.94 497.02 1207.12 496.95 1207.29C496.88 1207.46 496.78 1207.62 496.65 1207.75C496.52 1207.88 496.36 1207.99 496.19 1208.06C496.02 1208.13 495.84 1208.17 495.65 1208.17L495.66 1208.17Z" />
			<path id="Layer" class="shp4" d="M483.53 1123.29C482.75 1123.29 482.12 1122.66 482.12 1121.89C482.12 1121.11 482.75 1120.48 483.53 1120.48C484.31 1120.48 484.94 1121.11 484.94 1121.89C484.94 1122.66 484.31 1123.29 483.53 1123.29Z" />
			<path id="Layer" class="shp4" d="M483.53 1135.42C482.75 1135.42 482.12 1134.79 482.12 1134.01C482.12 1133.23 482.75 1132.6 483.53 1132.6C484.31 1132.6 484.94 1133.23 484.94 1134.01C484.94 1134.79 484.31 1135.42 483.53 1135.42Z" />
			<path id="Layer" class="shp4" d="M483.53 1147.54C482.75 1147.54 482.12 1146.91 482.12 1146.13C482.12 1145.36 482.75 1144.73 483.53 1144.73C484.31 1144.73 484.94 1145.36 484.94 1146.13C484.94 1146.91 484.31 1147.54 483.53 1147.54Z" />
			<path id="Layer" class="shp4" d="M483.53 1159.67C482.75 1159.67 482.12 1159.04 482.12 1158.26C482.12 1157.48 482.75 1156.85 483.53 1156.85C484.31 1156.85 484.94 1157.48 484.94 1158.26C484.94 1159.04 484.31 1159.67 483.53 1159.67Z" />
			<path id="Layer" class="shp4" d="M483.53 1171.79C482.75 1171.79 482.12 1171.16 482.12 1170.38C482.12 1169.6 482.75 1168.98 483.53 1168.98C484.31 1168.98 484.94 1169.6 484.94 1170.38C484.94 1171.16 484.31 1171.79 483.53 1171.79Z" />
			<path id="Layer" class="shp4" d="M483.53 1183.91C482.75 1183.91 482.12 1183.29 482.12 1182.51C482.12 1181.73 482.75 1181.1 483.53 1181.1C484.31 1181.1 484.94 1181.73 484.94 1182.51C484.94 1183.29 484.31 1183.91 483.53 1183.91Z" />
			<path id="Layer" class="shp4" d="M483.53 1196.04C482.75 1196.04 482.12 1195.41 482.12 1194.63C482.12 1193.85 482.75 1193.22 483.53 1193.22C484.31 1193.22 484.94 1193.85 484.94 1194.63C484.94 1195.41 484.31 1196.04 483.53 1196.04Z" />
			<path id="Layer" class="shp4" d="M483.53 1208.17C482.96 1208.17 482.45 1207.82 482.23 1207.3C482.01 1206.77 482.13 1206.17 482.53 1205.76C482.94 1205.36 483.54 1205.24 484.07 1205.46C484.59 1205.68 484.94 1206.19 484.94 1206.76C484.94 1206.94 484.9 1207.13 484.83 1207.3C484.76 1207.47 484.65 1207.62 484.52 1207.76C484.39 1207.89 484.24 1207.99 484.07 1208.06C483.9 1208.13 483.71 1208.17 483.53 1208.17L483.53 1208.17Z" />
			<path id="Layer" class="shp4" d="M471.4 1123.29C470.63 1123.29 470 1122.66 470 1121.89C470 1121.11 470.63 1120.48 471.4 1120.48C472.18 1120.48 472.81 1121.11 472.81 1121.89C472.81 1122.66 472.18 1123.29 471.4 1123.29Z" />
			<path id="Layer" class="shp4" d="M471.4 1135.42C470.63 1135.42 470 1134.79 470 1134.01C470 1133.23 470.63 1132.6 471.4 1132.6C472.18 1132.6 472.81 1133.23 472.81 1134.01C472.81 1134.79 472.18 1135.42 471.4 1135.42Z" />
			<path id="Layer" class="shp4" d="M471.4 1147.54C470.63 1147.54 470 1146.91 470 1146.13C470 1145.36 470.63 1144.73 471.4 1144.73C472.18 1144.73 472.81 1145.36 472.81 1146.13C472.81 1146.91 472.18 1147.54 471.4 1147.54Z" />
			<path id="Layer" class="shp4" d="M471.4 1159.67C470.63 1159.67 470 1159.04 470 1158.26C470 1157.48 470.63 1156.85 471.4 1156.85C472.18 1156.85 472.81 1157.48 472.81 1158.26C472.81 1159.04 472.18 1159.67 471.4 1159.67Z" />
			<path id="Layer" class="shp4" d="M471.4 1171.79C470.63 1171.79 470 1171.16 470 1170.38C470 1169.6 470.63 1168.98 471.4 1168.98C472.18 1168.98 472.81 1169.6 472.81 1170.38C472.81 1171.16 472.18 1171.79 471.4 1171.79Z" />
			<path id="Layer" class="shp4" d="M471.4 1183.91C470.63 1183.91 470 1183.29 470 1182.51C470 1181.73 470.63 1181.1 471.4 1181.1C472.18 1181.1 472.81 1181.73 472.81 1182.51C472.81 1183.29 472.18 1183.91 471.4 1183.91Z" />
			<path id="Layer" class="shp4" d="M471.4 1196.04C470.63 1196.04 470 1195.41 470 1194.63C470 1193.85 470.63 1193.22 471.4 1193.22C472.18 1193.22 472.81 1193.85 472.81 1194.63C472.81 1195.41 472.18 1196.04 471.4 1196.04Z" />
			<path id="Layer" class="shp4" d="M471.4 1208.17C470.83 1208.17 470.32 1207.82 470.1 1207.3C469.89 1206.77 470.01 1206.17 470.41 1205.77C470.81 1205.36 471.42 1205.24 471.94 1205.46C472.47 1205.68 472.81 1206.19 472.81 1206.76C472.81 1206.94 472.77 1207.13 472.7 1207.3C472.63 1207.47 472.53 1207.62 472.4 1207.75C472.27 1207.89 472.11 1207.99 471.94 1208.06C471.77 1208.13 471.59 1208.17 471.4 1208.17Z" />
			<path id="Layer" class="shp4" d="M459.28 1123.29C458.5 1123.29 457.87 1122.66 457.87 1121.89C457.87 1121.11 458.5 1120.48 459.28 1120.48C460.06 1120.48 460.69 1121.11 460.69 1121.89C460.69 1122.66 460.06 1123.29 459.28 1123.29Z" />
			<path id="Layer" class="shp4" d="M459.28 1135.42C458.5 1135.42 457.87 1134.79 457.87 1134.01C457.87 1133.23 458.5 1132.6 459.28 1132.6C460.06 1132.6 460.69 1133.23 460.69 1134.01C460.69 1134.79 460.06 1135.42 459.28 1135.42Z" />
			<path id="Layer" class="shp4" d="M459.28 1147.54C458.5 1147.54 457.87 1146.91 457.87 1146.13C457.87 1145.36 458.5 1144.73 459.28 1144.73C460.06 1144.73 460.69 1145.36 460.69 1146.13C460.69 1146.91 460.06 1147.54 459.28 1147.54Z" />
			<path id="Layer" class="shp4" d="M459.28 1159.67C458.5 1159.67 457.87 1159.04 457.87 1158.26C457.87 1157.48 458.5 1156.85 459.28 1156.85C460.06 1156.85 460.69 1157.48 460.69 1158.26C460.69 1159.04 460.06 1159.67 459.28 1159.67Z" />
			<path id="Layer" class="shp4" d="M459.28 1171.79C458.5 1171.79 457.87 1171.16 457.87 1170.38C457.87 1169.6 458.5 1168.98 459.28 1168.98C460.06 1168.98 460.69 1169.6 460.69 1170.38C460.69 1171.16 460.06 1171.79 459.28 1171.79Z" />
			<path id="Layer" class="shp4" d="M459.28 1183.91C458.5 1183.91 457.87 1183.29 457.87 1182.51C457.87 1181.73 458.5 1181.1 459.28 1181.1C460.06 1181.1 460.69 1181.73 460.69 1182.51C460.69 1183.29 460.06 1183.91 459.28 1183.91Z" />
			<path id="Layer" class="shp4" d="M459.28 1196.04C458.5 1196.04 457.87 1195.41 457.87 1194.63C457.87 1193.85 458.5 1193.22 459.28 1193.22C460.06 1193.22 460.69 1193.85 460.69 1194.63C460.69 1195.41 460.06 1196.04 459.28 1196.04Z" />
			<path id="Layer" class="shp4" d="M459.28 1208.17C458.71 1208.17 458.2 1207.82 457.98 1207.3C457.76 1206.77 457.88 1206.17 458.29 1205.77C458.69 1205.36 459.29 1205.24 459.82 1205.46C460.34 1205.68 460.69 1206.19 460.69 1206.76C460.69 1206.94 460.65 1207.13 460.58 1207.3C460.51 1207.47 460.41 1207.62 460.27 1207.75C460.14 1207.89 459.99 1207.99 459.82 1208.06C459.65 1208.13 459.46 1208.17 459.28 1208.17L459.28 1208.17Z" />
		</g>
		<g id="Layer" style="opacity: 0.188">
			<path id="Layer" class="shp24" d="M532.42 1026.06L444.51 1085.42C410.12 1108.64 375.23 1132.31 348.77 1164.28C322.32 1196.26 305 1238.26 311.84 1279.18C318.69 1320.11 354.64 1357.14 396.13 1356.18" />
			<g id="Layer">
				<path id="Layer" class="shp25" d="M511.31 1007.45C512.23 1008.04 522.92 1018.44 522.92 1018.44L560.36 1017.54L511.31 1007.45Z" />
				<path id="Layer" class="shp26" d="M519.98 1033.95L522.91 1018.45L560.36 1017.54L519.98 1033.95Z" />
				<path id="Layer" class="shp27" d="M519.98 1033.95L531.74 1025.97L560.36 1017.54L519.98 1033.95Z" />
				<path id="Layer" class="shp25" d="M531.74 1025.97L545.28 1038.47L560.36 1017.54L531.74 1025.97Z" />
			</g>
		</g>
		<g id="Layer">
			<g id="Layer">
				<path id="Layer" class="shp31" d="M-42.13 335.21C-66.75 289.82 -52.14 231.78 -9.5 205.57C33.14 179.36 87.67 194.91 112.29 240.31C136.91 285.7 122.3 343.74 79.66 369.95C37.01 396.16 -17.51 380.6 -42.13 335.21Z" />
			</g>
		</g>
		<g id="Layer">
			<path id="Layer" class="shp32" d="M114.56 1420.98C128.98 1384.82 150.06 1374.4 170.56 1351.59C195.6 1323.74 212.54 1303.45 207.59 1266.33C199.51 1205.66 200.41 1055.1 359.38 1080.36C416.36 1089.41 460.04 1134.85 491.4 1179.77C518.09 1218 590.12 1188.98 630.35 1199.08C682.09 1205.59 708.14 1263.46 753.39 1288.69C846.57 1340.65 872.47 1411.56 865.46 1500.88C863.35 1527.86 858.03 1570.3 810.63 1618.51C746.66 1683.59 656.8 1689.46 550.11 1654.81C525.69 1646.87 502.76 1634.97 478.78 1625.78C472.55 1623.39 466.26 1621.18 459.9 1619.17C453.54 1617.15 447.13 1615.32 440.66 1613.67C434.2 1612.03 427.69 1610.58 421.14 1609.32C414.59 1608.06 408.01 1606.99 401.39 1606.11C339.71 1597.96 275.16 1606.54 216.43 1585.97C208.67 1583.24 201.09 1580.03 193.73 1576.35C186.37 1572.66 179.26 1568.52 172.42 1563.94C165.59 1559.36 159.04 1554.36 152.84 1548.96C146.63 1543.56 140.77 1537.77 135.3 1531.63C107.97 1500.93 99.34 1459.16 114.56 1420.98Z" />
		</g>
		<g id="Layer">
			<g id="Layer">
				<path id="Layer" class="shp33" d="M857.87 1626.21C833.25 1580.82 847.86 1522.78 890.5 1496.57C933.14 1470.36 987.67 1485.91 1012.29 1531.31C1036.91 1576.7 1022.3 1634.74 979.66 1660.95C937.01 1687.16 882.49 1671.6 857.87 1626.21Z" />
			</g>
		</g>
	</g>
</svg>