<svg xmlns="http://www.w3.org/2000/svg" width="299.634" height="255.155" viewBox="0 0 299.634 255.155"><defs><style>.a{fill:#f7f4fd;}</style></defs><path class="a" d="M75.649,75.67c9.861.658,13.987-6.054,18.62-14.681,12.685-23.619,40.934-21.343,50.41-6.8,6.712,10.3,21.186,8.183,32.895,4.151,11.524-3.968,31.159-7.781,46.8-3.038,13.659,4.142,19.264,19.084,31.716,18.165,27.163-2.005,40.857,24.747,35.937,36.415-3.211,7.616-4.805,16.134-2.195,23.97,2.876,8.63,9.443,15.463,14.752,22.882s9.584,16.694,6.945,25.4c-2.258,7.448-8.995,12.6-13.177,19.187-12.985,20.453-.139,51.8-17.442,68.845-12.385,12.2-32.578,9.386-49.908,11.715-14.452,1.942-28.052,8-42.438,10.369-29.134,4.8-58.556-5.777-88.091-6.076-10.4-.105-21,1.051-31.078-1.508a43.225,43.225,0,0,1-29.549-26.653c-6.436-17.827-.338-38.458-7.609-55.969-5.924-14.265-20.41-25.87-19.5-41.264.567-9.583,7.13-17.6,11.644-26.1C31.087,122.046,22.206,72.1,75.649,75.67Zm85.973-23.141c-2.592,0-4.693,1.606-4.693,3.587s2.107,3.416,4.693,3.587c8.428.555,8.428-2.844,8.428-4.824C170.05,51.713,164.214,52.529,161.622,52.529Zm85.593,15.295a13.889,13.889,0,0,0,8.056,3.118,3.229,3.229,0,0,0,2.237-.5,1.822,1.822,0,0,0,.165-2.563,4.3,4.3,0,0,0-1.589-.867,5,5,0,0,1-2.453-1.826,1.8,1.8,0,0,0-.557-.693C251.443,63.573,244.249,65.38,247.214,67.823Zm14.356,3.169a3.694,3.694,0,0,0,2.3-.222c.479-.155,1.066-.5.938-.978a.9.9,0,0,0-.494-.5,3.182,3.182,0,0,0-3.245-.241C260.083,69.723,260.829,70.737,261.571,70.992Zm34.277,67.558a6.558,6.558,0,0,0,1.486,2.988,25.178,25.178,0,0,0,4.3,4.893,4.355,4.355,0,0,0,2.482,1.128,3.9,3.9,0,0,0,2.337-.841,7.413,7.413,0,0,0,3.023-5.119c.316-2.773-.977-5.472-2.48-7.834a9.75,9.75,0,0,0-3.576-3.705c-2.612-1.315-4.339-.167-5.07,2.141C297.675,134.325,295.576,136.184,295.848,138.549ZM17.824,203.11c-1.376,1.209-.134,4.748.271,7.084a4.306,4.306,0,0,0,.728,1.984,4.819,4.819,0,0,0,2.558,1.352c1.675.485,3.705.9,4.984-.278a4.7,4.7,0,0,0,1.081-3.57,33.244,33.244,0,0,0-.189-3.5,3.731,3.731,0,0,0-.44-1.61,3.594,3.594,0,0,0-1.733-1.248C22.689,202.312,19.2,201.9,17.824,203.11Zm84.1,88.658c-.814.162-1.786.514-1.9,1.326-.1.671.469,1.245,1.017,1.652,4.491,3.342,10.535,3.556,16.157,3.634a4.8,4.8,0,0,0,1.94-.24,2.488,2.488,0,0,0,1.22-3.252,4.025,4.025,0,0,0-.867-1.115C114.975,289.386,107.549,290.642,101.929,291.767Zm112.16-2.262c-5.069,3.7.057,7,6.46,4.551a89.8,89.8,0,0,1,10.288-3.508c1.141-.285,8.041-1.774,8.042-3.32,0-4.1-7.774-3.131-12.664-2.447A25.474,25.474,0,0,0,214.089,289.506Z" transform="translate(-12.695 -43.227)"/></svg>