<svg xmlns="http://www.w3.org/2000/svg" width="426.055" height="358.715" viewBox="0 0 426.055 358.715"><defs><style>.a{fill:#fff2f2;}</style></defs><path class="a" d="M102.21,89.468c14.022.938,19.888-8.629,26.477-20.925,18.037-33.665,58.2-30.421,71.679-9.691,9.543,14.684,30.125,11.663,46.773,5.917,16.386-5.656,44.3-11.09,66.542-4.33,19.423,5.9,27.392,27.2,45.1,25.891,38.623-2.858,58.1,35.273,51.1,51.9-4.566,10.855-6.832,23-3.12,34.165,4.089,12.3,13.428,22.039,20.976,32.614s13.628,23.794,9.876,36.2c-3.211,10.615-12.789,17.959-18.736,27.347-18.464,29.152-.2,73.828-24.8,98.127-17.611,17.393-46.323,13.377-70.965,16.7-20.549,2.769-39.887,11.4-60.344,14.78-41.426,6.847-83.261-8.235-125.258-8.66-14.793-.15-29.863,1.5-44.191-2.149A61.515,61.515,0,0,1,51.3,349.364c-9.152-25.409-.48-54.815-10.82-79.773-8.423-20.333-29.021-36.874-27.724-58.814.806-13.658,10.139-25.084,16.556-37.2C38.847,155.57,26.219,84.383,102.21,89.468ZM224.457,56.485c-3.685,0-6.673,2.289-6.673,5.112s3,4.869,6.673,5.112c11.984.792,11.984-4.053,11.984-6.876C236.441,55.323,228.142,56.485,224.457,56.485Zm121.706,21.8a19.722,19.722,0,0,0,11.456,4.444,4.583,4.583,0,0,0,3.181-.718,2.6,2.6,0,0,0,.235-3.653,6.112,6.112,0,0,0-2.259-1.236,7.105,7.105,0,0,1-3.488-2.6,2.559,2.559,0,0,0-.793-.988C352.175,72.227,341.946,74.8,346.162,78.285ZM366.576,82.8a5.241,5.241,0,0,0,3.273-.316c.681-.221,1.516-.707,1.333-1.394a1.277,1.277,0,0,0-.7-.712c-1.4-.748-3.209-1.3-4.614-.343S365.521,82.437,366.576,82.8Zm48.739,96.291a9.358,9.358,0,0,0,2.113,4.26,35.858,35.858,0,0,0,6.109,6.974,6.186,6.186,0,0,0,3.53,1.608,5.534,5.534,0,0,0,3.323-1.2,10.572,10.572,0,0,0,4.3-7.3c.45-3.953-1.389-7.8-3.527-11.166-1.324-2.085-2.869-4.164-5.085-5.281-3.715-1.874-6.17-.238-7.209,3.052C417.912,173.07,414.928,175.72,415.314,179.092ZM19.988,271.111c-1.956,1.724-.191,6.768.386,10.1a6.146,6.146,0,0,0,1.035,2.828,6.847,6.847,0,0,0,3.637,1.927c2.382.691,5.269,1.276,7.087-.4,1.349-1.241,1.446-8.419,1.269-10.077a5.327,5.327,0,0,0-.626-2.3,5.11,5.11,0,0,0-2.464-1.778C26.905,269.975,21.945,269.388,19.988,271.111ZM299.06,394.253c-7.208,5.273.082,9.978,9.185,6.486a127.472,127.472,0,0,1,14.629-5c1.623-.407,11.434-2.528,11.435-4.732,0-5.841-11.054-4.462-18.008-3.488A36.172,36.172,0,0,0,299.06,394.253Z" transform="translate(-12.695 -43.227)"/></svg>