<svg xmlns="http://www.w3.org/2000/svg" width="350.222" height="294.868" viewBox="0 0 350.222 294.868"><defs><style>.a{fill:#60cbd6;opacity:0.06;}</style></defs><path class="a" d="M86.278,81.238c11.526.771,16.348-7.093,21.764-17.2,14.827-27.673,47.845-25.006,58.921-7.967,7.845,12.07,24.763,9.587,38.448,4.864,13.47-4.65,36.419-9.116,54.7-3.56,15.966,4.853,22.517,22.36,37.071,21.283,31.749-2.35,47.755,28.995,42,42.665-3.753,8.923-5.616,18.9-2.565,28.084,3.361,10.112,11.038,18.117,17.243,26.809s11.2,19.559,8.118,29.757c-2.64,8.726-10.513,14.763-15.4,22.48-15.177,23.963-.163,60.688-20.387,80.661-14.477,14.3-38.078,11-58.334,13.725-16.892,2.276-32.788,9.369-49.6,12.149-34.053,5.628-68.442-6.769-102.963-7.119-12.16-.123-24.547,1.232-36.325-1.767a50.566,50.566,0,0,1-34.538-31.228c-7.523-20.887-.395-45.058-8.894-65.575-6.924-16.714-23.855-30.311-22.79-48.346.663-11.227,8.334-20.62,13.609-30.579C34.193,135.574,23.812,77.057,86.278,81.238ZM186.765,54.125c-3.029,0-5.485,1.882-5.485,4.2s2.462,4,5.485,4.2c9.851.651,9.851-3.332,9.851-5.652C196.616,53.17,189.8,54.125,186.765,54.125Zm100.043,17.92a16.212,16.212,0,0,0,9.417,3.653,3.767,3.767,0,0,0,2.615-.59,2.138,2.138,0,0,0,.193-3,5.024,5.024,0,0,0-1.857-1.016,5.841,5.841,0,0,1-2.867-2.139,2.1,2.1,0,0,0-.652-.812C291.751,67.065,283.343,69.182,286.809,72.045Zm16.78,3.712a4.309,4.309,0,0,0,2.69-.26c.559-.182,1.246-.581,1.1-1.146a1.05,1.05,0,0,0-.578-.585c-1.149-.615-2.638-1.068-3.793-.282S302.722,75.458,303.589,75.757Zm40.064,79.152a7.692,7.692,0,0,0,1.737,3.5,29.476,29.476,0,0,0,5.022,5.733,5.085,5.085,0,0,0,2.9,1.322,4.549,4.549,0,0,0,2.732-.986,8.69,8.69,0,0,0,3.534-6c.37-3.249-1.142-6.412-2.9-9.179a11.411,11.411,0,0,0-4.18-4.341c-3.053-1.541-5.072-.2-5.926,2.509C345.788,149.96,343.335,152.138,343.653,154.91ZM18.69,230.55c-1.608,1.417-.157,5.563.317,8.3a5.052,5.052,0,0,0,.851,2.324,5.629,5.629,0,0,0,2.989,1.584c1.958.568,4.331,1.049,5.826-.326,1.109-1.02,1.189-6.921,1.043-8.283a4.379,4.379,0,0,0-.514-1.887,4.2,4.2,0,0,0-2.026-1.462C24.376,229.616,20.3,229.133,18.69,230.55Zm229.4,101.224c-5.925,4.335.067,8.2,7.55,5.331A104.791,104.791,0,0,1,267.666,333c1.334-.334,9.4-2.078,9.4-3.889,0-4.8-9.087-3.668-14.8-2.868A29.734,29.734,0,0,0,248.09,331.774Z" transform="translate(-12.695 -43.227)"/></svg>