<svg xmlns="http://www.w3.org/2000/svg" viewBox="0 0 20 20" width="20" height="20">
	<style>
		tspan { white-space:pre }
		.shp0 { fill: #4bc8f9 } 
		.shp1 { fill: #1e76e3 } 
	</style>
	<g id="Layer" style="opacity: 0.996">
		<path id="Layer" class="shp0" d="M18.06 6.28L16.76 6.28L16.76 11.81C16.76 11.99 16.73 12.18 16.66 12.35C16.59 12.52 16.48 12.68 16.35 12.81C16.22 12.94 16.06 13.04 15.89 13.12C15.72 13.19 15.53 13.22 15.35 13.22L10.61 13.22L7.63 16.2C7.65 16.2 7.67 16.2 7.68 16.2C7.7 16.2 7.72 16.21 7.73 16.21C7.75 16.21 7.77 16.21 7.78 16.21C7.8 16.21 7.82 16.21 7.83 16.21L12.57 16.21L16.07 19.7L16.07 16.21L18.06 16.21C18.25 16.21 18.43 16.17 18.6 16.1C18.78 16.03 18.93 15.93 19.06 15.8C19.19 15.66 19.3 15.51 19.37 15.34C19.44 15.16 19.48 14.98 19.48 14.79L19.48 7.7C19.48 7.51 19.44 7.33 19.37 7.15C19.3 6.98 19.2 6.83 19.06 6.69C18.93 6.56 18.78 6.46 18.6 6.39C18.43 6.31 18.25 6.28 18.06 6.28L18.06 6.28Z" />
		<path id="Layer" class="shp1" d="M8.25 11.87L13.92 11.87C14.14 11.87 14.36 11.83 14.57 11.74C14.77 11.66 14.96 11.53 15.12 11.38C15.28 11.22 15.4 11.03 15.49 10.83C15.57 10.62 15.61 10.4 15.61 10.18L15.61 1.7C15.61 1.47 15.57 1.25 15.49 1.05C15.4 0.84 15.28 0.65 15.12 0.5C14.96 0.34 14.77 0.21 14.57 0.13C14.36 0.04 14.14 0 13.92 0L1.7 0C1.47 0 1.25 0.04 1.05 0.13C0.84 0.21 0.65 0.34 0.5 0.5C0.34 0.65 0.21 0.84 0.13 1.05C0.04 1.25 0 1.47 0 1.7L0 10.18C0 10.4 0.04 10.62 0.13 10.83C0.21 11.03 0.34 11.22 0.5 11.38C0.65 11.53 0.84 11.66 1.05 11.74C1.25 11.83 1.47 11.87 1.7 11.87L4.08 11.87L4.08 16.05L8.25 11.87Z" />
	</g>
</svg>