<svg xmlns="http://www.w3.org/2000/svg" viewBox="0 0 20 20" width="20" height="20">
	<style>
		tspan { white-space:pre }
		.shp0 { fill: none;stroke: #1e76e3;stroke-width: 2.5 } 
		.shp1 { fill: #4bc8f9 } 
	</style>
	<g id="Layer">
		<path id="Layer" class="shp0" d="M1.25 9.97C1.25 6.44 3.37 3.26 6.63 1.91C9.89 0.56 13.64 1.31 16.13 3.8C18.62 6.3 19.37 10.05 18.02 13.3C16.67 16.56 13.49 18.69 9.97 18.69C8.82 18.69 7.69 18.46 6.63 18.02C5.57 17.58 4.61 16.94 3.8 16.13C2.99 15.32 2.35 14.36 1.91 13.3C1.48 12.25 1.25 11.11 1.25 9.97L1.25 9.97Z" />
		<path id="Layer" class="shp1" d="M9.22 15.61L10.69 15.61L10.69 14.22C10.99 14.16 11.27 14.06 11.53 13.9C11.79 13.74 12.02 13.54 12.21 13.3C12.4 13.07 12.54 12.79 12.63 12.51C12.72 12.22 12.76 11.91 12.74 11.61C12.74 9.22 9.35 9.16 9.35 8.16C9.35 7.66 9.62 7.48 10.14 7.48C10.27 7.48 10.4 7.5 10.53 7.53C10.66 7.56 10.78 7.6 10.9 7.65C11.03 7.7 11.14 7.76 11.25 7.84C11.36 7.91 11.46 7.99 11.56 8.08L12.69 6.85C12.56 6.7 12.42 6.56 12.27 6.44C12.12 6.32 11.96 6.21 11.79 6.11C11.62 6.01 11.44 5.93 11.26 5.87C11.07 5.8 10.88 5.75 10.69 5.72L10.69 4.37L9.22 4.37L9.22 5.74C8.93 5.79 8.64 5.89 8.39 6.04C8.13 6.19 7.91 6.39 7.72 6.62C7.54 6.85 7.39 7.11 7.3 7.4C7.21 7.68 7.17 7.97 7.19 8.27C7.19 10.57 10.59 10.72 10.59 11.8C10.59 12.27 10.32 12.51 9.67 12.51C9.5 12.51 9.34 12.49 9.18 12.46C9.02 12.43 8.86 12.39 8.71 12.33C8.55 12.27 8.41 12.2 8.27 12.11C8.13 12.03 8 11.93 7.88 11.82L6.88 13.22C7.03 13.37 7.2 13.51 7.38 13.64C7.56 13.76 7.75 13.87 7.95 13.96C8.15 14.05 8.36 14.13 8.57 14.18C8.78 14.24 9 14.28 9.22 14.29L9.22 15.61Z" />
	</g>
</svg>