<svg xmlns="http://www.w3.org/2000/svg" viewBox="0 0 20 20" width="20" height="20">
	<style>
		tspan { white-space:pre }
		.shp0 { fill: #1e76e3 } 
		.shp1 { fill: #4bc8f9 } 
	</style>
	<g id="Layer">
		<path id="Layer" fill-rule="evenodd" class="shp0" d="M19.36 17.22C19.62 17.49 19.76 17.85 19.75 18.23C19.75 18.6 19.6 18.96 19.34 19.22C19.07 19.49 18.72 19.64 18.35 19.65C17.97 19.66 17.61 19.53 17.34 19.28L14.3 16.29C14.28 16.27 14.26 16.25 14.25 16.23C14.23 16.21 14.21 16.18 14.19 16.16C14.18 16.14 14.16 16.12 14.14 16.1C14.13 16.07 14.11 16.05 14.1 16.03C10.37 18.75 5.18 18.15 2.16 14.66C-0.85 11.16 -0.67 5.93 2.58 2.65C5.83 -0.63 11.05 -0.86 14.58 2.11C18.11 5.09 18.76 10.27 16.08 14.03C16.1 14.04 16.12 14.06 16.14 14.07C16.17 14.09 16.19 14.1 16.21 14.12C16.23 14.14 16.25 14.15 16.27 14.17C16.29 14.19 16.31 14.21 16.33 14.23L19.36 17.22L19.36 17.22ZM4.23 13.56C4.85 14.18 5.58 14.66 6.38 14.99C7.19 15.32 8.05 15.49 8.92 15.48C9.78 15.47 10.64 15.3 11.44 14.95C12.24 14.61 12.96 14.12 13.57 13.5C15.44 11.59 15.99 8.75 14.95 6.29C13.91 3.84 11.49 2.25 8.82 2.26C6.15 2.28 3.76 3.91 2.75 6.38C1.75 8.85 2.33 11.69 4.23 13.56Z" />
		<path id="Layer" class="shp1" d="M7.6 8.82L7.6 9.47C7.8 9.56 8 9.64 8.22 9.69C8.43 9.74 8.65 9.77 8.87 9.77C9.09 9.77 9.31 9.74 9.53 9.69C9.74 9.64 9.95 9.56 10.15 9.47L10.15 8.82C10.15 8.82 10.92 8.37 10.87 6.7C10.87 5.8 10.87 4.22 8.87 4.15C6.87 4.22 6.87 5.8 6.87 6.7C6.82 8.37 7.6 8.82 7.6 8.82Z" />
		<path id="Layer" class="shp1" d="M10.34 9.77C10.25 10.1 10.07 10.39 9.8 10.6C9.53 10.81 9.2 10.92 8.87 10.92C8.53 10.92 8.2 10.81 7.93 10.6C7.67 10.39 7.48 10.1 7.4 9.77C7.12 9.83 6.86 9.92 6.61 10.05C6.36 10.18 6.12 10.35 5.92 10.54C5.71 10.73 5.53 10.95 5.39 11.19C5.24 11.44 5.13 11.7 5.06 11.97C5.55 12.48 6.14 12.88 6.8 13.16C7.45 13.43 8.16 13.58 8.87 13.58C9.58 13.58 10.28 13.43 10.93 13.16C11.59 12.88 12.18 12.48 12.68 11.97C12.6 11.7 12.49 11.44 12.34 11.19C12.2 10.95 12.02 10.73 11.81 10.54C11.61 10.35 11.38 10.18 11.13 10.05C10.88 9.92 10.61 9.83 10.34 9.77Z" />
	</g>
</svg>