<svg xmlns="http://www.w3.org/2000/svg" viewBox="0 0 20 20" width="20" height="20">
	<style>
		tspan { white-space:pre }
		.shp0 { fill: #1e76e3 } 
		.shp1 { fill: #4bc8f9 } 
	</style>
	<g id="Layer" style="opacity: 0.996">
		<path id="Layer" class="shp0" d="M6.22 13.05C5.94 13.08 5.66 13.1 5.38 13.14C5.09 13.17 4.81 13.21 4.53 13.26C4.25 13.31 3.97 13.36 3.69 13.42C3.41 13.48 3.13 13.55 2.86 13.62C2.58 13.7 4.78 17.17 5.46 18.32C6.13 19.47 6.97 18.99 7.96 18.63C8.95 18.28 8.52 17.45 8.52 17.45C8.52 17.45 7.03 14.63 6.22 13.05Z" />
		<path id="Layer" class="shp0" d="M2.54 8.28L0.62 9.15C0.62 9.15 -0.12 9.4 0.02 10.01L0.26 11.11L0.33 11.47C0.4 11.77 0.5 12.22 0.57 12.58C0.71 13.18 1.44 12.91 1.44 12.91L3.44 12.41C4.17 12.22 4.9 12.1 5.65 12.04C6.39 11.98 7.14 11.99 7.88 12.06C8.62 12.13 9.36 12.27 10.09 12.47C10.82 12.67 11.53 12.93 12.22 13.25L9.74 1.81C9.28 2.54 8.78 3.22 8.24 3.87C7.7 4.51 7.13 5.1 6.52 5.65C5.91 6.2 5.27 6.69 4.61 7.13C3.94 7.57 3.25 7.95 2.54 8.28L2.54 8.28Z" />
		<path id="Layer" class="shp1" d="M13.81 6.73L13.74 6.37L12.52 0.79C12.52 0.79 12.32 -0.15 11.77 0.02C11.26 0.17 10.54 0.32 10.32 0.66L13.18 13.86C13.52 14.01 14.18 13.67 14.68 13.47C15.23 13.25 15.02 12.32 15.02 12.32L13.81 6.73Z" />
		<path id="Layer" class="shp0" d="M17.72 1.46C17.77 1.41 17.8 1.36 17.83 1.29C17.86 1.23 17.88 1.16 17.88 1.09C17.89 1.02 17.88 0.94 17.87 0.87C17.85 0.81 17.83 0.74 17.79 0.68C17.76 0.63 17.71 0.58 17.66 0.54C17.61 0.51 17.56 0.49 17.5 0.48C17.44 0.47 17.39 0.48 17.33 0.5C17.28 0.52 17.22 0.55 17.18 0.6L15.01 2.8C14.97 2.85 14.93 2.91 14.9 2.97C14.87 3.03 14.86 3.1 14.85 3.18C14.84 3.25 14.85 3.32 14.87 3.39C14.88 3.46 14.91 3.52 14.94 3.58C14.98 3.64 15.02 3.68 15.07 3.72C15.12 3.75 15.18 3.78 15.23 3.78C15.29 3.79 15.35 3.79 15.4 3.77C15.46 3.75 15.51 3.71 15.55 3.67L17.72 1.46Z" />
		<path id="Layer" class="shp0" d="M19.02 7.44L16.27 6.96C16.21 6.96 16.15 6.96 16.1 6.98C16.04 7 15.99 7.04 15.94 7.08C15.9 7.12 15.86 7.18 15.83 7.24C15.8 7.3 15.79 7.37 15.78 7.44C15.77 7.51 15.77 7.58 15.79 7.65C15.8 7.72 15.83 7.78 15.86 7.84C15.89 7.9 15.94 7.95 15.99 7.98C16.04 8.02 16.09 8.05 16.15 8.06L18.9 8.53C18.96 8.54 19.02 8.54 19.08 8.52C19.13 8.5 19.18 8.46 19.23 8.42C19.27 8.38 19.31 8.32 19.34 8.26C19.37 8.2 19.39 8.13 19.39 8.06C19.4 7.99 19.4 7.92 19.38 7.85C19.37 7.78 19.35 7.72 19.31 7.66C19.28 7.6 19.23 7.55 19.18 7.51C19.13 7.48 19.08 7.45 19.02 7.44Z" />
		<path id="Layer" class="shp0" d="M19.98 3.86C19.96 3.79 19.94 3.72 19.91 3.67C19.87 3.61 19.83 3.56 19.78 3.53C19.73 3.49 19.67 3.47 19.61 3.46C19.56 3.45 19.5 3.45 19.44 3.47L15.71 4.78C15.65 4.81 15.6 4.84 15.56 4.89C15.51 4.93 15.47 4.99 15.45 5.05C15.42 5.11 15.4 5.18 15.39 5.25C15.39 5.32 15.39 5.4 15.41 5.46C15.42 5.53 15.45 5.6 15.48 5.65C15.51 5.71 15.56 5.76 15.61 5.79C15.66 5.83 15.71 5.85 15.77 5.86C15.83 5.87 15.89 5.87 15.94 5.85L19.67 4.54C19.73 4.51 19.78 4.48 19.83 4.43C19.87 4.39 19.91 4.33 19.94 4.27C19.97 4.21 19.98 4.14 19.99 4.07C20 4 19.99 3.92 19.98 3.86Z" />
	</g>
</svg>