<svg xmlns="http://www.w3.org/2000/svg" width="28.912" height="30.034" viewBox="0 0 28.912 30.034"><defs><style>.a{fill:#fff;}</style></defs><g transform="translate(-2048 -237.928)"><g transform="translate(2054.471 244.243)"><path class="a" d="M2077.156,278.1a8.3,8.3,0,0,1-.344-.853,3.822,3.822,0,0,0,.981-1.245,3.744,3.744,0,0,0,.309-2.411,3.659,3.659,0,0,0-.649-1.444,3.713,3.713,0,0,0-.534-.577,8.619,8.619,0,0,1,1.561-2.59,3.8,3.8,0,0,0,2.366.057,3.873,3.873,0,0,0,1.457-.817,3.8,3.8,0,0,0,1.186-2.048,8.579,8.579,0,0,1,2.562-.057c.155.02.311.045.463.073a3.692,3.692,0,0,0,1.108,2.064,3.748,3.748,0,0,0,2.22.995,3.825,3.825,0,0,0,1.575-.189c.1.12.2.242.287.366a8.261,8.261,0,0,1,1.175,2.244,3.855,3.855,0,0,0-.555.57,3.759,3.759,0,0,0-.735,3.086,3.671,3.671,0,0,0,.649,1.444,3.739,3.739,0,0,0,.534.577,8.62,8.62,0,0,1-1.562,2.591,3.793,3.793,0,0,0-2.365-.057,3.868,3.868,0,0,0-1.458.817,3.794,3.794,0,0,0-1.187,2.048,8.621,8.621,0,0,1-.926.11,8.53,8.53,0,0,1-1.636-.052c-.154-.02-.311-.045-.463-.073a3.694,3.694,0,0,0-.585-1.453,3.653,3.653,0,0,0-.522-.61,3.741,3.741,0,0,0-2.219-.995,3.827,3.827,0,0,0-1.576.189h0c-.1-.12-.2-.242-.287-.366a8.257,8.257,0,0,1-.559-.866C2077.33,278.456,2077.24,278.28,2077.156,278.1Zm11.413-6.374a4.466,4.466,0,0,0-.6-.663,4.56,4.56,0,0,0-2.466-1.133,4.616,4.616,0,0,0-.888-.029,4.669,4.669,0,0,0-4.106,3.09,4.524,4.524,0,0,0,.167,3.443,4.455,4.455,0,0,0,1.051,1.417,4.564,4.564,0,0,0,2.466,1.133,4.671,4.671,0,0,0,4.995-3.061,4.526,4.526,0,0,0-.166-3.443c-.045-.1-.095-.192-.147-.285A4.539,4.539,0,0,0,2088.569,271.728Zm-4.94.588a2.453,2.453,0,1,1-.973,3.358A2.453,2.453,0,0,1,2083.628,272.316Z" transform="translate(-2076.812 -266.047)"/></g><g transform="translate(2065.743 240.623)"><path class="a" d="M2138.17,262.729a13.772,13.772,0,0,0-8.446-12.718,1.041,1.041,0,1,0-.808,1.919,11.716,11.716,0,0,1,.352,21.443l.453-1.056a.71.71,0,1,0-1.306-.56l-1.357,3.163a.711.711,0,0,0,.372.933l3.164,1.357a.7.7,0,0,0,.226.056.711.711,0,0,0,.334-1.362l-1.25-.536A13.772,13.772,0,0,0,2138.17,262.729Z" transform="translate(-2127.001 -249.929)"/></g><g transform="translate(2048 237.928)"><path class="a" d="M2048,252.467a13.77,13.77,0,0,0,8.446,12.718,1.041,1.041,0,1,0,.807-1.919,11.717,11.717,0,0,1-.352-21.443l-.453,1.056a.711.711,0,1,0,1.307.56l1.357-3.163a.71.71,0,0,0-.373-.933l-3.163-1.357a.711.711,0,1,0-.56,1.306l1.249.536A13.772,13.772,0,0,0,2048,252.467Z" transform="translate(-2048 -237.928)"/></g></g></svg>