<svg xmlns="http://www.w3.org/2000/svg" viewBox="0 0 74 21" width="74" height="21">
	<style>
		tspan { white-space:pre }
		.shp0 { fill: #ffffff } 
	</style>
	<g id="Layer">
		<g id="Layer">
			<path id="Layer" fill-rule="evenodd" class="shp0" d="M4.02 12.45C4 12.4 3.98 12.35 3.96 12.31C3.94 12.26 3.93 12.21 3.91 12.16C3.89 12.11 3.88 12.06 3.86 12.02C3.84 11.97 3.83 11.92 3.82 11.87C3.88 11.81 3.93 11.75 3.99 11.69C4.04 11.62 4.09 11.55 4.14 11.48C4.19 11.41 4.24 11.34 4.28 11.26C4.32 11.19 4.36 11.11 4.39 11.03C4.45 10.9 4.49 10.77 4.53 10.64C4.56 10.51 4.59 10.37 4.6 10.23C4.62 10.09 4.62 9.95 4.62 9.81C4.62 9.67 4.6 9.53 4.58 9.4C4.55 9.26 4.52 9.14 4.48 9.01C4.43 8.88 4.38 8.76 4.32 8.65C4.27 8.53 4.2 8.42 4.12 8.32C4.05 8.21 3.97 8.12 3.88 8.03C3.93 7.87 3.99 7.71 4.06 7.56C4.12 7.4 4.19 7.25 4.27 7.11C4.35 6.96 4.43 6.82 4.52 6.68C4.61 6.54 4.7 6.41 4.8 6.28C4.91 6.32 5.03 6.36 5.14 6.38C5.26 6.41 5.38 6.42 5.49 6.42C5.61 6.43 5.73 6.42 5.85 6.4C5.96 6.38 6.08 6.35 6.19 6.31C6.27 6.29 6.35 6.25 6.43 6.22C6.5 6.18 6.58 6.14 6.65 6.09C6.72 6.05 6.79 5.99 6.86 5.94C6.93 5.88 6.99 5.82 7.05 5.76C7.14 5.67 7.22 5.57 7.3 5.47C7.37 5.36 7.44 5.25 7.5 5.13C7.56 5.01 7.61 4.89 7.65 4.76C7.69 4.64 7.73 4.51 7.75 4.37C7.88 4.35 8 4.33 8.13 4.32C8.25 4.3 8.38 4.29 8.51 4.29C8.63 4.29 8.76 4.29 8.88 4.3C9.01 4.3 9.14 4.32 9.26 4.34C9.35 4.35 9.44 4.37 9.54 4.38C9.56 4.52 9.58 4.65 9.62 4.78C9.66 4.9 9.71 5.03 9.76 5.15C9.82 5.26 9.88 5.38 9.95 5.48C10.03 5.59 10.1 5.69 10.19 5.78C10.28 5.88 10.37 5.97 10.48 6.04C10.58 6.12 10.68 6.19 10.79 6.25C10.91 6.3 11.02 6.35 11.14 6.39C11.26 6.42 11.38 6.44 11.5 6.46C11.58 6.47 11.65 6.47 11.73 6.47C11.81 6.47 11.89 6.46 11.97 6.45C12.05 6.44 12.12 6.42 12.2 6.4C12.28 6.38 12.35 6.36 12.43 6.33C12.48 6.41 12.54 6.49 12.6 6.58C12.67 6.69 12.74 6.81 12.81 6.93C12.87 7.05 12.93 7.18 12.99 7.31C13.05 7.43 13.1 7.56 13.15 7.7C13.2 7.83 13.25 7.96 13.29 8.1C13.26 8.13 13.23 8.16 13.2 8.19C13.17 8.22 13.14 8.25 13.12 8.28C13.09 8.31 13.06 8.35 13.04 8.38C13.01 8.41 12.99 8.45 12.96 8.48C12.86 8.63 12.78 8.79 12.7 8.95C12.63 9.12 12.58 9.29 12.54 9.47C12.51 9.65 12.49 9.84 12.48 10.02C12.48 10.21 12.5 10.39 12.53 10.58C12.54 10.66 12.56 10.75 12.59 10.84C12.61 10.92 12.64 11.01 12.67 11.09C12.7 11.17 12.74 11.25 12.78 11.33C12.82 11.41 12.86 11.48 12.91 11.55C12.93 11.59 12.96 11.62 12.98 11.66C13.01 11.69 13.03 11.73 13.06 11.76C13.09 11.79 13.11 11.82 13.14 11.85C13.17 11.89 13.2 11.92 13.22 11.94C13.17 12.11 13.11 12.26 13.05 12.42C12.98 12.57 12.91 12.72 12.83 12.87C12.75 13.02 12.67 13.16 12.58 13.3C12.5 13.44 12.4 13.57 12.3 13.7C12.19 13.65 12.08 13.62 11.96 13.59C11.85 13.57 11.73 13.56 11.61 13.55C11.49 13.55 11.37 13.56 11.26 13.58C11.14 13.59 11.02 13.62 10.91 13.66C10.83 13.69 10.75 13.72 10.68 13.76C10.6 13.8 10.53 13.84 10.45 13.88C10.38 13.93 10.31 13.98 10.24 14.04C10.18 14.09 10.11 14.15 10.05 14.21C9.96 14.31 9.88 14.4 9.81 14.51C9.73 14.61 9.66 14.73 9.6 14.84C9.54 14.96 9.49 15.08 9.45 15.21C9.41 15.34 9.37 15.47 9.35 15.6C9.23 15.63 9.1 15.65 8.97 15.66C8.85 15.67 8.72 15.68 8.6 15.69C8.47 15.69 8.34 15.69 8.22 15.68C8.09 15.67 7.97 15.66 7.84 15.64C7.75 15.63 7.66 15.61 7.57 15.59C7.55 15.5 7.54 15.42 7.52 15.33C7.49 15.24 7.47 15.16 7.44 15.08C7.41 15 7.38 14.91 7.34 14.84C7.31 14.76 7.27 14.68 7.22 14.61C7.2 14.57 7.18 14.53 7.15 14.5C7.13 14.46 7.1 14.42 7.08 14.39C7.05 14.36 7.03 14.32 7 14.29C6.97 14.26 6.94 14.22 6.91 14.19C6.83 14.1 6.73 14.01 6.63 13.93C6.53 13.86 6.42 13.79 6.31 13.73C6.2 13.67 6.08 13.63 5.96 13.59C5.85 13.56 5.73 13.53 5.61 13.52C5.57 13.51 5.53 13.51 5.49 13.51C5.45 13.51 5.41 13.51 5.37 13.51C5.33 13.51 5.29 13.51 5.25 13.51C5.21 13.52 5.17 13.52 5.13 13.53C5.1 13.53 5.06 13.54 5.02 13.55C4.98 13.55 4.94 13.56 4.9 13.57C4.87 13.58 4.83 13.59 4.79 13.61C4.75 13.62 4.71 13.63 4.68 13.65C4.62 13.57 4.56 13.48 4.51 13.4C4.48 13.35 4.45 13.3 4.42 13.26C4.39 13.21 4.36 13.16 4.34 13.11C4.31 13.06 4.28 13.01 4.26 12.96C4.23 12.91 4.2 12.86 4.18 12.81C4.12 12.69 4.07 12.57 4.02 12.45ZM10.75 8.13C10.72 8.09 10.69 8.05 10.67 8.01C10.64 7.97 10.61 7.93 10.58 7.89C10.55 7.86 10.52 7.82 10.49 7.78C10.46 7.75 10.42 7.71 10.39 7.68C10.29 7.58 10.18 7.48 10.07 7.39C9.96 7.31 9.84 7.23 9.72 7.17C9.59 7.1 9.47 7.05 9.34 7.01C9.21 6.96 9.07 6.93 8.94 6.91C8.9 6.91 8.85 6.9 8.81 6.9C8.76 6.89 8.72 6.89 8.68 6.89C8.63 6.89 8.59 6.89 8.55 6.89C8.5 6.89 8.46 6.89 8.41 6.89C8.15 6.91 7.88 6.98 7.63 7.08C7.38 7.19 7.15 7.34 6.93 7.52C6.72 7.71 6.53 7.93 6.37 8.18C6.21 8.42 6.08 8.7 5.99 8.99C5.94 9.18 5.89 9.37 5.87 9.57C5.84 9.76 5.83 9.96 5.84 10.16C5.85 10.36 5.88 10.56 5.92 10.76C5.96 10.95 6.02 11.14 6.09 11.32C6.13 11.41 6.17 11.5 6.22 11.59C6.26 11.67 6.31 11.76 6.36 11.84C6.41 11.92 6.47 11.99 6.53 12.07C6.59 12.14 6.65 12.21 6.71 12.28C6.81 12.38 6.92 12.48 7.03 12.57C7.15 12.65 7.27 12.73 7.39 12.79C7.51 12.86 7.64 12.91 7.77 12.95C7.9 13 8.03 13.03 8.17 13.05C8.47 13.09 8.79 13.08 9.09 13C9.4 12.93 9.69 12.79 9.96 12.61C10.22 12.42 10.46 12.18 10.65 11.9C10.85 11.63 11.01 11.31 11.11 10.97C11.17 10.79 11.21 10.59 11.24 10.39C11.26 10.2 11.27 10 11.26 9.8C11.25 9.6 11.23 9.4 11.19 9.2C11.14 9.01 11.09 8.82 11.01 8.64C10.99 8.58 10.96 8.51 10.93 8.45C10.91 8.42 10.9 8.39 10.88 8.37C10.87 8.34 10.86 8.31 10.84 8.29C10.83 8.26 10.81 8.23 10.8 8.21C10.78 8.18 10.76 8.15 10.75 8.13L10.75 8.13ZM7.83 8.53C8.35 8.21 8.98 8.28 9.43 8.7C9.88 9.12 10.07 9.81 9.91 10.45C9.75 11.1 9.27 11.57 8.69 11.64C8.11 11.72 7.55 11.39 7.26 10.8C7.17 10.61 7.11 10.4 7.08 10.18C7.06 9.96 7.08 9.74 7.13 9.53C7.19 9.32 7.27 9.12 7.39 8.95C7.52 8.77 7.66 8.63 7.83 8.53L7.83 8.53Z" />
		</g>
		<g id="Layer">
			<path id="Layer" class="shp0" d="M17.04 10.5C17.05 9.59 16.93 8.68 16.7 7.8C16.47 6.92 16.13 6.09 15.69 5.33C15.25 4.56 14.71 3.88 14.1 3.3C13.49 2.71 12.8 2.24 12.07 1.88C11.91 1.8 11.74 1.8 11.59 1.87C11.43 1.94 11.31 2.07 11.24 2.25C11.18 2.43 11.18 2.63 11.24 2.8C11.31 2.98 11.43 3.12 11.59 3.18C12.83 3.78 13.88 4.78 14.63 6.05C15.38 7.33 15.8 8.83 15.82 10.37C15.84 11.91 15.47 13.42 14.76 14.73C14.04 16.03 13.01 17.07 11.8 17.71L12.06 17C12.1 16.88 12.1 16.75 12.06 16.64C12.02 16.52 11.94 16.43 11.84 16.38C11.74 16.34 11.63 16.33 11.53 16.38C11.42 16.42 11.34 16.51 11.29 16.62L10.49 18.76C10.47 18.82 10.46 18.88 10.46 18.94C10.46 19.01 10.47 19.07 10.49 19.13C10.51 19.19 10.54 19.24 10.58 19.28C10.62 19.33 10.66 19.37 10.71 19.39L12.58 20.31C12.59 20.32 12.6 20.32 12.61 20.32C12.62 20.33 12.63 20.33 12.64 20.34C12.66 20.34 12.67 20.34 12.68 20.34C12.69 20.35 12.7 20.35 12.71 20.35C12.81 20.36 12.91 20.32 12.99 20.26C13.07 20.19 13.13 20.09 13.15 19.98C13.17 19.87 13.16 19.76 13.12 19.65C13.07 19.55 13 19.47 12.91 19.43L12.17 19.06C12.89 18.7 13.57 18.22 14.17 17.64C14.77 17.05 15.29 16.37 15.72 15.62C16.15 14.86 16.48 14.04 16.71 13.17C16.93 12.3 17.05 11.4 17.04 10.5L17.04 10.5Z" />
		</g>
		<g id="Layer">
			<path id="Layer" class="shp0" d="M0 9.85C0 10.77 0.12 11.68 0.34 12.55C0.57 13.43 0.91 14.26 1.36 15.03C1.8 15.79 2.33 16.47 2.95 17.06C3.56 17.64 4.24 18.11 4.98 18.47C5.13 18.55 5.3 18.56 5.46 18.49C5.61 18.42 5.74 18.28 5.8 18.1C5.87 17.93 5.87 17.73 5.8 17.55C5.74 17.37 5.61 17.24 5.45 17.17C4.22 16.57 3.16 15.57 2.41 14.3C1.66 13.02 1.25 11.52 1.23 9.98C1.21 8.44 1.58 6.93 2.29 5.62C3 4.32 4.03 3.28 5.25 2.64L4.98 3.35C4.93 3.47 4.93 3.61 4.97 3.73C5.01 3.85 5.09 3.95 5.19 4C5.3 4.05 5.42 4.06 5.52 4C5.63 3.95 5.71 3.86 5.75 3.73L6.55 1.59C6.57 1.53 6.58 1.47 6.58 1.41C6.59 1.35 6.57 1.28 6.55 1.22C6.53 1.17 6.5 1.11 6.47 1.07C6.43 1.02 6.38 0.99 6.33 0.96L4.47 0.04C4.36 -0.02 4.24 -0.02 4.14 0.02C4.03 0.07 3.94 0.17 3.9 0.29C3.85 0.41 3.85 0.54 3.9 0.67C3.94 0.79 4.03 0.88 4.14 0.93L4.87 1.29C4.15 1.65 3.48 2.13 2.88 2.71C2.28 3.3 1.76 3.98 1.32 4.73C0.89 5.49 0.56 6.32 0.34 7.18C0.11 8.05 0 8.95 0 9.85L0 9.85Z" />
		</g>
		<path id="Layer" class="shp0" d="M35.27 11.29L28.86 1L25.1 1L25.1 18.89L28.93 18.89L28.93 8.19L35.54 18.89L39.1 18.89L39.1 0.99L35.27 0.99L35.27 11.29Z" />
		<path id="Layer" class="shp0" d="M70.14 12.59L70 12.92C69.84 13.27 69.64 13.59 69.41 13.87C69.17 14.16 68.91 14.4 68.61 14.6C68.32 14.8 68.01 14.96 67.68 15.06C67.35 15.16 67.01 15.21 66.67 15.2C65.52 15.1 64.44 14.51 63.66 13.53C62.87 12.56 62.44 11.28 62.44 9.96C62.44 8.63 62.87 7.35 63.66 6.38C64.44 5.41 65.52 4.81 66.67 4.71C67.01 4.71 67.35 4.76 67.67 4.87C68 4.97 68.32 5.12 68.61 5.32C68.9 5.52 69.17 5.77 69.4 6.05C69.64 6.33 69.84 6.65 70 7L70.15 7.33L73.48 5.44L73.31 5.09C72.99 4.41 72.59 3.78 72.12 3.23C71.65 2.67 71.12 2.2 70.53 1.81C69.95 1.43 69.32 1.14 68.67 0.95C68.01 0.77 67.34 0.69 66.67 0.71C66.14 0.7 65.61 0.75 65.09 0.86C64.57 0.97 64.06 1.13 63.56 1.35C63.07 1.57 62.6 1.84 62.15 2.16C61.7 2.49 61.28 2.86 60.89 3.28C60.14 4.16 59.54 5.2 59.13 6.35C58.72 7.49 58.51 8.72 58.51 9.96C58.51 11.2 58.72 12.42 59.13 13.57C59.54 14.71 60.14 15.76 60.89 16.64C61.28 17.06 61.7 17.43 62.15 17.75C62.6 18.07 63.07 18.35 63.56 18.57C64.06 18.79 64.57 18.95 65.09 19.06C65.61 19.16 66.14 19.21 66.67 19.2C67.34 19.23 68.02 19.15 68.67 18.96C69.32 18.77 69.95 18.48 70.54 18.1C71.12 17.71 71.65 17.23 72.12 16.67C72.59 16.11 72.99 15.48 73.3 14.8L73.49 14.44L70.14 12.59Z" />
		<g id="Layer">
			<path id="Layer" fill-rule="evenodd" class="shp0" d="M57.18 10C57.16 11 57.01 11.98 56.72 12.92C56.44 13.86 56.04 14.74 55.52 15.54C55 16.34 54.38 17.03 53.67 17.61C52.96 18.18 52.19 18.63 51.36 18.93C51.32 18.94 51.29 18.95 51.25 18.96C51.21 18.97 51.18 18.98 51.14 18.99C51.1 19 51.06 19 51.02 19.01C50.99 19.01 50.95 19.01 50.91 19.01C50.74 19.06 50.57 19.11 50.4 19.14C50.23 19.18 50.06 19.21 49.88 19.24C49.71 19.26 49.54 19.28 49.36 19.29C49.19 19.31 49.02 19.31 48.84 19.31C47.86 19.31 46.89 19.11 45.96 18.71C45.04 18.32 44.19 17.74 43.44 17.01C42.7 16.27 42.07 15.39 41.59 14.41C41.11 13.42 40.79 12.34 40.64 11.23C40.63 11.17 40.62 11.11 40.61 11.06C40.6 10.96 40.59 10.87 40.58 10.78C40.57 10.69 40.57 10.6 40.56 10.5C40.56 10.41 40.55 10.32 40.55 10.22C40.54 10.13 40.54 10.04 40.54 9.95C40.54 9.88 40.54 9.8 40.54 9.74C40.54 9.67 40.54 9.61 40.54 9.55C40.56 8.56 40.71 7.57 40.99 6.63C41.27 5.69 41.68 4.81 42.2 4.01C42.72 3.22 43.34 2.52 44.05 1.94C44.75 1.37 45.53 0.92 46.36 0.63C46.39 0.61 46.43 0.6 46.47 0.59C46.5 0.58 46.54 0.57 46.58 0.56C46.62 0.56 46.65 0.55 46.69 0.55C46.73 0.54 46.77 0.54 46.81 0.54C46.98 0.49 47.15 0.45 47.32 0.41C47.49 0.37 47.66 0.34 47.83 0.32C48 0.29 48.18 0.27 48.35 0.26C48.53 0.25 48.7 0.24 48.87 0.24C49.86 0.24 50.83 0.45 51.75 0.84C52.67 1.23 53.53 1.81 54.27 2.55C55.02 3.28 55.65 4.16 56.12 5.15C56.6 6.13 56.93 7.21 57.08 8.33C57.09 8.38 57.1 8.44 57.11 8.5C57.12 8.59 57.13 8.68 57.13 8.77C57.14 8.87 57.15 8.96 57.15 9.05C57.16 9.14 57.17 9.24 57.17 9.33C57.17 9.42 57.17 9.51 57.18 9.61C57.18 9.68 57.18 9.75 57.18 9.82C57.18 9.88 57.18 9.94 57.18 10ZM53.76 9.83C53.76 9.78 53.76 9.73 53.76 9.68C53.75 9.51 53.74 9.34 53.73 9.17C53.59 7.74 52.99 6.43 52.05 5.5C51.1 4.57 49.88 4.08 48.63 4.15C47.39 4.21 46.21 4.82 45.34 5.85C44.47 6.87 43.97 8.24 43.95 9.67C43.95 9.73 43.95 9.82 43.95 9.88C43.96 10.05 43.97 10.22 43.98 10.39C44.12 11.81 44.72 13.12 45.66 14.06C46.61 14.99 47.83 15.47 49.08 15.41C50.32 15.35 51.5 14.74 52.37 13.71C53.24 12.68 53.74 11.31 53.76 9.88L53.76 9.83Z" />
			<path id="Layer" fill-rule="evenodd" class="shp0" d="M51.5 7.42C52.05 8.23 52.3 9.25 52.19 10.27C52.09 11.29 51.64 12.22 50.94 12.85C50.24 13.49 49.35 13.78 48.46 13.66C47.57 13.54 46.76 13.02 46.2 12.21C45.65 11.41 45.4 10.38 45.5 9.35C45.61 8.33 46.06 7.4 46.77 6.76C47.47 6.13 48.37 5.84 49.26 5.97C50.14 6.09 50.95 6.62 51.5 7.42ZM50.39 10.03C50.42 9.79 50.4 9.56 50.35 9.34C50.29 9.11 50.2 8.9 50.07 8.72C49.95 8.54 49.79 8.38 49.62 8.27C49.44 8.15 49.24 8.08 49.04 8.05C49.03 8.05 49.01 8.05 49 8.05C48.98 8.05 48.97 8.05 48.95 8.04C48.94 8.04 48.92 8.04 48.91 8.04C48.89 8.04 48.88 8.04 48.86 8.04C48.47 8.04 48.09 8.21 47.8 8.52C47.51 8.83 47.34 9.26 47.31 9.71C47.29 10.16 47.42 10.61 47.67 10.95C47.93 11.3 48.29 11.52 48.68 11.57C48.88 11.6 49.08 11.58 49.28 11.52C49.47 11.46 49.65 11.35 49.81 11.21C49.97 11.06 50.11 10.88 50.2 10.68C50.3 10.48 50.37 10.26 50.39 10.02L50.39 10.03Z" />
		</g>
	</g>
</svg>