<svg xmlns="http://www.w3.org/2000/svg" viewBox="0 0 20 20" width="20" height="20">
	<style>
		tspan { white-space:pre }
		.shp0 { fill: #1e76e3 } 
		.shp1 { fill: #4bc8f9 } 
	</style>
	<g id="Layer">
		<path id="Layer" class="shp0" d="M8.21 1.72L11.69 1.72C12.45 1.72 13.09 2.64 13.09 3.72L14.7 3.72C14.73 3.27 14.67 2.81 14.54 2.38C14.4 1.95 14.19 1.55 13.91 1.2C13.63 0.86 13.29 0.57 12.91 0.37C12.53 0.16 12.11 0.04 11.69 0L8.21 0C7.79 0.04 7.37 0.16 6.99 0.37C6.61 0.57 6.27 0.86 5.99 1.2C5.71 1.55 5.5 1.95 5.36 2.38C5.23 2.81 5.17 3.27 5.2 3.72L6.81 3.72C6.81 2.64 7.45 1.72 8.21 1.72Z" />
		<g id="Layer">
			<path id="Layer" class="shp1" d="M17.53 4.75L2.37 4.75C2.06 4.75 1.75 4.82 1.46 4.94C1.18 5.07 0.92 5.26 0.7 5.49C0.48 5.73 0.3 6 0.18 6.31C0.06 6.62 0 6.94 0 7.28L0 7.91L19.9 7.91L19.9 7.28C19.9 6.94 19.84 6.62 19.72 6.31C19.6 6 19.43 5.72 19.21 5.49C18.99 5.26 18.73 5.07 18.44 4.94C18.15 4.82 17.84 4.75 17.53 4.75L17.53 4.75Z" />
			<path id="Layer" class="shp0" d="M16.07 9.33L13.26 9.33L13.26 10.06C13.26 10.18 13.24 10.29 13.19 10.4C13.15 10.51 13.09 10.6 13.01 10.69C12.94 10.77 12.85 10.83 12.74 10.88C12.64 10.92 12.54 10.95 12.43 10.95L7.47 10.95C7.36 10.95 7.25 10.92 7.15 10.88C7.05 10.83 6.96 10.77 6.88 10.69C6.81 10.6 6.74 10.51 6.7 10.4C6.66 10.29 6.64 10.18 6.64 10.06L6.64 9.33L0 9.33L0 16.68C0 17.01 0.06 17.34 0.18 17.65C0.29 17.95 0.47 18.23 0.69 18.47C0.91 18.7 1.17 18.89 1.46 19.01C1.74 19.14 2.05 19.21 2.36 19.21L17.53 19.21C17.84 19.21 18.15 19.14 18.43 19.01C18.72 18.89 18.98 18.7 19.2 18.47C19.42 18.23 19.59 17.95 19.71 17.65C19.83 17.34 19.89 17.01 19.89 16.68L19.89 9.33L16.06 9.33L16.07 9.33Z" />
		</g>
	</g>
</svg>