<svg xmlns="http://www.w3.org/2000/svg" viewBox="0 0 20 20" width="20" height="20">
	<style>
		tspan { white-space:pre }
		.shp0 { fill: #4bc8f9 } 
		.shp1 { fill: #1e76e3 } 
	</style>
	<g id="Layer" style="opacity: 0.996">
		<g id="Layer">
			<path id="Layer" class="shp0" d="M17.99 11.9C17.77 11.82 17.56 11.73 17.35 11.64C17.13 11.54 16.92 11.44 16.72 11.32C16.51 11.21 16.31 11.08 16.11 10.95C15.91 10.82 15.72 10.67 15.53 10.52C15.36 10.39 15.21 10.24 15.08 10.05C14.95 9.87 14.85 9.67 14.76 9.44C14.68 9.22 14.63 8.99 14.6 8.75C14.58 8.51 14.58 8.26 14.61 8.02C14.71 7.9 14.8 7.77 14.87 7.63C14.95 7.49 15.01 7.34 15.07 7.18C15.12 7.03 15.16 6.86 15.19 6.7C15.21 6.53 15.23 6.36 15.23 6.19C15.38 5.95 15.79 5.69 15.77 5.17C15.74 4.65 15.74 4.49 15.66 4.32C15.66 4.02 16.46 0.18 13.44 0L13.44 0L13.4 0L13.4 0C13.22 -0.01 13.05 0.01 12.87 0.05C12.7 0.1 12.53 0.16 12.36 0.26C12.2 0.35 12.05 0.46 11.91 0.6C11.77 0.74 11.64 0.9 11.53 1.07C13.89 1.66 13.19 5.03 13.19 5.31C13.28 5.47 13.28 5.64 13.3 6.16C13.32 6.68 12.91 6.94 12.76 7.18C12.77 7.34 12.76 7.5 12.73 7.66C12.71 7.82 12.68 7.98 12.63 8.13C12.58 8.28 12.52 8.42 12.44 8.55C12.37 8.68 12.29 8.81 12.19 8.92C12.18 9.01 12.16 9.09 12.15 9.17C12.12 9.4 12.13 9.63 12.16 9.85C12.19 10.08 12.25 10.3 12.33 10.51C12.41 10.71 12.52 10.9 12.64 11.07C12.76 11.24 12.91 11.39 13.06 11.5C13.25 11.66 13.45 11.8 13.65 11.93C13.85 12.07 14.05 12.19 14.25 12.31C14.46 12.42 14.67 12.53 14.88 12.62C15.09 12.72 15.31 12.8 15.53 12.88C16.97 13.44 16.83 14.71 16.83 14.71L16.72 16.94C17.98 16.51 19.18 16.07 19.18 16.07L19.29 13.73C19.29 13.73 19.43 12.46 17.99 11.9Z" />
		</g>
		<g id="Layer">
			<path id="Layer" class="shp0" d="M3.76 12.88C3.98 12.81 4.2 12.72 4.41 12.63C4.62 12.53 4.83 12.43 5.04 12.31C5.24 12.2 5.44 12.07 5.64 11.94C5.84 11.8 6.04 11.66 6.23 11.51C6.38 11.39 6.53 11.24 6.65 11.08C6.77 10.91 6.88 10.72 6.96 10.51C7.04 10.3 7.1 10.08 7.13 9.86C7.16 9.63 7.16 9.4 7.14 9.17C7.13 9.09 7.11 9.01 7.1 8.92C7 8.81 6.92 8.69 6.85 8.56C6.77 8.42 6.71 8.28 6.66 8.13C6.61 7.98 6.58 7.83 6.55 7.67C6.53 7.51 6.52 7.35 6.53 7.19C6.38 6.94 5.97 6.69 5.99 6.17C6.01 5.64 6.01 5.48 6.1 5.32C6.1 5.03 5.4 1.66 7.76 1.08C7.65 0.9 7.52 0.74 7.38 0.61C7.24 0.47 7.09 0.35 6.92 0.26C6.76 0.17 6.59 0.1 6.42 0.06C6.24 0.01 6.06 0 5.89 0.01L5.88 0.01L5.85 0.01L5.85 0.01C2.84 0.19 3.63 4.02 3.63 4.33C3.55 4.49 3.55 4.65 3.52 5.18C3.5 5.7 3.91 5.96 4.06 6.2C4.06 6.37 4.08 6.54 4.1 6.7C4.13 6.87 4.17 7.03 4.22 7.19C4.28 7.34 4.34 7.49 4.42 7.63C4.49 7.77 4.58 7.91 4.68 8.03C4.71 8.27 4.71 8.51 4.68 8.75C4.66 8.99 4.6 9.23 4.52 9.45C4.44 9.67 4.34 9.88 4.21 10.06C4.08 10.24 3.93 10.4 3.76 10.53C3.57 10.68 3.38 10.82 3.18 10.95C2.98 11.09 2.78 11.21 2.57 11.33C2.37 11.44 2.16 11.55 1.94 11.64C1.73 11.74 1.52 11.82 1.3 11.9C-0.14 12.47 0 13.74 0 13.74L0.11 16.07C0.11 16.07 1.31 16.52 2.57 16.95L2.46 14.72C2.46 14.72 2.32 13.45 3.76 12.88Z" />
		</g>
		<g id="Layer">
			<path id="Layer" class="shp1" d="M14.12 13.49C13.91 13.41 13.69 13.33 13.48 13.23C13.27 13.14 13.06 13.03 12.85 12.92C12.64 12.8 12.44 12.68 12.24 12.54C12.04 12.41 11.85 12.26 11.66 12.11C11.49 11.99 11.34 11.83 11.21 11.65C11.08 11.46 10.98 11.26 10.9 11.04C10.82 10.82 10.76 10.58 10.74 10.34C10.71 10.1 10.71 9.85 10.75 9.61C10.84 9.49 10.93 9.36 11 9.22C11.08 9.08 11.15 8.93 11.2 8.77C11.25 8.62 11.29 8.46 11.32 8.29C11.34 8.12 11.36 7.95 11.36 7.79C11.51 7.54 11.92 7.29 11.9 6.76C11.88 6.24 11.88 6.08 11.79 5.92C11.79 5.61 12.59 1.77 9.58 1.59L9.58 1.59L9.54 1.59L9.54 1.59C6.53 1.77 7.32 5.61 7.32 5.92C7.24 6.08 7.24 6.24 7.21 6.76C7.19 7.29 7.6 7.54 7.75 7.79C7.75 7.95 7.77 8.12 7.79 8.29C7.82 8.46 7.86 8.62 7.91 8.77C7.97 8.93 8.03 9.08 8.11 9.22C8.18 9.36 8.27 9.49 8.37 9.61C8.4 9.85 8.4 10.1 8.37 10.34C8.35 10.58 8.29 10.82 8.21 11.04C8.13 11.26 8.03 11.46 7.9 11.65C7.77 11.83 7.62 11.99 7.45 12.11C7.26 12.26 7.07 12.41 6.87 12.54C6.67 12.68 6.47 12.8 6.26 12.92C6.05 13.03 5.85 13.14 5.63 13.23C5.42 13.33 5.21 13.41 4.99 13.49C3.55 14.05 3.69 15.32 3.69 15.32L3.8 17.66C3.8 17.66 5.38 18.25 6.82 18.73C7.27 18.81 7.72 18.87 8.18 18.91C8.64 18.95 9.09 18.98 9.55 18.98C10.01 18.98 10.47 18.95 10.92 18.91C11.38 18.87 11.83 18.81 12.29 18.73C13.72 18.25 15.3 17.66 15.3 17.66L15.41 15.32C15.41 15.32 15.56 14.05 14.12 13.49Z" />
		</g>
	</g>
</svg>