<svg xmlns="http://www.w3.org/2000/svg" viewBox="0 0 20 20" width="20" height="20">
	<style>
		tspan { white-space:pre }
		.shp0 { fill: #4bc8f9 } 
		.shp1 { fill: #1e76e3 } 
	</style>
	<path id="Layer" class="shp0" d="M19.58 0.25C19.53 0.2 19.48 0.15 19.42 0.11C19.36 0.08 19.3 0.05 19.23 0.03C19.16 0.01 19.1 0 19.03 0C18.96 0 18.89 0.01 18.82 0.03L14.82 1.18C14.76 1.19 14.69 1.22 14.63 1.26C14.57 1.3 14.52 1.34 14.47 1.39C14.42 1.45 14.38 1.5 14.35 1.57C14.32 1.63 14.29 1.7 14.27 1.77C14.26 1.84 14.25 1.92 14.25 1.99C14.26 2.06 14.27 2.13 14.29 2.2C14.31 2.27 14.34 2.34 14.37 2.4C14.41 2.46 14.45 2.52 14.5 2.57L15.36 3.39L12 6.58L9.96 4.49C9.89 4.42 9.81 4.36 9.72 4.32C9.63 4.28 9.53 4.26 9.44 4.26C9.34 4.26 9.24 4.28 9.15 4.31C9.06 4.35 8.98 4.4 8.91 4.47L0.26 12.66C0.19 12.73 0.12 12.81 0.08 12.91C0.04 13.01 0.01 13.11 0.01 13.22C0 13.33 0.01 13.43 0.05 13.54C0.08 13.64 0.13 13.73 0.2 13.81C0.24 13.85 0.28 13.89 0.32 13.93C0.36 13.96 0.41 13.99 0.46 14.01C0.51 14.04 0.56 14.05 0.62 14.07C0.67 14.08 0.72 14.08 0.78 14.08C0.82 14.08 0.87 14.08 0.92 14.07C0.96 14.06 1.01 14.05 1.05 14.03C1.1 14.01 1.14 13.99 1.18 13.96C1.22 13.94 1.26 13.91 1.29 13.88L9.4 6.19L11.45 8.29C11.52 8.36 11.6 8.41 11.69 8.45C11.78 8.49 11.87 8.51 11.97 8.51C12.07 8.52 12.16 8.5 12.25 8.46C12.34 8.43 12.43 8.37 12.5 8.31L16.5 4.5L17.38 5.35C17.42 5.39 17.46 5.42 17.5 5.45C17.54 5.47 17.58 5.49 17.62 5.51C17.67 5.53 17.71 5.55 17.76 5.55C17.81 5.56 17.86 5.57 17.9 5.57C17.92 5.57 17.94 5.57 17.96 5.57C17.97 5.57 17.99 5.56 18.01 5.56C18.02 5.56 18.04 5.56 18.06 5.55C18.08 5.55 18.09 5.54 18.11 5.54C18.17 5.52 18.23 5.49 18.29 5.46C18.34 5.43 18.4 5.38 18.44 5.34C18.49 5.29 18.53 5.23 18.56 5.17C18.6 5.12 18.62 5.05 18.64 4.99L19.76 1.06C19.78 0.99 19.8 0.91 19.8 0.84C19.8 0.77 19.79 0.7 19.78 0.63C19.76 0.56 19.74 0.49 19.7 0.42C19.67 0.36 19.63 0.3 19.58 0.25Z" />
	<path id="Layer" class="shp1" d="M2.17 14.76L2.17 19.38C2.17 19.46 2.18 19.54 2.21 19.61C2.24 19.68 2.28 19.75 2.33 19.81C2.38 19.86 2.45 19.91 2.51 19.94C2.58 19.97 2.66 19.98 2.73 19.98L5.16 19.98C5.23 19.98 5.3 19.97 5.37 19.94C5.44 19.91 5.51 19.86 5.56 19.81C5.61 19.75 5.65 19.68 5.68 19.61C5.71 19.54 5.72 19.46 5.72 19.38L5.72 11.57C5.72 11.55 5.72 11.52 5.72 11.5C5.72 11.48 5.71 11.46 5.71 11.43C5.7 11.41 5.69 11.39 5.69 11.37C5.68 11.34 5.67 11.32 5.66 11.3L2.17 14.76Z" />
	<path id="Layer" class="shp1" d="M7.58 9.68L7.58 19.38C7.58 19.46 7.59 19.54 7.62 19.61C7.65 19.68 7.69 19.75 7.75 19.81C7.8 19.86 7.86 19.91 7.93 19.94C8 19.97 8.07 19.98 8.15 19.98L10.57 19.98C10.65 19.98 10.72 19.97 10.79 19.94C10.86 19.91 10.92 19.86 10.97 19.81C11.02 19.75 11.07 19.68 11.09 19.61C11.12 19.54 11.14 19.46 11.14 19.38L11.14 10.18L9.13 8.19L7.58 9.68Z" />
	<path id="Layer" class="shp1" d="M12.99 19.36C12.99 19.44 13.01 19.52 13.03 19.59C13.06 19.67 13.1 19.74 13.15 19.79C13.21 19.85 13.27 19.9 13.34 19.93C13.41 19.96 13.48 19.98 13.56 19.98L15.99 19.98C16.06 19.98 16.14 19.96 16.21 19.93C16.27 19.9 16.34 19.85 16.39 19.79C16.44 19.74 16.48 19.67 16.51 19.59C16.54 19.52 16.55 19.44 16.55 19.36L16.55 6.22L13 9.66L12.99 19.36Z" />
</svg>