<svg xmlns="http://www.w3.org/2000/svg" viewBox="0 0 20 20" width="20" height="20">
	<style>
		tspan { white-space:pre }
		.shp0 { fill: #2081e7 } 
		.shp1 { fill: #55cff9 } 
	</style>
	<path id="Layer" fill-rule="evenodd" class="shp0" d="M19.55 8.2C19.64 8.23 19.72 8.29 19.78 8.35C19.85 8.42 19.9 8.49 19.93 8.58C19.97 8.66 19.99 8.76 19.99 8.85L19.99 11.13C19.99 11.22 19.97 11.31 19.94 11.4C19.9 11.48 19.85 11.56 19.78 11.63C19.71 11.7 19.64 11.75 19.55 11.78C19.46 11.82 19.37 11.84 19.28 11.84L17.64 11.84C17.59 12.04 17.53 12.23 17.47 12.42C17.41 12.62 17.34 12.81 17.26 13C17.18 13.18 17.1 13.37 17.01 13.55C16.91 13.73 16.81 13.91 16.71 14.08L17.87 15.24C17.94 15.31 17.99 15.39 18.03 15.48C18.06 15.56 18.08 15.65 18.08 15.75C18.08 15.84 18.06 15.94 18.03 16.02C17.99 16.11 17.94 16.19 17.87 16.25L16.26 17.86C16.19 17.93 16.12 17.98 16.03 18.02C15.94 18.05 15.85 18.07 15.76 18.07C15.66 18.07 15.57 18.05 15.48 18.02C15.4 17.98 15.32 17.93 15.25 17.86L14.09 16.7C13.92 16.81 13.74 16.91 13.56 17C13.38 17.09 13.19 17.18 13.01 17.25C12.82 17.33 12.63 17.4 12.44 17.47C12.24 17.53 12.05 17.58 11.85 17.63L11.85 19.28C11.85 19.37 11.83 19.46 11.8 19.55C11.76 19.64 11.71 19.72 11.64 19.78C11.57 19.85 11.5 19.9 11.41 19.94C11.32 19.97 11.23 19.99 11.14 19.99L8.86 19.99C8.77 19.99 8.67 19.97 8.59 19.94C8.5 19.9 8.42 19.85 8.35 19.78C8.29 19.72 8.24 19.64 8.2 19.55C8.16 19.46 8.14 19.37 8.14 19.28L8.14 17.63C7.95 17.58 7.75 17.53 7.56 17.47C7.37 17.4 7.18 17.33 6.99 17.26C6.8 17.18 6.62 17.09 6.44 17C6.26 16.91 6.08 16.81 5.91 16.71L4.74 17.87C4.67 17.94 4.6 17.99 4.51 18.03C4.42 18.06 4.33 18.08 4.24 18.08C4.14 18.08 4.05 18.06 3.96 18.03C3.88 17.99 3.8 17.94 3.73 17.87L2.12 16.26C2.05 16.2 2 16.12 1.97 16.03C1.93 15.94 1.91 15.85 1.91 15.76C1.91 15.66 1.93 15.57 1.97 15.48C2 15.4 2.05 15.32 2.12 15.25L3.29 14.09C3.21 13.96 3.14 13.83 3.07 13.7C3 13.57 2.93 13.44 2.87 13.31C2.81 13.18 2.75 13.04 2.7 12.9C2.64 12.77 2.59 12.63 2.55 12.49C2.47 12.28 2.41 12.07 2.36 11.85L0.71 11.85C0.62 11.85 0.52 11.83 0.44 11.8C0.35 11.76 0.27 11.71 0.2 11.64C0.14 11.58 0.09 11.5 0.05 11.41C0.01 11.32 -0.01 11.23 -0.01 11.14L-0.01 8.86C-0.01 8.77 0.01 8.67 0.05 8.59C0.09 8.5 0.14 8.42 0.2 8.36C0.27 8.29 0.35 8.24 0.44 8.2C0.52 8.16 0.62 8.15 0.71 8.15L2.35 8.15C2.4 7.95 2.45 7.75 2.51 7.56C2.58 7.36 2.65 7.17 2.72 6.99C2.8 6.8 2.89 6.61 2.98 6.43C3.07 6.25 3.17 6.07 3.27 5.9L2.12 4.75C2.06 4.68 2 4.6 1.97 4.51C1.93 4.43 1.91 4.34 1.91 4.24C1.91 4.15 1.93 4.05 1.97 3.97C2 3.88 2.06 3.8 2.12 3.74L3.73 2.13C3.8 2.06 3.88 2.01 3.97 1.97C4.05 1.94 4.14 1.92 4.24 1.92C4.33 1.92 4.43 1.94 4.51 1.97C4.6 2.01 4.68 2.06 4.74 2.13L5.89 3.27C6.06 3.16 6.24 3.06 6.42 2.97C6.6 2.87 6.79 2.79 6.98 2.71C7.17 2.63 7.36 2.56 7.55 2.5C7.75 2.43 7.95 2.38 8.14 2.33L8.14 0.71C8.14 0.62 8.16 0.53 8.2 0.44C8.24 0.35 8.29 0.28 8.35 0.21C8.42 0.14 8.5 0.09 8.59 0.05C8.67 0.02 8.77 0 8.86 0L11.14 0C11.23 0 11.32 0.02 11.41 0.05C11.5 0.09 11.57 0.14 11.64 0.21C11.71 0.28 11.76 0.35 11.8 0.44C11.83 0.53 11.85 0.62 11.85 0.71L11.85 2.33C12.05 2.38 12.25 2.43 12.44 2.5C12.63 2.56 12.83 2.63 13.02 2.71C13.2 2.79 13.39 2.87 13.57 2.97C13.75 3.06 13.93 3.16 14.11 3.27L15.25 2.12C15.32 2.05 15.4 2 15.49 1.97C15.57 1.93 15.66 1.91 15.76 1.91C15.85 1.91 15.95 1.93 16.03 1.97C16.12 2 16.2 2.05 16.26 2.12L17.87 3.73C17.94 3.8 17.99 3.88 18.03 3.96C18.06 4.05 18.08 4.14 18.08 4.24C18.08 4.33 18.06 4.42 18.03 4.51C17.99 4.59 17.94 4.67 17.87 4.74L16.72 5.9C16.79 6.02 16.87 6.14 16.93 6.27C17 6.4 17.07 6.53 17.13 6.66C17.19 6.79 17.25 6.93 17.3 7.06C17.35 7.2 17.4 7.33 17.45 7.47C17.52 7.69 17.59 7.91 17.64 8.14L19.29 8.14C19.38 8.14 19.47 8.16 19.55 8.2ZM11.47 13.54C11.94 13.35 12.37 13.06 12.73 12.7C13.09 12.34 13.37 11.92 13.57 11.45C13.76 10.98 13.86 10.48 13.86 9.97C13.86 8.4 12.92 6.99 11.47 6.4C10.03 5.8 8.37 6.13 7.26 7.23C6.16 8.34 5.82 10 6.42 11.45C7.02 12.89 8.43 13.83 9.99 13.83C10.5 13.83 11.01 13.73 11.47 13.54Z" />
	<path id="Layer" class="shp1" d="M10 12.75C8.49 12.75 7.26 11.52 7.26 10C7.26 8.48 8.49 7.25 10 7.25C11.52 7.25 12.75 8.48 12.75 10C12.75 11.52 11.52 12.75 10 12.75Z" />
</svg>