<svg xmlns="http://www.w3.org/2000/svg" viewBox="0 0 20 20" width="20" height="20">
	<style>
		tspan { white-space:pre }
		.shp0 { fill: #4bc8f9 } 
		.shp1 { fill: #1e76e3 } 
	</style>
	<g id="Layer">
		<g id="Layer">
			<g id="Layer">
				<path id="Layer" class="shp0" d="M5.13 0C3.67 -0.08 2.31 0.65 1.69 1.84C1.08 3.03 1.33 4.44 2.33 5.39C3.33 6.34 4.87 6.65 6.23 6.17C7.58 5.68 8.47 4.5 8.47 3.19C8.48 2.78 8.41 2.38 8.24 2C8.08 1.62 7.84 1.27 7.53 0.97C7.22 0.68 6.85 0.44 6.44 0.27C6.02 0.11 5.58 0.01 5.13 0L5.13 0Z" />
			</g>
			<path id="Layer" class="shp1" d="M7.34 12.8C7.51 12.24 7.37 11.64 6.97 11.17C6.57 10.71 5.96 10.44 5.31 10.44C4.66 10.44 4.05 10.71 3.65 11.17C3.25 11.64 3.12 12.24 3.28 12.8L0 12.8L0 12.23C0 12.14 0 12.06 0.01 11.97C0.01 11.89 0.02 11.8 0.03 11.72C0.04 11.63 0.05 11.55 0.07 11.46C0.08 11.38 0.1 11.29 0.12 11.21C0.13 11.21 0.14 11.2 0.15 11.2C0.16 11.2 0.17 11.2 0.18 11.2C0.19 11.2 0.2 11.2 0.21 11.19C0.22 11.19 0.23 11.19 0.24 11.19L1.12 11.19C1.15 11.12 1.18 11.05 1.2 10.98C1.23 10.91 1.26 10.84 1.3 10.77C1.33 10.7 1.37 10.63 1.4 10.56C1.44 10.5 1.48 10.43 1.52 10.36L0.89 9.79C0.88 9.78 0.87 9.78 0.86 9.77C0.86 9.76 0.85 9.75 0.84 9.74C0.83 9.73 0.83 9.72 0.82 9.71C0.81 9.7 0.81 9.69 0.8 9.68C0.9 9.54 1.02 9.39 1.13 9.25C1.25 9.12 1.38 8.98 1.52 8.86C1.65 8.73 1.79 8.61 1.94 8.5C2.09 8.39 2.25 8.28 2.41 8.19C2.42 8.19 2.44 8.2 2.45 8.21C2.47 8.21 2.48 8.22 2.49 8.23C2.51 8.23 2.52 8.24 2.53 8.25C2.54 8.26 2.56 8.27 2.57 8.28L3.22 8.87C3.3 8.84 3.37 8.8 3.44 8.77C3.51 8.74 3.59 8.71 3.66 8.68C3.74 8.66 3.82 8.63 3.89 8.61C3.97 8.58 4.05 8.56 4.12 8.54L4.12 7.7C4.12 7.68 4.13 7.67 4.13 7.65C4.13 7.63 4.13 7.61 4.14 7.6C4.14 7.58 4.15 7.56 4.16 7.55C4.16 7.53 4.17 7.52 4.18 7.5C4.28 7.48 4.38 7.46 4.48 7.45C4.58 7.43 4.68 7.42 4.78 7.41C4.88 7.4 4.98 7.39 5.08 7.39C5.19 7.38 5.29 7.38 5.39 7.38L5.72 7.38C5.78 7.38 5.83 7.38 5.89 7.38C5.94 7.38 5.99 7.38 6.05 7.39C6.1 7.39 6.16 7.39 6.21 7.4C6.26 7.4 6.32 7.41 6.37 7.41C6.39 7.43 6.41 7.45 6.43 7.48C6.44 7.5 6.45 7.52 6.47 7.55C6.48 7.57 6.48 7.6 6.49 7.62C6.5 7.65 6.5 7.67 6.5 7.7L6.5 8.54C6.58 8.56 6.65 8.58 6.73 8.61C6.81 8.63 6.88 8.66 6.96 8.68C7.03 8.71 7.11 8.74 7.18 8.77C7.25 8.8 7.33 8.84 7.4 8.87L8.06 8.28C8.1 8.24 8.15 8.21 8.21 8.19C8.27 8.16 8.33 8.15 8.39 8.15C8.45 8.15 8.51 8.16 8.57 8.19C8.63 8.21 8.68 8.24 8.72 8.28L9.74 9.2C9.78 9.23 9.82 9.28 9.84 9.33C9.87 9.38 9.88 9.44 9.88 9.49C9.88 9.55 9.87 9.6 9.84 9.65C9.82 9.7 9.78 9.75 9.74 9.79L9.11 10.36C9.15 10.43 9.19 10.49 9.23 10.56C9.26 10.63 9.3 10.7 9.33 10.77C9.37 10.84 9.4 10.91 9.43 10.98C9.45 11.05 9.48 11.12 9.51 11.19L10.39 11.19C10.45 11.19 10.51 11.2 10.57 11.22C10.62 11.25 10.67 11.28 10.72 11.32C10.76 11.35 10.8 11.4 10.82 11.45C10.84 11.5 10.85 11.56 10.85 11.61L10.85 12.8L7.34 12.8Z" />
		</g>
		<g id="Layer">
			<g id="Layer">
				<path id="Layer" class="shp0" d="M14.04 6.42C12.59 6.34 11.23 7.07 10.61 8.26C9.99 9.45 10.25 10.86 11.25 11.81C12.25 12.76 13.79 13.07 15.15 12.59C16.5 12.1 17.39 10.92 17.39 9.61C17.4 9.2 17.32 8.8 17.16 8.42C17 8.04 16.76 7.69 16.45 7.39C16.14 7.1 15.77 6.86 15.35 6.69C14.94 6.53 14.5 6.43 14.04 6.42L14.04 6.42Z" />
			</g>
			<path id="Layer" class="shp1" d="M16.26 13.8C16.43 14.37 16.29 14.97 15.89 15.43C15.49 15.89 14.88 16.16 14.23 16.16C13.58 16.16 12.97 15.89 12.57 15.43C12.17 14.97 12.03 14.37 12.2 13.8L8.92 13.8L8.92 14.38C8.92 14.46 8.92 14.55 8.92 14.63C8.93 14.72 8.94 14.8 8.95 14.89C8.96 14.98 8.97 15.06 8.98 15.15C9 15.23 9.02 15.31 9.04 15.4C9.05 15.4 9.06 15.4 9.07 15.41C9.08 15.41 9.09 15.41 9.1 15.41C9.11 15.41 9.12 15.41 9.13 15.41C9.14 15.41 9.15 15.41 9.16 15.41L10.04 15.41C10.07 15.49 10.09 15.56 10.12 15.63C10.15 15.7 10.18 15.77 10.21 15.84C10.25 15.91 10.28 15.98 10.32 16.04C10.36 16.11 10.4 16.18 10.44 16.24L9.81 16.81C9.8 16.82 9.79 16.83 9.78 16.84C9.77 16.85 9.77 16.85 9.76 16.86C9.75 16.87 9.74 16.88 9.74 16.89C9.73 16.9 9.73 16.91 9.72 16.92C9.82 17.07 9.93 17.21 10.05 17.35C10.17 17.49 10.3 17.62 10.43 17.75C10.57 17.87 10.71 17.99 10.86 18.11C11.01 18.22 11.17 18.32 11.33 18.42C11.34 18.41 11.36 18.41 11.37 18.4C11.39 18.4 11.4 18.39 11.41 18.38C11.43 18.37 11.44 18.36 11.45 18.35C11.46 18.35 11.47 18.34 11.49 18.33L12.14 17.73C12.21 17.77 12.28 17.8 12.36 17.83C12.43 17.86 12.5 17.89 12.58 17.92C12.65 17.95 12.73 17.97 12.81 18C12.88 18.02 12.96 18.04 13.04 18.06L13.04 18.9C13.04 18.92 13.04 18.93 13.04 18.95C13.05 18.97 13.05 18.99 13.05 19C13.06 19.02 13.06 19.04 13.07 19.05C13.08 19.07 13.09 19.08 13.1 19.1C13.19 19.12 13.29 19.14 13.39 19.15C13.49 19.17 13.6 19.18 13.7 19.19C13.8 19.2 13.9 19.21 14 19.21C14.1 19.22 14.2 19.22 14.3 19.22L14.64 19.22C14.69 19.22 14.75 19.22 14.8 19.22C14.85 19.22 14.91 19.22 14.96 19.21C15.02 19.21 15.07 19.21 15.13 19.2C15.18 19.2 15.23 19.19 15.29 19.19C15.31 19.17 15.33 19.15 15.34 19.12C15.36 19.1 15.37 19.08 15.38 19.05C15.39 19.03 15.4 19 15.41 18.98C15.41 18.95 15.42 18.93 15.42 18.9L15.42 18.06C15.49 18.04 15.57 18.02 15.65 18C15.73 17.97 15.8 17.95 15.88 17.92C15.95 17.89 16.03 17.86 16.1 17.83C16.17 17.8 16.25 17.77 16.32 17.73L16.97 18.32C17.02 18.36 17.07 18.39 17.13 18.42C17.18 18.44 17.25 18.45 17.31 18.45C17.37 18.45 17.43 18.44 17.49 18.42C17.55 18.39 17.6 18.36 17.64 18.32L18.66 17.41C18.7 17.37 18.74 17.32 18.76 17.27C18.78 17.22 18.8 17.16 18.8 17.11C18.8 17.05 18.78 17 18.76 16.95C18.74 16.9 18.7 16.85 18.66 16.81L18.02 16.24C18.06 16.17 18.1 16.11 18.14 16.04C18.17 15.97 18.21 15.9 18.24 15.83C18.28 15.77 18.31 15.7 18.34 15.62C18.37 15.55 18.39 15.48 18.42 15.41L19.3 15.41C19.36 15.41 19.42 15.4 19.48 15.38C19.54 15.36 19.59 15.33 19.63 15.29C19.67 15.25 19.71 15.2 19.73 15.15C19.75 15.1 19.77 15.05 19.77 14.99L19.77 13.8L16.26 13.8Z" />
		</g>
	</g>
</svg>